<?xml version="1.0" encoding="UTF-8" standalone="no"?>
<!DOCTYPE svg PUBLIC "-//W3C//DTD SVG 1.1//EN"
 "http://www.w3.org/Graphics/SVG/1.1/DTD/svg11.dtd">
<!-- Generated by graphviz version 2.44.1 (20200629.0846)
 -->
<!-- Title: dependency&#45;cruiser output Pages: 1 -->
<svg width="738pt" height="1635pt"
 viewBox="0.00 0.00 738.00 1634.57" xmlns="http://www.w3.org/2000/svg" xmlns:xlink="http://www.w3.org/1999/xlink">
<g id="graph0" class="graph" transform="scale(1 1) rotate(0) translate(4 1630.57)">
<title>dependency&#45;cruiser output</title>
<polygon fill="white" stroke="transparent" points="-4,4 -4,-1630.57 734,-1630.57 734,4 -4,4"/>
<g id="clust1" class="cluster">
<title>cluster_config</title>
<path fill="#ffffff" stroke="black" stroke-width="2" d="M120.5,-1555.38C120.5,-1555.38 166.5,-1555.38 166.5,-1555.38 172.5,-1555.38 178.5,-1561.38 178.5,-1567.38 178.5,-1567.38 178.5,-1595.38 178.5,-1595.38 178.5,-1601.38 172.5,-1607.38 166.5,-1607.38 166.5,-1607.38 120.5,-1607.38 120.5,-1607.38 114.5,-1607.38 108.5,-1601.38 108.5,-1595.38 108.5,-1595.38 108.5,-1567.38 108.5,-1567.38 108.5,-1561.38 114.5,-1555.38 120.5,-1555.38"/>
<text text-anchor="middle" x="143.5" y="-1596.18" font-family="Helvetica,sans-Serif" font-weight="bold" font-size="9.00">config</text>
</g>
<g id="clust2" class="cluster">
<title>cluster_src</title>
<path fill="#ffffff" stroke="black" stroke-width="2" d="M20,-25.38C20,-25.38 710,-25.38 710,-25.38 716,-25.38 722,-31.38 722,-37.38 722,-37.38 722,-1535.38 722,-1535.38 722,-1541.38 716,-1547.38 710,-1547.38 710,-1547.38 20,-1547.38 20,-1547.38 14,-1547.38 8,-1541.38 8,-1535.38 8,-1535.38 8,-37.38 8,-37.38 8,-31.38 14,-25.38 20,-25.38"/>
<text text-anchor="middle" x="365" y="-1536.18" font-family="Helvetica,sans-Serif" font-weight="bold" font-size="9.00">src</text>
</g>
<g id="clust3" class="cluster">
<title>cluster_src/client</title>
<path fill="#ffffff" stroke="black" stroke-width="2" d="M120.5,-43.38C120.5,-43.38 166.5,-43.38 166.5,-43.38 172.5,-43.38 178.5,-49.38 178.5,-55.38 178.5,-55.38 178.5,-83.38 178.5,-83.38 178.5,-89.38 172.5,-95.38 166.5,-95.38 166.5,-95.38 120.5,-95.38 120.5,-95.38 114.5,-95.38 108.5,-89.38 108.5,-83.38 108.5,-83.38 108.5,-55.38 108.5,-55.38 108.5,-49.38 114.5,-43.38 120.5,-43.38"/>
<text text-anchor="middle" x="143.5" y="-84.18" font-family="Helvetica,sans-Serif" font-weight="bold" font-size="9.00">client</text>
</g>
<g id="clust4" class="cluster">
<title>cluster_src/server</title>
<path fill="#ffffff" stroke="black" stroke-width="2" d="M28,-1345.38C28,-1345.38 272.5,-1345.38 272.5,-1345.38 278.5,-1345.38 284.5,-1351.38 284.5,-1357.38 284.5,-1357.38 284.5,-1509.38 284.5,-1509.38 284.5,-1515.38 278.5,-1521.38 272.5,-1521.38 272.5,-1521.38 28,-1521.38 28,-1521.38 22,-1521.38 16,-1515.38 16,-1509.38 16,-1509.38 16,-1357.38 16,-1357.38 16,-1351.38 22,-1345.38 28,-1345.38"/>
<text text-anchor="middle" x="150.25" y="-1510.18" font-family="Helvetica,sans-Serif" font-weight="bold" font-size="9.00">server</text>
</g>
<g id="clust5" class="cluster">
<title>cluster_src/server/components</title>
<path fill="#ffffff" stroke="black" stroke-width="2" d="M218.5,-1353.38C218.5,-1353.38 264.5,-1353.38 264.5,-1353.38 270.5,-1353.38 276.5,-1359.38 276.5,-1365.38 276.5,-1365.38 276.5,-1393.38 276.5,-1393.38 276.5,-1399.38 270.5,-1405.38 264.5,-1405.38 264.5,-1405.38 218.5,-1405.38 218.5,-1405.38 212.5,-1405.38 206.5,-1399.38 206.5,-1393.38 206.5,-1393.38 206.5,-1365.38 206.5,-1365.38 206.5,-1359.38 212.5,-1353.38 218.5,-1353.38"/>
<text text-anchor="middle" x="241.5" y="-1394.18" font-family="Helvetica,sans-Serif" font-weight="bold" font-size="9.00">components</text>
</g>
<g id="clust6" class="cluster">
<title>cluster_src/server/middlewares</title>
<path fill="#ffffff" stroke="black" stroke-width="2" d="M100.5,-1353.38C100.5,-1353.38 186.5,-1353.38 186.5,-1353.38 192.5,-1353.38 198.5,-1359.38 198.5,-1365.38 198.5,-1365.38 198.5,-1483.38 198.5,-1483.38 198.5,-1489.38 192.5,-1495.38 186.5,-1495.38 186.5,-1495.38 100.5,-1495.38 100.5,-1495.38 94.5,-1495.38 88.5,-1489.38 88.5,-1483.38 88.5,-1483.38 88.5,-1365.38 88.5,-1365.38 88.5,-1359.38 94.5,-1353.38 100.5,-1353.38"/>
<text text-anchor="middle" x="143.5" y="-1484.18" font-family="Helvetica,sans-Serif" font-weight="bold" font-size="9.00">middlewares</text>
</g>
<g id="clust7" class="cluster">
<title>cluster_src/shared</title>
<path fill="#ffffff" stroke="black" stroke-width="2" d="M116,-103.38C116,-103.38 702,-103.38 702,-103.38 708,-103.38 714,-109.38 714,-115.38 714,-115.38 714,-1325.38 714,-1325.38 714,-1331.38 708,-1337.38 702,-1337.38 702,-1337.38 116,-1337.38 116,-1337.38 110,-1337.38 104,-1331.38 104,-1325.38 104,-1325.38 104,-115.38 104,-115.38 104,-109.38 110,-103.38 116,-103.38"/>
<text text-anchor="middle" x="409" y="-1326.18" font-family="Helvetica,sans-Serif" font-weight="bold" font-size="9.00">shared</text>
</g>
<g id="clust8" class="cluster">
<title>cluster_src/shared/assets</title>
<path fill="#ffffff" stroke="black" stroke-width="2" d="M423.5,-429.38C423.5,-429.38 479.5,-429.38 479.5,-429.38 485.5,-429.38 491.5,-435.38 491.5,-441.38 491.5,-441.38 491.5,-499.38 491.5,-499.38 491.5,-505.38 485.5,-511.38 479.5,-511.38 479.5,-511.38 423.5,-511.38 423.5,-511.38 417.5,-511.38 411.5,-505.38 411.5,-499.38 411.5,-499.38 411.5,-441.38 411.5,-441.38 411.5,-435.38 417.5,-429.38 423.5,-429.38"/>
<text text-anchor="middle" x="451.5" y="-500.18" font-family="Helvetica,sans-Serif" font-weight="bold" font-size="9.00">assets</text>
</g>
<g id="clust9" class="cluster">
<title>cluster_src/shared/components</title>
<path fill="#ffffff" stroke="black" stroke-width="2" d="M304.5,-519.38C304.5,-519.38 694,-519.38 694,-519.38 700,-519.38 706,-525.38 706,-531.38 706,-531.38 706,-965.38 706,-965.38 706,-971.38 700,-977.38 694,-977.38 694,-977.38 304.5,-977.38 304.5,-977.38 298.5,-977.38 292.5,-971.38 292.5,-965.38 292.5,-965.38 292.5,-531.38 292.5,-531.38 292.5,-525.38 298.5,-519.38 304.5,-519.38"/>
<text text-anchor="middle" x="499.25" y="-966.18" font-family="Helvetica,sans-Serif" font-weight="bold" font-size="9.00">components</text>
</g>
<g id="clust10" class="cluster">
<title>cluster_src/shared/components/molecules</title>
<path fill="#ffffff" stroke="black" stroke-width="2" d="M406.5,-835.38C406.5,-835.38 686,-835.38 686,-835.38 692,-835.38 698,-841.38 698,-847.38 698,-847.38 698,-939.38 698,-939.38 698,-945.38 692,-951.38 686,-951.38 686,-951.38 406.5,-951.38 406.5,-951.38 400.5,-951.38 394.5,-945.38 394.5,-939.38 394.5,-939.38 394.5,-847.38 394.5,-847.38 394.5,-841.38 400.5,-835.38 406.5,-835.38"/>
<text text-anchor="middle" x="546.25" y="-940.18" font-family="Helvetica,sans-Serif" font-weight="bold" font-size="9.00">molecules</text>
</g>
<g id="clust11" class="cluster">
<title>cluster_src/shared/components/molecules/Menu</title>
<path fill="#ffffff" stroke="black" stroke-width="2" d="M414.5,-843.38C414.5,-843.38 678,-843.38 678,-843.38 684,-843.38 690,-849.38 690,-855.38 690,-855.38 690,-913.38 690,-913.38 690,-919.38 684,-925.38 678,-925.38 678,-925.38 414.5,-925.38 414.5,-925.38 408.5,-925.38 402.5,-919.38 402.5,-913.38 402.5,-913.38 402.5,-855.38 402.5,-855.38 402.5,-849.38 408.5,-843.38 414.5,-843.38"/>
<text text-anchor="middle" x="546.25" y="-914.18" font-family="Helvetica,sans-Serif" font-weight="bold" font-size="9.00">Menu</text>
</g>
<g id="clust12" class="cluster">
<title>cluster_src/shared/components/organisms</title>
<path fill="#ffffff" stroke="black" stroke-width="2" d="M419.5,-741.38C419.5,-741.38 483.5,-741.38 483.5,-741.38 489.5,-741.38 495.5,-747.38 495.5,-753.38 495.5,-753.38 495.5,-815.38 495.5,-815.38 495.5,-821.38 489.5,-827.38 483.5,-827.38 483.5,-827.38 419.5,-827.38 419.5,-827.38 413.5,-827.38 407.5,-821.38 407.5,-815.38 407.5,-815.38 407.5,-753.38 407.5,-753.38 407.5,-747.38 413.5,-741.38 419.5,-741.38"/>
<text text-anchor="middle" x="451.5" y="-816.18" font-family="Helvetica,sans-Serif" font-weight="bold" font-size="9.00">organisms</text>
</g>
<g id="clust13" class="cluster">
<title>cluster_src/shared/components/organisms/LocaleSelect</title>
<path fill="#ffffff" stroke="black" stroke-width="2" d="M427.5,-749.38C427.5,-749.38 475.5,-749.38 475.5,-749.38 481.5,-749.38 487.5,-755.38 487.5,-761.38 487.5,-761.38 487.5,-789.38 487.5,-789.38 487.5,-795.38 481.5,-801.38 475.5,-801.38 475.5,-801.38 427.5,-801.38 427.5,-801.38 421.5,-801.38 415.5,-795.38 415.5,-789.38 415.5,-789.38 415.5,-761.38 415.5,-761.38 415.5,-755.38 421.5,-749.38 427.5,-749.38"/>
<text text-anchor="middle" x="451.5" y="-790.18" font-family="Helvetica,sans-Serif" font-weight="bold" font-size="9.00">LocaleSelect</text>
</g>
<g id="clust14" class="cluster">
<title>cluster_src/shared/components/sections</title>
<path fill="#ffffff" stroke="black" stroke-width="2" d="M312.5,-527.38C312.5,-527.38 485.5,-527.38 485.5,-527.38 491.5,-527.38 497.5,-533.38 497.5,-539.38 497.5,-539.38 497.5,-721.38 497.5,-721.38 497.5,-727.38 491.5,-733.38 485.5,-733.38 485.5,-733.38 312.5,-733.38 312.5,-733.38 306.5,-733.38 300.5,-727.38 300.5,-721.38 300.5,-721.38 300.5,-539.38 300.5,-539.38 300.5,-533.38 306.5,-527.38 312.5,-527.38"/>
<text text-anchor="middle" x="399" y="-722.18" font-family="Helvetica,sans-Serif" font-weight="bold" font-size="9.00">sections</text>
</g>
<g id="clust15" class="cluster">
<title>cluster_src/shared/components/sections/Content</title>
<path fill="#ffffff" stroke="black" stroke-width="2" d="M320.5,-655.38C320.5,-655.38 477.5,-655.38 477.5,-655.38 483.5,-655.38 489.5,-661.38 489.5,-667.38 489.5,-667.38 489.5,-695.38 489.5,-695.38 489.5,-701.38 483.5,-707.38 477.5,-707.38 477.5,-707.38 320.5,-707.38 320.5,-707.38 314.5,-707.38 308.5,-701.38 308.5,-695.38 308.5,-695.38 308.5,-667.38 308.5,-667.38 308.5,-661.38 314.5,-655.38 320.5,-655.38"/>
<text text-anchor="middle" x="399" y="-696.18" font-family="Helvetica,sans-Serif" font-weight="bold" font-size="9.00">Content</text>
</g>
<g id="clust17" class="cluster">
<title>cluster_src/shared/components/sections/Header</title>
<path fill="#ffffff" stroke="black" stroke-width="2" d="M320.5,-595.38C320.5,-595.38 477.5,-595.38 477.5,-595.38 483.5,-595.38 489.5,-601.38 489.5,-607.38 489.5,-607.38 489.5,-635.38 489.5,-635.38 489.5,-641.38 483.5,-647.38 477.5,-647.38 477.5,-647.38 320.5,-647.38 320.5,-647.38 314.5,-647.38 308.5,-641.38 308.5,-635.38 308.5,-635.38 308.5,-607.38 308.5,-607.38 308.5,-601.38 314.5,-595.38 320.5,-595.38"/>
<text text-anchor="middle" x="399" y="-636.18" font-family="Helvetica,sans-Serif" font-weight="bold" font-size="9.00">Header</text>
</g>
<g id="clust16" class="cluster">
<title>cluster_src/shared/components/sections/Footer</title>
<path fill="#ffffff" stroke="black" stroke-width="2" d="M320.5,-535.38C320.5,-535.38 477.5,-535.38 477.5,-535.38 483.5,-535.38 489.5,-541.38 489.5,-547.38 489.5,-547.38 489.5,-575.38 489.5,-575.38 489.5,-581.38 483.5,-587.38 477.5,-587.38 477.5,-587.38 320.5,-587.38 320.5,-587.38 314.5,-587.38 308.5,-581.38 308.5,-575.38 308.5,-575.38 308.5,-547.38 308.5,-547.38 308.5,-541.38 314.5,-535.38 320.5,-535.38"/>
<text text-anchor="middle" x="399" y="-576.18" font-family="Helvetica,sans-Serif" font-weight="bold" font-size="9.00">Footer</text>
</g>
<g id="clust18" class="cluster">
<title>cluster_src/shared/lib</title>
<path fill="#ffffff" stroke="black" stroke-width="2" d="M402,-111.38C402,-111.38 691,-111.38 691,-111.38 697,-111.38 703,-117.38 703,-123.38 703,-123.38 703,-409.38 703,-409.38 703,-415.38 697,-421.38 691,-421.38 691,-421.38 402,-421.38 402,-421.38 396,-421.38 390,-415.38 390,-409.38 390,-409.38 390,-123.38 390,-123.38 390,-117.38 396,-111.38 402,-111.38"/>
<text text-anchor="middle" x="546.5" y="-410.18" font-family="Helvetica,sans-Serif" font-weight="bold" font-size="9.00">lib</text>
</g>
<g id="clust19" class="cluster">
<title>cluster_src/shared/lib/i18n</title>
<path fill="#ffffff" stroke="black" stroke-width="2" d="M410,-283.38C410,-283.38 593.5,-283.38 593.5,-283.38 599.5,-283.38 605.5,-289.38 605.5,-295.38 605.5,-295.38 605.5,-383.38 605.5,-383.38 605.5,-389.38 599.5,-395.38 593.5,-395.38 593.5,-395.38 410,-395.38 410,-395.38 404,-395.38 398,-389.38 398,-383.38 398,-383.38 398,-295.38 398,-295.38 398,-289.38 404,-283.38 410,-283.38"/>
<text text-anchor="middle" x="501.75" y="-384.18" font-family="Helvetica,sans-Serif" font-weight="bold" font-size="9.00">i18n</text>
</g>
<g id="clust20" class="cluster">
<title>cluster_src/shared/lib/store</title>
<path fill="#ffffff" stroke="black" stroke-width="2" d="M416.5,-119.38C416.5,-119.38 683,-119.38 683,-119.38 689,-119.38 695,-125.38 695,-131.38 695,-131.38 695,-263.38 695,-263.38 695,-269.38 689,-275.38 683,-275.38 683,-275.38 416.5,-275.38 416.5,-275.38 410.5,-275.38 404.5,-269.38 404.5,-263.38 404.5,-263.38 404.5,-131.38 404.5,-131.38 404.5,-125.38 410.5,-119.38 416.5,-119.38"/>
<text text-anchor="middle" x="549.75" y="-264.18" font-family="Helvetica,sans-Serif" font-weight="bold" font-size="9.00">store</text>
</g>
<g id="clust21" class="cluster">
<title>cluster_src/shared/lib/store/app</title>
<path fill="#ffffff" stroke="black" stroke-width="2" d="M424.5,-153.38C424.5,-153.38 675,-153.38 675,-153.38 681,-153.38 687,-159.38 687,-165.38 687,-165.38 687,-237.38 687,-237.38 687,-243.38 681,-249.38 675,-249.38 675,-249.38 424.5,-249.38 424.5,-249.38 418.5,-249.38 412.5,-243.38 412.5,-237.38 412.5,-237.38 412.5,-165.38 412.5,-165.38 412.5,-159.38 418.5,-153.38 424.5,-153.38"/>
<text text-anchor="middle" x="549.75" y="-238.18" font-family="Helvetica,sans-Serif" font-weight="bold" font-size="9.00">app</text>
</g>
<g id="clust22" class="cluster">
<title>cluster_src/shared/pages</title>
<path fill="#ffffff" stroke="black" stroke-width="2" d="M539.5,-985.38C539.5,-985.38 601.5,-985.38 601.5,-985.38 607.5,-985.38 613.5,-991.38 613.5,-997.38 613.5,-997.38 613.5,-1299.38 613.5,-1299.38 613.5,-1305.38 607.5,-1311.38 601.5,-1311.38 601.5,-1311.38 539.5,-1311.38 539.5,-1311.38 533.5,-1311.38 527.5,-1305.38 527.5,-1299.38 527.5,-1299.38 527.5,-997.38 527.5,-997.38 527.5,-991.38 533.5,-985.38 539.5,-985.38"/>
<text text-anchor="middle" x="570.5" y="-1300.18" font-family="Helvetica,sans-Serif" font-weight="bold" font-size="9.00">pages</text>
</g>
<g id="clust23" class="cluster">
<title>cluster_src/shared/pages/404</title>
<path fill="#ffffff" stroke="black" stroke-width="2" d="M547.5,-1233.38C547.5,-1233.38 593.5,-1233.38 593.5,-1233.38 599.5,-1233.38 605.5,-1239.38 605.5,-1245.38 605.5,-1245.38 605.5,-1273.38 605.5,-1273.38 605.5,-1279.38 599.5,-1285.38 593.5,-1285.38 593.5,-1285.38 547.5,-1285.38 547.5,-1285.38 541.5,-1285.38 535.5,-1279.38 535.5,-1273.38 535.5,-1273.38 535.5,-1245.38 535.5,-1245.38 535.5,-1239.38 541.5,-1233.38 547.5,-1233.38"/>
<text text-anchor="middle" x="570.5" y="-1274.18" font-family="Helvetica,sans-Serif" font-weight="bold" font-size="9.00">404</text>
</g>
<g id="clust24" class="cluster">
<title>cluster_src/shared/pages/home</title>
<path fill="#ffffff" stroke="black" stroke-width="2" d="M547.5,-1173.38C547.5,-1173.38 593.5,-1173.38 593.5,-1173.38 599.5,-1173.38 605.5,-1179.38 605.5,-1185.38 605.5,-1185.38 605.5,-1213.38 605.5,-1213.38 605.5,-1219.38 599.5,-1225.38 593.5,-1225.38 593.5,-1225.38 547.5,-1225.38 547.5,-1225.38 541.5,-1225.38 535.5,-1219.38 535.5,-1213.38 535.5,-1213.38 535.5,-1185.38 535.5,-1185.38 535.5,-1179.38 541.5,-1173.38 547.5,-1173.38"/>
<text text-anchor="middle" x="570.5" y="-1214.18" font-family="Helvetica,sans-Serif" font-weight="bold" font-size="9.00">home</text>
</g>
<g id="clust25" class="cluster">
<title>cluster_src/shared/pages/page&#45;1</title>
<path fill="#ffffff" stroke="black" stroke-width="2" d="M547.5,-1113.38C547.5,-1113.38 593.5,-1113.38 593.5,-1113.38 599.5,-1113.38 605.5,-1119.38 605.5,-1125.38 605.5,-1125.38 605.5,-1153.38 605.5,-1153.38 605.5,-1159.38 599.5,-1165.38 593.5,-1165.38 593.5,-1165.38 547.5,-1165.38 547.5,-1165.38 541.5,-1165.38 535.5,-1159.38 535.5,-1153.38 535.5,-1153.38 535.5,-1125.38 535.5,-1125.38 535.5,-1119.38 541.5,-1113.38 547.5,-1113.38"/>
<text text-anchor="middle" x="570.5" y="-1154.18" font-family="Helvetica,sans-Serif" font-weight="bold" font-size="9.00">page&#45;1</text>
</g>
<g id="clust26" class="cluster">
<title>cluster_src/shared/pages/page&#45;2</title>
<path fill="#ffffff" stroke="black" stroke-width="2" d="M547.5,-1053.38C547.5,-1053.38 593.5,-1053.38 593.5,-1053.38 599.5,-1053.38 605.5,-1059.38 605.5,-1065.38 605.5,-1065.38 605.5,-1093.38 605.5,-1093.38 605.5,-1099.38 599.5,-1105.38 593.5,-1105.38 593.5,-1105.38 547.5,-1105.38 547.5,-1105.38 541.5,-1105.38 535.5,-1099.38 535.5,-1093.38 535.5,-1093.38 535.5,-1065.38 535.5,-1065.38 535.5,-1059.38 541.5,-1053.38 547.5,-1053.38"/>
<text text-anchor="middle" x="570.5" y="-1094.18" font-family="Helvetica,sans-Serif" font-weight="bold" font-size="9.00">page&#45;2</text>
</g>
<g id="clust27" class="cluster">
<title>cluster_src/shared/pages/page&#45;3</title>
<path fill="#ffffff" stroke="black" stroke-width="2" d="M547.5,-993.38C547.5,-993.38 593.5,-993.38 593.5,-993.38 599.5,-993.38 605.5,-999.38 605.5,-1005.38 605.5,-1005.38 605.5,-1033.38 605.5,-1033.38 605.5,-1039.38 599.5,-1045.38 593.5,-1045.38 593.5,-1045.38 547.5,-1045.38 547.5,-1045.38 541.5,-1045.38 535.5,-1039.38 535.5,-1033.38 535.5,-1033.38 535.5,-1005.38 535.5,-1005.38 535.5,-999.38 541.5,-993.38 547.5,-993.38"/>
<text text-anchor="middle" x="570.5" y="-1034.18" font-family="Helvetica,sans-Serif" font-weight="bold" font-size="9.00">page&#45;3</text>
</g>
<g id="clust28" class="cluster">
<title>cluster_src/shared/routes</title>
<path fill="#ffffff" stroke="black" stroke-width="2" d="M315,-1053.38C315,-1053.38 474.5,-1053.38 474.5,-1053.38 480.5,-1053.38 486.5,-1059.38 486.5,-1065.38 486.5,-1065.38 486.5,-1093.38 486.5,-1093.38 486.5,-1099.38 480.5,-1105.38 474.5,-1105.38 474.5,-1105.38 315,-1105.38 315,-1105.38 309,-1105.38 303,-1099.38 303,-1093.38 303,-1093.38 303,-1065.38 303,-1065.38 303,-1059.38 309,-1053.38 315,-1053.38"/>
<text text-anchor="middle" x="394.75" y="-1094.18" font-family="Helvetica,sans-Serif" font-weight="bold" font-size="9.00">routes</text>
</g>
<!-- config/paths.ts -->
<g id="node1" class="node">
<title>config/paths.ts</title>
<g id="a_node1"><a xlink:href="config/paths.ts" xlink:title="paths.ts">
<path fill="#ddfeff" stroke="black" d="M164.5,-1581.38C164.5,-1581.38 122.5,-1581.38 122.5,-1581.38 119.5,-1581.38 116.5,-1578.38 116.5,-1575.38 116.5,-1575.38 116.5,-1569.38 116.5,-1569.38 116.5,-1566.38 119.5,-1563.38 122.5,-1563.38 122.5,-1563.38 164.5,-1563.38 164.5,-1563.38 167.5,-1563.38 170.5,-1566.38 170.5,-1569.38 170.5,-1569.38 170.5,-1575.38 170.5,-1575.38 170.5,-1578.38 167.5,-1581.38 164.5,-1581.38"/>
<text text-anchor="middle" x="143.5" y="-1570.18" font-family="Helvetica,sans-Serif" font-size="9.00">paths.ts</text>
</a>
</g>
</g>
<!-- fs -->
<g id="node2" class="node">
<title>fs</title>
<path fill="#ffffcc" stroke="grey" d="M262.5,-1573.38C262.5,-1573.38 220.5,-1573.38 220.5,-1573.38 217.5,-1573.38 214.5,-1570.38 214.5,-1567.38 214.5,-1567.38 214.5,-1561.38 214.5,-1561.38 214.5,-1558.38 217.5,-1555.38 220.5,-1555.38 220.5,-1555.38 262.5,-1555.38 262.5,-1555.38 265.5,-1555.38 268.5,-1558.38 268.5,-1561.38 268.5,-1561.38 268.5,-1567.38 268.5,-1567.38 268.5,-1570.38 265.5,-1573.38 262.5,-1573.38"/>
<text text-anchor="middle" x="241.5" y="-1562.18" font-family="Helvetica,sans-Serif" font-size="9.00" fill="grey">fs</text>
</g>
<!-- config/paths.ts&#45;&gt;fs -->
<g id="edge1" class="edge">
<title>config/paths.ts&#45;&gt;fs</title>
<path fill="none" stroke="#000000" stroke-dasharray="5,2" stroke-opacity="0.200000" d="M170.73,-1570.19C182.27,-1569.23 195.93,-1568.09 208.09,-1567.08"/>
<polygon fill="#000000" fill-opacity="0.200000" stroke="#000000" stroke-opacity="0.200000" points="208.49,-1569.15 214.3,-1566.56 208.15,-1564.97 208.49,-1569.15"/>
</g>
<!-- path -->
<g id="node3" class="node">
<title>path</title>
<path fill="#ffffcc" stroke="grey" d="M262.5,-1603.38C262.5,-1603.38 220.5,-1603.38 220.5,-1603.38 217.5,-1603.38 214.5,-1600.38 214.5,-1597.38 214.5,-1597.38 214.5,-1591.38 214.5,-1591.38 214.5,-1588.38 217.5,-1585.38 220.5,-1585.38 220.5,-1585.38 262.5,-1585.38 262.5,-1585.38 265.5,-1585.38 268.5,-1588.38 268.5,-1591.38 268.5,-1591.38 268.5,-1597.38 268.5,-1597.38 268.5,-1600.38 265.5,-1603.38 262.5,-1603.38"/>
<text text-anchor="middle" x="241.5" y="-1592.18" font-family="Helvetica,sans-Serif" font-size="9.00" fill="grey">path</text>
</g>
<!-- config/paths.ts&#45;&gt;path -->
<g id="edge2" class="edge">
<title>config/paths.ts&#45;&gt;path</title>
<path fill="none" stroke="#000000" stroke-dasharray="5,2" stroke-opacity="0.200000" d="M170.73,-1578.39C182.37,-1581.06 196.18,-1584.22 208.43,-1587.03"/>
<polygon fill="#000000" fill-opacity="0.200000" stroke="#000000" stroke-opacity="0.200000" points="207.98,-1589.08 214.3,-1588.37 208.92,-1584.98 207.98,-1589.08"/>
</g>
<!-- src/client/index.tsx -->
<g id="node4" class="node">
<title>src/client/index.tsx</title>
<g id="a_node4"><a xlink:href="src/client/index.tsx" xlink:title="index.tsx">
<path fill="#bbfeff" stroke="black" d="M164.5,-69.38C164.5,-69.38 122.5,-69.38 122.5,-69.38 119.5,-69.38 116.5,-66.38 116.5,-63.38 116.5,-63.38 116.5,-57.38 116.5,-57.38 116.5,-54.38 119.5,-51.38 122.5,-51.38 122.5,-51.38 164.5,-51.38 164.5,-51.38 167.5,-51.38 170.5,-54.38 170.5,-57.38 170.5,-57.38 170.5,-63.38 170.5,-63.38 170.5,-66.38 167.5,-69.38 164.5,-69.38"/>
<text text-anchor="middle" x="143.5" y="-58.18" font-family="Helvetica,sans-Serif" font-size="9.00">index.tsx</text>
</a>
</g>
</g>
<!-- src/shared/App.tsx -->
<g id="node5" class="node">
<title>src/shared/App.tsx</title>
<g id="a_node5"><a xlink:href="src/shared/App.tsx" xlink:title="App.tsx">
<path fill="#bbfeff" stroke="black" d="M262.5,-561.38C262.5,-561.38 220.5,-561.38 220.5,-561.38 217.5,-561.38 214.5,-558.38 214.5,-555.38 214.5,-555.38 214.5,-549.38 214.5,-549.38 214.5,-546.38 217.5,-543.38 220.5,-543.38 220.5,-543.38 262.5,-543.38 262.5,-543.38 265.5,-543.38 268.5,-546.38 268.5,-549.38 268.5,-549.38 268.5,-555.38 268.5,-555.38 268.5,-558.38 265.5,-561.38 262.5,-561.38"/>
<text text-anchor="middle" x="241.5" y="-550.18" font-family="Helvetica,sans-Serif" font-size="9.00">App.tsx</text>
</a>
</g>
</g>
<!-- src/client/index.tsx&#45;&gt;src/shared/App.tsx -->
<g id="edge3" class="edge">
<title>src/client/index.tsx&#45;&gt;src/shared/App.tsx</title>
<path fill="none" stroke="#000000" stroke-width="2" stroke-opacity="0.200000" d="M164.3,-69.43C176.45,-76.13 191.06,-86.49 198.5,-100.38 206.85,-115.97 205.04,-241.75 206.5,-259.38 215.37,-366.17 232.46,-494.15 238.4,-537.32"/>
<polygon fill="#000000" fill-opacity="0.200000" stroke="#000000" stroke-width="2" stroke-opacity="0.200000" points="236.32,-537.63 239.23,-543.28 240.48,-537.05 236.32,-537.63"/>
</g>
<!-- src/shared/lib/i18n/index.tsx -->
<g id="node6" class="node">
<title>src/shared/lib/i18n/index.tsx</title>
<g id="a_node6"><a xlink:href="src/shared/lib/i18n/index.tsx" xlink:title="index.tsx">
<path fill="#bbfeff" stroke="black" d="M472.5,-369.38C472.5,-369.38 430.5,-369.38 430.5,-369.38 427.5,-369.38 424.5,-366.38 424.5,-363.38 424.5,-363.38 424.5,-357.38 424.5,-357.38 424.5,-354.38 427.5,-351.38 430.5,-351.38 430.5,-351.38 472.5,-351.38 472.5,-351.38 475.5,-351.38 478.5,-354.38 478.5,-357.38 478.5,-357.38 478.5,-363.38 478.5,-363.38 478.5,-366.38 475.5,-369.38 472.5,-369.38"/>
<text text-anchor="middle" x="451.5" y="-358.18" font-family="Helvetica,sans-Serif" font-size="9.00">index.tsx</text>
</a>
</g>
</g>
<!-- src/client/index.tsx&#45;&gt;src/shared/lib/i18n/index.tsx -->
<g id="edge4" class="edge">
<title>src/client/index.tsx&#45;&gt;src/shared/lib/i18n/index.tsx</title>
<path fill="none" stroke="#000000" stroke-width="2" stroke-opacity="0.200000" d="M161.86,-69.47C206.17,-93.71 323.65,-164.6 376,-260.38 394.36,-293.97 364.03,-317.25 390,-345.38 397.24,-353.22 407.88,-357.25 418.23,-359.23"/>
<polygon fill="#000000" fill-opacity="0.200000" stroke="#000000" stroke-width="2" stroke-opacity="0.200000" points="418.01,-361.32 424.26,-360.18 418.66,-357.17 418.01,-361.32"/>
</g>
<!-- src/shared/lib/store/index.ts -->
<g id="node7" class="node">
<title>src/shared/lib/store/index.ts</title>
<g id="a_node7"><a xlink:href="src/shared/lib/store/index.ts" xlink:title="index.ts">
<path fill="#ddfeff" stroke="black" d="M472.5,-145.38C472.5,-145.38 430.5,-145.38 430.5,-145.38 427.5,-145.38 424.5,-142.38 424.5,-139.38 424.5,-139.38 424.5,-133.38 424.5,-133.38 424.5,-130.38 427.5,-127.38 430.5,-127.38 430.5,-127.38 472.5,-127.38 472.5,-127.38 475.5,-127.38 478.5,-130.38 478.5,-133.38 478.5,-133.38 478.5,-139.38 478.5,-139.38 478.5,-142.38 475.5,-145.38 472.5,-145.38"/>
<text text-anchor="middle" x="451.5" y="-134.18" font-family="Helvetica,sans-Serif" font-size="9.00">index.ts</text>
</a>
</g>
</g>
<!-- src/client/index.tsx&#45;&gt;src/shared/lib/store/index.ts -->
<g id="edge5" class="edge">
<title>src/client/index.tsx&#45;&gt;src/shared/lib/store/index.ts</title>
<path fill="none" stroke="#000000" stroke-width="2" stroke-opacity="0.200000" d="M170.59,-66.86C226.48,-80.74 357.63,-113.31 418.46,-128.42"/>
<polygon fill="#000000" fill-opacity="0.200000" stroke="#000000" stroke-width="2" stroke-opacity="0.200000" points="418.15,-130.5 424.48,-129.91 419.16,-126.43 418.15,-130.5"/>
</g>
<!-- src/shared/App.scss -->
<g id="node17" class="node">
<title>src/shared/App.scss</title>
<g id="a_node17"><a xlink:href="src/shared/App.scss" xlink:title="App.scss">
<path fill="#ffffcc" stroke="black" d="M364.5,-1003.38C364.5,-1003.38 322.5,-1003.38 322.5,-1003.38 319.5,-1003.38 316.5,-1000.38 316.5,-997.38 316.5,-997.38 316.5,-991.38 316.5,-991.38 316.5,-988.38 319.5,-985.38 322.5,-985.38 322.5,-985.38 364.5,-985.38 364.5,-985.38 367.5,-985.38 370.5,-988.38 370.5,-991.38 370.5,-991.38 370.5,-997.38 370.5,-997.38 370.5,-1000.38 367.5,-1003.38 364.5,-1003.38"/>
<text text-anchor="middle" x="343.5" y="-992.18" font-family="Helvetica,sans-Serif" font-size="9.00">App.scss</text>
</a>
</g>
</g>
<!-- src/shared/App.tsx&#45;&gt;src/shared/App.scss -->
<g id="edge23" class="edge">
<title>src/shared/App.tsx&#45;&gt;src/shared/App.scss</title>
<path fill="none" stroke="#000000" stroke-width="2" stroke-opacity="0.200000" d="M244.59,-561.61C257.2,-617.33 323.13,-908.77 339.04,-979.1"/>
<polygon fill="#000000" fill-opacity="0.200000" stroke="#000000" stroke-width="2" stroke-opacity="0.200000" points="337.05,-979.81 340.42,-985.2 341.15,-978.88 337.05,-979.81"/>
</g>
<!-- src/shared/assets/favicon.png -->
<g id="node20" class="node">
<title>src/shared/assets/favicon.png</title>
<g id="a_node20"><a xlink:href="src/shared/assets/favicon.png" xlink:title="favicon.png">
<path fill="#ffffcc" stroke="black" d="M477.5,-455.38C477.5,-455.38 425.5,-455.38 425.5,-455.38 422.5,-455.38 419.5,-452.38 419.5,-449.38 419.5,-449.38 419.5,-443.38 419.5,-443.38 419.5,-440.38 422.5,-437.38 425.5,-437.38 425.5,-437.38 477.5,-437.38 477.5,-437.38 480.5,-437.38 483.5,-440.38 483.5,-443.38 483.5,-443.38 483.5,-449.38 483.5,-449.38 483.5,-452.38 480.5,-455.38 477.5,-455.38"/>
<text text-anchor="middle" x="451.5" y="-444.18" font-family="Helvetica,sans-Serif" font-size="9.00">favicon.png</text>
</a>
</g>
</g>
<!-- src/shared/App.tsx&#45;&gt;src/shared/assets/favicon.png -->
<g id="edge24" class="edge">
<title>src/shared/App.tsx&#45;&gt;src/shared/assets/favicon.png</title>
<path fill="none" stroke="#000000" stroke-width="2" stroke-opacity="0.200000" d="M254.42,-543.21C278.64,-525.01 335.91,-484.11 390,-461.38 397.39,-458.27 405.58,-455.7 413.47,-453.63"/>
<polygon fill="#000000" fill-opacity="0.200000" stroke="#000000" stroke-width="2" stroke-opacity="0.200000" points="414.13,-455.63 419.44,-452.13 413.11,-451.55 414.13,-455.63"/>
</g>
<!-- src/shared/components/sections/Content/index.tsx -->
<g id="node21" class="node">
<title>src/shared/components/sections/Content/index.tsx</title>
<g id="a_node21"><a xlink:href="src/shared/components/sections/Content/index.tsx" xlink:title="index.tsx">
<path fill="#bbfeff" stroke="black" d="M364.5,-681.38C364.5,-681.38 322.5,-681.38 322.5,-681.38 319.5,-681.38 316.5,-678.38 316.5,-675.38 316.5,-675.38 316.5,-669.38 316.5,-669.38 316.5,-666.38 319.5,-663.38 322.5,-663.38 322.5,-663.38 364.5,-663.38 364.5,-663.38 367.5,-663.38 370.5,-666.38 370.5,-669.38 370.5,-669.38 370.5,-675.38 370.5,-675.38 370.5,-678.38 367.5,-681.38 364.5,-681.38"/>
<text text-anchor="middle" x="343.5" y="-670.18" font-family="Helvetica,sans-Serif" font-size="9.00">index.tsx</text>
</a>
</g>
</g>
<!-- src/shared/App.tsx&#45;&gt;src/shared/components/sections/Content/index.tsx -->
<g id="edge25" class="edge">
<title>src/shared/App.tsx&#45;&gt;src/shared/components/sections/Content/index.tsx</title>
<path fill="none" stroke="#000000" stroke-width="2" stroke-opacity="0.200000" d="M244.88,-561.48C250.28,-580.43 265.14,-624.54 292.5,-650.38 297.73,-655.31 304.24,-659.25 310.82,-662.35"/>
<polygon fill="#000000" fill-opacity="0.200000" stroke="#000000" stroke-width="2" stroke-opacity="0.200000" points="310,-664.29 316.34,-664.77 311.68,-660.44 310,-664.29"/>
</g>
<!-- src/shared/components/sections/Footer/index.tsx -->
<g id="node22" class="node">
<title>src/shared/components/sections/Footer/index.tsx</title>
<g id="a_node22"><a xlink:href="src/shared/components/sections/Footer/index.tsx" xlink:title="index.tsx">
<path fill="#bbfeff" stroke="black" d="M364.5,-561.38C364.5,-561.38 322.5,-561.38 322.5,-561.38 319.5,-561.38 316.5,-558.38 316.5,-555.38 316.5,-555.38 316.5,-549.38 316.5,-549.38 316.5,-546.38 319.5,-543.38 322.5,-543.38 322.5,-543.38 364.5,-543.38 364.5,-543.38 367.5,-543.38 370.5,-546.38 370.5,-549.38 370.5,-549.38 370.5,-555.38 370.5,-555.38 370.5,-558.38 367.5,-561.38 364.5,-561.38"/>
<text text-anchor="middle" x="343.5" y="-550.18" font-family="Helvetica,sans-Serif" font-size="9.00">index.tsx</text>
</a>
</g>
</g>
<!-- src/shared/App.tsx&#45;&gt;src/shared/components/sections/Footer/index.tsx -->
<g id="edge26" class="edge">
<title>src/shared/App.tsx&#45;&gt;src/shared/components/sections/Footer/index.tsx</title>
<path fill="none" stroke="#000000" stroke-width="2" stroke-opacity="0.200000" d="M268.51,-552.38C281.26,-552.38 296.73,-552.38 310.23,-552.38"/>
<polygon fill="#000000" fill-opacity="0.200000" stroke="#000000" stroke-width="2" stroke-opacity="0.200000" points="310.27,-554.48 316.27,-552.38 310.27,-550.28 310.27,-554.48"/>
</g>
<!-- src/shared/components/sections/Header/index.tsx -->
<g id="node23" class="node">
<title>src/shared/components/sections/Header/index.tsx</title>
<g id="a_node23"><a xlink:href="src/shared/components/sections/Header/index.tsx" xlink:title="index.tsx">
<path fill="#bbfeff" stroke="black" d="M364.5,-621.38C364.5,-621.38 322.5,-621.38 322.5,-621.38 319.5,-621.38 316.5,-618.38 316.5,-615.38 316.5,-615.38 316.5,-609.38 316.5,-609.38 316.5,-606.38 319.5,-603.38 322.5,-603.38 322.5,-603.38 364.5,-603.38 364.5,-603.38 367.5,-603.38 370.5,-606.38 370.5,-609.38 370.5,-609.38 370.5,-615.38 370.5,-615.38 370.5,-618.38 367.5,-621.38 364.5,-621.38"/>
<text text-anchor="middle" x="343.5" y="-610.18" font-family="Helvetica,sans-Serif" font-size="9.00">index.tsx</text>
</a>
</g>
</g>
<!-- src/shared/App.tsx&#45;&gt;src/shared/components/sections/Header/index.tsx -->
<g id="edge27" class="edge">
<title>src/shared/App.tsx&#45;&gt;src/shared/components/sections/Header/index.tsx</title>
<path fill="none" stroke="#000000" stroke-width="2" stroke-opacity="0.200000" d="M253.1,-561.61C262.88,-569.84 278.03,-581.86 292.5,-590.38 298.95,-594.17 306.17,-597.72 313.08,-600.81"/>
<polygon fill="#000000" fill-opacity="0.200000" stroke="#000000" stroke-width="2" stroke-opacity="0.200000" points="312.44,-602.82 318.78,-603.29 314.12,-598.97 312.44,-602.82"/>
</g>
<!-- src/shared/lib/i18n/withLocale.tsx -->
<g id="node24" class="node">
<title>src/shared/lib/i18n/withLocale.tsx</title>
<g id="a_node24"><a xlink:href="src/shared/lib/i18n/withLocale.tsx" xlink:title="withLocale.tsx">
<path fill="#bbfeff" stroke="black" d="M482.5,-339.38C482.5,-339.38 420.5,-339.38 420.5,-339.38 417.5,-339.38 414.5,-336.38 414.5,-333.38 414.5,-333.38 414.5,-327.38 414.5,-327.38 414.5,-324.38 417.5,-321.38 420.5,-321.38 420.5,-321.38 482.5,-321.38 482.5,-321.38 485.5,-321.38 488.5,-324.38 488.5,-327.38 488.5,-327.38 488.5,-333.38 488.5,-333.38 488.5,-336.38 485.5,-339.38 482.5,-339.38"/>
<text text-anchor="middle" x="451.5" y="-328.18" font-family="Helvetica,sans-Serif" font-size="9.00">withLocale.tsx</text>
</a>
</g>
</g>
<!-- src/shared/App.tsx&#45;&gt;src/shared/lib/i18n/withLocale.tsx -->
<g id="edge28" class="edge">
<title>src/shared/App.tsx&#45;&gt;src/shared/lib/i18n/withLocale.tsx</title>
<path fill="none" stroke="#000000" stroke-width="2" stroke-opacity="0.200000" d="M246.11,-543.01C259.42,-509.8 309.27,-396.87 390,-345.38 395.59,-341.81 401.97,-339.09 408.43,-337.02"/>
<polygon fill="#000000" fill-opacity="0.200000" stroke="#000000" stroke-width="2" stroke-opacity="0.200000" points="409.21,-338.99 414.38,-335.3 408.03,-334.95 409.21,-338.99"/>
</g>
<!-- src/shared/lib/i18n/config.ts -->
<g id="node10" class="node">
<title>src/shared/lib/i18n/config.ts</title>
<g id="a_node10"><a xlink:href="src/shared/lib/i18n/config.ts" xlink:title="config.ts">
<path fill="#ddfeff" stroke="black" d="M591.5,-354.38C591.5,-354.38 549.5,-354.38 549.5,-354.38 546.5,-354.38 543.5,-351.38 543.5,-348.38 543.5,-348.38 543.5,-342.38 543.5,-342.38 543.5,-339.38 546.5,-336.38 549.5,-336.38 549.5,-336.38 591.5,-336.38 591.5,-336.38 594.5,-336.38 597.5,-339.38 597.5,-342.38 597.5,-342.38 597.5,-348.38 597.5,-348.38 597.5,-351.38 594.5,-354.38 591.5,-354.38"/>
<text text-anchor="middle" x="570.5" y="-343.18" font-family="Helvetica,sans-Serif" font-size="9.00">config.ts</text>
</a>
</g>
</g>
<!-- src/shared/lib/i18n/index.tsx&#45;&gt;src/shared/lib/i18n/config.ts -->
<g id="edge43" class="edge">
<title>src/shared/lib/i18n/index.tsx&#45;&gt;src/shared/lib/i18n/config.ts</title>
<path fill="none" stroke="#000000" stroke-width="2" stroke-opacity="0.200000" d="M478.76,-357.01C496.07,-354.79 518.86,-351.87 537.27,-349.51"/>
<polygon fill="#000000" fill-opacity="0.200000" stroke="#000000" stroke-width="2" stroke-opacity="0.200000" points="537.65,-351.58 543.33,-348.73 537.11,-347.41 537.65,-351.58"/>
</g>
<!-- src/shared/lib/store/rootReducer.ts -->
<g id="node19" class="node">
<title>src/shared/lib/store/rootReducer.ts</title>
<g id="a_node19"><a xlink:href="src/shared/lib/store/rootReducer.ts" xlink:title="rootReducer.ts">
<path fill="#ddfeff" stroke="black" d="M603,-145.38C603,-145.38 538,-145.38 538,-145.38 535,-145.38 532,-142.38 532,-139.38 532,-139.38 532,-133.38 532,-133.38 532,-130.38 535,-127.38 538,-127.38 538,-127.38 603,-127.38 603,-127.38 606,-127.38 609,-130.38 609,-133.38 609,-133.38 609,-139.38 609,-139.38 609,-142.38 606,-145.38 603,-145.38"/>
<text text-anchor="middle" x="570.5" y="-134.18" font-family="Helvetica,sans-Serif" font-size="9.00">rootReducer.ts</text>
</a>
</g>
</g>
<!-- src/shared/lib/store/index.ts&#45;&gt;src/shared/lib/store/rootReducer.ts -->
<g id="edge54" class="edge">
<title>src/shared/lib/store/index.ts&#45;&gt;src/shared/lib/store/rootReducer.ts</title>
<path fill="none" stroke="#000000" stroke-width="2" stroke-opacity="0.200000" d="M478.76,-136.38C492.56,-136.38 509.84,-136.38 525.6,-136.38"/>
<polygon fill="#000000" fill-opacity="0.200000" stroke="#000000" stroke-width="2" stroke-opacity="0.200000" points="525.79,-138.48 531.79,-136.38 525.79,-134.28 525.79,-138.48"/>
</g>
<!-- src/global.d.ts -->
<g id="node8" class="node">
<title>src/global.d.ts</title>
<g id="a_node8"><a xlink:href="src/global.d.ts" xlink:title="global.d.ts">
<path fill="#ccffcc" stroke="black" d="M74.5,-694.38C74.5,-694.38 27.5,-694.38 27.5,-694.38 24.5,-694.38 21.5,-691.38 21.5,-688.38 21.5,-688.38 21.5,-682.38 21.5,-682.38 21.5,-679.38 24.5,-676.38 27.5,-676.38 27.5,-676.38 74.5,-676.38 74.5,-676.38 77.5,-676.38 80.5,-679.38 80.5,-682.38 80.5,-682.38 80.5,-688.38 80.5,-688.38 80.5,-691.38 77.5,-694.38 74.5,-694.38"/>
<text text-anchor="middle" x="51" y="-683.18" font-family="Helvetica,sans-Serif" font-size="9.00">global.d.ts</text>
</a>
</g>
</g>
<!-- src/server/components/html.tsx -->
<g id="node9" class="node">
<title>src/server/components/html.tsx</title>
<g id="a_node9"><a xlink:href="src/server/components/html.tsx" xlink:title="html.tsx">
<path fill="#bbfeff" stroke="black" d="M262.5,-1379.38C262.5,-1379.38 220.5,-1379.38 220.5,-1379.38 217.5,-1379.38 214.5,-1376.38 214.5,-1373.38 214.5,-1373.38 214.5,-1367.38 214.5,-1367.38 214.5,-1364.38 217.5,-1361.38 220.5,-1361.38 220.5,-1361.38 262.5,-1361.38 262.5,-1361.38 265.5,-1361.38 268.5,-1364.38 268.5,-1367.38 268.5,-1367.38 268.5,-1373.38 268.5,-1373.38 268.5,-1376.38 265.5,-1379.38 262.5,-1379.38"/>
<text text-anchor="middle" x="241.5" y="-1368.18" font-family="Helvetica,sans-Serif" font-size="9.00">html.tsx</text>
</a>
</g>
</g>
<!-- src/server/components/html.tsx&#45;&gt;src/shared/lib/i18n/config.ts -->
<g id="edge6" class="edge">
<title>src/server/components/html.tsx&#45;&gt;src/shared/lib/i18n/config.ts</title>
<path fill="none" stroke="#000000" stroke-width="2" stroke-opacity="0.200000" d="M256.55,-1361.28C301.26,-1331.45 440.64,-1231.39 497.5,-1108.38 505.67,-1090.7 559.11,-467.26 568.19,-360.77"/>
<polygon fill="#000000" fill-opacity="0.200000" stroke="#000000" stroke-width="2" stroke-opacity="0.200000" points="570.31,-360.67 568.72,-354.52 566.12,-360.32 570.31,-360.67"/>
</g>
<!-- src/shared/lib/store/app/types.ts -->
<g id="node11" class="node">
<title>src/shared/lib/store/app/types.ts</title>
<g id="a_node11"><a xlink:href="src/shared/lib/store/app/types.ts" xlink:title="types.ts">
<path fill="#ddfeff" stroke="black" d="M673,-223.38C673,-223.38 631,-223.38 631,-223.38 628,-223.38 625,-220.38 625,-217.38 625,-217.38 625,-211.38 625,-211.38 625,-208.38 628,-205.38 631,-205.38 631,-205.38 673,-205.38 673,-205.38 676,-205.38 679,-208.38 679,-211.38 679,-211.38 679,-217.38 679,-217.38 679,-220.38 676,-223.38 673,-223.38"/>
<text text-anchor="middle" x="652" y="-212.18" font-family="Helvetica,sans-Serif" font-size="9.00">types.ts</text>
</a>
</g>
</g>
<!-- src/server/components/html.tsx&#45;&gt;src/shared/lib/store/app/types.ts -->
<g id="edge7" class="edge">
<title>src/server/components/html.tsx&#45;&gt;src/shared/lib/store/app/types.ts</title>
<path fill="none" stroke="#000000" stroke-width="2" stroke-opacity="0.200000" d="M268.57,-1374.13C337.82,-1382.43 526.99,-1394.02 613.5,-1288.38 621.39,-1278.75 621.59,-852.82 622,-840.38 629.96,-596.51 646.23,-299.5 650.14,-229.61"/>
<polygon fill="#000000" fill-opacity="0.200000" stroke="#000000" stroke-width="2" stroke-opacity="0.200000" points="652.24,-229.67 650.48,-223.56 648.05,-229.44 652.24,-229.67"/>
</g>
<!-- src/shared/lib/i18n/config.ts&#45;&gt;src/shared/lib/store/app/types.ts -->
<g id="edge42" class="edge">
<title>src/shared/lib/i18n/config.ts&#45;&gt;src/shared/lib/store/app/types.ts</title>
<path fill="none" stroke="#000000" stroke-width="2" stroke-opacity="0.200000" d="M577.21,-336.01C585.3,-322.74 600.55,-297.72 613.5,-276.38 623.35,-260.15 634.61,-241.51 642.21,-228.94"/>
<polygon fill="#000000" fill-opacity="0.200000" stroke="#000000" stroke-width="2" stroke-opacity="0.200000" points="644.11,-229.85 645.42,-223.62 640.52,-227.67 644.11,-229.85"/>
</g>
<!-- src/server/index.ts -->
<g id="node12" class="node">
<title>src/server/index.ts</title>
<g id="a_node12"><a xlink:href="src/server/index.ts" xlink:title="index.ts">
<path fill="#ddfeff" stroke="black" d="M72,-1439.38C72,-1439.38 30,-1439.38 30,-1439.38 27,-1439.38 24,-1436.38 24,-1433.38 24,-1433.38 24,-1427.38 24,-1427.38 24,-1424.38 27,-1421.38 30,-1421.38 30,-1421.38 72,-1421.38 72,-1421.38 75,-1421.38 78,-1424.38 78,-1427.38 78,-1427.38 78,-1433.38 78,-1433.38 78,-1436.38 75,-1439.38 72,-1439.38"/>
<text text-anchor="middle" x="51" y="-1428.18" font-family="Helvetica,sans-Serif" font-size="9.00">index.ts</text>
</a>
</g>
</g>
<!-- src/server/index.ts&#45;&gt;config/paths.ts -->
<g id="edge8" class="edge">
<title>src/server/index.ts&#45;&gt;config/paths.ts</title>
<path fill="none" stroke="#000000" stroke-width="2" stroke-opacity="0.200000" d="M56.35,-1439.4C62.83,-1452.64 75.66,-1477.96 88.5,-1498.38 102.08,-1519.96 119.83,-1543.53 131.2,-1558.13"/>
<polygon fill="#000000" fill-opacity="0.200000" stroke="#000000" stroke-width="2" stroke-opacity="0.200000" points="129.73,-1559.66 135.08,-1563.09 133.03,-1557.07 129.73,-1559.66"/>
</g>
<!-- src/server/index.ts&#45;&gt;path -->
<g id="edge14" class="edge">
<title>src/server/index.ts&#45;&gt;path</title>
<path fill="none" stroke="#000000" stroke-dasharray="5,2" stroke-opacity="0.200000" d="M52.4,-1439.64C54.04,-1473.32 61.59,-1588.38 88.5,-1610.38 125.24,-1640.42 184.85,-1620.67 217.43,-1606.04"/>
<polygon fill="#000000" fill-opacity="0.200000" stroke="#000000" stroke-opacity="0.200000" points="218.62,-1607.8 223.18,-1603.38 216.86,-1603.99 218.62,-1607.8"/>
</g>
<!-- src/server/index.ts&#45;&gt;src/shared/lib/i18n/index.tsx -->
<g id="edge9" class="edge">
<title>src/server/index.ts&#45;&gt;src/shared/lib/i18n/index.tsx</title>
<path fill="none" stroke="#000000" stroke-width="2" stroke-opacity="0.200000" d="M77.1,-1421.29C78.4,-1420.14 79.55,-1418.84 80.5,-1417.38 90.89,-1401.32 74.94,-53.86 88.5,-40.38 186.45,57.01 307.66,-38.35 376,-158.38 396.62,-194.59 363.11,-313.54 390,-345.38 396.95,-353.6 407.63,-357.7 418.1,-359.63"/>
<polygon fill="#000000" fill-opacity="0.200000" stroke="#000000" stroke-width="2" stroke-opacity="0.200000" points="417.96,-361.74 424.2,-360.54 418.58,-357.58 417.96,-361.74"/>
</g>
<!-- src/server/middlewares/addStore.tsx -->
<g id="node13" class="node">
<title>src/server/middlewares/addStore.tsx</title>
<g id="a_node13"><a xlink:href="src/server/middlewares/addStore.tsx" xlink:title="addStore.tsx">
<path fill="#bbfeff" stroke="black" d="M171.5,-1409.38C171.5,-1409.38 115.5,-1409.38 115.5,-1409.38 112.5,-1409.38 109.5,-1406.38 109.5,-1403.38 109.5,-1403.38 109.5,-1397.38 109.5,-1397.38 109.5,-1394.38 112.5,-1391.38 115.5,-1391.38 115.5,-1391.38 171.5,-1391.38 171.5,-1391.38 174.5,-1391.38 177.5,-1394.38 177.5,-1397.38 177.5,-1397.38 177.5,-1403.38 177.5,-1403.38 177.5,-1406.38 174.5,-1409.38 171.5,-1409.38"/>
<text text-anchor="middle" x="143.5" y="-1398.18" font-family="Helvetica,sans-Serif" font-size="9.00">addStore.tsx</text>
</a>
</g>
</g>
<!-- src/server/index.ts&#45;&gt;src/server/middlewares/addStore.tsx -->
<g id="edge10" class="edge">
<title>src/server/index.ts&#45;&gt;src/server/middlewares/addStore.tsx</title>
<path fill="none" stroke="#000000" stroke-width="2" stroke-opacity="0.200000" d="M73.07,-1421.22C78.08,-1419.18 83.45,-1417.11 88.5,-1415.38 93.33,-1413.72 98.45,-1412.11 103.53,-1410.6"/>
<polygon fill="#000000" fill-opacity="0.200000" stroke="#000000" stroke-width="2" stroke-opacity="0.200000" points="104.29,-1412.57 109.47,-1408.88 103.12,-1408.54 104.29,-1412.57"/>
</g>
<!-- src/server/middlewares/handleErrors.ts -->
<g id="node14" class="node">
<title>src/server/middlewares/handleErrors.ts</title>
<g id="a_node14"><a xlink:href="src/server/middlewares/handleErrors.ts" xlink:title="handleErrors.ts">
<path fill="#ddfeff" stroke="black" d="M177,-1469.38C177,-1469.38 110,-1469.38 110,-1469.38 107,-1469.38 104,-1466.38 104,-1463.38 104,-1463.38 104,-1457.38 104,-1457.38 104,-1454.38 107,-1451.38 110,-1451.38 110,-1451.38 177,-1451.38 177,-1451.38 180,-1451.38 183,-1454.38 183,-1457.38 183,-1457.38 183,-1463.38 183,-1463.38 183,-1466.38 180,-1469.38 177,-1469.38"/>
<text text-anchor="middle" x="143.5" y="-1458.18" font-family="Helvetica,sans-Serif" font-size="9.00">handleErrors.ts</text>
</a>
</g>
</g>
<!-- src/server/index.ts&#45;&gt;src/server/middlewares/handleErrors.ts -->
<g id="edge11" class="edge">
<title>src/server/index.ts&#45;&gt;src/server/middlewares/handleErrors.ts</title>
<path fill="none" stroke="#000000" stroke-width="2" stroke-opacity="0.200000" d="M73.07,-1439.53C78.08,-1441.57 83.45,-1443.64 88.5,-1445.38 92.68,-1446.81 97.07,-1448.2 101.47,-1449.53"/>
<polygon fill="#000000" fill-opacity="0.200000" stroke="#000000" stroke-width="2" stroke-opacity="0.200000" points="101.11,-1451.61 107.46,-1451.3 102.29,-1447.59 101.11,-1451.61"/>
</g>
<!-- src/server/middlewares/i18n.ts -->
<g id="node15" class="node">
<title>src/server/middlewares/i18n.ts</title>
<g id="a_node15"><a xlink:href="src/server/middlewares/i18n.ts" xlink:title="i18n.ts">
<path fill="#ddfeff" stroke="black" d="M164.5,-1439.38C164.5,-1439.38 122.5,-1439.38 122.5,-1439.38 119.5,-1439.38 116.5,-1436.38 116.5,-1433.38 116.5,-1433.38 116.5,-1427.38 116.5,-1427.38 116.5,-1424.38 119.5,-1421.38 122.5,-1421.38 122.5,-1421.38 164.5,-1421.38 164.5,-1421.38 167.5,-1421.38 170.5,-1424.38 170.5,-1427.38 170.5,-1427.38 170.5,-1433.38 170.5,-1433.38 170.5,-1436.38 167.5,-1439.38 164.5,-1439.38"/>
<text text-anchor="middle" x="143.5" y="-1428.18" font-family="Helvetica,sans-Serif" font-size="9.00">i18n.ts</text>
</a>
</g>
</g>
<!-- src/server/index.ts&#45;&gt;src/server/middlewares/i18n.ts -->
<g id="edge12" class="edge">
<title>src/server/index.ts&#45;&gt;src/server/middlewares/i18n.ts</title>
<path fill="none" stroke="#000000" stroke-width="2" stroke-opacity="0.200000" d="M78.18,-1430.38C88.21,-1430.38 99.78,-1430.38 110.32,-1430.38"/>
<polygon fill="#000000" fill-opacity="0.200000" stroke="#000000" stroke-width="2" stroke-opacity="0.200000" points="110.38,-1432.48 116.38,-1430.38 110.38,-1428.28 110.38,-1432.48"/>
</g>
<!-- src/server/middlewares/renderFullPage.tsx -->
<g id="node16" class="node">
<title>src/server/middlewares/renderFullPage.tsx</title>
<g id="a_node16"><a xlink:href="src/server/middlewares/renderFullPage.tsx" xlink:title="renderFullPage.tsx">
<path fill="#bbfeff" stroke="black" d="M184.5,-1379.38C184.5,-1379.38 102.5,-1379.38 102.5,-1379.38 99.5,-1379.38 96.5,-1376.38 96.5,-1373.38 96.5,-1373.38 96.5,-1367.38 96.5,-1367.38 96.5,-1364.38 99.5,-1361.38 102.5,-1361.38 102.5,-1361.38 184.5,-1361.38 184.5,-1361.38 187.5,-1361.38 190.5,-1364.38 190.5,-1367.38 190.5,-1367.38 190.5,-1373.38 190.5,-1373.38 190.5,-1376.38 187.5,-1379.38 184.5,-1379.38"/>
<text text-anchor="middle" x="143.5" y="-1368.18" font-family="Helvetica,sans-Serif" font-size="9.00">renderFullPage.tsx</text>
</a>
</g>
</g>
<!-- src/server/index.ts&#45;&gt;src/server/middlewares/renderFullPage.tsx -->
<g id="edge13" class="edge">
<title>src/server/index.ts&#45;&gt;src/server/middlewares/renderFullPage.tsx</title>
<path fill="none" stroke="#000000" stroke-width="2" stroke-opacity="0.200000" d="M76.46,-1421.21C77.95,-1420.07 79.32,-1418.8 80.5,-1417.38 89.88,-1406.11 78.27,-1395.88 88.5,-1385.38 89.37,-1384.49 90.28,-1383.65 91.23,-1382.86"/>
<polygon fill="#000000" fill-opacity="0.200000" stroke="#000000" stroke-width="2" stroke-opacity="0.200000" points="92.6,-1384.47 96.31,-1379.31 90.19,-1381.03 92.6,-1384.47"/>
</g>
<!-- src/server/middlewares/addStore.tsx&#45;&gt;src/shared/lib/store/index.ts -->
<g id="edge15" class="edge">
<title>src/server/middlewares/addStore.tsx&#45;&gt;src/shared/lib/store/index.ts</title>
<path fill="none" stroke="#000000" stroke-width="2" stroke-opacity="0.200000" d="M177.51,-1397.09C185.29,-1394.85 192.92,-1391.22 198.5,-1385.38 209.52,-1373.84 200.02,-1364.96 206.5,-1350.38 259.79,-1230.36 335.59,-1233.32 376,-1108.38 384.19,-1083.05 373.29,-171.09 390,-150.38 396.79,-141.96 407.55,-137.99 418.12,-136.27"/>
<polygon fill="#000000" fill-opacity="0.200000" stroke="#000000" stroke-width="2" stroke-opacity="0.200000" points="418.6,-138.33 424.3,-135.51 418.08,-134.16 418.6,-138.33"/>
</g>
<!-- src/server/middlewares/handleErrors.ts&#45;&gt;path -->
<g id="edge16" class="edge">
<title>src/server/middlewares/handleErrors.ts&#45;&gt;path</title>
<path fill="none" stroke="#000000" stroke-dasharray="5,2" stroke-opacity="0.200000" d="M150.8,-1469.38C161.77,-1485.42 184.57,-1520.27 198.5,-1552.38 203.48,-1563.86 198.23,-1569.98 206.5,-1579.38 207.33,-1580.32 208.23,-1581.21 209.19,-1582.04"/>
<polygon fill="#000000" fill-opacity="0.200000" stroke="#000000" stroke-opacity="0.200000" points="208.27,-1583.97 214.36,-1585.78 210.73,-1580.56 208.27,-1583.97"/>
</g>
<!-- src/server/middlewares/i18n.ts&#45;&gt;fs -->
<g id="edge17" class="edge">
<title>src/server/middlewares/i18n.ts&#45;&gt;fs</title>
<path fill="none" stroke="#000000" stroke-dasharray="5,2" stroke-opacity="0.200000" d="M170.63,-1432.54C180.41,-1434.55 190.96,-1438.34 198.5,-1445.38 228.34,-1473.24 236.99,-1523.59 239.49,-1548.93"/>
<polygon fill="#000000" fill-opacity="0.200000" stroke="#000000" stroke-opacity="0.200000" points="237.41,-1549.29 240.02,-1555.09 241.6,-1548.93 237.41,-1549.29"/>
</g>
<!-- src/server/middlewares/i18n.ts&#45;&gt;path -->
<g id="edge18" class="edge">
<title>src/server/middlewares/i18n.ts&#45;&gt;path</title>
<path fill="none" stroke="#000000" stroke-dasharray="5,2" stroke-opacity="0.200000" d="M170.59,-1431.33C180.86,-1433.11 191.77,-1437.05 198.5,-1445.38 217.25,-1468.58 189.47,-1554.88 206.5,-1579.38 207.4,-1580.67 208.44,-1581.86 209.59,-1582.95"/>
<polygon fill="#000000" fill-opacity="0.200000" stroke="#000000" stroke-opacity="0.200000" points="208.4,-1584.68 214.45,-1586.65 210.95,-1581.34 208.4,-1584.68"/>
</g>
<!-- src/server/middlewares/renderFullPage.tsx&#45;&gt;src/shared/App.tsx -->
<g id="edge19" class="edge">
<title>src/server/middlewares/renderFullPage.tsx&#45;&gt;src/shared/App.tsx</title>
<path fill="none" stroke="#000000" stroke-width="2" stroke-opacity="0.200000" d="M172.49,-1361.35C182.39,-1356.7 192.55,-1349.94 198.5,-1340.38 207.91,-1325.27 205.57,-1198.15 206.5,-1180.38 219.23,-935.84 235.75,-637.8 239.65,-567.66"/>
<polygon fill="#000000" fill-opacity="0.200000" stroke="#000000" stroke-width="2" stroke-opacity="0.200000" points="241.75,-567.7 239.99,-561.59 237.56,-567.47 241.75,-567.7"/>
</g>
<!-- src/server/middlewares/renderFullPage.tsx&#45;&gt;src/server/components/html.tsx -->
<g id="edge20" class="edge">
<title>src/server/middlewares/renderFullPage.tsx&#45;&gt;src/server/components/html.tsx</title>
<path fill="none" stroke="#000000" stroke-width="2" stroke-opacity="0.200000" d="M190.53,-1370.38C196.54,-1370.38 202.59,-1370.38 208.3,-1370.38"/>
<polygon fill="#000000" fill-opacity="0.200000" stroke="#000000" stroke-width="2" stroke-opacity="0.200000" points="208.35,-1372.48 214.35,-1370.38 208.35,-1368.28 208.35,-1372.48"/>
</g>
<!-- src/shared/App.test.tsx -->
<g id="node18" class="node">
<title>src/shared/App.test.tsx</title>
<g id="a_node18"><a xlink:href="src/shared/App.test.tsx" xlink:title="App.test.tsx">
<path fill="#bbfeff" stroke="black" d="M169,-495.38C169,-495.38 118,-495.38 118,-495.38 115,-495.38 112,-492.38 112,-489.38 112,-489.38 112,-483.38 112,-483.38 112,-480.38 115,-477.38 118,-477.38 118,-477.38 169,-477.38 169,-477.38 172,-477.38 175,-480.38 175,-483.38 175,-483.38 175,-489.38 175,-489.38 175,-492.38 172,-495.38 169,-495.38"/>
<text text-anchor="middle" x="143.5" y="-484.18" font-family="Helvetica,sans-Serif" font-size="9.00">App.test.tsx</text>
</a>
</g>
</g>
<!-- src/shared/App.test.tsx&#45;&gt;src/shared/App.tsx -->
<g id="edge21" class="edge">
<title>src/shared/App.test.tsx&#45;&gt;src/shared/App.tsx</title>
<path fill="none" stroke="#000000" stroke-width="2" stroke-opacity="0.200000" d="M157.85,-495.55C174.61,-507.08 203.45,-526.91 222.25,-539.83"/>
<polygon fill="#000000" fill-opacity="0.200000" stroke="#000000" stroke-width="2" stroke-opacity="0.200000" points="221.13,-541.61 227.26,-543.28 223.51,-538.15 221.13,-541.61"/>
</g>
<!-- src/shared/App.test.tsx&#45;&gt;src/shared/lib/store/rootReducer.ts -->
<g id="edge22" class="edge">
<title>src/shared/App.test.tsx&#45;&gt;src/shared/lib/store/rootReducer.ts</title>
<path fill="none" stroke="#000000" stroke-width="2" stroke-opacity="0.200000" d="M175.07,-478.87C260.59,-457.87 496.13,-399.93 497.5,-398.38 570.99,-315.16 457.28,-236.38 527.5,-150.38 527.69,-150.14 527.89,-149.9 528.1,-149.67"/>
<polygon fill="#000000" fill-opacity="0.200000" stroke="#000000" stroke-width="2" stroke-opacity="0.200000" points="529.8,-150.96 532.88,-145.4 527,-147.83 529.8,-150.96"/>
</g>
<!-- src/shared/lib/store/rootReducer.ts&#45;&gt;src/shared/lib/store/app/types.ts -->
<g id="edge56" class="edge">
<title>src/shared/lib/store/rootReducer.ts&#45;&gt;src/shared/lib/store/app/types.ts</title>
<path fill="none" stroke="#000000" stroke-width="2" stroke-opacity="0.200000" d="M606.06,-145.54C608.71,-146.93 611.23,-148.54 613.5,-150.38 629.43,-163.29 640.05,-184.9 645.81,-199.4"/>
<polygon fill="#000000" fill-opacity="0.200000" stroke="#000000" stroke-width="2" stroke-opacity="0.200000" points="643.89,-200.26 647.98,-205.12 647.81,-198.77 643.89,-200.26"/>
</g>
<!-- src/shared/lib/store/app/reducers.ts -->
<g id="node38" class="node">
<title>src/shared/lib/store/app/reducers.ts</title>
<g id="a_node38"><a xlink:href="src/shared/lib/store/app/reducers.ts" xlink:title="reducers.ts">
<path fill="#ddfeff" stroke="black" d="M476.5,-186.38C476.5,-186.38 426.5,-186.38 426.5,-186.38 423.5,-186.38 420.5,-183.38 420.5,-180.38 420.5,-180.38 420.5,-174.38 420.5,-174.38 420.5,-171.38 423.5,-168.38 426.5,-168.38 426.5,-168.38 476.5,-168.38 476.5,-168.38 479.5,-168.38 482.5,-171.38 482.5,-174.38 482.5,-174.38 482.5,-180.38 482.5,-180.38 482.5,-183.38 479.5,-186.38 476.5,-186.38"/>
<text text-anchor="middle" x="451.5" y="-175.18" font-family="Helvetica,sans-Serif" font-size="9.00">reducers.ts</text>
</a>
</g>
</g>
<!-- src/shared/lib/store/rootReducer.ts&#45;&gt;src/shared/lib/store/app/reducers.ts -->
<g id="edge55" class="edge">
<title>src/shared/lib/store/rootReducer.ts&#45;&gt;src/shared/lib/store/app/reducers.ts</title>
<path fill="none" stroke="#000000" stroke-width="2" stroke-opacity="0.200000" d="M540.87,-145.43C536.37,-146.99 531.78,-148.67 527.5,-150.38 513.83,-155.82 511.28,-159.21 497.5,-164.38 494.7,-165.43 491.77,-166.45 488.81,-167.42"/>
<polygon fill="#000000" fill-opacity="0.200000" stroke="#000000" stroke-width="2" stroke-opacity="0.200000" points="487.81,-165.53 482.73,-169.35 489.08,-169.54 487.81,-165.53"/>
</g>
<!-- src/shared/routes/index.ts -->
<g id="node31" class="node">
<title>src/shared/routes/index.ts</title>
<g id="a_node31"><a xlink:href="src/shared/routes/index.ts" xlink:title="index.ts">
<path fill="#ddfeff" stroke="black" d="M472.5,-1079.38C472.5,-1079.38 430.5,-1079.38 430.5,-1079.38 427.5,-1079.38 424.5,-1076.38 424.5,-1073.38 424.5,-1073.38 424.5,-1067.38 424.5,-1067.38 424.5,-1064.38 427.5,-1061.38 430.5,-1061.38 430.5,-1061.38 472.5,-1061.38 472.5,-1061.38 475.5,-1061.38 478.5,-1064.38 478.5,-1067.38 478.5,-1067.38 478.5,-1073.38 478.5,-1073.38 478.5,-1076.38 475.5,-1079.38 472.5,-1079.38"/>
<text text-anchor="middle" x="451.5" y="-1068.18" font-family="Helvetica,sans-Serif" font-size="9.00">index.ts</text>
</a>
</g>
</g>
<!-- src/shared/components/sections/Content/index.tsx&#45;&gt;src/shared/routes/index.ts -->
<g id="edge35" class="edge">
<title>src/shared/components/sections/Content/index.tsx&#45;&gt;src/shared/routes/index.ts</title>
<path fill="none" stroke="#000000" stroke-width="2" stroke-opacity="0.200000" d="M370.71,-680.2C372.74,-681.64 374.56,-683.35 376,-685.38 391.68,-707.41 383.83,-902.04 390,-928.38 401.43,-977.17 428.45,-1030.45 442.18,-1055.63"/>
<polygon fill="#000000" fill-opacity="0.200000" stroke="#000000" stroke-width="2" stroke-opacity="0.200000" points="440.47,-1056.88 445.21,-1061.12 444.15,-1054.85 440.47,-1056.88"/>
</g>
<!-- src/shared/components/sections/Content/styles.scss -->
<g id="node32" class="node">
<title>src/shared/components/sections/Content/styles.scss</title>
<g id="a_node32"><a xlink:href="src/shared/components/sections/Content/styles.scss" xlink:title="styles.scss">
<path fill="#ffffcc" stroke="black" d="M475.5,-681.38C475.5,-681.38 427.5,-681.38 427.5,-681.38 424.5,-681.38 421.5,-678.38 421.5,-675.38 421.5,-675.38 421.5,-669.38 421.5,-669.38 421.5,-666.38 424.5,-663.38 427.5,-663.38 427.5,-663.38 475.5,-663.38 475.5,-663.38 478.5,-663.38 481.5,-666.38 481.5,-669.38 481.5,-669.38 481.5,-675.38 481.5,-675.38 481.5,-678.38 478.5,-681.38 475.5,-681.38"/>
<text text-anchor="middle" x="451.5" y="-670.18" font-family="Helvetica,sans-Serif" font-size="9.00">styles.scss</text>
</a>
</g>
</g>
<!-- src/shared/components/sections/Content/index.tsx&#45;&gt;src/shared/components/sections/Content/styles.scss -->
<g id="edge36" class="edge">
<title>src/shared/components/sections/Content/index.tsx&#45;&gt;src/shared/components/sections/Content/styles.scss</title>
<path fill="none" stroke="#000000" stroke-width="2" stroke-opacity="0.200000" d="M370.7,-672.38C384.11,-672.38 400.63,-672.38 415.15,-672.38"/>
<polygon fill="#000000" fill-opacity="0.200000" stroke="#000000" stroke-width="2" stroke-opacity="0.200000" points="415.24,-674.48 421.24,-672.38 415.24,-670.28 415.24,-674.48"/>
</g>
<!-- src/shared/components/sections/Footer/styles.scss -->
<g id="node33" class="node">
<title>src/shared/components/sections/Footer/styles.scss</title>
<g id="a_node33"><a xlink:href="src/shared/components/sections/Footer/styles.scss" xlink:title="styles.scss">
<path fill="#ffffcc" stroke="black" d="M475.5,-561.38C475.5,-561.38 427.5,-561.38 427.5,-561.38 424.5,-561.38 421.5,-558.38 421.5,-555.38 421.5,-555.38 421.5,-549.38 421.5,-549.38 421.5,-546.38 424.5,-543.38 427.5,-543.38 427.5,-543.38 475.5,-543.38 475.5,-543.38 478.5,-543.38 481.5,-546.38 481.5,-549.38 481.5,-549.38 481.5,-555.38 481.5,-555.38 481.5,-558.38 478.5,-561.38 475.5,-561.38"/>
<text text-anchor="middle" x="451.5" y="-550.18" font-family="Helvetica,sans-Serif" font-size="9.00">styles.scss</text>
</a>
</g>
</g>
<!-- src/shared/components/sections/Footer/index.tsx&#45;&gt;src/shared/components/sections/Footer/styles.scss -->
<g id="edge37" class="edge">
<title>src/shared/components/sections/Footer/index.tsx&#45;&gt;src/shared/components/sections/Footer/styles.scss</title>
<path fill="none" stroke="#000000" stroke-width="2" stroke-opacity="0.200000" d="M370.7,-552.38C384.11,-552.38 400.63,-552.38 415.15,-552.38"/>
<polygon fill="#000000" fill-opacity="0.200000" stroke="#000000" stroke-width="2" stroke-opacity="0.200000" points="415.24,-554.48 421.24,-552.38 415.24,-550.28 415.24,-554.48"/>
</g>
<!-- src/shared/assets/react.svg -->
<g id="node25" class="node">
<title>src/shared/assets/react.svg</title>
<g id="a_node25"><a xlink:href="src/shared/assets/react.svg" xlink:title="react.svg">
<path fill="#ffffcc" stroke="black" d="M472.5,-485.38C472.5,-485.38 430.5,-485.38 430.5,-485.38 427.5,-485.38 424.5,-482.38 424.5,-479.38 424.5,-479.38 424.5,-473.38 424.5,-473.38 424.5,-470.38 427.5,-467.38 430.5,-467.38 430.5,-467.38 472.5,-467.38 472.5,-467.38 475.5,-467.38 478.5,-470.38 478.5,-473.38 478.5,-473.38 478.5,-479.38 478.5,-479.38 478.5,-482.38 475.5,-485.38 472.5,-485.38"/>
<text text-anchor="middle" x="451.5" y="-474.18" font-family="Helvetica,sans-Serif" font-size="9.00">react.svg</text>
</a>
</g>
</g>
<!-- src/shared/components/sections/Header/index.tsx&#45;&gt;src/shared/assets/react.svg -->
<g id="edge38" class="edge">
<title>src/shared/components/sections/Header/index.tsx&#45;&gt;src/shared/assets/react.svg</title>
<path fill="none" stroke="#000000" stroke-width="2" stroke-opacity="0.200000" d="M362.13,-603.32C367.28,-599.9 372.46,-595.55 376,-590.38 390.95,-568.47 376.58,-555.25 390,-532.38 400.36,-514.72 418.02,-499.31 431.6,-489.15"/>
<polygon fill="#000000" fill-opacity="0.200000" stroke="#000000" stroke-width="2" stroke-opacity="0.200000" points="433.15,-490.62 436.76,-485.39 430.68,-487.23 433.15,-490.62"/>
</g>
<!-- src/shared/components/organisms/LocaleSelect/index.tsx -->
<g id="node30" class="node">
<title>src/shared/components/organisms/LocaleSelect/index.tsx</title>
<g id="a_node30"><a xlink:href="src/shared/components/organisms/LocaleSelect/index.tsx" xlink:title="index.tsx">
<path fill="#bbfeff" stroke="black" d="M472.5,-775.38C472.5,-775.38 430.5,-775.38 430.5,-775.38 427.5,-775.38 424.5,-772.38 424.5,-769.38 424.5,-769.38 424.5,-763.38 424.5,-763.38 424.5,-760.38 427.5,-757.38 430.5,-757.38 430.5,-757.38 472.5,-757.38 472.5,-757.38 475.5,-757.38 478.5,-760.38 478.5,-763.38 478.5,-763.38 478.5,-769.38 478.5,-769.38 478.5,-772.38 475.5,-775.38 472.5,-775.38"/>
<text text-anchor="middle" x="451.5" y="-764.18" font-family="Helvetica,sans-Serif" font-size="9.00">index.tsx</text>
</a>
</g>
</g>
<!-- src/shared/components/sections/Header/index.tsx&#45;&gt;src/shared/components/organisms/LocaleSelect/index.tsx -->
<g id="edge40" class="edge">
<title>src/shared/components/sections/Header/index.tsx&#45;&gt;src/shared/components/organisms/LocaleSelect/index.tsx</title>
<path fill="none" stroke="#000000" stroke-width="2" stroke-opacity="0.200000" d="M353.54,-621.44C360.65,-629.08 370.29,-640.61 376,-652.38 387.58,-676.23 376.58,-687.5 390,-710.38 400.36,-728.03 418.02,-743.44 431.6,-753.6"/>
<polygon fill="#000000" fill-opacity="0.200000" stroke="#000000" stroke-width="2" stroke-opacity="0.200000" points="430.68,-755.52 436.76,-757.36 433.15,-752.13 430.68,-755.52"/>
</g>
<!-- src/shared/components/sections/Header/index.tsx&#45;&gt;src/shared/routes/index.ts -->
<g id="edge39" class="edge">
<title>src/shared/components/sections/Header/index.tsx&#45;&gt;src/shared/routes/index.ts</title>
<path fill="none" stroke="#000000" stroke-width="2" stroke-opacity="0.200000" d="M354.44,-621.49C361.86,-628.98 371.47,-640.29 376,-652.38 397.57,-709.88 376.2,-868.54 390,-928.38 401.26,-977.21 428.36,-1030.47 442.14,-1055.63"/>
<polygon fill="#000000" fill-opacity="0.200000" stroke="#000000" stroke-width="2" stroke-opacity="0.200000" points="440.44,-1056.9 445.18,-1061.13 444.11,-1054.86 440.44,-1056.9"/>
</g>
<!-- src/shared/components/sections/Header/styles.scss -->
<g id="node34" class="node">
<title>src/shared/components/sections/Header/styles.scss</title>
<g id="a_node34"><a xlink:href="src/shared/components/sections/Header/styles.scss" xlink:title="styles.scss">
<path fill="#ffffcc" stroke="black" d="M475.5,-621.38C475.5,-621.38 427.5,-621.38 427.5,-621.38 424.5,-621.38 421.5,-618.38 421.5,-615.38 421.5,-615.38 421.5,-609.38 421.5,-609.38 421.5,-606.38 424.5,-603.38 427.5,-603.38 427.5,-603.38 475.5,-603.38 475.5,-603.38 478.5,-603.38 481.5,-606.38 481.5,-609.38 481.5,-609.38 481.5,-615.38 481.5,-615.38 481.5,-618.38 478.5,-621.38 475.5,-621.38"/>
<text text-anchor="middle" x="451.5" y="-610.18" font-family="Helvetica,sans-Serif" font-size="9.00">styles.scss</text>
</a>
</g>
</g>
<!-- src/shared/components/sections/Header/index.tsx&#45;&gt;src/shared/components/sections/Header/styles.scss -->
<g id="edge41" class="edge">
<title>src/shared/components/sections/Header/index.tsx&#45;&gt;src/shared/components/sections/Header/styles.scss</title>
<path fill="none" stroke="#000000" stroke-width="2" stroke-opacity="0.200000" d="M370.7,-612.38C384.11,-612.38 400.63,-612.38 415.15,-612.38"/>
<polygon fill="#000000" fill-opacity="0.200000" stroke="#000000" stroke-width="2" stroke-opacity="0.200000" points="415.24,-614.48 421.24,-612.38 415.24,-610.28 415.24,-614.48"/>
</g>
<!-- src/shared/lib/i18n/withLocale.tsx&#45;&gt;src/shared/lib/i18n/config.ts -->
<g id="edge47" class="edge">
<title>src/shared/lib/i18n/withLocale.tsx&#45;&gt;src/shared/lib/i18n/config.ts</title>
<path fill="none" stroke="#000000" stroke-width="2" stroke-opacity="0.200000" d="M488.56,-335C504.07,-336.99 522.06,-339.29 537.14,-341.23"/>
<polygon fill="#000000" fill-opacity="0.200000" stroke="#000000" stroke-width="2" stroke-opacity="0.200000" points="537.18,-343.35 543.4,-342.03 537.72,-339.18 537.18,-343.35"/>
</g>
<!-- src/shared/lib/i18n/withLocale.tsx&#45;&gt;src/shared/lib/store/app/types.ts -->
<g id="edge46" class="edge">
<title>src/shared/lib/i18n/withLocale.tsx&#45;&gt;src/shared/lib/store/app/types.ts</title>
<path fill="none" stroke="#000000" stroke-width="2" stroke-opacity="0.200000" d="M483.43,-321.26C488.22,-319.5 493.05,-317.53 497.5,-315.38 550.5,-289.65 606.92,-248.48 634.24,-227.53"/>
<polygon fill="#000000" fill-opacity="0.200000" stroke="#000000" stroke-width="2" stroke-opacity="0.200000" points="635.84,-228.95 639.31,-223.62 633.27,-225.63 635.84,-228.95"/>
</g>
<!-- src/shared/lib/store/app/actions.ts -->
<g id="node36" class="node">
<title>src/shared/lib/store/app/actions.ts</title>
<g id="a_node36"><a xlink:href="src/shared/lib/store/app/actions.ts" xlink:title="actions.ts">
<path fill="#ddfeff" stroke="black" d="M592,-193.38C592,-193.38 549,-193.38 549,-193.38 546,-193.38 543,-190.38 543,-187.38 543,-187.38 543,-181.38 543,-181.38 543,-178.38 546,-175.38 549,-175.38 549,-175.38 592,-175.38 592,-175.38 595,-175.38 598,-178.38 598,-181.38 598,-181.38 598,-187.38 598,-187.38 598,-190.38 595,-193.38 592,-193.38"/>
<text text-anchor="middle" x="570.5" y="-182.18" font-family="Helvetica,sans-Serif" font-size="9.00">actions.ts</text>
</a>
</g>
</g>
<!-- src/shared/lib/i18n/withLocale.tsx&#45;&gt;src/shared/lib/store/app/actions.ts -->
<g id="edge44" class="edge">
<title>src/shared/lib/i18n/withLocale.tsx&#45;&gt;src/shared/lib/store/app/actions.ts</title>
<path fill="none" stroke="#000000" stroke-width="2" stroke-opacity="0.200000" d="M488.88,-322C492.08,-320.21 495.03,-318.02 497.5,-315.38 533.84,-276.45 491.58,-238.69 527.5,-199.38 530.24,-196.38 533.61,-193.98 537.25,-192.06"/>
<polygon fill="#000000" fill-opacity="0.200000" stroke="#000000" stroke-width="2" stroke-opacity="0.200000" points="538.13,-193.97 542.73,-189.58 536.4,-190.15 538.13,-193.97"/>
</g>
<!-- src/shared/lib/store/app/selectors.ts -->
<g id="node37" class="node">
<title>src/shared/lib/store/app/selectors.ts</title>
<g id="a_node37"><a xlink:href="src/shared/lib/store/app/selectors.ts" xlink:title="selectors.ts">
<path fill="#ddfeff" stroke="black" d="M595.5,-223.38C595.5,-223.38 545.5,-223.38 545.5,-223.38 542.5,-223.38 539.5,-220.38 539.5,-217.38 539.5,-217.38 539.5,-211.38 539.5,-211.38 539.5,-208.38 542.5,-205.38 545.5,-205.38 545.5,-205.38 595.5,-205.38 595.5,-205.38 598.5,-205.38 601.5,-208.38 601.5,-211.38 601.5,-211.38 601.5,-217.38 601.5,-217.38 601.5,-220.38 598.5,-223.38 595.5,-223.38"/>
<text text-anchor="middle" x="570.5" y="-212.18" font-family="Helvetica,sans-Serif" font-size="9.00">selectors.ts</text>
</a>
</g>
</g>
<!-- src/shared/lib/i18n/withLocale.tsx&#45;&gt;src/shared/lib/store/app/selectors.ts -->
<g id="edge45" class="edge">
<title>src/shared/lib/i18n/withLocale.tsx&#45;&gt;src/shared/lib/store/app/selectors.ts</title>
<path fill="none" stroke="#000000" stroke-width="2" stroke-opacity="0.200000" d="M487.63,-321.36C491.15,-319.68 494.51,-317.71 497.5,-315.38 517.04,-300.14 513.21,-288.62 527.5,-268.38 537.27,-254.53 549.19,-239.35 557.84,-228.62"/>
<polygon fill="#000000" fill-opacity="0.200000" stroke="#000000" stroke-width="2" stroke-opacity="0.200000" points="559.65,-229.72 561.79,-223.73 556.38,-227.07 559.65,-229.72"/>
</g>
<!-- src/shared/components/molecules/Menu/index.stories.tsx -->
<g id="node26" class="node">
<title>src/shared/components/molecules/Menu/index.stories.tsx</title>
<g id="a_node26"><a xlink:href="src/shared/components/molecules/Menu/index.stories.tsx" xlink:title="index.stories.tsx">
<path fill="#bbfeff" stroke="black" d="M486.5,-899.38C486.5,-899.38 416.5,-899.38 416.5,-899.38 413.5,-899.38 410.5,-896.38 410.5,-893.38 410.5,-893.38 410.5,-887.38 410.5,-887.38 410.5,-884.38 413.5,-881.38 416.5,-881.38 416.5,-881.38 486.5,-881.38 486.5,-881.38 489.5,-881.38 492.5,-884.38 492.5,-887.38 492.5,-887.38 492.5,-893.38 492.5,-893.38 492.5,-896.38 489.5,-899.38 486.5,-899.38"/>
<text text-anchor="middle" x="451.5" y="-888.18" font-family="Helvetica,sans-Serif" font-size="9.00">index.stories.tsx</text>
</a>
</g>
</g>
<!-- src/shared/components/molecules/Menu/index.tsx -->
<g id="node27" class="node">
<title>src/shared/components/molecules/Menu/index.tsx</title>
<g id="a_node27"><a xlink:href="src/shared/components/molecules/Menu/index.tsx" xlink:title="index.tsx">
<path fill="#bbfeff" stroke="black" d="M591.5,-869.38C591.5,-869.38 549.5,-869.38 549.5,-869.38 546.5,-869.38 543.5,-866.38 543.5,-863.38 543.5,-863.38 543.5,-857.38 543.5,-857.38 543.5,-854.38 546.5,-851.38 549.5,-851.38 549.5,-851.38 591.5,-851.38 591.5,-851.38 594.5,-851.38 597.5,-854.38 597.5,-857.38 597.5,-857.38 597.5,-863.38 597.5,-863.38 597.5,-866.38 594.5,-869.38 591.5,-869.38"/>
<text text-anchor="middle" x="570.5" y="-858.18" font-family="Helvetica,sans-Serif" font-size="9.00">index.tsx</text>
</a>
</g>
</g>
<!-- src/shared/components/molecules/Menu/index.stories.tsx&#45;&gt;src/shared/components/molecules/Menu/index.tsx -->
<g id="edge29" class="edge">
<title>src/shared/components/molecules/Menu/index.stories.tsx&#45;&gt;src/shared/components/molecules/Menu/index.tsx</title>
<path fill="none" stroke="#000000" stroke-width="2" stroke-opacity="0.200000" d="M487.6,-881.38C503.41,-877.32 521.95,-872.57 537.38,-868.61"/>
<polygon fill="#000000" fill-opacity="0.200000" stroke="#000000" stroke-width="2" stroke-opacity="0.200000" points="538.06,-870.61 543.35,-867.08 537.02,-866.54 538.06,-870.61"/>
</g>
<!-- src/shared/components/molecules/Menu/styles.scss -->
<g id="node29" class="node">
<title>src/shared/components/molecules/Menu/styles.scss</title>
<g id="a_node29"><a xlink:href="src/shared/components/molecules/Menu/styles.scss" xlink:title="styles.scss">
<path fill="#ffffcc" stroke="black" d="M676,-869.38C676,-869.38 628,-869.38 628,-869.38 625,-869.38 622,-866.38 622,-863.38 622,-863.38 622,-857.38 622,-857.38 622,-854.38 625,-851.38 628,-851.38 628,-851.38 676,-851.38 676,-851.38 679,-851.38 682,-854.38 682,-857.38 682,-857.38 682,-863.38 682,-863.38 682,-866.38 679,-869.38 676,-869.38"/>
<text text-anchor="middle" x="652" y="-858.18" font-family="Helvetica,sans-Serif" font-size="9.00">styles.scss</text>
</a>
</g>
</g>
<!-- src/shared/components/molecules/Menu/index.tsx&#45;&gt;src/shared/components/molecules/Menu/styles.scss -->
<g id="edge31" class="edge">
<title>src/shared/components/molecules/Menu/index.tsx&#45;&gt;src/shared/components/molecules/Menu/styles.scss</title>
<path fill="none" stroke="#000000" stroke-width="2" stroke-opacity="0.200000" d="M597.53,-860.38C603.37,-860.38 609.67,-860.38 615.81,-860.38"/>
<polygon fill="#000000" fill-opacity="0.200000" stroke="#000000" stroke-width="2" stroke-opacity="0.200000" points="615.88,-862.48 621.88,-860.38 615.88,-858.28 615.88,-862.48"/>
</g>
<!-- src/shared/components/molecules/Menu/index.test.tsx -->
<g id="node28" class="node">
<title>src/shared/components/molecules/Menu/index.test.tsx</title>
<g id="a_node28"><a xlink:href="src/shared/components/molecules/Menu/index.test.tsx" xlink:title="index.test.tsx">
<path fill="#bbfeff" stroke="black" d="M480,-869.38C480,-869.38 423,-869.38 423,-869.38 420,-869.38 417,-866.38 417,-863.38 417,-863.38 417,-857.38 417,-857.38 417,-854.38 420,-851.38 423,-851.38 423,-851.38 480,-851.38 480,-851.38 483,-851.38 486,-854.38 486,-857.38 486,-857.38 486,-863.38 486,-863.38 486,-866.38 483,-869.38 480,-869.38"/>
<text text-anchor="middle" x="451.5" y="-858.18" font-family="Helvetica,sans-Serif" font-size="9.00">index.test.tsx</text>
</a>
</g>
</g>
<!-- src/shared/components/molecules/Menu/index.test.tsx&#45;&gt;src/shared/components/molecules/Menu/index.tsx -->
<g id="edge30" class="edge">
<title>src/shared/components/molecules/Menu/index.test.tsx&#45;&gt;src/shared/components/molecules/Menu/index.tsx</title>
<path fill="none" stroke="#000000" stroke-width="2" stroke-opacity="0.200000" d="M486.03,-860.38C502.12,-860.38 521.32,-860.38 537.25,-860.38"/>
<polygon fill="#000000" fill-opacity="0.200000" stroke="#000000" stroke-width="2" stroke-opacity="0.200000" points="537.4,-862.48 543.4,-860.38 537.4,-858.28 537.4,-862.48"/>
</g>
<!-- src/shared/components/organisms/LocaleSelect/index.tsx&#45;&gt;src/shared/lib/i18n/config.ts -->
<g id="edge32" class="edge">
<title>src/shared/components/organisms/LocaleSelect/index.tsx&#45;&gt;src/shared/lib/i18n/config.ts</title>
<path fill="none" stroke="#000000" stroke-width="2" stroke-opacity="0.200000" d="M462.41,-757.06C472.83,-746.69 488.86,-728.92 497.5,-710.38 512.69,-677.76 555.99,-425.34 566.95,-360.51"/>
<polygon fill="#000000" fill-opacity="0.200000" stroke="#000000" stroke-width="2" stroke-opacity="0.200000" points="569.04,-360.78 567.97,-354.51 564.9,-360.08 569.04,-360.78"/>
</g>
<!-- src/shared/components/organisms/LocaleSelect/index.tsx&#45;&gt;src/shared/lib/store/app/types.ts -->
<g id="edge33" class="edge">
<title>src/shared/components/organisms/LocaleSelect/index.tsx&#45;&gt;src/shared/lib/store/app/types.ts</title>
<path fill="none" stroke="#000000" stroke-width="2" stroke-opacity="0.200000" d="M461.48,-757.15C471.39,-746.58 487.28,-728.38 497.5,-710.38 570.55,-581.73 572.83,-540.62 613.5,-398.38 631.07,-336.92 643.72,-261.68 648.68,-229.81"/>
<polygon fill="#000000" fill-opacity="0.200000" stroke="#000000" stroke-width="2" stroke-opacity="0.200000" points="650.79,-229.94 649.63,-223.69 646.64,-229.3 650.79,-229.94"/>
</g>
<!-- src/shared/components/organisms/LocaleSelect/index.tsx&#45;&gt;src/shared/components/molecules/Menu/index.tsx -->
<g id="edge34" class="edge">
<title>src/shared/components/organisms/LocaleSelect/index.tsx&#45;&gt;src/shared/components/molecules/Menu/index.tsx</title>
<path fill="none" stroke="#000000" stroke-width="2" stroke-opacity="0.200000" d="M463.72,-775.39C484.54,-792.12 529.24,-828.03 553.33,-847.39"/>
<polygon fill="#000000" fill-opacity="0.200000" stroke="#000000" stroke-width="2" stroke-opacity="0.200000" points="552.15,-849.13 558.14,-851.25 554.78,-845.86 552.15,-849.13"/>
</g>
<!-- src/shared/pages/404/index.tsx -->
<g id="node39" class="node">
<title>src/shared/pages/404/index.tsx</title>
<g id="a_node39"><a xlink:href="src/shared/pages/404/index.tsx" xlink:title="index.tsx">
<path fill="#bbfeff" stroke="black" d="M591.5,-1259.38C591.5,-1259.38 549.5,-1259.38 549.5,-1259.38 546.5,-1259.38 543.5,-1256.38 543.5,-1253.38 543.5,-1253.38 543.5,-1247.38 543.5,-1247.38 543.5,-1244.38 546.5,-1241.38 549.5,-1241.38 549.5,-1241.38 591.5,-1241.38 591.5,-1241.38 594.5,-1241.38 597.5,-1244.38 597.5,-1247.38 597.5,-1247.38 597.5,-1253.38 597.5,-1253.38 597.5,-1256.38 594.5,-1259.38 591.5,-1259.38"/>
<text text-anchor="middle" x="570.5" y="-1248.18" font-family="Helvetica,sans-Serif" font-size="9.00">index.tsx</text>
</a>
</g>
</g>
<!-- src/shared/routes/index.ts&#45;&gt;src/shared/pages/404/index.tsx -->
<g id="edge58" class="edge">
<title>src/shared/routes/index.ts&#45;&gt;src/shared/pages/404/index.tsx</title>
<path fill="none" stroke="#000000" stroke-width="2" stroke-opacity="0.200000" d="M454.61,-1079.39C461.15,-1105.54 483.31,-1182.41 527.5,-1228.38 531.19,-1232.21 535.7,-1235.52 540.37,-1238.31"/>
<polygon fill="#000000" fill-opacity="0.200000" stroke="#000000" stroke-width="2" stroke-opacity="0.200000" points="539.63,-1240.3 545.9,-1241.36 541.66,-1236.62 539.63,-1240.3"/>
</g>
<!-- src/shared/pages/home/index.tsx -->
<g id="node40" class="node">
<title>src/shared/pages/home/index.tsx</title>
<g id="a_node40"><a xlink:href="src/shared/pages/home/index.tsx" xlink:title="index.tsx">
<path fill="#bbfeff" stroke="black" d="M591.5,-1199.38C591.5,-1199.38 549.5,-1199.38 549.5,-1199.38 546.5,-1199.38 543.5,-1196.38 543.5,-1193.38 543.5,-1193.38 543.5,-1187.38 543.5,-1187.38 543.5,-1184.38 546.5,-1181.38 549.5,-1181.38 549.5,-1181.38 591.5,-1181.38 591.5,-1181.38 594.5,-1181.38 597.5,-1184.38 597.5,-1187.38 597.5,-1187.38 597.5,-1193.38 597.5,-1193.38 597.5,-1196.38 594.5,-1199.38 591.5,-1199.38"/>
<text text-anchor="middle" x="570.5" y="-1188.18" font-family="Helvetica,sans-Serif" font-size="9.00">index.tsx</text>
</a>
</g>
</g>
<!-- src/shared/routes/index.ts&#45;&gt;src/shared/pages/home/index.tsx -->
<g id="edge59" class="edge">
<title>src/shared/routes/index.ts&#45;&gt;src/shared/pages/home/index.tsx</title>
<path fill="none" stroke="#000000" stroke-width="2" stroke-opacity="0.200000" d="M457.64,-1079.54C468.48,-1098.25 495.38,-1141.32 527.5,-1168.38 531.94,-1172.11 537.12,-1175.46 542.29,-1178.35"/>
<polygon fill="#000000" fill-opacity="0.200000" stroke="#000000" stroke-width="2" stroke-opacity="0.200000" points="541.59,-1180.35 547.87,-1181.3 543.55,-1176.64 541.59,-1180.35"/>
</g>
<!-- src/shared/pages/page&#45;1/index.tsx -->
<g id="node41" class="node">
<title>src/shared/pages/page&#45;1/index.tsx</title>
<g id="a_node41"><a xlink:href="src/shared/pages/page-1/index.tsx" xlink:title="index.tsx">
<path fill="#bbfeff" stroke="black" d="M591.5,-1139.38C591.5,-1139.38 549.5,-1139.38 549.5,-1139.38 546.5,-1139.38 543.5,-1136.38 543.5,-1133.38 543.5,-1133.38 543.5,-1127.38 543.5,-1127.38 543.5,-1124.38 546.5,-1121.38 549.5,-1121.38 549.5,-1121.38 591.5,-1121.38 591.5,-1121.38 594.5,-1121.38 597.5,-1124.38 597.5,-1127.38 597.5,-1127.38 597.5,-1133.38 597.5,-1133.38 597.5,-1136.38 594.5,-1139.38 591.5,-1139.38"/>
<text text-anchor="middle" x="570.5" y="-1128.18" font-family="Helvetica,sans-Serif" font-size="9.00">index.tsx</text>
</a>
</g>
</g>
<!-- src/shared/routes/index.ts&#45;&gt;src/shared/pages/page&#45;1/index.tsx -->
<g id="edge60" class="edge">
<title>src/shared/routes/index.ts&#45;&gt;src/shared/pages/page&#45;1/index.tsx</title>
<path fill="none" stroke="#000000" stroke-width="2" stroke-opacity="0.200000" d="M470.27,-1079.49C490.66,-1089.95 524.16,-1107.12 546.52,-1118.59"/>
<polygon fill="#000000" fill-opacity="0.200000" stroke="#000000" stroke-width="2" stroke-opacity="0.200000" points="545.65,-1120.5 551.95,-1121.37 547.57,-1116.77 545.65,-1120.5"/>
</g>
<!-- src/shared/pages/page&#45;2/index.tsx -->
<g id="node42" class="node">
<title>src/shared/pages/page&#45;2/index.tsx</title>
<g id="a_node42"><a xlink:href="src/shared/pages/page-2/index.tsx" xlink:title="index.tsx">
<path fill="#bbfeff" stroke="black" d="M591.5,-1079.38C591.5,-1079.38 549.5,-1079.38 549.5,-1079.38 546.5,-1079.38 543.5,-1076.38 543.5,-1073.38 543.5,-1073.38 543.5,-1067.38 543.5,-1067.38 543.5,-1064.38 546.5,-1061.38 549.5,-1061.38 549.5,-1061.38 591.5,-1061.38 591.5,-1061.38 594.5,-1061.38 597.5,-1064.38 597.5,-1067.38 597.5,-1067.38 597.5,-1073.38 597.5,-1073.38 597.5,-1076.38 594.5,-1079.38 591.5,-1079.38"/>
<text text-anchor="middle" x="570.5" y="-1068.18" font-family="Helvetica,sans-Serif" font-size="9.00">index.tsx</text>
</a>
</g>
</g>
<!-- src/shared/routes/index.ts&#45;&gt;src/shared/pages/page&#45;2/index.tsx -->
<g id="edge61" class="edge">
<title>src/shared/routes/index.ts&#45;&gt;src/shared/pages/page&#45;2/index.tsx</title>
<path fill="none" stroke="#000000" stroke-width="2" stroke-opacity="0.200000" d="M478.76,-1070.38C496.07,-1070.38 518.86,-1070.38 537.27,-1070.38"/>
<polygon fill="#000000" fill-opacity="0.200000" stroke="#000000" stroke-width="2" stroke-opacity="0.200000" points="537.33,-1072.48 543.33,-1070.38 537.33,-1068.28 537.33,-1072.48"/>
</g>
<!-- src/shared/pages/page&#45;3/index.tsx -->
<g id="node43" class="node">
<title>src/shared/pages/page&#45;3/index.tsx</title>
<g id="a_node43"><a xlink:href="src/shared/pages/page-3/index.tsx" xlink:title="index.tsx">
<path fill="#bbfeff" stroke="black" d="M591.5,-1019.38C591.5,-1019.38 549.5,-1019.38 549.5,-1019.38 546.5,-1019.38 543.5,-1016.38 543.5,-1013.38 543.5,-1013.38 543.5,-1007.38 543.5,-1007.38 543.5,-1004.38 546.5,-1001.38 549.5,-1001.38 549.5,-1001.38 591.5,-1001.38 591.5,-1001.38 594.5,-1001.38 597.5,-1004.38 597.5,-1007.38 597.5,-1007.38 597.5,-1013.38 597.5,-1013.38 597.5,-1016.38 594.5,-1019.38 591.5,-1019.38"/>
<text text-anchor="middle" x="570.5" y="-1008.18" font-family="Helvetica,sans-Serif" font-size="9.00">index.tsx</text>
</a>
</g>
</g>
<!-- src/shared/routes/index.ts&#45;&gt;src/shared/pages/page&#45;3/index.tsx -->
<g id="edge62" class="edge">
<title>src/shared/routes/index.ts&#45;&gt;src/shared/pages/page&#45;3/index.tsx</title>
<path fill="none" stroke="#000000" stroke-width="2" stroke-opacity="0.200000" d="M470.27,-1061.26C490.66,-1050.81 524.16,-1033.63 546.52,-1022.16"/>
<polygon fill="#000000" fill-opacity="0.200000" stroke="#000000" stroke-width="2" stroke-opacity="0.200000" points="547.57,-1023.98 551.95,-1019.38 545.65,-1020.25 547.57,-1023.98"/>
</g>
<!-- src/shared/lib/i18n/withLocale.test.tsx -->
<g id="node35" class="node">
<title>src/shared/lib/i18n/withLocale.test.tsx</title>
<g id="a_node35"><a xlink:href="src/shared/lib/i18n/withLocale.test.tsx" xlink:title="no&#45;orphans">
<path fill="#ccffcc" stroke="orange" d="M491,-309.38C491,-309.38 412,-309.38 412,-309.38 409,-309.38 406,-306.38 406,-303.38 406,-303.38 406,-297.38 406,-297.38 406,-294.38 409,-291.38 412,-291.38 412,-291.38 491,-291.38 491,-291.38 494,-291.38 497,-294.38 497,-297.38 497,-297.38 497,-303.38 497,-303.38 497,-306.38 494,-309.38 491,-309.38"/>
<text text-anchor="middle" x="451.5" y="-298.18" font-family="Helvetica,sans-Serif" font-size="9.00" fill="orange">withLocale.test.tsx</text>
</a>
</g>
</g>
<!-- src/shared/lib/store/app/actions.ts&#45;&gt;src/shared/lib/store/app/types.ts -->
<g id="edge48" class="edge">
<title>src/shared/lib/store/app/actions.ts&#45;&gt;src/shared/lib/store/app/types.ts</title>
<path fill="none" stroke="#000000" stroke-width="2" stroke-opacity="0.200000" d="M597.32,-193.43C602.68,-195.35 608.29,-197.4 613.5,-199.38 616.62,-200.55 619.87,-201.81 623.09,-203.08"/>
<polygon fill="#000000" fill-opacity="0.200000" stroke="#000000" stroke-width="2" stroke-opacity="0.200000" points="622.49,-205.1 628.85,-205.35 624.04,-201.19 622.49,-205.1"/>
</g>
<!-- src/shared/lib/store/app/selectors.ts&#45;&gt;src/shared/lib/store/app/types.ts -->
<g id="edge53" class="edge">
<title>src/shared/lib/store/app/selectors.ts&#45;&gt;src/shared/lib/store/app/types.ts</title>
<path fill="none" stroke="#000000" stroke-width="2" stroke-opacity="0.200000" d="M601.56,-214.38C607.17,-214.38 613.07,-214.38 618.75,-214.38"/>
<polygon fill="#000000" fill-opacity="0.200000" stroke="#000000" stroke-width="2" stroke-opacity="0.200000" points="618.81,-216.48 624.81,-214.38 618.81,-212.28 618.81,-216.48"/>
</g>
<!-- src/shared/lib/store/app/selectors.ts&#45;&gt;src/shared/lib/store/rootReducer.ts -->
<g id="edge52" class="edge">
<title>src/shared/lib/store/app/selectors.ts&#45;&gt;src/shared/lib/store/rootReducer.ts</title>
<path fill="none" stroke="#000000" stroke-width="2" stroke-opacity="0.200000" d="M539.43,-210.54C529.08,-207.59 518.62,-202.42 512.5,-193.38 503.28,-179.76 503.28,-169.99 512.5,-156.38 515.95,-151.28 520.79,-147.47 526.23,-144.62"/>
<polygon fill="#000000" fill-opacity="0.200000" stroke="#000000" stroke-width="2" stroke-opacity="0.200000" points="527.23,-146.47 531.83,-142.08 525.5,-142.64 527.23,-146.47"/>
</g>
<!-- src/shared/lib/store/app/reducers.ts&#45;&gt;src/shared/lib/i18n/config.ts -->
<g id="edge49" class="edge">
<title>src/shared/lib/store/app/reducers.ts&#45;&gt;src/shared/lib/i18n/config.ts</title>
<path fill="none" stroke="#000000" stroke-width="2" stroke-opacity="0.200000" d="M458.79,-186.41C477.99,-213.98 535.98,-297.25 559.46,-330.96"/>
<polygon fill="#000000" fill-opacity="0.200000" stroke="#000000" stroke-width="2" stroke-opacity="0.200000" points="558.03,-332.58 563.18,-336.3 561.47,-330.18 558.03,-332.58"/>
</g>
<!-- src/shared/lib/store/app/reducers.ts&#45;&gt;src/shared/lib/store/app/types.ts -->
<g id="edge51" class="edge">
<title>src/shared/lib/store/app/reducers.ts&#45;&gt;src/shared/lib/store/app/types.ts</title>
<path fill="none" stroke="#000000" stroke-width="2" stroke-opacity="0.200000" d="M482.63,-172.56C522.69,-166.72 591.07,-158.87 613.5,-169.38 626.83,-175.62 637.08,-189.19 643.46,-199.81"/>
<polygon fill="#000000" fill-opacity="0.200000" stroke="#000000" stroke-width="2" stroke-opacity="0.200000" points="641.65,-200.87 646.45,-205.04 645.3,-198.78 641.65,-200.87"/>
</g>
<!-- src/shared/lib/store/app/reducers.ts&#45;&gt;src/shared/lib/store/app/actions.ts -->
<g id="edge50" class="edge">
<title>src/shared/lib/store/app/reducers.ts&#45;&gt;src/shared/lib/store/app/actions.ts</title>
<path fill="none" stroke="#000000" stroke-width="2" stroke-opacity="0.200000" d="M482.63,-179.18C499.15,-180.17 519.66,-181.39 536.6,-182.41"/>
<polygon fill="#000000" fill-opacity="0.200000" stroke="#000000" stroke-width="2" stroke-opacity="0.200000" points="536.55,-184.51 542.66,-182.77 536.8,-180.32 536.55,-184.51"/>
</g>
<!-- src/shared/routes/index.test.ts -->
<g id="node44" class="node">
<title>src/shared/routes/index.test.ts</title>
<g id="a_node44"><a xlink:href="src/shared/routes/index.test.ts" xlink:title="index.test.ts">
<path fill="#ddfeff" stroke="black" d="M370,-1079.38C370,-1079.38 317,-1079.38 317,-1079.38 314,-1079.38 311,-1076.38 311,-1073.38 311,-1073.38 311,-1067.38 311,-1067.38 311,-1064.38 314,-1061.38 317,-1061.38 317,-1061.38 370,-1061.38 370,-1061.38 373,-1061.38 376,-1064.38 376,-1067.38 376,-1067.38 376,-1073.38 376,-1073.38 376,-1076.38 373,-1079.38 370,-1079.38"/>
<text text-anchor="middle" x="343.5" y="-1068.18" font-family="Helvetica,sans-Serif" font-size="9.00">index.test.ts</text>
</a>
</g>
</g>
<!-- src/shared/routes/index.test.ts&#45;&gt;src/shared/routes/index.ts -->
<g id="edge57" class="edge">
<title>src/shared/routes/index.test.ts&#45;&gt;src/shared/routes/index.ts</title>
<path fill="none" stroke="#000000" stroke-width="2" stroke-opacity="0.200000" d="M376.02,-1070.38C389.23,-1070.38 404.59,-1070.38 417.92,-1070.38"/>
<polygon fill="#000000" fill-opacity="0.200000" stroke="#000000" stroke-width="2" stroke-opacity="0.200000" points="418.28,-1072.48 424.28,-1070.38 418.28,-1068.28 418.28,-1072.48"/>
</g>
</g>
</svg>
