<?xml version="1.0" encoding="UTF-8" standalone="no"?>
<!DOCTYPE svg PUBLIC "-//W3C//DTD SVG 1.1//EN"
 "http://www.w3.org/Graphics/SVG/1.1/DTD/svg11.dtd">
<!-- Generated by graphviz version 2.44.1 (20200629.0846)
 -->
<!-- Title: dependency&#45;cruiser output Pages: 1 -->
<svg width="819pt" height="1558pt"
 viewBox="0.00 0.00 818.50 1557.58" xmlns="http://www.w3.org/2000/svg" xmlns:xlink="http://www.w3.org/1999/xlink">
<g id="graph0" class="graph" transform="scale(1 1) rotate(0) translate(4 1553.58)">
<title>dependency&#45;cruiser output</title>
<polygon fill="white" stroke="transparent" points="-4,4 -4,-1553.58 814.5,-1553.58 814.5,4 -4,4"/>
<g id="clust1" class="cluster">
<title>cluster_config</title>
<path fill="#ffffff" stroke="black" stroke-width="2" d="M120.5,-1478.38C120.5,-1478.38 166.5,-1478.38 166.5,-1478.38 172.5,-1478.38 178.5,-1484.38 178.5,-1490.38 178.5,-1490.38 178.5,-1518.38 178.5,-1518.38 178.5,-1524.38 172.5,-1530.38 166.5,-1530.38 166.5,-1530.38 120.5,-1530.38 120.5,-1530.38 114.5,-1530.38 108.5,-1524.38 108.5,-1518.38 108.5,-1518.38 108.5,-1490.38 108.5,-1490.38 108.5,-1484.38 114.5,-1478.38 120.5,-1478.38"/>
<text text-anchor="middle" x="143.5" y="-1519.18" font-family="Helvetica,sans-Serif" font-weight="bold" font-size="9.00">config</text>
</g>
<g id="clust2" class="cluster">
<title>cluster_src</title>
<path fill="#ffffff" stroke="black" stroke-width="2" d="M20,-8.38C20,-8.38 790.5,-8.38 790.5,-8.38 796.5,-8.38 802.5,-14.38 802.5,-20.38 802.5,-20.38 802.5,-1458.38 802.5,-1458.38 802.5,-1464.38 796.5,-1470.38 790.5,-1470.38 790.5,-1470.38 20,-1470.38 20,-1470.38 14,-1470.38 8,-1464.38 8,-1458.38 8,-1458.38 8,-20.38 8,-20.38 8,-14.38 14,-8.38 20,-8.38"/>
<text text-anchor="middle" x="405.25" y="-1459.18" font-family="Helvetica,sans-Serif" font-weight="bold" font-size="9.00">src</text>
</g>
<g id="clust7" class="cluster">
<title>cluster_src/shared</title>
<path fill="#ffffff" stroke="black" stroke-width="2" d="M103.5,-86.38C103.5,-86.38 782.5,-86.38 782.5,-86.38 788.5,-86.38 794.5,-92.38 794.5,-98.38 794.5,-98.38 794.5,-1248.38 794.5,-1248.38 794.5,-1254.38 788.5,-1260.38 782.5,-1260.38 782.5,-1260.38 103.5,-1260.38 103.5,-1260.38 97.5,-1260.38 91.5,-1254.38 91.5,-1248.38 91.5,-1248.38 91.5,-98.38 91.5,-98.38 91.5,-92.38 97.5,-86.38 103.5,-86.38"/>
<text text-anchor="middle" x="443" y="-1249.18" font-family="Helvetica,sans-Serif" font-weight="bold" font-size="9.00">shared</text>
</g>
<g id="clust8" class="cluster">
<title>cluster_src/shared/__test__</title>
<path fill="#ffffff" stroke="black" stroke-width="2" d="M111.5,-622.38C111.5,-622.38 175.5,-622.38 175.5,-622.38 181.5,-622.38 187.5,-628.38 187.5,-634.38 187.5,-634.38 187.5,-692.38 187.5,-692.38 187.5,-698.38 181.5,-704.38 175.5,-704.38 175.5,-704.38 111.5,-704.38 111.5,-704.38 105.5,-704.38 99.5,-698.38 99.5,-692.38 99.5,-692.38 99.5,-634.38 99.5,-634.38 99.5,-628.38 105.5,-622.38 111.5,-622.38"/>
<text text-anchor="middle" x="143.5" y="-693.18" font-family="Helvetica,sans-Serif" font-weight="bold" font-size="9.00">__test__</text>
</g>
<g id="clust9" class="cluster">
<title>cluster_src/shared/assets</title>
<path fill="#ffffff" stroke="black" stroke-width="2" d="M418.5,-94.38C418.5,-94.38 474.5,-94.38 474.5,-94.38 480.5,-94.38 486.5,-100.38 486.5,-106.38 486.5,-106.38 486.5,-164.38 486.5,-164.38 486.5,-170.38 480.5,-176.38 474.5,-176.38 474.5,-176.38 418.5,-176.38 418.5,-176.38 412.5,-176.38 406.5,-170.38 406.5,-164.38 406.5,-164.38 406.5,-106.38 406.5,-106.38 406.5,-100.38 412.5,-94.38 418.5,-94.38"/>
<text text-anchor="middle" x="446.5" y="-165.18" font-family="Helvetica,sans-Serif" font-weight="bold" font-size="9.00">assets</text>
</g>
<g id="clust10" class="cluster">
<title>cluster_src/shared/components</title>
<path fill="#ffffff" stroke="black" stroke-width="2" d="M304.5,-184.38C304.5,-184.38 688.5,-184.38 688.5,-184.38 694.5,-184.38 700.5,-190.38 700.5,-196.38 700.5,-196.38 700.5,-600.38 700.5,-600.38 700.5,-606.38 694.5,-612.38 688.5,-612.38 688.5,-612.38 304.5,-612.38 304.5,-612.38 298.5,-612.38 292.5,-606.38 292.5,-600.38 292.5,-600.38 292.5,-196.38 292.5,-196.38 292.5,-190.38 298.5,-184.38 304.5,-184.38"/>
<text text-anchor="middle" x="496.5" y="-601.18" font-family="Helvetica,sans-Serif" font-weight="bold" font-size="9.00">components</text>
</g>
<g id="clust11" class="cluster">
<title>cluster_src/shared/components/molecules</title>
<path fill="#ffffff" stroke="black" stroke-width="2" d="M401.5,-406.38C401.5,-406.38 680.5,-406.38 680.5,-406.38 686.5,-406.38 692.5,-412.38 692.5,-418.38 692.5,-418.38 692.5,-480.38 692.5,-480.38 692.5,-486.38 686.5,-492.38 680.5,-492.38 680.5,-492.38 401.5,-492.38 401.5,-492.38 395.5,-492.38 389.5,-486.38 389.5,-480.38 389.5,-480.38 389.5,-418.38 389.5,-418.38 389.5,-412.38 395.5,-406.38 401.5,-406.38"/>
<text text-anchor="middle" x="541" y="-481.18" font-family="Helvetica,sans-Serif" font-weight="bold" font-size="9.00">molecules</text>
</g>
<g id="clust12" class="cluster">
<title>cluster_src/shared/components/molecules/Menu</title>
<path fill="#ffffff" stroke="black" stroke-width="2" d="M409.5,-414.38C409.5,-414.38 672.5,-414.38 672.5,-414.38 678.5,-414.38 684.5,-420.38 684.5,-426.38 684.5,-426.38 684.5,-454.38 684.5,-454.38 684.5,-460.38 678.5,-466.38 672.5,-466.38 672.5,-466.38 409.5,-466.38 409.5,-466.38 403.5,-466.38 397.5,-460.38 397.5,-454.38 397.5,-454.38 397.5,-426.38 397.5,-426.38 397.5,-420.38 403.5,-414.38 409.5,-414.38"/>
<text text-anchor="middle" x="541" y="-455.18" font-family="Helvetica,sans-Serif" font-weight="bold" font-size="9.00">Menu</text>
</g>
<g id="clust13" class="cluster">
<title>cluster_src/shared/components/organisms</title>
<path fill="#ffffff" stroke="black" stroke-width="2" d="M414.5,-500.38C414.5,-500.38 478.5,-500.38 478.5,-500.38 484.5,-500.38 490.5,-506.38 490.5,-512.38 490.5,-512.38 490.5,-574.38 490.5,-574.38 490.5,-580.38 484.5,-586.38 478.5,-586.38 478.5,-586.38 414.5,-586.38 414.5,-586.38 408.5,-586.38 402.5,-580.38 402.5,-574.38 402.5,-574.38 402.5,-512.38 402.5,-512.38 402.5,-506.38 408.5,-500.38 414.5,-500.38"/>
<text text-anchor="middle" x="446.5" y="-575.18" font-family="Helvetica,sans-Serif" font-weight="bold" font-size="9.00">organisms</text>
</g>
<g id="clust14" class="cluster">
<title>cluster_src/shared/components/organisms/LocaleSelect</title>
<path fill="#ffffff" stroke="black" stroke-width="2" d="M422.5,-508.38C422.5,-508.38 470.5,-508.38 470.5,-508.38 476.5,-508.38 482.5,-514.38 482.5,-520.38 482.5,-520.38 482.5,-548.38 482.5,-548.38 482.5,-554.38 476.5,-560.38 470.5,-560.38 470.5,-560.38 422.5,-560.38 422.5,-560.38 416.5,-560.38 410.5,-554.38 410.5,-548.38 410.5,-548.38 410.5,-520.38 410.5,-520.38 410.5,-514.38 416.5,-508.38 422.5,-508.38"/>
<text text-anchor="middle" x="446.5" y="-549.18" font-family="Helvetica,sans-Serif" font-weight="bold" font-size="9.00">LocaleSelect</text>
</g>
<g id="clust15" class="cluster">
<title>cluster_src/shared/components/sections</title>
<path fill="#ffffff" stroke="black" stroke-width="2" d="M312.5,-192.38C312.5,-192.38 478.5,-192.38 478.5,-192.38 484.5,-192.38 490.5,-198.38 490.5,-204.38 490.5,-204.38 490.5,-386.38 490.5,-386.38 490.5,-392.38 484.5,-398.38 478.5,-398.38 478.5,-398.38 312.5,-398.38 312.5,-398.38 306.5,-398.38 300.5,-392.38 300.5,-386.38 300.5,-386.38 300.5,-204.38 300.5,-204.38 300.5,-198.38 306.5,-192.38 312.5,-192.38"/>
<text text-anchor="middle" x="395.5" y="-387.18" font-family="Helvetica,sans-Serif" font-weight="bold" font-size="9.00">sections</text>
</g>
<g id="clust16" class="cluster">
<title>cluster_src/shared/components/sections/Content</title>
<path fill="#ffffff" stroke="black" stroke-width="2" d="M320.5,-320.38C320.5,-320.38 470.5,-320.38 470.5,-320.38 476.5,-320.38 482.5,-326.38 482.5,-332.38 482.5,-332.38 482.5,-360.38 482.5,-360.38 482.5,-366.38 476.5,-372.38 470.5,-372.38 470.5,-372.38 320.5,-372.38 320.5,-372.38 314.5,-372.38 308.5,-366.38 308.5,-360.38 308.5,-360.38 308.5,-332.38 308.5,-332.38 308.5,-326.38 314.5,-320.38 320.5,-320.38"/>
<text text-anchor="middle" x="395.5" y="-361.18" font-family="Helvetica,sans-Serif" font-weight="bold" font-size="9.00">Content</text>
</g>
<g id="clust17" class="cluster">
<title>cluster_src/shared/components/sections/Footer</title>
<path fill="#ffffff" stroke="black" stroke-width="2" d="M320.5,-260.38C320.5,-260.38 470.5,-260.38 470.5,-260.38 476.5,-260.38 482.5,-266.38 482.5,-272.38 482.5,-272.38 482.5,-300.38 482.5,-300.38 482.5,-306.38 476.5,-312.38 470.5,-312.38 470.5,-312.38 320.5,-312.38 320.5,-312.38 314.5,-312.38 308.5,-306.38 308.5,-300.38 308.5,-300.38 308.5,-272.38 308.5,-272.38 308.5,-266.38 314.5,-260.38 320.5,-260.38"/>
<text text-anchor="middle" x="395.5" y="-301.18" font-family="Helvetica,sans-Serif" font-weight="bold" font-size="9.00">Footer</text>
</g>
<g id="clust18" class="cluster">
<title>cluster_src/shared/components/sections/Header</title>
<path fill="#ffffff" stroke="black" stroke-width="2" d="M320.5,-200.38C320.5,-200.38 470.5,-200.38 470.5,-200.38 476.5,-200.38 482.5,-206.38 482.5,-212.38 482.5,-212.38 482.5,-240.38 482.5,-240.38 482.5,-246.38 476.5,-252.38 470.5,-252.38 470.5,-252.38 320.5,-252.38 320.5,-252.38 314.5,-252.38 308.5,-246.38 308.5,-240.38 308.5,-240.38 308.5,-212.38 308.5,-212.38 308.5,-206.38 314.5,-200.38 320.5,-200.38"/>
<text text-anchor="middle" x="395.5" y="-241.18" font-family="Helvetica,sans-Serif" font-weight="bold" font-size="9.00">Header</text>
</g>
<g id="clust19" class="cluster">
<title>cluster_src/shared/lib</title>
<path fill="#ffffff" stroke="black" stroke-width="2" d="M312.5,-980.38C312.5,-980.38 774.5,-980.38 774.5,-980.38 780.5,-980.38 786.5,-986.38 786.5,-992.38 786.5,-992.38 786.5,-1222.38 786.5,-1222.38 786.5,-1228.38 780.5,-1234.38 774.5,-1234.38 774.5,-1234.38 312.5,-1234.38 312.5,-1234.38 306.5,-1234.38 300.5,-1228.38 300.5,-1222.38 300.5,-1222.38 300.5,-992.38 300.5,-992.38 300.5,-986.38 306.5,-980.38 312.5,-980.38"/>
<text text-anchor="middle" x="543.5" y="-1223.18" font-family="Helvetica,sans-Serif" font-weight="bold" font-size="9.00">lib</text>
</g>
<g id="clust20" class="cluster">
<title>cluster_src/shared/lib/i18n</title>
<path fill="#ffffff" stroke="black" stroke-width="2" d="M534.5,-988.38C534.5,-988.38 671.5,-988.38 671.5,-988.38 677.5,-988.38 683.5,-994.38 683.5,-1000.38 683.5,-1000.38 683.5,-1058.38 683.5,-1058.38 683.5,-1064.38 677.5,-1070.38 671.5,-1070.38 671.5,-1070.38 534.5,-1070.38 534.5,-1070.38 528.5,-1070.38 522.5,-1064.38 522.5,-1058.38 522.5,-1058.38 522.5,-1000.38 522.5,-1000.38 522.5,-994.38 528.5,-988.38 534.5,-988.38"/>
<text text-anchor="middle" x="603" y="-1059.18" font-family="Helvetica,sans-Serif" font-weight="bold" font-size="9.00">i18n</text>
</g>
<g id="clust21" class="cluster">
<title>cluster_src/shared/lib/redux</title>
<path fill="#ffffff" stroke="black" stroke-width="2" d="M320.5,-1078.38C320.5,-1078.38 766.5,-1078.38 766.5,-1078.38 772.5,-1078.38 778.5,-1084.38 778.5,-1090.38 778.5,-1090.38 778.5,-1196.38 778.5,-1196.38 778.5,-1202.38 772.5,-1208.38 766.5,-1208.38 766.5,-1208.38 320.5,-1208.38 320.5,-1208.38 314.5,-1208.38 308.5,-1202.38 308.5,-1196.38 308.5,-1196.38 308.5,-1090.38 308.5,-1090.38 308.5,-1084.38 314.5,-1078.38 320.5,-1078.38"/>
<text text-anchor="middle" x="543.5" y="-1197.18" font-family="Helvetica,sans-Serif" font-weight="bold" font-size="9.00">redux</text>
</g>
<g id="clust22" class="cluster">
<title>cluster_src/shared/lib/redux/app</title>
<path fill="#ffffff" stroke="black" stroke-width="2" d="M540.5,-1086.38C540.5,-1086.38 758.5,-1086.38 758.5,-1086.38 764.5,-1086.38 770.5,-1092.38 770.5,-1098.38 770.5,-1098.38 770.5,-1170.38 770.5,-1170.38 770.5,-1176.38 764.5,-1182.38 758.5,-1182.38 758.5,-1182.38 540.5,-1182.38 540.5,-1182.38 534.5,-1182.38 528.5,-1176.38 528.5,-1170.38 528.5,-1170.38 528.5,-1098.38 528.5,-1098.38 528.5,-1092.38 534.5,-1086.38 540.5,-1086.38"/>
<text text-anchor="middle" x="649.5" y="-1171.18" font-family="Helvetica,sans-Serif" font-weight="bold" font-size="9.00">app</text>
</g>
<g id="clust23" class="cluster">
<title>cluster_src/shared/pages</title>
<path fill="#ffffff" stroke="black" stroke-width="2" d="M415.5,-620.38C415.5,-620.38 477.5,-620.38 477.5,-620.38 483.5,-620.38 489.5,-626.38 489.5,-632.38 489.5,-632.38 489.5,-934.38 489.5,-934.38 489.5,-940.38 483.5,-946.38 477.5,-946.38 477.5,-946.38 415.5,-946.38 415.5,-946.38 409.5,-946.38 403.5,-940.38 403.5,-934.38 403.5,-934.38 403.5,-632.38 403.5,-632.38 403.5,-626.38 409.5,-620.38 415.5,-620.38"/>
<text text-anchor="middle" x="446.5" y="-935.18" font-family="Helvetica,sans-Serif" font-weight="bold" font-size="9.00">pages</text>
</g>
<g id="clust24" class="cluster">
<title>cluster_src/shared/pages/404</title>
<path fill="#ffffff" stroke="black" stroke-width="2" d="M423.5,-868.38C423.5,-868.38 469.5,-868.38 469.5,-868.38 475.5,-868.38 481.5,-874.38 481.5,-880.38 481.5,-880.38 481.5,-908.38 481.5,-908.38 481.5,-914.38 475.5,-920.38 469.5,-920.38 469.5,-920.38 423.5,-920.38 423.5,-920.38 417.5,-920.38 411.5,-914.38 411.5,-908.38 411.5,-908.38 411.5,-880.38 411.5,-880.38 411.5,-874.38 417.5,-868.38 423.5,-868.38"/>
<text text-anchor="middle" x="446.5" y="-909.18" font-family="Helvetica,sans-Serif" font-weight="bold" font-size="9.00">404</text>
</g>
<g id="clust25" class="cluster">
<title>cluster_src/shared/pages/home</title>
<path fill="#ffffff" stroke="black" stroke-width="2" d="M423.5,-808.38C423.5,-808.38 469.5,-808.38 469.5,-808.38 475.5,-808.38 481.5,-814.38 481.5,-820.38 481.5,-820.38 481.5,-848.38 481.5,-848.38 481.5,-854.38 475.5,-860.38 469.5,-860.38 469.5,-860.38 423.5,-860.38 423.5,-860.38 417.5,-860.38 411.5,-854.38 411.5,-848.38 411.5,-848.38 411.5,-820.38 411.5,-820.38 411.5,-814.38 417.5,-808.38 423.5,-808.38"/>
<text text-anchor="middle" x="446.5" y="-849.18" font-family="Helvetica,sans-Serif" font-weight="bold" font-size="9.00">home</text>
</g>
<g id="clust26" class="cluster">
<title>cluster_src/shared/pages/page&#45;1</title>
<path fill="#ffffff" stroke="black" stroke-width="2" d="M423.5,-748.38C423.5,-748.38 469.5,-748.38 469.5,-748.38 475.5,-748.38 481.5,-754.38 481.5,-760.38 481.5,-760.38 481.5,-788.38 481.5,-788.38 481.5,-794.38 475.5,-800.38 469.5,-800.38 469.5,-800.38 423.5,-800.38 423.5,-800.38 417.5,-800.38 411.5,-794.38 411.5,-788.38 411.5,-788.38 411.5,-760.38 411.5,-760.38 411.5,-754.38 417.5,-748.38 423.5,-748.38"/>
<text text-anchor="middle" x="446.5" y="-789.18" font-family="Helvetica,sans-Serif" font-weight="bold" font-size="9.00">page&#45;1</text>
</g>
<g id="clust27" class="cluster">
<title>cluster_src/shared/pages/page&#45;2</title>
<path fill="#ffffff" stroke="black" stroke-width="2" d="M423.5,-688.38C423.5,-688.38 469.5,-688.38 469.5,-688.38 475.5,-688.38 481.5,-694.38 481.5,-700.38 481.5,-700.38 481.5,-728.38 481.5,-728.38 481.5,-734.38 475.5,-740.38 469.5,-740.38 469.5,-740.38 423.5,-740.38 423.5,-740.38 417.5,-740.38 411.5,-734.38 411.5,-728.38 411.5,-728.38 411.5,-700.38 411.5,-700.38 411.5,-694.38 417.5,-688.38 423.5,-688.38"/>
<text text-anchor="middle" x="446.5" y="-729.18" font-family="Helvetica,sans-Serif" font-weight="bold" font-size="9.00">page&#45;2</text>
</g>
<g id="clust28" class="cluster">
<title>cluster_src/shared/pages/page&#45;3</title>
<path fill="#ffffff" stroke="black" stroke-width="2" d="M423.5,-628.38C423.5,-628.38 469.5,-628.38 469.5,-628.38 475.5,-628.38 481.5,-634.38 481.5,-640.38 481.5,-640.38 481.5,-668.38 481.5,-668.38 481.5,-674.38 475.5,-680.38 469.5,-680.38 469.5,-680.38 423.5,-680.38 423.5,-680.38 417.5,-680.38 411.5,-674.38 411.5,-668.38 411.5,-668.38 411.5,-640.38 411.5,-640.38 411.5,-634.38 417.5,-628.38 423.5,-628.38"/>
<text text-anchor="middle" x="446.5" y="-669.18" font-family="Helvetica,sans-Serif" font-weight="bold" font-size="9.00">page&#45;3</text>
</g>
<g id="clust3" class="cluster">
<title>cluster_src/client</title>
<path fill="#ffffff" stroke="black" stroke-width="2" d="M120.5,-26.38C120.5,-26.38 166.5,-26.38 166.5,-26.38 172.5,-26.38 178.5,-32.38 178.5,-38.38 178.5,-38.38 178.5,-66.38 178.5,-66.38 178.5,-72.38 172.5,-78.38 166.5,-78.38 166.5,-78.38 120.5,-78.38 120.5,-78.38 114.5,-78.38 108.5,-72.38 108.5,-66.38 108.5,-66.38 108.5,-38.38 108.5,-38.38 108.5,-32.38 114.5,-26.38 120.5,-26.38"/>
<text text-anchor="middle" x="143.5" y="-67.18" font-family="Helvetica,sans-Serif" font-weight="bold" font-size="9.00">client</text>
</g>
<g id="clust4" class="cluster">
<title>cluster_src/server</title>
<path fill="#ffffff" stroke="black" stroke-width="2" d="M28,-1268.38C28,-1268.38 272.5,-1268.38 272.5,-1268.38 278.5,-1268.38 284.5,-1274.38 284.5,-1280.38 284.5,-1280.38 284.5,-1432.38 284.5,-1432.38 284.5,-1438.38 278.5,-1444.38 272.5,-1444.38 272.5,-1444.38 28,-1444.38 28,-1444.38 22,-1444.38 16,-1438.38 16,-1432.38 16,-1432.38 16,-1280.38 16,-1280.38 16,-1274.38 22,-1268.38 28,-1268.38"/>
<text text-anchor="middle" x="150.25" y="-1433.18" font-family="Helvetica,sans-Serif" font-weight="bold" font-size="9.00">server</text>
</g>
<g id="clust5" class="cluster">
<title>cluster_src/server/components</title>
<path fill="#ffffff" stroke="black" stroke-width="2" d="M218.5,-1276.38C218.5,-1276.38 264.5,-1276.38 264.5,-1276.38 270.5,-1276.38 276.5,-1282.38 276.5,-1288.38 276.5,-1288.38 276.5,-1316.38 276.5,-1316.38 276.5,-1322.38 270.5,-1328.38 264.5,-1328.38 264.5,-1328.38 218.5,-1328.38 218.5,-1328.38 212.5,-1328.38 206.5,-1322.38 206.5,-1316.38 206.5,-1316.38 206.5,-1288.38 206.5,-1288.38 206.5,-1282.38 212.5,-1276.38 218.5,-1276.38"/>
<text text-anchor="middle" x="241.5" y="-1317.18" font-family="Helvetica,sans-Serif" font-weight="bold" font-size="9.00">components</text>
</g>
<g id="clust6" class="cluster">
<title>cluster_src/server/middlewares</title>
<path fill="#ffffff" stroke="black" stroke-width="2" d="M100.5,-1276.38C100.5,-1276.38 186.5,-1276.38 186.5,-1276.38 192.5,-1276.38 198.5,-1282.38 198.5,-1288.38 198.5,-1288.38 198.5,-1406.38 198.5,-1406.38 198.5,-1412.38 192.5,-1418.38 186.5,-1418.38 186.5,-1418.38 100.5,-1418.38 100.5,-1418.38 94.5,-1418.38 88.5,-1412.38 88.5,-1406.38 88.5,-1406.38 88.5,-1288.38 88.5,-1288.38 88.5,-1282.38 94.5,-1276.38 100.5,-1276.38"/>
<text text-anchor="middle" x="143.5" y="-1407.18" font-family="Helvetica,sans-Serif" font-weight="bold" font-size="9.00">middlewares</text>
</g>
<!-- config/paths.ts -->
<g id="node1" class="node">
<title>config/paths.ts</title>
<g id="a_node1"><a xlink:href="config/paths.ts" xlink:title="paths.ts">
<path fill="#ddfeff" stroke="black" d="M164.5,-1504.38C164.5,-1504.38 122.5,-1504.38 122.5,-1504.38 119.5,-1504.38 116.5,-1501.38 116.5,-1498.38 116.5,-1498.38 116.5,-1492.38 116.5,-1492.38 116.5,-1489.38 119.5,-1486.38 122.5,-1486.38 122.5,-1486.38 164.5,-1486.38 164.5,-1486.38 167.5,-1486.38 170.5,-1489.38 170.5,-1492.38 170.5,-1492.38 170.5,-1498.38 170.5,-1498.38 170.5,-1501.38 167.5,-1504.38 164.5,-1504.38"/>
<text text-anchor="middle" x="143.5" y="-1493.18" font-family="Helvetica,sans-Serif" font-size="9.00">paths.ts</text>
</a>
</g>
</g>
<!-- fs -->
<g id="node2" class="node">
<title>fs</title>
<path fill="#ffffcc" stroke="grey" d="M262.5,-1496.38C262.5,-1496.38 220.5,-1496.38 220.5,-1496.38 217.5,-1496.38 214.5,-1493.38 214.5,-1490.38 214.5,-1490.38 214.5,-1484.38 214.5,-1484.38 214.5,-1481.38 217.5,-1478.38 220.5,-1478.38 220.5,-1478.38 262.5,-1478.38 262.5,-1478.38 265.5,-1478.38 268.5,-1481.38 268.5,-1484.38 268.5,-1484.38 268.5,-1490.38 268.5,-1490.38 268.5,-1493.38 265.5,-1496.38 262.5,-1496.38"/>
<text text-anchor="middle" x="241.5" y="-1485.18" font-family="Helvetica,sans-Serif" font-size="9.00" fill="grey">fs</text>
</g>
<!-- config/paths.ts&#45;&gt;fs -->
<g id="edge1" class="edge">
<title>config/paths.ts&#45;&gt;fs</title>
<path fill="none" stroke="#000000" stroke-dasharray="5,2" stroke-opacity="0.200000" d="M170.73,-1493.19C182.27,-1492.23 195.93,-1491.09 208.09,-1490.08"/>
<polygon fill="#000000" fill-opacity="0.200000" stroke="#000000" stroke-opacity="0.200000" points="208.49,-1492.15 214.3,-1489.56 208.15,-1487.97 208.49,-1492.15"/>
</g>
<!-- path -->
<g id="node3" class="node">
<title>path</title>
<path fill="#ffffcc" stroke="grey" d="M262.5,-1526.38C262.5,-1526.38 220.5,-1526.38 220.5,-1526.38 217.5,-1526.38 214.5,-1523.38 214.5,-1520.38 214.5,-1520.38 214.5,-1514.38 214.5,-1514.38 214.5,-1511.38 217.5,-1508.38 220.5,-1508.38 220.5,-1508.38 262.5,-1508.38 262.5,-1508.38 265.5,-1508.38 268.5,-1511.38 268.5,-1514.38 268.5,-1514.38 268.5,-1520.38 268.5,-1520.38 268.5,-1523.38 265.5,-1526.38 262.5,-1526.38"/>
<text text-anchor="middle" x="241.5" y="-1515.18" font-family="Helvetica,sans-Serif" font-size="9.00" fill="grey">path</text>
</g>
<!-- config/paths.ts&#45;&gt;path -->
<g id="edge2" class="edge">
<title>config/paths.ts&#45;&gt;path</title>
<path fill="none" stroke="#000000" stroke-dasharray="5,2" stroke-opacity="0.200000" d="M170.73,-1501.39C182.37,-1504.06 196.18,-1507.22 208.43,-1510.03"/>
<polygon fill="#000000" fill-opacity="0.200000" stroke="#000000" stroke-opacity="0.200000" points="207.98,-1512.08 214.3,-1511.37 208.92,-1507.99 207.98,-1512.08"/>
</g>
<!-- src/client/index.tsx -->
<g id="node4" class="node">
<title>src/client/index.tsx</title>
<g id="a_node4"><a xlink:href="src/client/index.tsx" xlink:title="index.tsx">
<path fill="#bbfeff" stroke="black" d="M164.5,-52.38C164.5,-52.38 122.5,-52.38 122.5,-52.38 119.5,-52.38 116.5,-49.38 116.5,-46.38 116.5,-46.38 116.5,-40.38 116.5,-40.38 116.5,-37.38 119.5,-34.38 122.5,-34.38 122.5,-34.38 164.5,-34.38 164.5,-34.38 167.5,-34.38 170.5,-37.38 170.5,-40.38 170.5,-40.38 170.5,-46.38 170.5,-46.38 170.5,-49.38 167.5,-52.38 164.5,-52.38"/>
<text text-anchor="middle" x="143.5" y="-41.18" font-family="Helvetica,sans-Serif" font-size="9.00">index.tsx</text>
</a>
</g>
</g>
<!-- src/shared/App.tsx -->
<g id="node5" class="node">
<title>src/shared/App.tsx</title>
<g id="a_node5"><a xlink:href="src/shared/App.tsx" xlink:title="App.tsx">
<path fill="#bbfeff" stroke="black" d="M262.5,-346.38C262.5,-346.38 220.5,-346.38 220.5,-346.38 217.5,-346.38 214.5,-343.38 214.5,-340.38 214.5,-340.38 214.5,-334.38 214.5,-334.38 214.5,-331.38 217.5,-328.38 220.5,-328.38 220.5,-328.38 262.5,-328.38 262.5,-328.38 265.5,-328.38 268.5,-331.38 268.5,-334.38 268.5,-334.38 268.5,-340.38 268.5,-340.38 268.5,-343.38 265.5,-346.38 262.5,-346.38"/>
<text text-anchor="middle" x="241.5" y="-335.18" font-family="Helvetica,sans-Serif" font-size="9.00">App.tsx</text>
</a>
</g>
</g>
<!-- src/client/index.tsx&#45;&gt;src/shared/App.tsx -->
<g id="edge3" class="edge">
<title>src/client/index.tsx&#45;&gt;src/shared/App.tsx</title>
<path fill="none" stroke="#000000" stroke-width="2" stroke-opacity="0.200000" d="M147.48,-52.5C161.22,-94.6 218.59,-270.28 235.68,-322.61"/>
<polygon fill="#000000" fill-opacity="0.200000" stroke="#000000" stroke-width="2" stroke-opacity="0.200000" points="233.7,-323.31 237.56,-328.36 237.69,-322.01 233.7,-323.31"/>
</g>
<!-- src/shared/lib/i18n/index.tsx -->
<g id="node6" class="node">
<title>src/shared/lib/i18n/index.tsx</title>
<g id="a_node6"><a xlink:href="src/shared/lib/i18n/index.tsx" xlink:title="index.tsx">
<path fill="#bbfeff" stroke="black" d="M588.5,-1014.38C588.5,-1014.38 546.5,-1014.38 546.5,-1014.38 543.5,-1014.38 540.5,-1011.38 540.5,-1008.38 540.5,-1008.38 540.5,-1002.38 540.5,-1002.38 540.5,-999.38 543.5,-996.38 546.5,-996.38 546.5,-996.38 588.5,-996.38 588.5,-996.38 591.5,-996.38 594.5,-999.38 594.5,-1002.38 594.5,-1002.38 594.5,-1008.38 594.5,-1008.38 594.5,-1011.38 591.5,-1014.38 588.5,-1014.38"/>
<text text-anchor="middle" x="567.5" y="-1003.18" font-family="Helvetica,sans-Serif" font-size="9.00">index.tsx</text>
</a>
</g>
</g>
<!-- src/client/index.tsx&#45;&gt;src/shared/lib/i18n/index.tsx -->
<g id="edge4" class="edge">
<title>src/client/index.tsx&#45;&gt;src/shared/lib/i18n/index.tsx</title>
<path fill="none" stroke="#000000" stroke-width="2" stroke-opacity="0.200000" d="M170.52,-37.49C235.41,-24.51 405.25,-1.31 490.5,-91.38 491.51,-92.45 555.53,-871.79 565.27,-990.34"/>
<polygon fill="#000000" fill-opacity="0.200000" stroke="#000000" stroke-width="2" stroke-opacity="0.200000" points="563.17,-990.53 565.76,-996.34 567.36,-990.19 563.17,-990.53"/>
</g>
<!-- src/shared/lib/redux/index.ts -->
<g id="node7" class="node">
<title>src/shared/lib/redux/index.ts</title>
<g id="a_node7"><a xlink:href="src/shared/lib/redux/index.ts" xlink:title="index.ts">
<path fill="#ddfeff" stroke="black" d="M364.5,-1142.38C364.5,-1142.38 322.5,-1142.38 322.5,-1142.38 319.5,-1142.38 316.5,-1139.38 316.5,-1136.38 316.5,-1136.38 316.5,-1130.38 316.5,-1130.38 316.5,-1127.38 319.5,-1124.38 322.5,-1124.38 322.5,-1124.38 364.5,-1124.38 364.5,-1124.38 367.5,-1124.38 370.5,-1127.38 370.5,-1130.38 370.5,-1130.38 370.5,-1136.38 370.5,-1136.38 370.5,-1139.38 367.5,-1142.38 364.5,-1142.38"/>
<text text-anchor="middle" x="343.5" y="-1131.18" font-family="Helvetica,sans-Serif" font-size="9.00">index.ts</text>
</a>
</g>
</g>
<!-- src/client/index.tsx&#45;&gt;src/shared/lib/redux/index.ts -->
<g id="edge5" class="edge">
<title>src/client/index.tsx&#45;&gt;src/shared/lib/redux/index.ts</title>
<path fill="none" stroke="#000000" stroke-width="2" stroke-opacity="0.200000" d="M156.18,-52.43C184.76,-75.4 257.83,-139.37 284.5,-212.38 293.16,-236.07 276.98,-1100.49 292.5,-1120.38 296.94,-1126.07 303.53,-1129.47 310.48,-1131.45"/>
<polygon fill="#000000" fill-opacity="0.200000" stroke="#000000" stroke-width="2" stroke-opacity="0.200000" points="310.04,-1133.5 316.36,-1132.8 310.98,-1129.41 310.04,-1133.5"/>
</g>
<!-- src/shared/App.scss -->
<g id="node17" class="node">
<title>src/shared/App.scss</title>
<g id="a_node17"><a xlink:href="src/shared/App.scss" xlink:title="App.scss">
<path fill="#ffffcc" stroke="black" d="M364.5,-638.38C364.5,-638.38 322.5,-638.38 322.5,-638.38 319.5,-638.38 316.5,-635.38 316.5,-632.38 316.5,-632.38 316.5,-626.38 316.5,-626.38 316.5,-623.38 319.5,-620.38 322.5,-620.38 322.5,-620.38 364.5,-620.38 364.5,-620.38 367.5,-620.38 370.5,-623.38 370.5,-626.38 370.5,-626.38 370.5,-632.38 370.5,-632.38 370.5,-635.38 367.5,-638.38 364.5,-638.38"/>
<text text-anchor="middle" x="343.5" y="-627.18" font-family="Helvetica,sans-Serif" font-size="9.00">App.scss</text>
</a>
</g>
</g>
<!-- src/shared/App.tsx&#45;&gt;src/shared/App.scss -->
<g id="edge21" class="edge">
<title>src/shared/App.tsx&#45;&gt;src/shared/App.scss</title>
<path fill="none" stroke="#000000" stroke-width="2" stroke-opacity="0.200000" d="M245.6,-346.44C259.89,-388.16 319.42,-561.97 337.36,-614.36"/>
<polygon fill="#000000" fill-opacity="0.200000" stroke="#000000" stroke-width="2" stroke-opacity="0.200000" points="335.4,-615.14 339.33,-620.13 339.38,-613.78 335.4,-615.14"/>
</g>
<!-- src/shared/assets/favicon.png -->
<g id="node18" class="node">
<title>src/shared/assets/favicon.png</title>
<g id="a_node18"><a xlink:href="src/shared/assets/favicon.png" xlink:title="favicon.png">
<path fill="#ffffcc" stroke="black" d="M472.5,-120.38C472.5,-120.38 420.5,-120.38 420.5,-120.38 417.5,-120.38 414.5,-117.38 414.5,-114.38 414.5,-114.38 414.5,-108.38 414.5,-108.38 414.5,-105.38 417.5,-102.38 420.5,-102.38 420.5,-102.38 472.5,-102.38 472.5,-102.38 475.5,-102.38 478.5,-105.38 478.5,-108.38 478.5,-108.38 478.5,-114.38 478.5,-114.38 478.5,-117.38 475.5,-120.38 472.5,-120.38"/>
<text text-anchor="middle" x="446.5" y="-109.18" font-family="Helvetica,sans-Serif" font-size="9.00">favicon.png</text>
</a>
</g>
</g>
<!-- src/shared/App.tsx&#45;&gt;src/shared/assets/favicon.png -->
<g id="edge22" class="edge">
<title>src/shared/App.tsx&#45;&gt;src/shared/assets/favicon.png</title>
<path fill="none" stroke="#000000" stroke-width="2" stroke-opacity="0.200000" d="M243.84,-328.32C247.7,-304.68 260.71,-239.99 292.5,-197.38 324.45,-154.56 341.32,-149.46 389.5,-126.38 395.41,-123.55 401.93,-121.19 408.37,-119.24"/>
<polygon fill="#000000" fill-opacity="0.200000" stroke="#000000" stroke-width="2" stroke-opacity="0.200000" points="409.05,-121.23 414.25,-117.57 407.9,-117.19 409.05,-121.23"/>
</g>
<!-- src/shared/components/sections/Content/index.tsx -->
<g id="node19" class="node">
<title>src/shared/components/sections/Content/index.tsx</title>
<g id="a_node19"><a xlink:href="src/shared/components/sections/Content/index.tsx" xlink:title="index.tsx">
<path fill="#bbfeff" stroke="black" d="M364.5,-346.38C364.5,-346.38 322.5,-346.38 322.5,-346.38 319.5,-346.38 316.5,-343.38 316.5,-340.38 316.5,-340.38 316.5,-334.38 316.5,-334.38 316.5,-331.38 319.5,-328.38 322.5,-328.38 322.5,-328.38 364.5,-328.38 364.5,-328.38 367.5,-328.38 370.5,-331.38 370.5,-334.38 370.5,-334.38 370.5,-340.38 370.5,-340.38 370.5,-343.38 367.5,-346.38 364.5,-346.38"/>
<text text-anchor="middle" x="343.5" y="-335.18" font-family="Helvetica,sans-Serif" font-size="9.00">index.tsx</text>
</a>
</g>
</g>
<!-- src/shared/App.tsx&#45;&gt;src/shared/components/sections/Content/index.tsx -->
<g id="edge23" class="edge">
<title>src/shared/App.tsx&#45;&gt;src/shared/components/sections/Content/index.tsx</title>
<path fill="none" stroke="#000000" stroke-width="2" stroke-opacity="0.200000" d="M268.51,-337.38C281.26,-337.38 296.73,-337.38 310.23,-337.38"/>
<polygon fill="#000000" fill-opacity="0.200000" stroke="#000000" stroke-width="2" stroke-opacity="0.200000" points="310.27,-339.48 316.27,-337.38 310.27,-335.28 310.27,-339.48"/>
</g>
<!-- src/shared/components/sections/Footer/index.tsx -->
<g id="node20" class="node">
<title>src/shared/components/sections/Footer/index.tsx</title>
<g id="a_node20"><a xlink:href="src/shared/components/sections/Footer/index.tsx" xlink:title="index.tsx">
<path fill="#bbfeff" stroke="black" d="M364.5,-286.38C364.5,-286.38 322.5,-286.38 322.5,-286.38 319.5,-286.38 316.5,-283.38 316.5,-280.38 316.5,-280.38 316.5,-274.38 316.5,-274.38 316.5,-271.38 319.5,-268.38 322.5,-268.38 322.5,-268.38 364.5,-268.38 364.5,-268.38 367.5,-268.38 370.5,-271.38 370.5,-274.38 370.5,-274.38 370.5,-280.38 370.5,-280.38 370.5,-283.38 367.5,-286.38 364.5,-286.38"/>
<text text-anchor="middle" x="343.5" y="-275.18" font-family="Helvetica,sans-Serif" font-size="9.00">index.tsx</text>
</a>
</g>
</g>
<!-- src/shared/App.tsx&#45;&gt;src/shared/components/sections/Footer/index.tsx -->
<g id="edge24" class="edge">
<title>src/shared/App.tsx&#45;&gt;src/shared/components/sections/Footer/index.tsx</title>
<path fill="none" stroke="#000000" stroke-width="2" stroke-opacity="0.200000" d="M257.69,-328.27C274.82,-317.99 302.78,-301.21 321.88,-289.75"/>
<polygon fill="#000000" fill-opacity="0.200000" stroke="#000000" stroke-width="2" stroke-opacity="0.200000" points="323.43,-291.27 327.5,-286.38 321.27,-287.67 323.43,-291.27"/>
</g>
<!-- src/shared/components/sections/Header/index.tsx -->
<g id="node21" class="node">
<title>src/shared/components/sections/Header/index.tsx</title>
<g id="a_node21"><a xlink:href="src/shared/components/sections/Header/index.tsx" xlink:title="index.tsx">
<path fill="#bbfeff" stroke="black" d="M364.5,-226.38C364.5,-226.38 322.5,-226.38 322.5,-226.38 319.5,-226.38 316.5,-223.38 316.5,-220.38 316.5,-220.38 316.5,-214.38 316.5,-214.38 316.5,-211.38 319.5,-208.38 322.5,-208.38 322.5,-208.38 364.5,-208.38 364.5,-208.38 367.5,-208.38 370.5,-211.38 370.5,-214.38 370.5,-214.38 370.5,-220.38 370.5,-220.38 370.5,-223.38 367.5,-226.38 364.5,-226.38"/>
<text text-anchor="middle" x="343.5" y="-215.18" font-family="Helvetica,sans-Serif" font-size="9.00">index.tsx</text>
</a>
</g>
</g>
<!-- src/shared/App.tsx&#45;&gt;src/shared/components/sections/Header/index.tsx -->
<g id="edge25" class="edge">
<title>src/shared/App.tsx&#45;&gt;src/shared/components/sections/Header/index.tsx</title>
<path fill="none" stroke="#000000" stroke-width="2" stroke-opacity="0.200000" d="M246.88,-328.31C254.66,-312.74 272.03,-280.38 292.5,-257.38 301.69,-247.05 313.75,-237.32 323.72,-230.04"/>
<polygon fill="#000000" fill-opacity="0.200000" stroke="#000000" stroke-width="2" stroke-opacity="0.200000" points="325.06,-231.67 328.72,-226.47 322.61,-228.25 325.06,-231.67"/>
</g>
<!-- src/shared/lib/i18n/withLocale.tsx -->
<g id="node22" class="node">
<title>src/shared/lib/i18n/withLocale.tsx</title>
<g id="a_node22"><a xlink:href="src/shared/lib/i18n/withLocale.tsx" xlink:title="withLocale.tsx">
<path fill="#bbfeff" stroke="black" d="M598.5,-1044.38C598.5,-1044.38 536.5,-1044.38 536.5,-1044.38 533.5,-1044.38 530.5,-1041.38 530.5,-1038.38 530.5,-1038.38 530.5,-1032.38 530.5,-1032.38 530.5,-1029.38 533.5,-1026.38 536.5,-1026.38 536.5,-1026.38 598.5,-1026.38 598.5,-1026.38 601.5,-1026.38 604.5,-1029.38 604.5,-1032.38 604.5,-1032.38 604.5,-1038.38 604.5,-1038.38 604.5,-1041.38 601.5,-1044.38 598.5,-1044.38"/>
<text text-anchor="middle" x="567.5" y="-1033.18" font-family="Helvetica,sans-Serif" font-size="9.00">withLocale.tsx</text>
</a>
</g>
</g>
<!-- src/shared/App.tsx&#45;&gt;src/shared/lib/i18n/withLocale.tsx -->
<g id="edge26" class="edge">
<title>src/shared/App.tsx&#45;&gt;src/shared/lib/i18n/withLocale.tsx</title>
<path fill="none" stroke="#000000" stroke-width="2" stroke-opacity="0.200000" d="M243.33,-346.73C249.9,-418.52 295.62,-881.75 389.5,-978.38 425.05,-1014.97 484.17,-1028.11 524.2,-1032.8"/>
<polygon fill="#000000" fill-opacity="0.200000" stroke="#000000" stroke-width="2" stroke-opacity="0.200000" points="524.27,-1034.92 530.46,-1033.49 524.72,-1030.75 524.27,-1034.92"/>
</g>
<!-- src/shared/lib/i18n/config.ts -->
<g id="node10" class="node">
<title>src/shared/lib/i18n/config.ts</title>
<g id="a_node10"><a xlink:href="src/shared/lib/i18n/config.ts" xlink:title="config.ts">
<path fill="#ddfeff" stroke="black" d="M669.5,-1044.38C669.5,-1044.38 627.5,-1044.38 627.5,-1044.38 624.5,-1044.38 621.5,-1041.38 621.5,-1038.38 621.5,-1038.38 621.5,-1032.38 621.5,-1032.38 621.5,-1029.38 624.5,-1026.38 627.5,-1026.38 627.5,-1026.38 669.5,-1026.38 669.5,-1026.38 672.5,-1026.38 675.5,-1029.38 675.5,-1032.38 675.5,-1032.38 675.5,-1038.38 675.5,-1038.38 675.5,-1041.38 672.5,-1044.38 669.5,-1044.38"/>
<text text-anchor="middle" x="648.5" y="-1033.18" font-family="Helvetica,sans-Serif" font-size="9.00">config.ts</text>
</a>
</g>
</g>
<!-- src/shared/lib/i18n/index.tsx&#45;&gt;src/shared/lib/i18n/config.ts -->
<g id="edge48" class="edge">
<title>src/shared/lib/i18n/index.tsx&#45;&gt;src/shared/lib/i18n/config.ts</title>
<path fill="none" stroke="#000000" stroke-width="2" stroke-opacity="0.200000" d="M592.2,-1014.38C600.25,-1017.44 609.35,-1020.89 617.81,-1024.1"/>
<polygon fill="#000000" fill-opacity="0.200000" stroke="#000000" stroke-width="2" stroke-opacity="0.200000" points="617.19,-1026.11 623.54,-1026.28 618.68,-1022.19 617.19,-1026.11"/>
</g>
<!-- src/shared/lib/redux/rootReducer.ts -->
<g id="node42" class="node">
<title>src/shared/lib/redux/rootReducer.ts</title>
<g id="a_node42"><a xlink:href="src/shared/lib/redux/rootReducer.ts" xlink:title="rootReducer.ts">
<path fill="#ddfeff" stroke="black" d="M479,-1142.38C479,-1142.38 414,-1142.38 414,-1142.38 411,-1142.38 408,-1139.38 408,-1136.38 408,-1136.38 408,-1130.38 408,-1130.38 408,-1127.38 411,-1124.38 414,-1124.38 414,-1124.38 479,-1124.38 479,-1124.38 482,-1124.38 485,-1127.38 485,-1130.38 485,-1130.38 485,-1136.38 485,-1136.38 485,-1139.38 482,-1142.38 479,-1142.38"/>
<text text-anchor="middle" x="446.5" y="-1131.18" font-family="Helvetica,sans-Serif" font-size="9.00">rootReducer.ts</text>
</a>
</g>
</g>
<!-- src/shared/lib/redux/index.ts&#45;&gt;src/shared/lib/redux/rootReducer.ts -->
<g id="edge58" class="edge">
<title>src/shared/lib/redux/index.ts&#45;&gt;src/shared/lib/redux/rootReducer.ts</title>
<path fill="none" stroke="#000000" stroke-width="2" stroke-opacity="0.200000" d="M370.51,-1133.38C379.99,-1133.38 390.99,-1133.38 401.59,-1133.38"/>
<polygon fill="#000000" fill-opacity="0.200000" stroke="#000000" stroke-width="2" stroke-opacity="0.200000" points="401.77,-1135.48 407.77,-1133.38 401.77,-1131.28 401.77,-1135.48"/>
</g>
<!-- src/global.d.ts -->
<g id="node8" class="node">
<title>src/global.d.ts</title>
<g id="a_node8"><a xlink:href="src/global.d.ts" xlink:title="global.d.ts">
<path fill="#ccffcc" stroke="black" d="M74.5,-647.38C74.5,-647.38 27.5,-647.38 27.5,-647.38 24.5,-647.38 21.5,-644.38 21.5,-641.38 21.5,-641.38 21.5,-635.38 21.5,-635.38 21.5,-632.38 24.5,-629.38 27.5,-629.38 27.5,-629.38 74.5,-629.38 74.5,-629.38 77.5,-629.38 80.5,-632.38 80.5,-635.38 80.5,-635.38 80.5,-641.38 80.5,-641.38 80.5,-644.38 77.5,-647.38 74.5,-647.38"/>
<text text-anchor="middle" x="51" y="-636.18" font-family="Helvetica,sans-Serif" font-size="9.00">global.d.ts</text>
</a>
</g>
</g>
<!-- src/server/components/html.tsx -->
<g id="node9" class="node">
<title>src/server/components/html.tsx</title>
<g id="a_node9"><a xlink:href="src/server/components/html.tsx" xlink:title="html.tsx">
<path fill="#bbfeff" stroke="black" d="M262.5,-1302.38C262.5,-1302.38 220.5,-1302.38 220.5,-1302.38 217.5,-1302.38 214.5,-1299.38 214.5,-1296.38 214.5,-1296.38 214.5,-1290.38 214.5,-1290.38 214.5,-1287.38 217.5,-1284.38 220.5,-1284.38 220.5,-1284.38 262.5,-1284.38 262.5,-1284.38 265.5,-1284.38 268.5,-1287.38 268.5,-1290.38 268.5,-1290.38 268.5,-1296.38 268.5,-1296.38 268.5,-1299.38 265.5,-1302.38 262.5,-1302.38"/>
<text text-anchor="middle" x="241.5" y="-1291.18" font-family="Helvetica,sans-Serif" font-size="9.00">html.tsx</text>
</a>
</g>
</g>
<!-- src/server/components/html.tsx&#45;&gt;src/shared/lib/i18n/config.ts -->
<g id="edge6" class="edge">
<title>src/server/components/html.tsx&#45;&gt;src/shared/lib/i18n/config.ts</title>
<path fill="none" stroke="#000000" stroke-width="2" stroke-opacity="0.200000" d="M263.73,-1284.31C272.55,-1280.7 282.94,-1276.63 292.5,-1273.38 428.91,-1227 510.44,-1294.52 604.5,-1185.38 619.42,-1168.07 609.82,-1104.9 617.5,-1083.38 621.86,-1071.15 629.71,-1058.77 636.28,-1049.64"/>
<polygon fill="#000000" fill-opacity="0.200000" stroke="#000000" stroke-width="2" stroke-opacity="0.200000" points="638.08,-1050.74 639.97,-1044.67 634.71,-1048.23 638.08,-1050.74"/>
</g>
<!-- src/shared/lib/redux/app/types.ts -->
<g id="node11" class="node">
<title>src/shared/lib/redux/app/types.ts</title>
<g id="a_node11"><a xlink:href="src/shared/lib/redux/app/types.ts" xlink:title="types.ts">
<path fill="#ddfeff" stroke="black" d="M756.5,-1112.38C756.5,-1112.38 714.5,-1112.38 714.5,-1112.38 711.5,-1112.38 708.5,-1109.38 708.5,-1106.38 708.5,-1106.38 708.5,-1100.38 708.5,-1100.38 708.5,-1097.38 711.5,-1094.38 714.5,-1094.38 714.5,-1094.38 756.5,-1094.38 756.5,-1094.38 759.5,-1094.38 762.5,-1097.38 762.5,-1100.38 762.5,-1100.38 762.5,-1106.38 762.5,-1106.38 762.5,-1109.38 759.5,-1112.38 756.5,-1112.38"/>
<text text-anchor="middle" x="735.5" y="-1101.18" font-family="Helvetica,sans-Serif" font-size="9.00">types.ts</text>
</a>
</g>
</g>
<!-- src/server/components/html.tsx&#45;&gt;src/shared/lib/redux/app/types.ts -->
<g id="edge7" class="edge">
<title>src/server/components/html.tsx&#45;&gt;src/shared/lib/redux/app/types.ts</title>
<path fill="none" stroke="#000000" stroke-width="2" stroke-opacity="0.200000" d="M268.73,-1289.98C307.36,-1285.29 381.87,-1277.38 445.5,-1277.38 445.5,-1277.38 445.5,-1277.38 568.5,-1277.38 656.05,-1277.38 711.55,-1160.64 728.76,-1118.4"/>
<polygon fill="#000000" fill-opacity="0.200000" stroke="#000000" stroke-width="2" stroke-opacity="0.200000" points="730.75,-1119.08 731.02,-1112.73 726.85,-1117.53 730.75,-1119.08"/>
</g>
<!-- src/shared/lib/i18n/config.ts&#45;&gt;src/shared/lib/redux/app/types.ts -->
<g id="edge47" class="edge">
<title>src/shared/lib/i18n/config.ts&#45;&gt;src/shared/lib/redux/app/types.ts</title>
<path fill="none" stroke="#000000" stroke-width="2" stroke-opacity="0.200000" d="M660.96,-1044.55C675.75,-1056.38 701.55,-1077.02 718.32,-1090.44"/>
<polygon fill="#000000" fill-opacity="0.200000" stroke="#000000" stroke-width="2" stroke-opacity="0.200000" points="717.22,-1092.24 723.22,-1094.35 719.84,-1088.96 717.22,-1092.24"/>
</g>
<!-- src/server/index.ts -->
<g id="node12" class="node">
<title>src/server/index.ts</title>
<g id="a_node12"><a xlink:href="src/server/index.ts" xlink:title="index.ts">
<path fill="#ddfeff" stroke="black" d="M72,-1362.38C72,-1362.38 30,-1362.38 30,-1362.38 27,-1362.38 24,-1359.38 24,-1356.38 24,-1356.38 24,-1350.38 24,-1350.38 24,-1347.38 27,-1344.38 30,-1344.38 30,-1344.38 72,-1344.38 72,-1344.38 75,-1344.38 78,-1347.38 78,-1350.38 78,-1350.38 78,-1356.38 78,-1356.38 78,-1359.38 75,-1362.38 72,-1362.38"/>
<text text-anchor="middle" x="51" y="-1351.18" font-family="Helvetica,sans-Serif" font-size="9.00">index.ts</text>
</a>
</g>
</g>
<!-- src/server/index.ts&#45;&gt;config/paths.ts -->
<g id="edge8" class="edge">
<title>src/server/index.ts&#45;&gt;config/paths.ts</title>
<path fill="none" stroke="#000000" stroke-width="2" stroke-opacity="0.200000" d="M56.35,-1362.4C62.83,-1375.64 75.66,-1400.96 88.5,-1421.38 102.08,-1442.96 119.83,-1466.53 131.2,-1481.14"/>
<polygon fill="#000000" fill-opacity="0.200000" stroke="#000000" stroke-width="2" stroke-opacity="0.200000" points="129.73,-1482.66 135.08,-1486.09 133.03,-1480.07 129.73,-1482.66"/>
</g>
<!-- src/server/index.ts&#45;&gt;path -->
<g id="edge14" class="edge">
<title>src/server/index.ts&#45;&gt;path</title>
<path fill="none" stroke="#000000" stroke-dasharray="5,2" stroke-opacity="0.200000" d="M52.4,-1362.64C54.04,-1396.32 61.59,-1511.38 88.5,-1533.38 125.24,-1563.42 184.85,-1543.67 217.43,-1529.04"/>
<polygon fill="#000000" fill-opacity="0.200000" stroke="#000000" stroke-opacity="0.200000" points="218.62,-1530.8 223.18,-1526.38 216.86,-1526.99 218.62,-1530.8"/>
</g>
<!-- src/server/index.ts&#45;&gt;src/shared/lib/i18n/index.tsx -->
<g id="edge9" class="edge">
<title>src/server/index.ts&#45;&gt;src/shared/lib/i18n/index.tsx</title>
<path fill="none" stroke="#000000" stroke-width="2" stroke-opacity="0.200000" d="M77.1,-1344.29C78.4,-1343.14 79.55,-1341.84 80.5,-1340.38 90.44,-1325.02 75.78,-36.53 88.5,-23.38 135.5,25.22 172.89,-17.38 240.5,-17.38 240.5,-17.38 240.5,-17.38 344.5,-17.38 409.83,-17.38 445.3,12.79 490.5,-34.38 524.03,-69.37 518.74,-421.06 522.5,-469.38 538.54,-675.5 559.75,-926.06 565.19,-989.97"/>
<polygon fill="#000000" fill-opacity="0.200000" stroke="#000000" stroke-width="2" stroke-opacity="0.200000" points="563.12,-990.4 565.72,-996.2 567.3,-990.05 563.12,-990.4"/>
</g>
<!-- src/server/middlewares/addStore.tsx -->
<g id="node13" class="node">
<title>src/server/middlewares/addStore.tsx</title>
<g id="a_node13"><a xlink:href="src/server/middlewares/addStore.tsx" xlink:title="addStore.tsx">
<path fill="#bbfeff" stroke="black" d="M171.5,-1302.38C171.5,-1302.38 115.5,-1302.38 115.5,-1302.38 112.5,-1302.38 109.5,-1299.38 109.5,-1296.38 109.5,-1296.38 109.5,-1290.38 109.5,-1290.38 109.5,-1287.38 112.5,-1284.38 115.5,-1284.38 115.5,-1284.38 171.5,-1284.38 171.5,-1284.38 174.5,-1284.38 177.5,-1287.38 177.5,-1290.38 177.5,-1290.38 177.5,-1296.38 177.5,-1296.38 177.5,-1299.38 174.5,-1302.38 171.5,-1302.38"/>
<text text-anchor="middle" x="143.5" y="-1291.18" font-family="Helvetica,sans-Serif" font-size="9.00">addStore.tsx</text>
</a>
</g>
</g>
<!-- src/server/index.ts&#45;&gt;src/server/middlewares/addStore.tsx -->
<g id="edge10" class="edge">
<title>src/server/index.ts&#45;&gt;src/server/middlewares/addStore.tsx</title>
<path fill="none" stroke="#000000" stroke-width="2" stroke-opacity="0.200000" d="M76.46,-1344.21C77.95,-1343.07 79.32,-1341.8 80.5,-1340.38 89.88,-1329.11 78.27,-1318.88 88.5,-1308.38 92.68,-1304.09 97.96,-1301 103.58,-1298.77"/>
<polygon fill="#000000" fill-opacity="0.200000" stroke="#000000" stroke-width="2" stroke-opacity="0.200000" points="104.29,-1300.75 109.29,-1296.83 102.93,-1296.78 104.29,-1300.75"/>
</g>
<!-- src/server/middlewares/handleErrors.ts -->
<g id="node14" class="node">
<title>src/server/middlewares/handleErrors.ts</title>
<g id="a_node14"><a xlink:href="src/server/middlewares/handleErrors.ts" xlink:title="handleErrors.ts">
<path fill="#ddfeff" stroke="black" d="M177,-1392.38C177,-1392.38 110,-1392.38 110,-1392.38 107,-1392.38 104,-1389.38 104,-1386.38 104,-1386.38 104,-1380.38 104,-1380.38 104,-1377.38 107,-1374.38 110,-1374.38 110,-1374.38 177,-1374.38 177,-1374.38 180,-1374.38 183,-1377.38 183,-1380.38 183,-1380.38 183,-1386.38 183,-1386.38 183,-1389.38 180,-1392.38 177,-1392.38"/>
<text text-anchor="middle" x="143.5" y="-1381.18" font-family="Helvetica,sans-Serif" font-size="9.00">handleErrors.ts</text>
</a>
</g>
</g>
<!-- src/server/index.ts&#45;&gt;src/server/middlewares/handleErrors.ts -->
<g id="edge11" class="edge">
<title>src/server/index.ts&#45;&gt;src/server/middlewares/handleErrors.ts</title>
<path fill="none" stroke="#000000" stroke-width="2" stroke-opacity="0.200000" d="M73.07,-1362.53C78.08,-1364.57 83.45,-1366.64 88.5,-1368.38 92.68,-1369.81 97.07,-1371.21 101.47,-1372.53"/>
<polygon fill="#000000" fill-opacity="0.200000" stroke="#000000" stroke-width="2" stroke-opacity="0.200000" points="101.11,-1374.62 107.46,-1374.3 102.29,-1370.59 101.11,-1374.62"/>
</g>
<!-- src/server/middlewares/i18n.ts -->
<g id="node15" class="node">
<title>src/server/middlewares/i18n.ts</title>
<g id="a_node15"><a xlink:href="src/server/middlewares/i18n.ts" xlink:title="i18n.ts">
<path fill="#ddfeff" stroke="black" d="M164.5,-1362.38C164.5,-1362.38 122.5,-1362.38 122.5,-1362.38 119.5,-1362.38 116.5,-1359.38 116.5,-1356.38 116.5,-1356.38 116.5,-1350.38 116.5,-1350.38 116.5,-1347.38 119.5,-1344.38 122.5,-1344.38 122.5,-1344.38 164.5,-1344.38 164.5,-1344.38 167.5,-1344.38 170.5,-1347.38 170.5,-1350.38 170.5,-1350.38 170.5,-1356.38 170.5,-1356.38 170.5,-1359.38 167.5,-1362.38 164.5,-1362.38"/>
<text text-anchor="middle" x="143.5" y="-1351.18" font-family="Helvetica,sans-Serif" font-size="9.00">i18n.ts</text>
</a>
</g>
</g>
<!-- src/server/index.ts&#45;&gt;src/server/middlewares/i18n.ts -->
<g id="edge12" class="edge">
<title>src/server/index.ts&#45;&gt;src/server/middlewares/i18n.ts</title>
<path fill="none" stroke="#000000" stroke-width="2" stroke-opacity="0.200000" d="M78.18,-1353.38C88.21,-1353.38 99.78,-1353.38 110.32,-1353.38"/>
<polygon fill="#000000" fill-opacity="0.200000" stroke="#000000" stroke-width="2" stroke-opacity="0.200000" points="110.38,-1355.48 116.38,-1353.38 110.38,-1351.28 110.38,-1355.48"/>
</g>
<!-- src/server/middlewares/renderFullPage.tsx -->
<g id="node16" class="node">
<title>src/server/middlewares/renderFullPage.tsx</title>
<g id="a_node16"><a xlink:href="src/server/middlewares/renderFullPage.tsx" xlink:title="renderFullPage.tsx">
<path fill="#bbfeff" stroke="black" d="M184.5,-1332.38C184.5,-1332.38 102.5,-1332.38 102.5,-1332.38 99.5,-1332.38 96.5,-1329.38 96.5,-1326.38 96.5,-1326.38 96.5,-1320.38 96.5,-1320.38 96.5,-1317.38 99.5,-1314.38 102.5,-1314.38 102.5,-1314.38 184.5,-1314.38 184.5,-1314.38 187.5,-1314.38 190.5,-1317.38 190.5,-1320.38 190.5,-1320.38 190.5,-1326.38 190.5,-1326.38 190.5,-1329.38 187.5,-1332.38 184.5,-1332.38"/>
<text text-anchor="middle" x="143.5" y="-1321.18" font-family="Helvetica,sans-Serif" font-size="9.00">renderFullPage.tsx</text>
</a>
</g>
</g>
<!-- src/server/index.ts&#45;&gt;src/server/middlewares/renderFullPage.tsx -->
<g id="edge13" class="edge">
<title>src/server/index.ts&#45;&gt;src/server/middlewares/renderFullPage.tsx</title>
<path fill="none" stroke="#000000" stroke-width="2" stroke-opacity="0.200000" d="M73.07,-1344.22C78.08,-1342.18 83.45,-1340.11 88.5,-1338.38 92.68,-1336.95 97.07,-1335.55 101.47,-1334.22"/>
<polygon fill="#000000" fill-opacity="0.200000" stroke="#000000" stroke-width="2" stroke-opacity="0.200000" points="102.29,-1336.17 107.46,-1332.46 101.11,-1332.14 102.29,-1336.17"/>
</g>
<!-- src/server/middlewares/addStore.tsx&#45;&gt;src/shared/lib/redux/index.ts -->
<g id="edge15" class="edge">
<title>src/server/middlewares/addStore.tsx&#45;&gt;src/shared/lib/redux/index.ts</title>
<path fill="none" stroke="#000000" stroke-width="2" stroke-opacity="0.200000" d="M159.55,-1284.31C186.02,-1268.03 242.15,-1232.13 284.5,-1195.38 301.8,-1180.37 319.46,-1160.74 330.68,-1147.63"/>
<polygon fill="#000000" fill-opacity="0.200000" stroke="#000000" stroke-width="2" stroke-opacity="0.200000" points="332.51,-1148.71 334.79,-1142.78 329.31,-1146 332.51,-1148.71"/>
</g>
<!-- src/server/middlewares/handleErrors.ts&#45;&gt;path -->
<g id="edge16" class="edge">
<title>src/server/middlewares/handleErrors.ts&#45;&gt;path</title>
<path fill="none" stroke="#000000" stroke-dasharray="5,2" stroke-opacity="0.200000" d="M150.8,-1392.39C161.77,-1408.42 184.57,-1443.27 198.5,-1475.38 203.48,-1486.86 198.23,-1492.98 206.5,-1502.38 207.33,-1503.32 208.23,-1504.21 209.19,-1505.04"/>
<polygon fill="#000000" fill-opacity="0.200000" stroke="#000000" stroke-opacity="0.200000" points="208.27,-1506.97 214.36,-1508.78 210.73,-1503.56 208.27,-1506.97"/>
</g>
<!-- src/server/middlewares/i18n.ts&#45;&gt;fs -->
<g id="edge17" class="edge">
<title>src/server/middlewares/i18n.ts&#45;&gt;fs</title>
<path fill="none" stroke="#000000" stroke-dasharray="5,2" stroke-opacity="0.200000" d="M170.63,-1355.54C180.41,-1357.56 190.96,-1361.34 198.5,-1368.38 228.34,-1396.24 236.99,-1446.6 239.49,-1471.93"/>
<polygon fill="#000000" fill-opacity="0.200000" stroke="#000000" stroke-opacity="0.200000" points="237.41,-1472.29 240.02,-1478.09 241.6,-1471.93 237.41,-1472.29"/>
</g>
<!-- src/server/middlewares/i18n.ts&#45;&gt;path -->
<g id="edge18" class="edge">
<title>src/server/middlewares/i18n.ts&#45;&gt;path</title>
<path fill="none" stroke="#000000" stroke-dasharray="5,2" stroke-opacity="0.200000" d="M170.59,-1354.33C180.86,-1356.11 191.77,-1360.05 198.5,-1368.38 217.25,-1391.58 189.47,-1477.88 206.5,-1502.38 207.4,-1503.68 208.44,-1504.86 209.59,-1505.95"/>
<polygon fill="#000000" fill-opacity="0.200000" stroke="#000000" stroke-opacity="0.200000" points="208.4,-1507.68 214.45,-1509.65 210.95,-1504.34 208.4,-1507.68"/>
</g>
<!-- src/server/middlewares/renderFullPage.tsx&#45;&gt;src/shared/App.tsx -->
<g id="edge19" class="edge">
<title>src/server/middlewares/renderFullPage.tsx&#45;&gt;src/shared/App.tsx</title>
<path fill="none" stroke="#000000" stroke-width="2" stroke-opacity="0.200000" d="M190.77,-1315.26C193.69,-1313.39 196.32,-1311.12 198.5,-1308.38 214.04,-1288.83 236.76,-474.81 240.09,-352.65"/>
<polygon fill="#000000" fill-opacity="0.200000" stroke="#000000" stroke-width="2" stroke-opacity="0.200000" points="242.19,-352.53 240.26,-346.48 237.99,-352.42 242.19,-352.53"/>
</g>
<!-- src/server/middlewares/renderFullPage.tsx&#45;&gt;src/server/components/html.tsx -->
<g id="edge20" class="edge">
<title>src/server/middlewares/renderFullPage.tsx&#45;&gt;src/server/components/html.tsx</title>
<path fill="none" stroke="#000000" stroke-width="2" stroke-opacity="0.200000" d="M178.6,-1314.31C185.23,-1312.43 192.1,-1310.41 198.5,-1308.38 202.37,-1307.15 206.41,-1305.8 210.4,-1304.42"/>
<polygon fill="#000000" fill-opacity="0.200000" stroke="#000000" stroke-width="2" stroke-opacity="0.200000" points="211.2,-1306.37 216.17,-1302.4 209.81,-1302.4 211.2,-1306.37"/>
</g>
<!-- src/shared/routes.ts -->
<g id="node25" class="node">
<title>src/shared/routes.ts</title>
<g id="a_node25"><a xlink:href="src/shared/routes.ts" xlink:title="routes.ts">
<path fill="#ddfeff" stroke="black" d="M467.5,-972.38C467.5,-972.38 425.5,-972.38 425.5,-972.38 422.5,-972.38 419.5,-969.38 419.5,-966.38 419.5,-966.38 419.5,-960.38 419.5,-960.38 419.5,-957.38 422.5,-954.38 425.5,-954.38 425.5,-954.38 467.5,-954.38 467.5,-954.38 470.5,-954.38 473.5,-957.38 473.5,-960.38 473.5,-960.38 473.5,-966.38 473.5,-966.38 473.5,-969.38 470.5,-972.38 467.5,-972.38"/>
<text text-anchor="middle" x="446.5" y="-961.18" font-family="Helvetica,sans-Serif" font-size="9.00">routes.ts</text>
</a>
</g>
</g>
<!-- src/shared/components/sections/Content/index.tsx&#45;&gt;src/shared/routes.ts -->
<g id="edge40" class="edge">
<title>src/shared/components/sections/Content/index.tsx&#45;&gt;src/shared/routes.ts</title>
<path fill="none" stroke="#000000" stroke-width="2" stroke-opacity="0.200000" d="M367.38,-346.7C368.57,-347.8 369.63,-349.02 370.5,-350.38 404.88,-404 359.42,-867.23 389.5,-923.38 395.95,-935.41 407.8,-944.68 418.95,-951.24"/>
<polygon fill="#000000" fill-opacity="0.200000" stroke="#000000" stroke-width="2" stroke-opacity="0.200000" points="418.07,-953.16 424.34,-954.25 420.12,-949.49 418.07,-953.16"/>
</g>
<!-- src/shared/pages/404/index.tsx -->
<g id="node31" class="node">
<title>src/shared/pages/404/index.tsx</title>
<g id="a_node31"><a xlink:href="src/shared/pages/404/index.tsx" xlink:title="index.tsx">
<path fill="#bbfeff" stroke="black" d="M467.5,-894.38C467.5,-894.38 425.5,-894.38 425.5,-894.38 422.5,-894.38 419.5,-891.38 419.5,-888.38 419.5,-888.38 419.5,-882.38 419.5,-882.38 419.5,-879.38 422.5,-876.38 425.5,-876.38 425.5,-876.38 467.5,-876.38 467.5,-876.38 470.5,-876.38 473.5,-879.38 473.5,-882.38 473.5,-882.38 473.5,-888.38 473.5,-888.38 473.5,-891.38 470.5,-894.38 467.5,-894.38"/>
<text text-anchor="middle" x="446.5" y="-883.18" font-family="Helvetica,sans-Serif" font-size="9.00">index.tsx</text>
</a>
</g>
</g>
<!-- src/shared/components/sections/Content/index.tsx&#45;&gt;src/shared/pages/404/index.tsx -->
<g id="edge35" class="edge">
<title>src/shared/components/sections/Content/index.tsx&#45;&gt;src/shared/pages/404/index.tsx</title>
<path fill="none" stroke="#000000" stroke-width="2" stroke-opacity="0.200000" d="M367.37,-346.7C368.56,-347.8 369.63,-349.02 370.5,-350.38 401.38,-398.33 356.51,-816.85 389.5,-863.38 395.2,-871.42 404.32,-876.53 413.55,-879.76"/>
<polygon fill="#000000" fill-opacity="0.200000" stroke="#000000" stroke-width="2" stroke-opacity="0.200000" points="412.93,-881.77 419.28,-881.55 414.18,-877.76 412.93,-881.77"/>
</g>
<!-- src/shared/pages/home/index.tsx -->
<g id="node32" class="node">
<title>src/shared/pages/home/index.tsx</title>
<g id="a_node32"><a xlink:href="src/shared/pages/home/index.tsx" xlink:title="index.tsx">
<path fill="#bbfeff" stroke="black" d="M467.5,-834.38C467.5,-834.38 425.5,-834.38 425.5,-834.38 422.5,-834.38 419.5,-831.38 419.5,-828.38 419.5,-828.38 419.5,-822.38 419.5,-822.38 419.5,-819.38 422.5,-816.38 425.5,-816.38 425.5,-816.38 467.5,-816.38 467.5,-816.38 470.5,-816.38 473.5,-819.38 473.5,-822.38 473.5,-822.38 473.5,-828.38 473.5,-828.38 473.5,-831.38 470.5,-834.38 467.5,-834.38"/>
<text text-anchor="middle" x="446.5" y="-823.18" font-family="Helvetica,sans-Serif" font-size="9.00">index.tsx</text>
</a>
</g>
</g>
<!-- src/shared/components/sections/Content/index.tsx&#45;&gt;src/shared/pages/home/index.tsx -->
<g id="edge36" class="edge">
<title>src/shared/components/sections/Content/index.tsx&#45;&gt;src/shared/pages/home/index.tsx</title>
<path fill="none" stroke="#000000" stroke-width="2" stroke-opacity="0.200000" d="M367.37,-346.71C368.56,-347.8 369.62,-349.02 370.5,-350.38 397.88,-392.67 360.26,-762.35 389.5,-803.38 395.22,-811.41 404.34,-816.51 413.57,-819.75"/>
<polygon fill="#000000" fill-opacity="0.200000" stroke="#000000" stroke-width="2" stroke-opacity="0.200000" points="412.95,-821.75 419.3,-821.53 414.2,-817.74 412.95,-821.75"/>
</g>
<!-- src/shared/pages/page&#45;1/index.tsx -->
<g id="node33" class="node">
<title>src/shared/pages/page&#45;1/index.tsx</title>
<g id="a_node33"><a xlink:href="src/shared/pages/page-1/index.tsx" xlink:title="index.tsx">
<path fill="#bbfeff" stroke="black" d="M467.5,-774.38C467.5,-774.38 425.5,-774.38 425.5,-774.38 422.5,-774.38 419.5,-771.38 419.5,-768.38 419.5,-768.38 419.5,-762.38 419.5,-762.38 419.5,-759.38 422.5,-756.38 425.5,-756.38 425.5,-756.38 467.5,-756.38 467.5,-756.38 470.5,-756.38 473.5,-759.38 473.5,-762.38 473.5,-762.38 473.5,-768.38 473.5,-768.38 473.5,-771.38 470.5,-774.38 467.5,-774.38"/>
<text text-anchor="middle" x="446.5" y="-763.18" font-family="Helvetica,sans-Serif" font-size="9.00">index.tsx</text>
</a>
</g>
</g>
<!-- src/shared/components/sections/Content/index.tsx&#45;&gt;src/shared/pages/page&#45;1/index.tsx -->
<g id="edge37" class="edge">
<title>src/shared/components/sections/Content/index.tsx&#45;&gt;src/shared/pages/page&#45;1/index.tsx</title>
<path fill="none" stroke="#000000" stroke-width="2" stroke-opacity="0.200000" d="M367.36,-346.71C368.55,-347.81 369.62,-349.02 370.5,-350.38 418.25,-423.62 338.53,-672.34 389.5,-743.38 395.25,-751.39 404.37,-756.48 413.6,-759.72"/>
<polygon fill="#000000" fill-opacity="0.200000" stroke="#000000" stroke-width="2" stroke-opacity="0.200000" points="412.98,-761.73 419.33,-761.51 414.23,-757.72 412.98,-761.73"/>
</g>
<!-- src/shared/pages/page&#45;2/index.tsx -->
<g id="node34" class="node">
<title>src/shared/pages/page&#45;2/index.tsx</title>
<g id="a_node34"><a xlink:href="src/shared/pages/page-2/index.tsx" xlink:title="index.tsx">
<path fill="#bbfeff" stroke="black" d="M467.5,-714.38C467.5,-714.38 425.5,-714.38 425.5,-714.38 422.5,-714.38 419.5,-711.38 419.5,-708.38 419.5,-708.38 419.5,-702.38 419.5,-702.38 419.5,-699.38 422.5,-696.38 425.5,-696.38 425.5,-696.38 467.5,-696.38 467.5,-696.38 470.5,-696.38 473.5,-699.38 473.5,-702.38 473.5,-702.38 473.5,-708.38 473.5,-708.38 473.5,-711.38 470.5,-714.38 467.5,-714.38"/>
<text text-anchor="middle" x="446.5" y="-703.18" font-family="Helvetica,sans-Serif" font-size="9.00">index.tsx</text>
</a>
</g>
</g>
<!-- src/shared/components/sections/Content/index.tsx&#45;&gt;src/shared/pages/page&#45;2/index.tsx -->
<g id="edge38" class="edge">
<title>src/shared/components/sections/Content/index.tsx&#45;&gt;src/shared/pages/page&#45;2/index.tsx</title>
<path fill="none" stroke="#000000" stroke-width="2" stroke-opacity="0.200000" d="M367.34,-346.72C368.54,-347.81 369.61,-349.03 370.5,-350.38 411.25,-412.29 346.03,-623.34 389.5,-683.38 395.28,-691.36 404.42,-696.45 413.64,-699.69"/>
<polygon fill="#000000" fill-opacity="0.200000" stroke="#000000" stroke-width="2" stroke-opacity="0.200000" points="413.02,-701.7 419.37,-701.48 414.27,-697.69 413.02,-701.7"/>
</g>
<!-- src/shared/pages/page&#45;3/index.tsx -->
<g id="node35" class="node">
<title>src/shared/pages/page&#45;3/index.tsx</title>
<g id="a_node35"><a xlink:href="src/shared/pages/page-3/index.tsx" xlink:title="index.tsx">
<path fill="#bbfeff" stroke="black" d="M467.5,-654.38C467.5,-654.38 425.5,-654.38 425.5,-654.38 422.5,-654.38 419.5,-651.38 419.5,-648.38 419.5,-648.38 419.5,-642.38 419.5,-642.38 419.5,-639.38 422.5,-636.38 425.5,-636.38 425.5,-636.38 467.5,-636.38 467.5,-636.38 470.5,-636.38 473.5,-639.38 473.5,-642.38 473.5,-642.38 473.5,-648.38 473.5,-648.38 473.5,-651.38 470.5,-654.38 467.5,-654.38"/>
<text text-anchor="middle" x="446.5" y="-643.18" font-family="Helvetica,sans-Serif" font-size="9.00">index.tsx</text>
</a>
</g>
</g>
<!-- src/shared/components/sections/Content/index.tsx&#45;&gt;src/shared/pages/page&#45;3/index.tsx -->
<g id="edge39" class="edge">
<title>src/shared/components/sections/Content/index.tsx&#45;&gt;src/shared/pages/page&#45;3/index.tsx</title>
<path fill="none" stroke="#000000" stroke-width="2" stroke-opacity="0.200000" d="M367.29,-346.75C368.5,-347.84 369.59,-349.04 370.5,-350.38 397.26,-389.65 373.47,-518.64 389.5,-563.38 399.01,-589.91 419.22,-616.01 432.58,-631.39"/>
<polygon fill="#000000" fill-opacity="0.200000" stroke="#000000" stroke-width="2" stroke-opacity="0.200000" points="431.27,-633.09 436.82,-636.19 434.42,-630.3 431.27,-633.09"/>
</g>
<!-- src/shared/components/sections/Content/style.scss -->
<g id="node36" class="node">
<title>src/shared/components/sections/Content/style.scss</title>
<g id="a_node36"><a xlink:href="src/shared/components/sections/Content/style.scss" xlink:title="style.scss">
<path fill="#ffffcc" stroke="black" d="M468.5,-346.38C468.5,-346.38 424.5,-346.38 424.5,-346.38 421.5,-346.38 418.5,-343.38 418.5,-340.38 418.5,-340.38 418.5,-334.38 418.5,-334.38 418.5,-331.38 421.5,-328.38 424.5,-328.38 424.5,-328.38 468.5,-328.38 468.5,-328.38 471.5,-328.38 474.5,-331.38 474.5,-334.38 474.5,-334.38 474.5,-340.38 474.5,-340.38 474.5,-343.38 471.5,-346.38 468.5,-346.38"/>
<text text-anchor="middle" x="446.5" y="-335.18" font-family="Helvetica,sans-Serif" font-size="9.00">style.scss</text>
</a>
</g>
</g>
<!-- src/shared/components/sections/Content/index.tsx&#45;&gt;src/shared/components/sections/Content/style.scss -->
<g id="edge41" class="edge">
<title>src/shared/components/sections/Content/index.tsx&#45;&gt;src/shared/components/sections/Content/style.scss</title>
<path fill="none" stroke="#000000" stroke-width="2" stroke-opacity="0.200000" d="M370.51,-337.38C383.18,-337.38 398.57,-337.38 412.1,-337.38"/>
<polygon fill="#000000" fill-opacity="0.200000" stroke="#000000" stroke-width="2" stroke-opacity="0.200000" points="412.17,-339.48 418.17,-337.38 412.17,-335.28 412.17,-339.48"/>
</g>
<!-- src/shared/components/sections/Footer/style.scss -->
<g id="node37" class="node">
<title>src/shared/components/sections/Footer/style.scss</title>
<g id="a_node37"><a xlink:href="src/shared/components/sections/Footer/style.scss" xlink:title="style.scss">
<path fill="#ffffcc" stroke="black" d="M468.5,-286.38C468.5,-286.38 424.5,-286.38 424.5,-286.38 421.5,-286.38 418.5,-283.38 418.5,-280.38 418.5,-280.38 418.5,-274.38 418.5,-274.38 418.5,-271.38 421.5,-268.38 424.5,-268.38 424.5,-268.38 468.5,-268.38 468.5,-268.38 471.5,-268.38 474.5,-271.38 474.5,-274.38 474.5,-274.38 474.5,-280.38 474.5,-280.38 474.5,-283.38 471.5,-286.38 468.5,-286.38"/>
<text text-anchor="middle" x="446.5" y="-275.18" font-family="Helvetica,sans-Serif" font-size="9.00">style.scss</text>
</a>
</g>
</g>
<!-- src/shared/components/sections/Footer/index.tsx&#45;&gt;src/shared/components/sections/Footer/style.scss -->
<g id="edge42" class="edge">
<title>src/shared/components/sections/Footer/index.tsx&#45;&gt;src/shared/components/sections/Footer/style.scss</title>
<path fill="none" stroke="#000000" stroke-width="2" stroke-opacity="0.200000" d="M370.51,-277.38C383.18,-277.38 398.57,-277.38 412.1,-277.38"/>
<polygon fill="#000000" fill-opacity="0.200000" stroke="#000000" stroke-width="2" stroke-opacity="0.200000" points="412.17,-279.48 418.17,-277.38 412.17,-275.28 412.17,-279.48"/>
</g>
<!-- src/shared/components/sections/Header/index.tsx&#45;&gt;src/shared/routes.ts -->
<g id="edge44" class="edge">
<title>src/shared/components/sections/Header/index.tsx&#45;&gt;src/shared/routes.ts</title>
<path fill="none" stroke="#000000" stroke-width="2" stroke-opacity="0.200000" d="M352.53,-226.48C358.73,-234.14 366.85,-245.68 370.5,-257.38 392.55,-328.05 354.69,-858.04 389.5,-923.38 395.92,-935.43 407.77,-944.69 418.92,-951.26"/>
<polygon fill="#000000" fill-opacity="0.200000" stroke="#000000" stroke-width="2" stroke-opacity="0.200000" points="418.05,-953.17 424.31,-954.26 420.1,-949.51 418.05,-953.17"/>
</g>
<!-- src/shared/assets/react.svg -->
<g id="node26" class="node">
<title>src/shared/assets/react.svg</title>
<g id="a_node26"><a xlink:href="src/shared/assets/react.svg" xlink:title="react.svg">
<path fill="#ffffcc" stroke="black" d="M467.5,-150.38C467.5,-150.38 425.5,-150.38 425.5,-150.38 422.5,-150.38 419.5,-147.38 419.5,-144.38 419.5,-144.38 419.5,-138.38 419.5,-138.38 419.5,-135.38 422.5,-132.38 425.5,-132.38 425.5,-132.38 467.5,-132.38 467.5,-132.38 470.5,-132.38 473.5,-135.38 473.5,-138.38 473.5,-138.38 473.5,-144.38 473.5,-144.38 473.5,-147.38 470.5,-150.38 467.5,-150.38"/>
<text text-anchor="middle" x="446.5" y="-139.18" font-family="Helvetica,sans-Serif" font-size="9.00">react.svg</text>
</a>
</g>
</g>
<!-- src/shared/components/sections/Header/index.tsx&#45;&gt;src/shared/assets/react.svg -->
<g id="edge43" class="edge">
<title>src/shared/components/sections/Header/index.tsx&#45;&gt;src/shared/assets/react.svg</title>
<path fill="none" stroke="#000000" stroke-width="2" stroke-opacity="0.200000" d="M363.81,-208.36C366.11,-207.1 368.39,-205.76 370.5,-204.38 393.23,-189.45 416.83,-168.59 431.34,-155.03"/>
<polygon fill="#000000" fill-opacity="0.200000" stroke="#000000" stroke-width="2" stroke-opacity="0.200000" points="432.98,-156.38 435.9,-150.73 430.09,-153.32 432.98,-156.38"/>
</g>
<!-- src/shared/components/organisms/LocaleSelect/index.tsx -->
<g id="node30" class="node">
<title>src/shared/components/organisms/LocaleSelect/index.tsx</title>
<g id="a_node30"><a xlink:href="src/shared/components/organisms/LocaleSelect/index.tsx" xlink:title="index.tsx">
<path fill="#bbfeff" stroke="black" d="M467.5,-534.38C467.5,-534.38 425.5,-534.38 425.5,-534.38 422.5,-534.38 419.5,-531.38 419.5,-528.38 419.5,-528.38 419.5,-522.38 419.5,-522.38 419.5,-519.38 422.5,-516.38 425.5,-516.38 425.5,-516.38 467.5,-516.38 467.5,-516.38 470.5,-516.38 473.5,-519.38 473.5,-522.38 473.5,-522.38 473.5,-528.38 473.5,-528.38 473.5,-531.38 470.5,-534.38 467.5,-534.38"/>
<text text-anchor="middle" x="446.5" y="-523.18" font-family="Helvetica,sans-Serif" font-size="9.00">index.tsx</text>
</a>
</g>
</g>
<!-- src/shared/components/sections/Header/index.tsx&#45;&gt;src/shared/components/organisms/LocaleSelect/index.tsx -->
<g id="edge45" class="edge">
<title>src/shared/components/sections/Header/index.tsx&#45;&gt;src/shared/components/organisms/LocaleSelect/index.tsx</title>
<path fill="none" stroke="#000000" stroke-width="2" stroke-opacity="0.200000" d="M352.34,-226.54C358.43,-234.23 366.49,-245.79 370.5,-257.38 401.41,-346.78 349.43,-383.68 389.5,-469.38 397.73,-486.97 413.92,-502.2 426.79,-512.31"/>
<polygon fill="#000000" fill-opacity="0.200000" stroke="#000000" stroke-width="2" stroke-opacity="0.200000" points="425.67,-514.1 431.71,-516.07 428.21,-510.76 425.67,-514.1"/>
</g>
<!-- src/shared/components/sections/Header/style.scss -->
<g id="node38" class="node">
<title>src/shared/components/sections/Header/style.scss</title>
<g id="a_node38"><a xlink:href="src/shared/components/sections/Header/style.scss" xlink:title="style.scss">
<path fill="#ffffcc" stroke="black" d="M468.5,-226.38C468.5,-226.38 424.5,-226.38 424.5,-226.38 421.5,-226.38 418.5,-223.38 418.5,-220.38 418.5,-220.38 418.5,-214.38 418.5,-214.38 418.5,-211.38 421.5,-208.38 424.5,-208.38 424.5,-208.38 468.5,-208.38 468.5,-208.38 471.5,-208.38 474.5,-211.38 474.5,-214.38 474.5,-214.38 474.5,-220.38 474.5,-220.38 474.5,-223.38 471.5,-226.38 468.5,-226.38"/>
<text text-anchor="middle" x="446.5" y="-215.18" font-family="Helvetica,sans-Serif" font-size="9.00">style.scss</text>
</a>
</g>
</g>
<!-- src/shared/components/sections/Header/index.tsx&#45;&gt;src/shared/components/sections/Header/style.scss -->
<g id="edge46" class="edge">
<title>src/shared/components/sections/Header/index.tsx&#45;&gt;src/shared/components/sections/Header/style.scss</title>
<path fill="none" stroke="#000000" stroke-width="2" stroke-opacity="0.200000" d="M370.51,-217.38C383.18,-217.38 398.57,-217.38 412.1,-217.38"/>
<polygon fill="#000000" fill-opacity="0.200000" stroke="#000000" stroke-width="2" stroke-opacity="0.200000" points="412.17,-219.48 418.17,-217.38 412.17,-215.28 412.17,-219.48"/>
</g>
<!-- src/shared/lib/i18n/withLocale.tsx&#45;&gt;src/shared/lib/i18n/config.ts -->
<g id="edge52" class="edge">
<title>src/shared/lib/i18n/withLocale.tsx&#45;&gt;src/shared/lib/i18n/config.ts</title>
<path fill="none" stroke="#000000" stroke-width="2" stroke-opacity="0.200000" d="M604.76,-1035.38C608.21,-1035.38 611.69,-1035.38 615.1,-1035.38"/>
<polygon fill="#000000" fill-opacity="0.200000" stroke="#000000" stroke-width="2" stroke-opacity="0.200000" points="615.13,-1037.48 621.13,-1035.38 615.13,-1033.28 615.13,-1037.48"/>
</g>
<!-- src/shared/lib/i18n/withLocale.tsx&#45;&gt;src/shared/lib/redux/app/types.ts -->
<g id="edge51" class="edge">
<title>src/shared/lib/i18n/withLocale.tsx&#45;&gt;src/shared/lib/redux/app/types.ts</title>
<path fill="none" stroke="#000000" stroke-width="2" stroke-opacity="0.200000" d="M592.85,-1026.37C600.61,-1023.92 609.32,-1021.6 617.5,-1020.38 653.98,-1014.92 669.87,-999.82 700.5,-1020.38 723.15,-1035.58 730.72,-1068.85 733.25,-1088.33"/>
<polygon fill="#000000" fill-opacity="0.200000" stroke="#000000" stroke-width="2" stroke-opacity="0.200000" points="731.17,-1088.64 733.92,-1094.37 735.34,-1088.17 731.17,-1088.64"/>
</g>
<!-- src/shared/lib/redux/app/actions.ts -->
<g id="node39" class="node">
<title>src/shared/lib/redux/app/actions.ts</title>
<g id="a_node39"><a xlink:href="src/shared/lib/redux/app/actions.ts" xlink:title="actions.ts">
<path fill="#ddfeff" stroke="black" d="M670,-1142.38C670,-1142.38 627,-1142.38 627,-1142.38 624,-1142.38 621,-1139.38 621,-1136.38 621,-1136.38 621,-1130.38 621,-1130.38 621,-1127.38 624,-1124.38 627,-1124.38 627,-1124.38 670,-1124.38 670,-1124.38 673,-1124.38 676,-1127.38 676,-1130.38 676,-1130.38 676,-1136.38 676,-1136.38 676,-1139.38 673,-1142.38 670,-1142.38"/>
<text text-anchor="middle" x="648.5" y="-1131.18" font-family="Helvetica,sans-Serif" font-size="9.00">actions.ts</text>
</a>
</g>
</g>
<!-- src/shared/lib/i18n/withLocale.tsx&#45;&gt;src/shared/lib/redux/app/actions.ts -->
<g id="edge49" class="edge">
<title>src/shared/lib/i18n/withLocale.tsx&#45;&gt;src/shared/lib/redux/app/actions.ts</title>
<path fill="none" stroke="#000000" stroke-width="2" stroke-opacity="0.200000" d="M576.52,-1044.39C584.45,-1053.66 596.52,-1068.75 604.5,-1083.38 612.45,-1097.94 606.42,-1106.03 617.5,-1118.38 618.13,-1119.08 618.8,-1119.76 619.51,-1120.4"/>
<polygon fill="#000000" fill-opacity="0.200000" stroke="#000000" stroke-width="2" stroke-opacity="0.200000" points="618.52,-1122.29 624.56,-1124.28 621.08,-1118.96 618.52,-1122.29"/>
</g>
<!-- src/shared/lib/redux/app/selectors.ts -->
<g id="node40" class="node">
<title>src/shared/lib/redux/app/selectors.ts</title>
<g id="a_node40"><a xlink:href="src/shared/lib/redux/app/selectors.ts" xlink:title="selectors.ts">
<path fill="#ddfeff" stroke="black" d="M673.5,-1112.38C673.5,-1112.38 623.5,-1112.38 623.5,-1112.38 620.5,-1112.38 617.5,-1109.38 617.5,-1106.38 617.5,-1106.38 617.5,-1100.38 617.5,-1100.38 617.5,-1097.38 620.5,-1094.38 623.5,-1094.38 623.5,-1094.38 673.5,-1094.38 673.5,-1094.38 676.5,-1094.38 679.5,-1097.38 679.5,-1100.38 679.5,-1100.38 679.5,-1106.38 679.5,-1106.38 679.5,-1109.38 676.5,-1112.38 673.5,-1112.38"/>
<text text-anchor="middle" x="648.5" y="-1101.18" font-family="Helvetica,sans-Serif" font-size="9.00">selectors.ts</text>
</a>
</g>
</g>
<!-- src/shared/lib/i18n/withLocale.tsx&#45;&gt;src/shared/lib/redux/app/selectors.ts -->
<g id="edge50" class="edge">
<title>src/shared/lib/i18n/withLocale.tsx&#45;&gt;src/shared/lib/redux/app/selectors.ts</title>
<path fill="none" stroke="#000000" stroke-width="2" stroke-opacity="0.200000" d="M579.15,-1044.55C592.89,-1056.38 616.87,-1077.02 632.47,-1090.44"/>
<polygon fill="#000000" fill-opacity="0.200000" stroke="#000000" stroke-width="2" stroke-opacity="0.200000" points="631.1,-1092.03 637.01,-1094.35 633.84,-1088.85 631.1,-1092.03"/>
</g>
<!-- src/shared/__test__/App.test.tsx -->
<g id="node23" class="node">
<title>src/shared/__test__/App.test.tsx</title>
<g id="a_node23"><a xlink:href="src/shared/__test__/App.test.tsx" xlink:title="App.test.tsx">
<path fill="#bbfeff" stroke="black" d="M169,-648.38C169,-648.38 118,-648.38 118,-648.38 115,-648.38 112,-645.38 112,-642.38 112,-642.38 112,-636.38 112,-636.38 112,-633.38 115,-630.38 118,-630.38 118,-630.38 169,-630.38 169,-630.38 172,-630.38 175,-633.38 175,-636.38 175,-636.38 175,-642.38 175,-642.38 175,-645.38 172,-648.38 169,-648.38"/>
<text text-anchor="middle" x="143.5" y="-637.18" font-family="Helvetica,sans-Serif" font-size="9.00">App.test.tsx</text>
</a>
</g>
</g>
<!-- src/shared/__test__/App.test.tsx&#45;&gt;src/shared/App.tsx -->
<g id="edge27" class="edge">
<title>src/shared/__test__/App.test.tsx&#45;&gt;src/shared/App.tsx</title>
<path fill="none" stroke="#000000" stroke-width="2" stroke-opacity="0.200000" d="M147.37,-630.34C160.95,-587.62 218.76,-405.77 235.77,-352.25"/>
<polygon fill="#000000" fill-opacity="0.200000" stroke="#000000" stroke-width="2" stroke-opacity="0.200000" points="237.82,-352.73 237.64,-346.38 233.82,-351.46 237.82,-352.73"/>
</g>
<!-- src/shared/__test__/routes.test.tsx -->
<g id="node24" class="node">
<title>src/shared/__test__/routes.test.tsx</title>
<g id="a_node24"><a xlink:href="src/shared/__test__/routes.test.tsx" xlink:title="routes.test.tsx">
<path fill="#bbfeff" stroke="black" d="M173.5,-678.38C173.5,-678.38 113.5,-678.38 113.5,-678.38 110.5,-678.38 107.5,-675.38 107.5,-672.38 107.5,-672.38 107.5,-666.38 107.5,-666.38 107.5,-663.38 110.5,-660.38 113.5,-660.38 113.5,-660.38 173.5,-660.38 173.5,-660.38 176.5,-660.38 179.5,-663.38 179.5,-666.38 179.5,-666.38 179.5,-672.38 179.5,-672.38 179.5,-675.38 176.5,-678.38 173.5,-678.38"/>
<text text-anchor="middle" x="143.5" y="-667.18" font-family="Helvetica,sans-Serif" font-size="9.00">routes.test.tsx</text>
</a>
</g>
</g>
<!-- src/shared/__test__/routes.test.tsx&#45;&gt;src/shared/routes.ts -->
<g id="edge28" class="edge">
<title>src/shared/__test__/routes.test.tsx&#45;&gt;src/shared/routes.ts</title>
<path fill="none" stroke="#000000" stroke-width="2" stroke-opacity="0.200000" d="M152.41,-678.74C181.81,-713.29 288.37,-836.13 389.5,-923.38 401.01,-933.3 414.9,-943.24 425.97,-950.73"/>
<polygon fill="#000000" fill-opacity="0.200000" stroke="#000000" stroke-width="2" stroke-opacity="0.200000" points="425,-952.6 431.16,-954.19 427.34,-949.11 425,-952.6"/>
</g>
<!-- src/shared/components/molecules/Menu/index.stories.tsx -->
<g id="node27" class="node">
<title>src/shared/components/molecules/Menu/index.stories.tsx</title>
<g id="a_node27"><a xlink:href="src/shared/components/molecules/Menu/index.stories.tsx" xlink:title="index.stories.tsx">
<path fill="#bbfeff" stroke="black" d="M481.5,-440.38C481.5,-440.38 411.5,-440.38 411.5,-440.38 408.5,-440.38 405.5,-437.38 405.5,-434.38 405.5,-434.38 405.5,-428.38 405.5,-428.38 405.5,-425.38 408.5,-422.38 411.5,-422.38 411.5,-422.38 481.5,-422.38 481.5,-422.38 484.5,-422.38 487.5,-425.38 487.5,-428.38 487.5,-428.38 487.5,-434.38 487.5,-434.38 487.5,-437.38 484.5,-440.38 481.5,-440.38"/>
<text text-anchor="middle" x="446.5" y="-429.18" font-family="Helvetica,sans-Serif" font-size="9.00">index.stories.tsx</text>
</a>
</g>
</g>
<!-- src/shared/components/molecules/Menu/index.tsx -->
<g id="node28" class="node">
<title>src/shared/components/molecules/Menu/index.tsx</title>
<g id="a_node28"><a xlink:href="src/shared/components/molecules/Menu/index.tsx" xlink:title="index.tsx">
<path fill="#bbfeff" stroke="black" d="M588.5,-440.38C588.5,-440.38 546.5,-440.38 546.5,-440.38 543.5,-440.38 540.5,-437.38 540.5,-434.38 540.5,-434.38 540.5,-428.38 540.5,-428.38 540.5,-425.38 543.5,-422.38 546.5,-422.38 546.5,-422.38 588.5,-422.38 588.5,-422.38 591.5,-422.38 594.5,-425.38 594.5,-428.38 594.5,-428.38 594.5,-434.38 594.5,-434.38 594.5,-437.38 591.5,-440.38 588.5,-440.38"/>
<text text-anchor="middle" x="567.5" y="-429.18" font-family="Helvetica,sans-Serif" font-size="9.00">index.tsx</text>
</a>
</g>
</g>
<!-- src/shared/components/molecules/Menu/index.stories.tsx&#45;&gt;src/shared/components/molecules/Menu/index.tsx -->
<g id="edge29" class="edge">
<title>src/shared/components/molecules/Menu/index.stories.tsx&#45;&gt;src/shared/components/molecules/Menu/index.tsx</title>
<path fill="none" stroke="#000000" stroke-width="2" stroke-opacity="0.200000" d="M487.79,-431.38C502.87,-431.38 519.81,-431.38 534.09,-431.38"/>
<polygon fill="#000000" fill-opacity="0.200000" stroke="#000000" stroke-width="2" stroke-opacity="0.200000" points="534.45,-433.48 540.45,-431.38 534.45,-429.28 534.45,-433.48"/>
</g>
<!-- src/shared/components/molecules/Menu/style.scss -->
<g id="node29" class="node">
<title>src/shared/components/molecules/Menu/style.scss</title>
<g id="a_node29"><a xlink:href="src/shared/components/molecules/Menu/style.scss" xlink:title="style.scss">
<path fill="#ffffcc" stroke="black" d="M670.5,-440.38C670.5,-440.38 626.5,-440.38 626.5,-440.38 623.5,-440.38 620.5,-437.38 620.5,-434.38 620.5,-434.38 620.5,-428.38 620.5,-428.38 620.5,-425.38 623.5,-422.38 626.5,-422.38 626.5,-422.38 670.5,-422.38 670.5,-422.38 673.5,-422.38 676.5,-425.38 676.5,-428.38 676.5,-428.38 676.5,-434.38 676.5,-434.38 676.5,-437.38 673.5,-440.38 670.5,-440.38"/>
<text text-anchor="middle" x="648.5" y="-429.18" font-family="Helvetica,sans-Serif" font-size="9.00">style.scss</text>
</a>
</g>
</g>
<!-- src/shared/components/molecules/Menu/index.tsx&#45;&gt;src/shared/components/molecules/Menu/style.scss -->
<g id="edge30" class="edge">
<title>src/shared/components/molecules/Menu/index.tsx&#45;&gt;src/shared/components/molecules/Menu/style.scss</title>
<path fill="none" stroke="#000000" stroke-width="2" stroke-opacity="0.200000" d="M594.81,-431.38C601,-431.38 607.68,-431.38 614.14,-431.38"/>
<polygon fill="#000000" fill-opacity="0.200000" stroke="#000000" stroke-width="2" stroke-opacity="0.200000" points="614.5,-433.48 620.5,-431.38 614.5,-429.28 614.5,-433.48"/>
</g>
<!-- src/shared/components/organisms/LocaleSelect/index.tsx&#45;&gt;src/shared/lib/i18n/index.tsx -->
<g id="edge31" class="edge">
<title>src/shared/components/organisms/LocaleSelect/index.tsx&#45;&gt;src/shared/lib/i18n/index.tsx</title>
<path fill="none" stroke="#000000" stroke-width="2" stroke-opacity="0.200000" d="M452.43,-534.44C461.54,-551.63 480.95,-590.37 490.5,-625.38 520.11,-733.87 497.11,-766.82 522.5,-876.38 532.31,-918.7 550.68,-966.67 560.29,-990.41"/>
<polygon fill="#000000" fill-opacity="0.200000" stroke="#000000" stroke-width="2" stroke-opacity="0.200000" points="558.43,-991.42 562.64,-996.18 562.32,-989.83 558.43,-991.42"/>
</g>
<!-- src/shared/components/organisms/LocaleSelect/index.tsx&#45;&gt;src/shared/lib/i18n/config.ts -->
<g id="edge32" class="edge">
<title>src/shared/components/organisms/LocaleSelect/index.tsx&#45;&gt;src/shared/lib/i18n/config.ts</title>
<path fill="none" stroke="#000000" stroke-width="2" stroke-opacity="0.200000" d="M451.54,-534.43C459.3,-551.91 476.77,-591.59 490.5,-625.38 552.67,-778.4 622.08,-966.13 641.93,-1020.17"/>
<polygon fill="#000000" fill-opacity="0.200000" stroke="#000000" stroke-width="2" stroke-opacity="0.200000" points="640.06,-1021.18 644.1,-1026.09 644,-1019.73 640.06,-1021.18"/>
</g>
<!-- src/shared/components/organisms/LocaleSelect/index.tsx&#45;&gt;src/shared/lib/redux/app/types.ts -->
<g id="edge33" class="edge">
<title>src/shared/components/organisms/LocaleSelect/index.tsx&#45;&gt;src/shared/lib/redux/app/types.ts</title>
<path fill="none" stroke="#000000" stroke-width="2" stroke-opacity="0.200000" d="M457.38,-534.56C484.48,-560.21 560.82,-635.79 604.5,-712.38 681.3,-847.06 721.24,-1033.94 731.68,-1088.11"/>
<polygon fill="#000000" fill-opacity="0.200000" stroke="#000000" stroke-width="2" stroke-opacity="0.200000" points="729.68,-1088.81 732.86,-1094.31 733.81,-1088.03 729.68,-1088.81"/>
</g>
<!-- src/shared/components/organisms/LocaleSelect/index.tsx&#45;&gt;src/shared/components/molecules/Menu/index.tsx -->
<g id="edge34" class="edge">
<title>src/shared/components/organisms/LocaleSelect/index.tsx&#45;&gt;src/shared/components/molecules/Menu/index.tsx</title>
<path fill="none" stroke="#000000" stroke-width="2" stroke-opacity="0.200000" d="M458.91,-516.36C480.09,-499.63 525.56,-463.72 550.06,-444.37"/>
<polygon fill="#000000" fill-opacity="0.200000" stroke="#000000" stroke-width="2" stroke-opacity="0.200000" points="551.54,-445.87 554.95,-440.5 548.94,-442.57 551.54,-445.87"/>
</g>
<!-- src/shared/lib/redux/app/actions.ts&#45;&gt;src/shared/lib/redux/app/types.ts -->
<g id="edge53" class="edge">
<title>src/shared/lib/redux/app/actions.ts&#45;&gt;src/shared/lib/redux/app/types.ts</title>
<path fill="none" stroke="#000000" stroke-width="2" stroke-opacity="0.200000" d="M676.18,-1126.24C684.08,-1123.93 692.7,-1121.23 700.5,-1118.38 703.38,-1117.32 706.36,-1116.15 709.3,-1114.92"/>
<polygon fill="#000000" fill-opacity="0.200000" stroke="#000000" stroke-width="2" stroke-opacity="0.200000" points="710.56,-1116.67 715.26,-1112.38 708.92,-1112.81 710.56,-1116.67"/>
</g>
<!-- src/shared/lib/redux/app/selectors.ts&#45;&gt;src/shared/lib/redux/app/types.ts -->
<g id="edge57" class="edge">
<title>src/shared/lib/redux/app/selectors.ts&#45;&gt;src/shared/lib/redux/app/types.ts</title>
<path fill="none" stroke="#000000" stroke-width="2" stroke-opacity="0.200000" d="M679.71,-1103.38C687.01,-1103.38 694.85,-1103.38 702.25,-1103.38"/>
<polygon fill="#000000" fill-opacity="0.200000" stroke="#000000" stroke-width="2" stroke-opacity="0.200000" points="702.34,-1105.48 708.34,-1103.38 702.34,-1101.28 702.34,-1105.48"/>
</g>
<!-- src/shared/lib/redux/app/reducers.ts -->
<g id="node41" class="node">
<title>src/shared/lib/redux/app/reducers.ts</title>
<g id="a_node41"><a xlink:href="src/shared/lib/redux/app/reducers.ts" xlink:title="reducers.ts">
<path fill="#ddfeff" stroke="black" d="M592.5,-1142.38C592.5,-1142.38 542.5,-1142.38 542.5,-1142.38 539.5,-1142.38 536.5,-1139.38 536.5,-1136.38 536.5,-1136.38 536.5,-1130.38 536.5,-1130.38 536.5,-1127.38 539.5,-1124.38 542.5,-1124.38 542.5,-1124.38 592.5,-1124.38 592.5,-1124.38 595.5,-1124.38 598.5,-1127.38 598.5,-1130.38 598.5,-1130.38 598.5,-1136.38 598.5,-1136.38 598.5,-1139.38 595.5,-1142.38 592.5,-1142.38"/>
<text text-anchor="middle" x="567.5" y="-1131.18" font-family="Helvetica,sans-Serif" font-size="9.00">reducers.ts</text>
</a>
</g>
</g>
<!-- src/shared/lib/redux/app/reducers.ts&#45;&gt;src/shared/lib/i18n/config.ts -->
<g id="edge54" class="edge">
<title>src/shared/lib/redux/app/reducers.ts&#45;&gt;src/shared/lib/i18n/config.ts</title>
<path fill="none" stroke="#000000" stroke-width="2" stroke-opacity="0.200000" d="M575.79,-1124.33C589.66,-1107.12 619.94,-1069.56 636.37,-1049.19"/>
<polygon fill="#000000" fill-opacity="0.200000" stroke="#000000" stroke-width="2" stroke-opacity="0.200000" points="638.1,-1050.39 640.23,-1044.4 634.83,-1047.75 638.1,-1050.39"/>
</g>
<!-- src/shared/lib/redux/app/reducers.ts&#45;&gt;src/shared/lib/redux/app/types.ts -->
<g id="edge56" class="edge">
<title>src/shared/lib/redux/app/reducers.ts&#45;&gt;src/shared/lib/redux/app/types.ts</title>
<path fill="none" stroke="#000000" stroke-width="2" stroke-opacity="0.200000" d="M589.4,-1142.51C616.5,-1152.9 664.57,-1166.26 700.5,-1148.38 713.07,-1142.12 722.23,-1128.75 727.85,-1118.2"/>
<polygon fill="#000000" fill-opacity="0.200000" stroke="#000000" stroke-width="2" stroke-opacity="0.200000" points="729.8,-1118.99 730.61,-1112.69 726.05,-1117.11 729.8,-1118.99"/>
</g>
<!-- src/shared/lib/redux/app/reducers.ts&#45;&gt;src/shared/lib/redux/app/actions.ts -->
<g id="edge55" class="edge">
<title>src/shared/lib/redux/app/reducers.ts&#45;&gt;src/shared/lib/redux/app/actions.ts</title>
<path fill="none" stroke="#000000" stroke-width="2" stroke-opacity="0.200000" d="M598.82,-1133.38C604.01,-1133.38 609.42,-1133.38 614.68,-1133.38"/>
<polygon fill="#000000" fill-opacity="0.200000" stroke="#000000" stroke-width="2" stroke-opacity="0.200000" points="614.75,-1135.48 620.75,-1133.38 614.75,-1131.28 614.75,-1135.48"/>
</g>
<!-- src/shared/lib/redux/rootReducer.ts&#45;&gt;src/shared/lib/redux/app/reducers.ts -->
<g id="edge59" class="edge">
<title>src/shared/lib/redux/rootReducer.ts&#45;&gt;src/shared/lib/redux/app/reducers.ts</title>
<path fill="none" stroke="#000000" stroke-width="2" stroke-opacity="0.200000" d="M485.15,-1133.38C499.44,-1133.38 515.68,-1133.38 529.88,-1133.38"/>
<polygon fill="#000000" fill-opacity="0.200000" stroke="#000000" stroke-width="2" stroke-opacity="0.200000" points="530.24,-1135.48 536.24,-1133.38 530.24,-1131.28 530.24,-1135.48"/>
</g>
</g>
</svg>
