<?xml version="1.0" encoding="UTF-8" standalone="no"?>
<!DOCTYPE svg PUBLIC "-//W3C//DTD SVG 1.1//EN"
 "http://www.w3.org/Graphics/SVG/1.1/DTD/svg11.dtd">
<!-- Generated by graphviz version 2.44.1 (20200629.0846)
 -->
<!-- Title: dependency&#45;cruiser output Pages: 1 -->
<svg width="819pt" height="1572pt"
 viewBox="0.00 0.00 818.50 1571.58" xmlns="http://www.w3.org/2000/svg" xmlns:xlink="http://www.w3.org/1999/xlink">
<g id="graph0" class="graph" transform="scale(1 1) rotate(0) translate(4 1567.58)">
<title>dependency&#45;cruiser output</title>
<polygon fill="white" stroke="transparent" points="-4,4 -4,-1567.58 814.5,-1567.58 814.5,4 -4,4"/>
<g id="clust1" class="cluster">
<title>cluster_config</title>
<path fill="#ffffff" stroke="black" stroke-width="2" d="M120.5,-1492.38C120.5,-1492.38 166.5,-1492.38 166.5,-1492.38 172.5,-1492.38 178.5,-1498.38 178.5,-1504.38 178.5,-1504.38 178.5,-1532.38 178.5,-1532.38 178.5,-1538.38 172.5,-1544.38 166.5,-1544.38 166.5,-1544.38 120.5,-1544.38 120.5,-1544.38 114.5,-1544.38 108.5,-1538.38 108.5,-1532.38 108.5,-1532.38 108.5,-1504.38 108.5,-1504.38 108.5,-1498.38 114.5,-1492.38 120.5,-1492.38"/>
<text text-anchor="middle" x="143.5" y="-1533.18" font-family="Helvetica,sans-Serif" font-weight="bold" font-size="9.00">config</text>
</g>
<g id="clust2" class="cluster">
<title>cluster_src</title>
<path fill="#ffffff" stroke="black" stroke-width="2" d="M20,-8.38C20,-8.38 790.5,-8.38 790.5,-8.38 796.5,-8.38 802.5,-14.38 802.5,-20.38 802.5,-20.38 802.5,-1472.38 802.5,-1472.38 802.5,-1478.38 796.5,-1484.38 790.5,-1484.38 790.5,-1484.38 20,-1484.38 20,-1484.38 14,-1484.38 8,-1478.38 8,-1472.38 8,-1472.38 8,-20.38 8,-20.38 8,-14.38 14,-8.38 20,-8.38"/>
<text text-anchor="middle" x="405.25" y="-1473.18" font-family="Helvetica,sans-Serif" font-weight="bold" font-size="9.00">src</text>
</g>
<g id="clust3" class="cluster">
<title>cluster_src/client</title>
<path fill="#ffffff" stroke="black" stroke-width="2" d="M120.5,-26.38C120.5,-26.38 166.5,-26.38 166.5,-26.38 172.5,-26.38 178.5,-32.38 178.5,-38.38 178.5,-38.38 178.5,-66.38 178.5,-66.38 178.5,-72.38 172.5,-78.38 166.5,-78.38 166.5,-78.38 120.5,-78.38 120.5,-78.38 114.5,-78.38 108.5,-72.38 108.5,-66.38 108.5,-66.38 108.5,-38.38 108.5,-38.38 108.5,-32.38 114.5,-26.38 120.5,-26.38"/>
<text text-anchor="middle" x="143.5" y="-67.18" font-family="Helvetica,sans-Serif" font-weight="bold" font-size="9.00">client</text>
</g>
<g id="clust4" class="cluster">
<title>cluster_src/server</title>
<path fill="#ffffff" stroke="black" stroke-width="2" d="M28,-1282.38C28,-1282.38 272.5,-1282.38 272.5,-1282.38 278.5,-1282.38 284.5,-1288.38 284.5,-1294.38 284.5,-1294.38 284.5,-1446.38 284.5,-1446.38 284.5,-1452.38 278.5,-1458.38 272.5,-1458.38 272.5,-1458.38 28,-1458.38 28,-1458.38 22,-1458.38 16,-1452.38 16,-1446.38 16,-1446.38 16,-1294.38 16,-1294.38 16,-1288.38 22,-1282.38 28,-1282.38"/>
<text text-anchor="middle" x="150.25" y="-1447.18" font-family="Helvetica,sans-Serif" font-weight="bold" font-size="9.00">server</text>
</g>
<g id="clust5" class="cluster">
<title>cluster_src/server/components</title>
<path fill="#ffffff" stroke="black" stroke-width="2" d="M218.5,-1290.38C218.5,-1290.38 264.5,-1290.38 264.5,-1290.38 270.5,-1290.38 276.5,-1296.38 276.5,-1302.38 276.5,-1302.38 276.5,-1330.38 276.5,-1330.38 276.5,-1336.38 270.5,-1342.38 264.5,-1342.38 264.5,-1342.38 218.5,-1342.38 218.5,-1342.38 212.5,-1342.38 206.5,-1336.38 206.5,-1330.38 206.5,-1330.38 206.5,-1302.38 206.5,-1302.38 206.5,-1296.38 212.5,-1290.38 218.5,-1290.38"/>
<text text-anchor="middle" x="241.5" y="-1331.18" font-family="Helvetica,sans-Serif" font-weight="bold" font-size="9.00">components</text>
</g>
<g id="clust6" class="cluster">
<title>cluster_src/server/middlewares</title>
<path fill="#ffffff" stroke="black" stroke-width="2" d="M100.5,-1290.38C100.5,-1290.38 186.5,-1290.38 186.5,-1290.38 192.5,-1290.38 198.5,-1296.38 198.5,-1302.38 198.5,-1302.38 198.5,-1420.38 198.5,-1420.38 198.5,-1426.38 192.5,-1432.38 186.5,-1432.38 186.5,-1432.38 100.5,-1432.38 100.5,-1432.38 94.5,-1432.38 88.5,-1426.38 88.5,-1420.38 88.5,-1420.38 88.5,-1302.38 88.5,-1302.38 88.5,-1296.38 94.5,-1290.38 100.5,-1290.38"/>
<text text-anchor="middle" x="143.5" y="-1421.18" font-family="Helvetica,sans-Serif" font-weight="bold" font-size="9.00">middlewares</text>
</g>
<g id="clust7" class="cluster">
<title>cluster_src/shared</title>
<path fill="#ffffff" stroke="black" stroke-width="2" d="M108,-86.38C108,-86.38 782.5,-86.38 782.5,-86.38 788.5,-86.38 794.5,-92.38 794.5,-98.38 794.5,-98.38 794.5,-1262.38 794.5,-1262.38 794.5,-1268.38 788.5,-1274.38 782.5,-1274.38 782.5,-1274.38 108,-1274.38 108,-1274.38 102,-1274.38 96,-1268.38 96,-1262.38 96,-1262.38 96,-98.38 96,-98.38 96,-92.38 102,-86.38 108,-86.38"/>
<text text-anchor="middle" x="445.25" y="-1263.18" font-family="Helvetica,sans-Serif" font-weight="bold" font-size="9.00">shared</text>
</g>
<g id="clust8" class="cluster">
<title>cluster_src/shared/__test__</title>
<path fill="#ffffff" stroke="black" stroke-width="2" d="M116,-492.38C116,-492.38 171,-492.38 171,-492.38 177,-492.38 183,-498.38 183,-504.38 183,-504.38 183,-532.38 183,-532.38 183,-538.38 177,-544.38 171,-544.38 171,-544.38 116,-544.38 116,-544.38 110,-544.38 104,-538.38 104,-532.38 104,-532.38 104,-504.38 104,-504.38 104,-498.38 110,-492.38 116,-492.38"/>
<text text-anchor="middle" x="143.5" y="-533.18" font-family="Helvetica,sans-Serif" font-weight="bold" font-size="9.00">__test__</text>
</g>
<g id="clust9" class="cluster">
<title>cluster_src/shared/assets</title>
<path fill="#ffffff" stroke="black" stroke-width="2" d="M418.5,-356.38C418.5,-356.38 474.5,-356.38 474.5,-356.38 480.5,-356.38 486.5,-362.38 486.5,-368.38 486.5,-368.38 486.5,-426.38 486.5,-426.38 486.5,-432.38 480.5,-438.38 474.5,-438.38 474.5,-438.38 418.5,-438.38 418.5,-438.38 412.5,-438.38 406.5,-432.38 406.5,-426.38 406.5,-426.38 406.5,-368.38 406.5,-368.38 406.5,-362.38 412.5,-356.38 418.5,-356.38"/>
<text text-anchor="middle" x="446.5" y="-427.18" font-family="Helvetica,sans-Serif" font-weight="bold" font-size="9.00">assets</text>
</g>
<g id="clust10" class="cluster">
<title>cluster_src/shared/components</title>
<path fill="#ffffff" stroke="black" stroke-width="2" d="M304.5,-446.38C304.5,-446.38 688.5,-446.38 688.5,-446.38 694.5,-446.38 700.5,-452.38 700.5,-458.38 700.5,-458.38 700.5,-862.38 700.5,-862.38 700.5,-868.38 694.5,-874.38 688.5,-874.38 688.5,-874.38 304.5,-874.38 304.5,-874.38 298.5,-874.38 292.5,-868.38 292.5,-862.38 292.5,-862.38 292.5,-458.38 292.5,-458.38 292.5,-452.38 298.5,-446.38 304.5,-446.38"/>
<text text-anchor="middle" x="496.5" y="-863.18" font-family="Helvetica,sans-Serif" font-weight="bold" font-size="9.00">components</text>
</g>
<g id="clust11" class="cluster">
<title>cluster_src/shared/components/molecules</title>
<path fill="#ffffff" stroke="black" stroke-width="2" d="M401.5,-762.38C401.5,-762.38 680.5,-762.38 680.5,-762.38 686.5,-762.38 692.5,-768.38 692.5,-774.38 692.5,-774.38 692.5,-836.38 692.5,-836.38 692.5,-842.38 686.5,-848.38 680.5,-848.38 680.5,-848.38 401.5,-848.38 401.5,-848.38 395.5,-848.38 389.5,-842.38 389.5,-836.38 389.5,-836.38 389.5,-774.38 389.5,-774.38 389.5,-768.38 395.5,-762.38 401.5,-762.38"/>
<text text-anchor="middle" x="541" y="-837.18" font-family="Helvetica,sans-Serif" font-weight="bold" font-size="9.00">molecules</text>
</g>
<g id="clust12" class="cluster">
<title>cluster_src/shared/components/molecules/Menu</title>
<path fill="#ffffff" stroke="black" stroke-width="2" d="M409.5,-770.38C409.5,-770.38 672.5,-770.38 672.5,-770.38 678.5,-770.38 684.5,-776.38 684.5,-782.38 684.5,-782.38 684.5,-810.38 684.5,-810.38 684.5,-816.38 678.5,-822.38 672.5,-822.38 672.5,-822.38 409.5,-822.38 409.5,-822.38 403.5,-822.38 397.5,-816.38 397.5,-810.38 397.5,-810.38 397.5,-782.38 397.5,-782.38 397.5,-776.38 403.5,-770.38 409.5,-770.38"/>
<text text-anchor="middle" x="541" y="-811.18" font-family="Helvetica,sans-Serif" font-weight="bold" font-size="9.00">Menu</text>
</g>
<g id="clust13" class="cluster">
<title>cluster_src/shared/components/organisms</title>
<path fill="#ffffff" stroke="black" stroke-width="2" d="M414.5,-668.38C414.5,-668.38 478.5,-668.38 478.5,-668.38 484.5,-668.38 490.5,-674.38 490.5,-680.38 490.5,-680.38 490.5,-742.38 490.5,-742.38 490.5,-748.38 484.5,-754.38 478.5,-754.38 478.5,-754.38 414.5,-754.38 414.5,-754.38 408.5,-754.38 402.5,-748.38 402.5,-742.38 402.5,-742.38 402.5,-680.38 402.5,-680.38 402.5,-674.38 408.5,-668.38 414.5,-668.38"/>
<text text-anchor="middle" x="446.5" y="-743.18" font-family="Helvetica,sans-Serif" font-weight="bold" font-size="9.00">organisms</text>
</g>
<g id="clust14" class="cluster">
<title>cluster_src/shared/components/organisms/LocaleSelect</title>
<path fill="#ffffff" stroke="black" stroke-width="2" d="M422.5,-676.38C422.5,-676.38 470.5,-676.38 470.5,-676.38 476.5,-676.38 482.5,-682.38 482.5,-688.38 482.5,-688.38 482.5,-716.38 482.5,-716.38 482.5,-722.38 476.5,-728.38 470.5,-728.38 470.5,-728.38 422.5,-728.38 422.5,-728.38 416.5,-728.38 410.5,-722.38 410.5,-716.38 410.5,-716.38 410.5,-688.38 410.5,-688.38 410.5,-682.38 416.5,-676.38 422.5,-676.38"/>
<text text-anchor="middle" x="446.5" y="-717.18" font-family="Helvetica,sans-Serif" font-weight="bold" font-size="9.00">LocaleSelect</text>
</g>
<g id="clust15" class="cluster">
<title>cluster_src/shared/components/sections</title>
<path fill="#ffffff" stroke="black" stroke-width="2" d="M312.5,-454.38C312.5,-454.38 478.5,-454.38 478.5,-454.38 484.5,-454.38 490.5,-460.38 490.5,-466.38 490.5,-466.38 490.5,-648.38 490.5,-648.38 490.5,-654.38 484.5,-660.38 478.5,-660.38 478.5,-660.38 312.5,-660.38 312.5,-660.38 306.5,-660.38 300.5,-654.38 300.5,-648.38 300.5,-648.38 300.5,-466.38 300.5,-466.38 300.5,-460.38 306.5,-454.38 312.5,-454.38"/>
<text text-anchor="middle" x="395.5" y="-649.18" font-family="Helvetica,sans-Serif" font-weight="bold" font-size="9.00">sections</text>
</g>
<g id="clust16" class="cluster">
<title>cluster_src/shared/components/sections/Content</title>
<path fill="#ffffff" stroke="black" stroke-width="2" d="M320.5,-582.38C320.5,-582.38 470.5,-582.38 470.5,-582.38 476.5,-582.38 482.5,-588.38 482.5,-594.38 482.5,-594.38 482.5,-622.38 482.5,-622.38 482.5,-628.38 476.5,-634.38 470.5,-634.38 470.5,-634.38 320.5,-634.38 320.5,-634.38 314.5,-634.38 308.5,-628.38 308.5,-622.38 308.5,-622.38 308.5,-594.38 308.5,-594.38 308.5,-588.38 314.5,-582.38 320.5,-582.38"/>
<text text-anchor="middle" x="395.5" y="-623.18" font-family="Helvetica,sans-Serif" font-weight="bold" font-size="9.00">Content</text>
</g>
<g id="clust17" class="cluster">
<title>cluster_src/shared/components/sections/Footer</title>
<path fill="#ffffff" stroke="black" stroke-width="2" d="M320.5,-522.38C320.5,-522.38 470.5,-522.38 470.5,-522.38 476.5,-522.38 482.5,-528.38 482.5,-534.38 482.5,-534.38 482.5,-562.38 482.5,-562.38 482.5,-568.38 476.5,-574.38 470.5,-574.38 470.5,-574.38 320.5,-574.38 320.5,-574.38 314.5,-574.38 308.5,-568.38 308.5,-562.38 308.5,-562.38 308.5,-534.38 308.5,-534.38 308.5,-528.38 314.5,-522.38 320.5,-522.38"/>
<text text-anchor="middle" x="395.5" y="-563.18" font-family="Helvetica,sans-Serif" font-weight="bold" font-size="9.00">Footer</text>
</g>
<g id="clust18" class="cluster">
<title>cluster_src/shared/components/sections/Header</title>
<path fill="#ffffff" stroke="black" stroke-width="2" d="M320.5,-462.38C320.5,-462.38 470.5,-462.38 470.5,-462.38 476.5,-462.38 482.5,-468.38 482.5,-474.38 482.5,-474.38 482.5,-502.38 482.5,-502.38 482.5,-508.38 476.5,-514.38 470.5,-514.38 470.5,-514.38 320.5,-514.38 320.5,-514.38 314.5,-514.38 308.5,-508.38 308.5,-502.38 308.5,-502.38 308.5,-474.38 308.5,-474.38 308.5,-468.38 314.5,-462.38 320.5,-462.38"/>
<text text-anchor="middle" x="395.5" y="-503.18" font-family="Helvetica,sans-Serif" font-weight="bold" font-size="9.00">Header</text>
</g>
<g id="clust19" class="cluster">
<title>cluster_src/shared/lib</title>
<path fill="#ffffff" stroke="black" stroke-width="2" d="M312.5,-94.38C312.5,-94.38 774.5,-94.38 774.5,-94.38 780.5,-94.38 786.5,-100.38 786.5,-106.38 786.5,-106.38 786.5,-336.38 786.5,-336.38 786.5,-342.38 780.5,-348.38 774.5,-348.38 774.5,-348.38 312.5,-348.38 312.5,-348.38 306.5,-348.38 300.5,-342.38 300.5,-336.38 300.5,-336.38 300.5,-106.38 300.5,-106.38 300.5,-100.38 306.5,-94.38 312.5,-94.38"/>
<text text-anchor="middle" x="543.5" y="-337.18" font-family="Helvetica,sans-Serif" font-weight="bold" font-size="9.00">lib</text>
</g>
<g id="clust20" class="cluster">
<title>cluster_src/shared/lib/i18n</title>
<path fill="#ffffff" stroke="black" stroke-width="2" d="M534.5,-240.38C534.5,-240.38 671.5,-240.38 671.5,-240.38 677.5,-240.38 683.5,-246.38 683.5,-252.38 683.5,-252.38 683.5,-310.38 683.5,-310.38 683.5,-316.38 677.5,-322.38 671.5,-322.38 671.5,-322.38 534.5,-322.38 534.5,-322.38 528.5,-322.38 522.5,-316.38 522.5,-310.38 522.5,-310.38 522.5,-252.38 522.5,-252.38 522.5,-246.38 528.5,-240.38 534.5,-240.38"/>
<text text-anchor="middle" x="603" y="-311.18" font-family="Helvetica,sans-Serif" font-weight="bold" font-size="9.00">i18n</text>
</g>
<g id="clust21" class="cluster">
<title>cluster_src/shared/lib/redux</title>
<path fill="#ffffff" stroke="black" stroke-width="2" d="M320.5,-102.38C320.5,-102.38 766.5,-102.38 766.5,-102.38 772.5,-102.38 778.5,-108.38 778.5,-114.38 778.5,-114.38 778.5,-220.38 778.5,-220.38 778.5,-226.38 772.5,-232.38 766.5,-232.38 766.5,-232.38 320.5,-232.38 320.5,-232.38 314.5,-232.38 308.5,-226.38 308.5,-220.38 308.5,-220.38 308.5,-114.38 308.5,-114.38 308.5,-108.38 314.5,-102.38 320.5,-102.38"/>
<text text-anchor="middle" x="543.5" y="-221.18" font-family="Helvetica,sans-Serif" font-weight="bold" font-size="9.00">redux</text>
</g>
<g id="clust22" class="cluster">
<title>cluster_src/shared/lib/redux/app</title>
<path fill="#ffffff" stroke="black" stroke-width="2" d="M540.5,-110.38C540.5,-110.38 758.5,-110.38 758.5,-110.38 764.5,-110.38 770.5,-116.38 770.5,-122.38 770.5,-122.38 770.5,-194.38 770.5,-194.38 770.5,-200.38 764.5,-206.38 758.5,-206.38 758.5,-206.38 540.5,-206.38 540.5,-206.38 534.5,-206.38 528.5,-200.38 528.5,-194.38 528.5,-194.38 528.5,-122.38 528.5,-122.38 528.5,-116.38 534.5,-110.38 540.5,-110.38"/>
<text text-anchor="middle" x="649.5" y="-195.18" font-family="Helvetica,sans-Serif" font-weight="bold" font-size="9.00">app</text>
</g>
<g id="clust23" class="cluster">
<title>cluster_src/shared/pages</title>
<path fill="#ffffff" stroke="black" stroke-width="2" d="M415.5,-882.38C415.5,-882.38 477.5,-882.38 477.5,-882.38 483.5,-882.38 489.5,-888.38 489.5,-894.38 489.5,-894.38 489.5,-1196.38 489.5,-1196.38 489.5,-1202.38 483.5,-1208.38 477.5,-1208.38 477.5,-1208.38 415.5,-1208.38 415.5,-1208.38 409.5,-1208.38 403.5,-1202.38 403.5,-1196.38 403.5,-1196.38 403.5,-894.38 403.5,-894.38 403.5,-888.38 409.5,-882.38 415.5,-882.38"/>
<text text-anchor="middle" x="446.5" y="-1197.18" font-family="Helvetica,sans-Serif" font-weight="bold" font-size="9.00">pages</text>
</g>
<g id="clust24" class="cluster">
<title>cluster_src/shared/pages/404</title>
<path fill="#ffffff" stroke="black" stroke-width="2" d="M423.5,-1130.38C423.5,-1130.38 469.5,-1130.38 469.5,-1130.38 475.5,-1130.38 481.5,-1136.38 481.5,-1142.38 481.5,-1142.38 481.5,-1170.38 481.5,-1170.38 481.5,-1176.38 475.5,-1182.38 469.5,-1182.38 469.5,-1182.38 423.5,-1182.38 423.5,-1182.38 417.5,-1182.38 411.5,-1176.38 411.5,-1170.38 411.5,-1170.38 411.5,-1142.38 411.5,-1142.38 411.5,-1136.38 417.5,-1130.38 423.5,-1130.38"/>
<text text-anchor="middle" x="446.5" y="-1171.18" font-family="Helvetica,sans-Serif" font-weight="bold" font-size="9.00">404</text>
</g>
<g id="clust25" class="cluster">
<title>cluster_src/shared/pages/home</title>
<path fill="#ffffff" stroke="black" stroke-width="2" d="M423.5,-1070.38C423.5,-1070.38 469.5,-1070.38 469.5,-1070.38 475.5,-1070.38 481.5,-1076.38 481.5,-1082.38 481.5,-1082.38 481.5,-1110.38 481.5,-1110.38 481.5,-1116.38 475.5,-1122.38 469.5,-1122.38 469.5,-1122.38 423.5,-1122.38 423.5,-1122.38 417.5,-1122.38 411.5,-1116.38 411.5,-1110.38 411.5,-1110.38 411.5,-1082.38 411.5,-1082.38 411.5,-1076.38 417.5,-1070.38 423.5,-1070.38"/>
<text text-anchor="middle" x="446.5" y="-1111.18" font-family="Helvetica,sans-Serif" font-weight="bold" font-size="9.00">home</text>
</g>
<g id="clust26" class="cluster">
<title>cluster_src/shared/pages/page&#45;1</title>
<path fill="#ffffff" stroke="black" stroke-width="2" d="M423.5,-1010.38C423.5,-1010.38 469.5,-1010.38 469.5,-1010.38 475.5,-1010.38 481.5,-1016.38 481.5,-1022.38 481.5,-1022.38 481.5,-1050.38 481.5,-1050.38 481.5,-1056.38 475.5,-1062.38 469.5,-1062.38 469.5,-1062.38 423.5,-1062.38 423.5,-1062.38 417.5,-1062.38 411.5,-1056.38 411.5,-1050.38 411.5,-1050.38 411.5,-1022.38 411.5,-1022.38 411.5,-1016.38 417.5,-1010.38 423.5,-1010.38"/>
<text text-anchor="middle" x="446.5" y="-1051.18" font-family="Helvetica,sans-Serif" font-weight="bold" font-size="9.00">page&#45;1</text>
</g>
<g id="clust27" class="cluster">
<title>cluster_src/shared/pages/page&#45;2</title>
<path fill="#ffffff" stroke="black" stroke-width="2" d="M423.5,-950.38C423.5,-950.38 469.5,-950.38 469.5,-950.38 475.5,-950.38 481.5,-956.38 481.5,-962.38 481.5,-962.38 481.5,-990.38 481.5,-990.38 481.5,-996.38 475.5,-1002.38 469.5,-1002.38 469.5,-1002.38 423.5,-1002.38 423.5,-1002.38 417.5,-1002.38 411.5,-996.38 411.5,-990.38 411.5,-990.38 411.5,-962.38 411.5,-962.38 411.5,-956.38 417.5,-950.38 423.5,-950.38"/>
<text text-anchor="middle" x="446.5" y="-991.18" font-family="Helvetica,sans-Serif" font-weight="bold" font-size="9.00">page&#45;2</text>
</g>
<g id="clust28" class="cluster">
<title>cluster_src/shared/pages/page&#45;3</title>
<path fill="#ffffff" stroke="black" stroke-width="2" d="M423.5,-890.38C423.5,-890.38 469.5,-890.38 469.5,-890.38 475.5,-890.38 481.5,-896.38 481.5,-902.38 481.5,-902.38 481.5,-930.38 481.5,-930.38 481.5,-936.38 475.5,-942.38 469.5,-942.38 469.5,-942.38 423.5,-942.38 423.5,-942.38 417.5,-942.38 411.5,-936.38 411.5,-930.38 411.5,-930.38 411.5,-902.38 411.5,-902.38 411.5,-896.38 417.5,-890.38 423.5,-890.38"/>
<text text-anchor="middle" x="446.5" y="-931.18" font-family="Helvetica,sans-Serif" font-weight="bold" font-size="9.00">page&#45;3</text>
</g>
<!-- config/paths.ts -->
<g id="node1" class="node">
<title>config/paths.ts</title>
<g id="a_node1"><a xlink:href="config/paths.ts" xlink:title="paths.ts">
<path fill="#ddfeff" stroke="black" d="M164.5,-1518.38C164.5,-1518.38 122.5,-1518.38 122.5,-1518.38 119.5,-1518.38 116.5,-1515.38 116.5,-1512.38 116.5,-1512.38 116.5,-1506.38 116.5,-1506.38 116.5,-1503.38 119.5,-1500.38 122.5,-1500.38 122.5,-1500.38 164.5,-1500.38 164.5,-1500.38 167.5,-1500.38 170.5,-1503.38 170.5,-1506.38 170.5,-1506.38 170.5,-1512.38 170.5,-1512.38 170.5,-1515.38 167.5,-1518.38 164.5,-1518.38"/>
<text text-anchor="middle" x="143.5" y="-1507.18" font-family="Helvetica,sans-Serif" font-size="9.00">paths.ts</text>
</a>
</g>
</g>
<!-- fs -->
<g id="node2" class="node">
<title>fs</title>
<path fill="#ffffcc" stroke="grey" d="M262.5,-1510.38C262.5,-1510.38 220.5,-1510.38 220.5,-1510.38 217.5,-1510.38 214.5,-1507.38 214.5,-1504.38 214.5,-1504.38 214.5,-1498.38 214.5,-1498.38 214.5,-1495.38 217.5,-1492.38 220.5,-1492.38 220.5,-1492.38 262.5,-1492.38 262.5,-1492.38 265.5,-1492.38 268.5,-1495.38 268.5,-1498.38 268.5,-1498.38 268.5,-1504.38 268.5,-1504.38 268.5,-1507.38 265.5,-1510.38 262.5,-1510.38"/>
<text text-anchor="middle" x="241.5" y="-1499.18" font-family="Helvetica,sans-Serif" font-size="9.00" fill="grey">fs</text>
</g>
<!-- config/paths.ts&#45;&gt;fs -->
<g id="edge1" class="edge">
<title>config/paths.ts&#45;&gt;fs</title>
<path fill="none" stroke="#000000" stroke-dasharray="5,2" stroke-opacity="0.200000" d="M170.73,-1507.19C182.27,-1506.23 195.93,-1505.09 208.09,-1504.08"/>
<polygon fill="#000000" fill-opacity="0.200000" stroke="#000000" stroke-opacity="0.200000" points="208.49,-1506.15 214.3,-1503.56 208.15,-1501.97 208.49,-1506.15"/>
</g>
<!-- path -->
<g id="node3" class="node">
<title>path</title>
<path fill="#ffffcc" stroke="grey" d="M262.5,-1540.38C262.5,-1540.38 220.5,-1540.38 220.5,-1540.38 217.5,-1540.38 214.5,-1537.38 214.5,-1534.38 214.5,-1534.38 214.5,-1528.38 214.5,-1528.38 214.5,-1525.38 217.5,-1522.38 220.5,-1522.38 220.5,-1522.38 262.5,-1522.38 262.5,-1522.38 265.5,-1522.38 268.5,-1525.38 268.5,-1528.38 268.5,-1528.38 268.5,-1534.38 268.5,-1534.38 268.5,-1537.38 265.5,-1540.38 262.5,-1540.38"/>
<text text-anchor="middle" x="241.5" y="-1529.18" font-family="Helvetica,sans-Serif" font-size="9.00" fill="grey">path</text>
</g>
<!-- config/paths.ts&#45;&gt;path -->
<g id="edge2" class="edge">
<title>config/paths.ts&#45;&gt;path</title>
<path fill="none" stroke="#000000" stroke-dasharray="5,2" stroke-opacity="0.200000" d="M170.73,-1515.39C182.37,-1518.06 196.18,-1521.22 208.43,-1524.03"/>
<polygon fill="#000000" fill-opacity="0.200000" stroke="#000000" stroke-opacity="0.200000" points="207.98,-1526.08 214.3,-1525.37 208.92,-1521.99 207.98,-1526.08"/>
</g>
<!-- src/client/index.tsx -->
<g id="node4" class="node">
<title>src/client/index.tsx</title>
<g id="a_node4"><a xlink:href="src/client/index.tsx" xlink:title="index.tsx">
<path fill="#bbfeff" stroke="black" d="M164.5,-52.38C164.5,-52.38 122.5,-52.38 122.5,-52.38 119.5,-52.38 116.5,-49.38 116.5,-46.38 116.5,-46.38 116.5,-40.38 116.5,-40.38 116.5,-37.38 119.5,-34.38 122.5,-34.38 122.5,-34.38 164.5,-34.38 164.5,-34.38 167.5,-34.38 170.5,-37.38 170.5,-40.38 170.5,-40.38 170.5,-46.38 170.5,-46.38 170.5,-49.38 167.5,-52.38 164.5,-52.38"/>
<text text-anchor="middle" x="143.5" y="-41.18" font-family="Helvetica,sans-Serif" font-size="9.00">index.tsx</text>
</a>
</g>
</g>
<!-- src/shared/App.tsx -->
<g id="node5" class="node">
<title>src/shared/App.tsx</title>
<g id="a_node5"><a xlink:href="src/shared/App.tsx" xlink:title="App.tsx">
<path fill="#bbfeff" stroke="black" d="M262.5,-518.38C262.5,-518.38 220.5,-518.38 220.5,-518.38 217.5,-518.38 214.5,-515.38 214.5,-512.38 214.5,-512.38 214.5,-506.38 214.5,-506.38 214.5,-503.38 217.5,-500.38 220.5,-500.38 220.5,-500.38 262.5,-500.38 262.5,-500.38 265.5,-500.38 268.5,-503.38 268.5,-506.38 268.5,-506.38 268.5,-512.38 268.5,-512.38 268.5,-515.38 265.5,-518.38 262.5,-518.38"/>
<text text-anchor="middle" x="241.5" y="-507.18" font-family="Helvetica,sans-Serif" font-size="9.00">App.tsx</text>
</a>
</g>
</g>
<!-- src/client/index.tsx&#45;&gt;src/shared/App.tsx -->
<g id="edge3" class="edge">
<title>src/client/index.tsx&#45;&gt;src/shared/App.tsx</title>
<path fill="none" stroke="#000000" stroke-width="2" stroke-opacity="0.200000" d="M146.42,-52.69C158.35,-110.59 222.36,-421.34 237.36,-494.12"/>
<polygon fill="#000000" fill-opacity="0.200000" stroke="#000000" stroke-width="2" stroke-opacity="0.200000" points="235.31,-494.59 238.58,-500.05 239.42,-493.75 235.31,-494.59"/>
</g>
<!-- src/shared/lib/i18n/index.tsx -->
<g id="node6" class="node">
<title>src/shared/lib/i18n/index.tsx</title>
<g id="a_node6"><a xlink:href="src/shared/lib/i18n/index.tsx" xlink:title="index.tsx">
<path fill="#bbfeff" stroke="black" d="M588.5,-266.38C588.5,-266.38 546.5,-266.38 546.5,-266.38 543.5,-266.38 540.5,-263.38 540.5,-260.38 540.5,-260.38 540.5,-254.38 540.5,-254.38 540.5,-251.38 543.5,-248.38 546.5,-248.38 546.5,-248.38 588.5,-248.38 588.5,-248.38 591.5,-248.38 594.5,-251.38 594.5,-254.38 594.5,-254.38 594.5,-260.38 594.5,-260.38 594.5,-263.38 591.5,-266.38 588.5,-266.38"/>
<text text-anchor="middle" x="567.5" y="-255.18" font-family="Helvetica,sans-Serif" font-size="9.00">index.tsx</text>
</a>
</g>
</g>
<!-- src/client/index.tsx&#45;&gt;src/shared/lib/i18n/index.tsx -->
<g id="edge4" class="edge">
<title>src/client/index.tsx&#45;&gt;src/shared/lib/i18n/index.tsx</title>
<path fill="none" stroke="#000000" stroke-width="2" stroke-opacity="0.200000" d="M170.95,-39.06C234.62,-30.28 397.96,-17.55 490.5,-99.38 528.64,-133.11 497.53,-165 522.5,-209.38 529.93,-222.59 541.65,-235.12 551.12,-244.07"/>
<polygon fill="#000000" fill-opacity="0.200000" stroke="#000000" stroke-width="2" stroke-opacity="0.200000" points="549.73,-245.64 555.56,-248.16 552.57,-242.55 549.73,-245.64"/>
</g>
<!-- src/shared/lib/redux/index.ts -->
<g id="node7" class="node">
<title>src/shared/lib/redux/index.ts</title>
<g id="a_node7"><a xlink:href="src/shared/lib/redux/index.ts" xlink:title="index.ts">
<path fill="#ddfeff" stroke="black" d="M364.5,-150.38C364.5,-150.38 322.5,-150.38 322.5,-150.38 319.5,-150.38 316.5,-147.38 316.5,-144.38 316.5,-144.38 316.5,-138.38 316.5,-138.38 316.5,-135.38 319.5,-132.38 322.5,-132.38 322.5,-132.38 364.5,-132.38 364.5,-132.38 367.5,-132.38 370.5,-135.38 370.5,-138.38 370.5,-138.38 370.5,-144.38 370.5,-144.38 370.5,-147.38 367.5,-150.38 364.5,-150.38"/>
<text text-anchor="middle" x="343.5" y="-139.18" font-family="Helvetica,sans-Serif" font-size="9.00">index.ts</text>
</a>
</g>
</g>
<!-- src/client/index.tsx&#45;&gt;src/shared/lib/redux/index.ts -->
<g id="edge5" class="edge">
<title>src/client/index.tsx&#45;&gt;src/shared/lib/redux/index.ts</title>
<path fill="none" stroke="#000000" stroke-width="2" stroke-opacity="0.200000" d="M162.77,-52.42C198.72,-70.22 278.62,-109.76 318.66,-129.58"/>
<polygon fill="#000000" fill-opacity="0.200000" stroke="#000000" stroke-width="2" stroke-opacity="0.200000" points="317.96,-131.58 324.27,-132.36 319.83,-127.81 317.96,-131.58"/>
</g>
<!-- src/shared/App.scss -->
<g id="node17" class="node">
<title>src/shared/App.scss</title>
<g id="a_node17"><a xlink:href="src/shared/App.scss" xlink:title="App.scss">
<path fill="#ffffcc" stroke="black" d="M364.5,-424.38C364.5,-424.38 322.5,-424.38 322.5,-424.38 319.5,-424.38 316.5,-421.38 316.5,-418.38 316.5,-418.38 316.5,-412.38 316.5,-412.38 316.5,-409.38 319.5,-406.38 322.5,-406.38 322.5,-406.38 364.5,-406.38 364.5,-406.38 367.5,-406.38 370.5,-409.38 370.5,-412.38 370.5,-412.38 370.5,-418.38 370.5,-418.38 370.5,-421.38 367.5,-424.38 364.5,-424.38"/>
<text text-anchor="middle" x="343.5" y="-413.18" font-family="Helvetica,sans-Serif" font-size="9.00">App.scss</text>
</a>
</g>
</g>
<!-- src/shared/App.tsx&#45;&gt;src/shared/App.scss -->
<g id="edge21" class="edge">
<title>src/shared/App.tsx&#45;&gt;src/shared/App.scss</title>
<path fill="none" stroke="#000000" stroke-width="2" stroke-opacity="0.200000" d="M246.16,-500.28C252.97,-484.47 269.05,-451.85 292.5,-433.38 297.83,-429.18 304.22,-425.91 310.62,-423.38"/>
<polygon fill="#000000" fill-opacity="0.200000" stroke="#000000" stroke-width="2" stroke-opacity="0.200000" points="311.55,-425.28 316.47,-421.26 310.12,-421.33 311.55,-425.28"/>
</g>
<!-- src/shared/assets/favicon.png -->
<g id="node18" class="node">
<title>src/shared/assets/favicon.png</title>
<g id="a_node18"><a xlink:href="src/shared/assets/favicon.png" xlink:title="favicon.png">
<path fill="#ffffcc" stroke="black" d="M472.5,-382.38C472.5,-382.38 420.5,-382.38 420.5,-382.38 417.5,-382.38 414.5,-379.38 414.5,-376.38 414.5,-376.38 414.5,-370.38 414.5,-370.38 414.5,-367.38 417.5,-364.38 420.5,-364.38 420.5,-364.38 472.5,-364.38 472.5,-364.38 475.5,-364.38 478.5,-367.38 478.5,-370.38 478.5,-370.38 478.5,-376.38 478.5,-376.38 478.5,-379.38 475.5,-382.38 472.5,-382.38"/>
<text text-anchor="middle" x="446.5" y="-371.18" font-family="Helvetica,sans-Serif" font-size="9.00">favicon.png</text>
</a>
</g>
</g>
<!-- src/shared/App.tsx&#45;&gt;src/shared/assets/favicon.png -->
<g id="edge22" class="edge">
<title>src/shared/App.tsx&#45;&gt;src/shared/assets/favicon.png</title>
<path fill="none" stroke="#000000" stroke-width="2" stroke-opacity="0.200000" d="M249.69,-500.06C258.65,-489 274.94,-470.65 292.5,-459.38 323.62,-439.4 343.46,-455.61 370.5,-430.38 385.48,-416.4 373.88,-401.64 389.5,-388.38 394.96,-383.75 401.7,-380.53 408.6,-378.3"/>
<polygon fill="#000000" fill-opacity="0.200000" stroke="#000000" stroke-width="2" stroke-opacity="0.200000" points="409.2,-380.31 414.4,-376.65 408.05,-376.27 409.2,-380.31"/>
</g>
<!-- src/shared/components/sections/Content/index.tsx -->
<g id="node19" class="node">
<title>src/shared/components/sections/Content/index.tsx</title>
<g id="a_node19"><a xlink:href="src/shared/components/sections/Content/index.tsx" xlink:title="index.tsx">
<path fill="#bbfeff" stroke="black" d="M364.5,-608.38C364.5,-608.38 322.5,-608.38 322.5,-608.38 319.5,-608.38 316.5,-605.38 316.5,-602.38 316.5,-602.38 316.5,-596.38 316.5,-596.38 316.5,-593.38 319.5,-590.38 322.5,-590.38 322.5,-590.38 364.5,-590.38 364.5,-590.38 367.5,-590.38 370.5,-593.38 370.5,-596.38 370.5,-596.38 370.5,-602.38 370.5,-602.38 370.5,-605.38 367.5,-608.38 364.5,-608.38"/>
<text text-anchor="middle" x="343.5" y="-597.18" font-family="Helvetica,sans-Serif" font-size="9.00">index.tsx</text>
</a>
</g>
</g>
<!-- src/shared/App.tsx&#45;&gt;src/shared/components/sections/Content/index.tsx -->
<g id="edge23" class="edge">
<title>src/shared/App.tsx&#45;&gt;src/shared/components/sections/Content/index.tsx</title>
<path fill="none" stroke="#000000" stroke-width="2" stroke-opacity="0.200000" d="M247.15,-518.49C254.84,-532.76 271.46,-560.52 292.5,-577.38 297.88,-581.69 304.24,-585.33 310.59,-588.33"/>
<polygon fill="#000000" fill-opacity="0.200000" stroke="#000000" stroke-width="2" stroke-opacity="0.200000" points="310.05,-590.39 316.39,-590.9 311.76,-586.55 310.05,-590.39"/>
</g>
<!-- src/shared/components/sections/Footer/index.tsx -->
<g id="node20" class="node">
<title>src/shared/components/sections/Footer/index.tsx</title>
<g id="a_node20"><a xlink:href="src/shared/components/sections/Footer/index.tsx" xlink:title="index.tsx">
<path fill="#bbfeff" stroke="black" d="M364.5,-548.38C364.5,-548.38 322.5,-548.38 322.5,-548.38 319.5,-548.38 316.5,-545.38 316.5,-542.38 316.5,-542.38 316.5,-536.38 316.5,-536.38 316.5,-533.38 319.5,-530.38 322.5,-530.38 322.5,-530.38 364.5,-530.38 364.5,-530.38 367.5,-530.38 370.5,-533.38 370.5,-536.38 370.5,-536.38 370.5,-542.38 370.5,-542.38 370.5,-545.38 367.5,-548.38 364.5,-548.38"/>
<text text-anchor="middle" x="343.5" y="-537.18" font-family="Helvetica,sans-Serif" font-size="9.00">index.tsx</text>
</a>
</g>
</g>
<!-- src/shared/App.tsx&#45;&gt;src/shared/components/sections/Footer/index.tsx -->
<g id="edge24" class="edge">
<title>src/shared/App.tsx&#45;&gt;src/shared/components/sections/Footer/index.tsx</title>
<path fill="none" stroke="#000000" stroke-width="2" stroke-opacity="0.200000" d="M268.51,-517.18C281.26,-521.01 296.73,-525.65 310.23,-529.7"/>
<polygon fill="#000000" fill-opacity="0.200000" stroke="#000000" stroke-width="2" stroke-opacity="0.200000" points="309.92,-531.8 316.27,-531.51 311.13,-527.77 309.92,-531.8"/>
</g>
<!-- src/shared/components/sections/Header/index.tsx -->
<g id="node21" class="node">
<title>src/shared/components/sections/Header/index.tsx</title>
<g id="a_node21"><a xlink:href="src/shared/components/sections/Header/index.tsx" xlink:title="index.tsx">
<path fill="#bbfeff" stroke="black" d="M364.5,-488.38C364.5,-488.38 322.5,-488.38 322.5,-488.38 319.5,-488.38 316.5,-485.38 316.5,-482.38 316.5,-482.38 316.5,-476.38 316.5,-476.38 316.5,-473.38 319.5,-470.38 322.5,-470.38 322.5,-470.38 364.5,-470.38 364.5,-470.38 367.5,-470.38 370.5,-473.38 370.5,-476.38 370.5,-476.38 370.5,-482.38 370.5,-482.38 370.5,-485.38 367.5,-488.38 364.5,-488.38"/>
<text text-anchor="middle" x="343.5" y="-477.18" font-family="Helvetica,sans-Serif" font-size="9.00">index.tsx</text>
</a>
</g>
</g>
<!-- src/shared/App.tsx&#45;&gt;src/shared/components/sections/Header/index.tsx -->
<g id="edge25" class="edge">
<title>src/shared/App.tsx&#45;&gt;src/shared/components/sections/Header/index.tsx</title>
<path fill="none" stroke="#000000" stroke-width="2" stroke-opacity="0.200000" d="M268.51,-501.57C281.26,-497.75 296.73,-493.11 310.23,-489.06"/>
<polygon fill="#000000" fill-opacity="0.200000" stroke="#000000" stroke-width="2" stroke-opacity="0.200000" points="311.13,-490.98 316.27,-487.25 309.92,-486.96 311.13,-490.98"/>
</g>
<!-- src/shared/lib/i18n/withLocale.tsx -->
<g id="node22" class="node">
<title>src/shared/lib/i18n/withLocale.tsx</title>
<g id="a_node22"><a xlink:href="src/shared/lib/i18n/withLocale.tsx" xlink:title="withLocale.tsx">
<path fill="#bbfeff" stroke="black" d="M598.5,-296.38C598.5,-296.38 536.5,-296.38 536.5,-296.38 533.5,-296.38 530.5,-293.38 530.5,-290.38 530.5,-290.38 530.5,-284.38 530.5,-284.38 530.5,-281.38 533.5,-278.38 536.5,-278.38 536.5,-278.38 598.5,-278.38 598.5,-278.38 601.5,-278.38 604.5,-281.38 604.5,-284.38 604.5,-284.38 604.5,-290.38 604.5,-290.38 604.5,-293.38 601.5,-296.38 598.5,-296.38"/>
<text text-anchor="middle" x="567.5" y="-285.18" font-family="Helvetica,sans-Serif" font-size="9.00">withLocale.tsx</text>
</a>
</g>
</g>
<!-- src/shared/App.tsx&#45;&gt;src/shared/lib/i18n/withLocale.tsx -->
<g id="edge26" class="edge">
<title>src/shared/App.tsx&#45;&gt;src/shared/lib/i18n/withLocale.tsx</title>
<path fill="none" stroke="#000000" stroke-width="2" stroke-opacity="0.200000" d="M242.82,-518.51C245.74,-595.99 270.44,-1142.88 389.5,-1240.38 424.23,-1268.82 457.71,-1271.03 490.5,-1240.38 528.98,-1204.41 518.32,-819.89 522.5,-767.38 537.09,-584.24 559.01,-362.2 564.96,-302.67"/>
<polygon fill="#000000" fill-opacity="0.200000" stroke="#000000" stroke-width="2" stroke-opacity="0.200000" points="567.07,-302.7 565.58,-296.52 562.89,-302.28 567.07,-302.7"/>
</g>
<!-- src/shared/lib/i18n/config.ts -->
<g id="node10" class="node">
<title>src/shared/lib/i18n/config.ts</title>
<g id="a_node10"><a xlink:href="src/shared/lib/i18n/config.ts" xlink:title="config.ts">
<path fill="#ddfeff" stroke="black" d="M669.5,-281.38C669.5,-281.38 627.5,-281.38 627.5,-281.38 624.5,-281.38 621.5,-278.38 621.5,-275.38 621.5,-275.38 621.5,-269.38 621.5,-269.38 621.5,-266.38 624.5,-263.38 627.5,-263.38 627.5,-263.38 669.5,-263.38 669.5,-263.38 672.5,-263.38 675.5,-266.38 675.5,-269.38 675.5,-269.38 675.5,-275.38 675.5,-275.38 675.5,-278.38 672.5,-281.38 669.5,-281.38"/>
<text text-anchor="middle" x="648.5" y="-270.18" font-family="Helvetica,sans-Serif" font-size="9.00">config.ts</text>
</a>
</g>
</g>
<!-- src/shared/lib/i18n/index.tsx&#45;&gt;src/shared/lib/i18n/config.ts -->
<g id="edge47" class="edge">
<title>src/shared/lib/i18n/index.tsx&#45;&gt;src/shared/lib/i18n/config.ts</title>
<path fill="none" stroke="#000000" stroke-width="2" stroke-opacity="0.200000" d="M594.81,-262.37C601.34,-263.61 608.41,-264.96 615.19,-266.24"/>
<polygon fill="#000000" fill-opacity="0.200000" stroke="#000000" stroke-width="2" stroke-opacity="0.200000" points="615.02,-268.35 621.31,-267.41 615.81,-264.22 615.02,-268.35"/>
</g>
<!-- src/shared/lib/redux/rootReducer.ts -->
<g id="node41" class="node">
<title>src/shared/lib/redux/rootReducer.ts</title>
<g id="a_node41"><a xlink:href="src/shared/lib/redux/rootReducer.ts" xlink:title="rootReducer.ts">
<path fill="#ddfeff" stroke="black" d="M479,-150.38C479,-150.38 414,-150.38 414,-150.38 411,-150.38 408,-147.38 408,-144.38 408,-144.38 408,-138.38 408,-138.38 408,-135.38 411,-132.38 414,-132.38 414,-132.38 479,-132.38 479,-132.38 482,-132.38 485,-135.38 485,-138.38 485,-138.38 485,-144.38 485,-144.38 485,-147.38 482,-150.38 479,-150.38"/>
<text text-anchor="middle" x="446.5" y="-139.18" font-family="Helvetica,sans-Serif" font-size="9.00">rootReducer.ts</text>
</a>
</g>
</g>
<!-- src/shared/lib/redux/index.ts&#45;&gt;src/shared/lib/redux/rootReducer.ts -->
<g id="edge57" class="edge">
<title>src/shared/lib/redux/index.ts&#45;&gt;src/shared/lib/redux/rootReducer.ts</title>
<path fill="none" stroke="#000000" stroke-width="2" stroke-opacity="0.200000" d="M370.51,-141.38C379.99,-141.38 390.99,-141.38 401.59,-141.38"/>
<polygon fill="#000000" fill-opacity="0.200000" stroke="#000000" stroke-width="2" stroke-opacity="0.200000" points="401.77,-143.48 407.77,-141.38 401.77,-139.28 401.77,-143.48"/>
</g>
<!-- src/global.d.ts -->
<g id="node8" class="node">
<title>src/global.d.ts</title>
<g id="a_node8"><a xlink:href="src/global.d.ts" xlink:title="global.d.ts">
<path fill="#ccffcc" stroke="black" d="M74.5,-654.38C74.5,-654.38 27.5,-654.38 27.5,-654.38 24.5,-654.38 21.5,-651.38 21.5,-648.38 21.5,-648.38 21.5,-642.38 21.5,-642.38 21.5,-639.38 24.5,-636.38 27.5,-636.38 27.5,-636.38 74.5,-636.38 74.5,-636.38 77.5,-636.38 80.5,-639.38 80.5,-642.38 80.5,-642.38 80.5,-648.38 80.5,-648.38 80.5,-651.38 77.5,-654.38 74.5,-654.38"/>
<text text-anchor="middle" x="51" y="-643.18" font-family="Helvetica,sans-Serif" font-size="9.00">global.d.ts</text>
</a>
</g>
</g>
<!-- src/server/components/html.tsx -->
<g id="node9" class="node">
<title>src/server/components/html.tsx</title>
<g id="a_node9"><a xlink:href="src/server/components/html.tsx" xlink:title="html.tsx">
<path fill="#bbfeff" stroke="black" d="M262.5,-1316.38C262.5,-1316.38 220.5,-1316.38 220.5,-1316.38 217.5,-1316.38 214.5,-1313.38 214.5,-1310.38 214.5,-1310.38 214.5,-1304.38 214.5,-1304.38 214.5,-1301.38 217.5,-1298.38 220.5,-1298.38 220.5,-1298.38 262.5,-1298.38 262.5,-1298.38 265.5,-1298.38 268.5,-1301.38 268.5,-1304.38 268.5,-1304.38 268.5,-1310.38 268.5,-1310.38 268.5,-1313.38 265.5,-1316.38 262.5,-1316.38"/>
<text text-anchor="middle" x="241.5" y="-1305.18" font-family="Helvetica,sans-Serif" font-size="9.00">html.tsx</text>
</a>
</g>
</g>
<!-- src/server/components/html.tsx&#45;&gt;src/shared/lib/i18n/config.ts -->
<g id="edge6" class="edge">
<title>src/server/components/html.tsx&#45;&gt;src/shared/lib/i18n/config.ts</title>
<path fill="none" stroke="#000000" stroke-width="2" stroke-opacity="0.200000" d="M268.62,-1300.69C276.29,-1298.84 284.71,-1296.92 292.5,-1295.38 336.19,-1286.73 457.49,-1294.28 490.5,-1264.38 639.9,-1129.05 571.22,-1024.2 604.5,-825.38 639.85,-614.19 646.23,-352.65 647.3,-287.57"/>
<polygon fill="#000000" fill-opacity="0.200000" stroke="#000000" stroke-width="2" stroke-opacity="0.200000" points="649.4,-287.6 647.39,-281.57 645.2,-287.54 649.4,-287.6"/>
</g>
<!-- src/shared/lib/redux/app/types.ts -->
<g id="node11" class="node">
<title>src/shared/lib/redux/app/types.ts</title>
<g id="a_node11"><a xlink:href="src/shared/lib/redux/app/types.ts" xlink:title="types.ts">
<path fill="#ddfeff" stroke="black" d="M756.5,-180.38C756.5,-180.38 714.5,-180.38 714.5,-180.38 711.5,-180.38 708.5,-177.38 708.5,-174.38 708.5,-174.38 708.5,-168.38 708.5,-168.38 708.5,-165.38 711.5,-162.38 714.5,-162.38 714.5,-162.38 756.5,-162.38 756.5,-162.38 759.5,-162.38 762.5,-165.38 762.5,-168.38 762.5,-168.38 762.5,-174.38 762.5,-174.38 762.5,-177.38 759.5,-180.38 756.5,-180.38"/>
<text text-anchor="middle" x="735.5" y="-169.18" font-family="Helvetica,sans-Serif" font-size="9.00">types.ts</text>
</a>
</g>
</g>
<!-- src/server/components/html.tsx&#45;&gt;src/shared/lib/redux/app/types.ts -->
<g id="edge7" class="edge">
<title>src/server/components/html.tsx&#45;&gt;src/shared/lib/redux/app/types.ts</title>
<path fill="none" stroke="#000000" stroke-width="2" stroke-opacity="0.200000" d="M268.76,-1305.68C307.44,-1303.33 382.01,-1299.38 445.5,-1299.38 445.5,-1299.38 445.5,-1299.38 568.5,-1299.38 787.18,-1299.38 665.28,-1041.21 700.5,-825.38 721.52,-696.61 732.18,-273.04 734.16,-186.79"/>
<polygon fill="#000000" fill-opacity="0.200000" stroke="#000000" stroke-width="2" stroke-opacity="0.200000" points="736.26,-186.79 734.3,-180.75 732.06,-186.7 736.26,-186.79"/>
</g>
<!-- src/shared/lib/i18n/config.ts&#45;&gt;src/shared/lib/redux/app/types.ts -->
<g id="edge46" class="edge">
<title>src/shared/lib/i18n/config.ts&#45;&gt;src/shared/lib/redux/app/types.ts</title>
<path fill="none" stroke="#000000" stroke-width="2" stroke-opacity="0.200000" d="M658.92,-263.16C669.46,-252.68 686.85,-234.87 700.5,-218.38 709.2,-207.87 718.21,-195.33 724.77,-185.85"/>
<polygon fill="#000000" fill-opacity="0.200000" stroke="#000000" stroke-width="2" stroke-opacity="0.200000" points="726.66,-186.79 728.32,-180.65 723.2,-184.42 726.66,-186.79"/>
</g>
<!-- src/server/index.ts -->
<g id="node12" class="node">
<title>src/server/index.ts</title>
<g id="a_node12"><a xlink:href="src/server/index.ts" xlink:title="index.ts">
<path fill="#ddfeff" stroke="black" d="M72,-1376.38C72,-1376.38 30,-1376.38 30,-1376.38 27,-1376.38 24,-1373.38 24,-1370.38 24,-1370.38 24,-1364.38 24,-1364.38 24,-1361.38 27,-1358.38 30,-1358.38 30,-1358.38 72,-1358.38 72,-1358.38 75,-1358.38 78,-1361.38 78,-1364.38 78,-1364.38 78,-1370.38 78,-1370.38 78,-1373.38 75,-1376.38 72,-1376.38"/>
<text text-anchor="middle" x="51" y="-1365.18" font-family="Helvetica,sans-Serif" font-size="9.00">index.ts</text>
</a>
</g>
</g>
<!-- src/server/index.ts&#45;&gt;config/paths.ts -->
<g id="edge8" class="edge">
<title>src/server/index.ts&#45;&gt;config/paths.ts</title>
<path fill="none" stroke="#000000" stroke-width="2" stroke-opacity="0.200000" d="M56.35,-1376.4C62.83,-1389.64 75.66,-1414.96 88.5,-1435.38 102.08,-1456.96 119.83,-1480.53 131.2,-1495.14"/>
<polygon fill="#000000" fill-opacity="0.200000" stroke="#000000" stroke-width="2" stroke-opacity="0.200000" points="129.73,-1496.66 135.08,-1500.09 133.03,-1494.07 129.73,-1496.66"/>
</g>
<!-- src/server/index.ts&#45;&gt;path -->
<g id="edge14" class="edge">
<title>src/server/index.ts&#45;&gt;path</title>
<path fill="none" stroke="#000000" stroke-dasharray="5,2" stroke-opacity="0.200000" d="M52.4,-1376.65C54.04,-1410.32 61.59,-1525.38 88.5,-1547.38 125.24,-1577.42 184.85,-1557.67 217.43,-1543.04"/>
<polygon fill="#000000" fill-opacity="0.200000" stroke="#000000" stroke-opacity="0.200000" points="218.62,-1544.81 223.18,-1540.38 216.86,-1540.99 218.62,-1544.81"/>
</g>
<!-- src/server/index.ts&#45;&gt;src/shared/lib/i18n/index.tsx -->
<g id="edge9" class="edge">
<title>src/server/index.ts&#45;&gt;src/shared/lib/i18n/index.tsx</title>
<path fill="none" stroke="#000000" stroke-width="2" stroke-opacity="0.200000" d="M77.1,-1358.29C78.4,-1357.14 79.55,-1355.84 80.5,-1354.38 90.54,-1338.86 75.65,-36.67 88.5,-23.38 135.5,25.22 172.89,-17.38 240.5,-17.38 240.5,-17.38 240.5,-17.38 344.5,-17.38 410.57,-17.38 443.71,1.27 490.5,-45.38 543.1,-97.81 489.04,-143.08 522.5,-209.38 529.33,-222.91 541.07,-235.43 550.71,-244.29"/>
<polygon fill="#000000" fill-opacity="0.200000" stroke="#000000" stroke-width="2" stroke-opacity="0.200000" points="549.37,-245.91 555.24,-248.34 552.16,-242.77 549.37,-245.91"/>
</g>
<!-- src/server/middlewares/addStore.tsx -->
<g id="node13" class="node">
<title>src/server/middlewares/addStore.tsx</title>
<g id="a_node13"><a xlink:href="src/server/middlewares/addStore.tsx" xlink:title="addStore.tsx">
<path fill="#bbfeff" stroke="black" d="M171.5,-1346.38C171.5,-1346.38 115.5,-1346.38 115.5,-1346.38 112.5,-1346.38 109.5,-1343.38 109.5,-1340.38 109.5,-1340.38 109.5,-1334.38 109.5,-1334.38 109.5,-1331.38 112.5,-1328.38 115.5,-1328.38 115.5,-1328.38 171.5,-1328.38 171.5,-1328.38 174.5,-1328.38 177.5,-1331.38 177.5,-1334.38 177.5,-1334.38 177.5,-1340.38 177.5,-1340.38 177.5,-1343.38 174.5,-1346.38 171.5,-1346.38"/>
<text text-anchor="middle" x="143.5" y="-1335.18" font-family="Helvetica,sans-Serif" font-size="9.00">addStore.tsx</text>
</a>
</g>
</g>
<!-- src/server/index.ts&#45;&gt;src/server/middlewares/addStore.tsx -->
<g id="edge10" class="edge">
<title>src/server/index.ts&#45;&gt;src/server/middlewares/addStore.tsx</title>
<path fill="none" stroke="#000000" stroke-width="2" stroke-opacity="0.200000" d="M73.07,-1358.22C78.08,-1356.18 83.45,-1354.11 88.5,-1352.38 93.33,-1350.72 98.45,-1349.11 103.53,-1347.61"/>
<polygon fill="#000000" fill-opacity="0.200000" stroke="#000000" stroke-width="2" stroke-opacity="0.200000" points="104.29,-1349.57 109.47,-1345.88 103.12,-1345.54 104.29,-1349.57"/>
</g>
<!-- src/server/middlewares/handleErrors.ts -->
<g id="node14" class="node">
<title>src/server/middlewares/handleErrors.ts</title>
<g id="a_node14"><a xlink:href="src/server/middlewares/handleErrors.ts" xlink:title="handleErrors.ts">
<path fill="#ddfeff" stroke="black" d="M177,-1406.38C177,-1406.38 110,-1406.38 110,-1406.38 107,-1406.38 104,-1403.38 104,-1400.38 104,-1400.38 104,-1394.38 104,-1394.38 104,-1391.38 107,-1388.38 110,-1388.38 110,-1388.38 177,-1388.38 177,-1388.38 180,-1388.38 183,-1391.38 183,-1394.38 183,-1394.38 183,-1400.38 183,-1400.38 183,-1403.38 180,-1406.38 177,-1406.38"/>
<text text-anchor="middle" x="143.5" y="-1395.18" font-family="Helvetica,sans-Serif" font-size="9.00">handleErrors.ts</text>
</a>
</g>
</g>
<!-- src/server/index.ts&#45;&gt;src/server/middlewares/handleErrors.ts -->
<g id="edge11" class="edge">
<title>src/server/index.ts&#45;&gt;src/server/middlewares/handleErrors.ts</title>
<path fill="none" stroke="#000000" stroke-width="2" stroke-opacity="0.200000" d="M73.07,-1376.53C78.08,-1378.57 83.45,-1380.64 88.5,-1382.38 92.68,-1383.81 97.07,-1385.21 101.47,-1386.53"/>
<polygon fill="#000000" fill-opacity="0.200000" stroke="#000000" stroke-width="2" stroke-opacity="0.200000" points="101.11,-1388.62 107.46,-1388.3 102.29,-1384.59 101.11,-1388.62"/>
</g>
<!-- src/server/middlewares/i18n.ts -->
<g id="node15" class="node">
<title>src/server/middlewares/i18n.ts</title>
<g id="a_node15"><a xlink:href="src/server/middlewares/i18n.ts" xlink:title="i18n.ts">
<path fill="#ddfeff" stroke="black" d="M164.5,-1376.38C164.5,-1376.38 122.5,-1376.38 122.5,-1376.38 119.5,-1376.38 116.5,-1373.38 116.5,-1370.38 116.5,-1370.38 116.5,-1364.38 116.5,-1364.38 116.5,-1361.38 119.5,-1358.38 122.5,-1358.38 122.5,-1358.38 164.5,-1358.38 164.5,-1358.38 167.5,-1358.38 170.5,-1361.38 170.5,-1364.38 170.5,-1364.38 170.5,-1370.38 170.5,-1370.38 170.5,-1373.38 167.5,-1376.38 164.5,-1376.38"/>
<text text-anchor="middle" x="143.5" y="-1365.18" font-family="Helvetica,sans-Serif" font-size="9.00">i18n.ts</text>
</a>
</g>
</g>
<!-- src/server/index.ts&#45;&gt;src/server/middlewares/i18n.ts -->
<g id="edge12" class="edge">
<title>src/server/index.ts&#45;&gt;src/server/middlewares/i18n.ts</title>
<path fill="none" stroke="#000000" stroke-width="2" stroke-opacity="0.200000" d="M78.18,-1367.38C88.21,-1367.38 99.78,-1367.38 110.32,-1367.38"/>
<polygon fill="#000000" fill-opacity="0.200000" stroke="#000000" stroke-width="2" stroke-opacity="0.200000" points="110.38,-1369.48 116.38,-1367.38 110.38,-1365.28 110.38,-1369.48"/>
</g>
<!-- src/server/middlewares/renderFullPage.tsx -->
<g id="node16" class="node">
<title>src/server/middlewares/renderFullPage.tsx</title>
<g id="a_node16"><a xlink:href="src/server/middlewares/renderFullPage.tsx" xlink:title="renderFullPage.tsx">
<path fill="#bbfeff" stroke="black" d="M184.5,-1316.38C184.5,-1316.38 102.5,-1316.38 102.5,-1316.38 99.5,-1316.38 96.5,-1313.38 96.5,-1310.38 96.5,-1310.38 96.5,-1304.38 96.5,-1304.38 96.5,-1301.38 99.5,-1298.38 102.5,-1298.38 102.5,-1298.38 184.5,-1298.38 184.5,-1298.38 187.5,-1298.38 190.5,-1301.38 190.5,-1304.38 190.5,-1304.38 190.5,-1310.38 190.5,-1310.38 190.5,-1313.38 187.5,-1316.38 184.5,-1316.38"/>
<text text-anchor="middle" x="143.5" y="-1305.18" font-family="Helvetica,sans-Serif" font-size="9.00">renderFullPage.tsx</text>
</a>
</g>
</g>
<!-- src/server/index.ts&#45;&gt;src/server/middlewares/renderFullPage.tsx -->
<g id="edge13" class="edge">
<title>src/server/index.ts&#45;&gt;src/server/middlewares/renderFullPage.tsx</title>
<path fill="none" stroke="#000000" stroke-width="2" stroke-opacity="0.200000" d="M76.46,-1358.21C77.95,-1357.07 79.32,-1355.8 80.5,-1354.38 89.88,-1343.11 78.27,-1332.88 88.5,-1322.38 89.37,-1321.49 90.28,-1320.65 91.23,-1319.86"/>
<polygon fill="#000000" fill-opacity="0.200000" stroke="#000000" stroke-width="2" stroke-opacity="0.200000" points="92.6,-1321.47 96.31,-1316.31 90.19,-1318.03 92.6,-1321.47"/>
</g>
<!-- src/server/middlewares/addStore.tsx&#45;&gt;src/shared/lib/redux/index.ts -->
<g id="edge15" class="edge">
<title>src/server/middlewares/addStore.tsx&#45;&gt;src/shared/lib/redux/index.ts</title>
<path fill="none" stroke="#000000" stroke-width="2" stroke-opacity="0.200000" d="M177.58,-1334.15C185.35,-1331.91 192.97,-1328.26 198.5,-1322.38 200.47,-1320.28 284.18,-919.24 284.5,-916.38 285.66,-905.86 285.98,-162.72 292.5,-154.38 296.94,-148.69 303.54,-145.3 310.48,-143.31"/>
<polygon fill="#000000" fill-opacity="0.200000" stroke="#000000" stroke-width="2" stroke-opacity="0.200000" points="310.99,-145.35 316.37,-141.96 310.05,-141.26 310.99,-145.35"/>
</g>
<!-- src/server/middlewares/handleErrors.ts&#45;&gt;path -->
<g id="edge16" class="edge">
<title>src/server/middlewares/handleErrors.ts&#45;&gt;path</title>
<path fill="none" stroke="#000000" stroke-dasharray="5,2" stroke-opacity="0.200000" d="M150.8,-1406.39C161.77,-1422.43 184.57,-1457.27 198.5,-1489.38 203.48,-1500.86 198.23,-1506.98 206.5,-1516.38 207.33,-1517.32 208.23,-1518.21 209.19,-1519.04"/>
<polygon fill="#000000" fill-opacity="0.200000" stroke="#000000" stroke-opacity="0.200000" points="208.27,-1520.97 214.36,-1522.78 210.73,-1517.56 208.27,-1520.97"/>
</g>
<!-- src/server/middlewares/i18n.ts&#45;&gt;fs -->
<g id="edge17" class="edge">
<title>src/server/middlewares/i18n.ts&#45;&gt;fs</title>
<path fill="none" stroke="#000000" stroke-dasharray="5,2" stroke-opacity="0.200000" d="M170.63,-1369.54C180.41,-1371.56 190.96,-1375.34 198.5,-1382.38 228.34,-1410.24 236.99,-1460.6 239.49,-1485.93"/>
<polygon fill="#000000" fill-opacity="0.200000" stroke="#000000" stroke-opacity="0.200000" points="237.41,-1486.3 240.02,-1492.09 241.6,-1485.93 237.41,-1486.3"/>
</g>
<!-- src/server/middlewares/i18n.ts&#45;&gt;path -->
<g id="edge18" class="edge">
<title>src/server/middlewares/i18n.ts&#45;&gt;path</title>
<path fill="none" stroke="#000000" stroke-dasharray="5,2" stroke-opacity="0.200000" d="M170.59,-1368.33C180.86,-1370.11 191.77,-1374.05 198.5,-1382.38 217.25,-1405.58 189.47,-1491.88 206.5,-1516.38 207.4,-1517.68 208.44,-1518.86 209.59,-1519.95"/>
<polygon fill="#000000" fill-opacity="0.200000" stroke="#000000" stroke-opacity="0.200000" points="208.4,-1521.68 214.45,-1523.65 210.95,-1518.34 208.4,-1521.68"/>
</g>
<!-- src/server/middlewares/renderFullPage.tsx&#45;&gt;src/shared/App.tsx -->
<g id="edge19" class="edge">
<title>src/server/middlewares/renderFullPage.tsx&#45;&gt;src/shared/App.tsx</title>
<path fill="none" stroke="#000000" stroke-width="2" stroke-opacity="0.200000" d="M145.61,-1298.14C155.37,-1217.05 226.34,-627.08 238.67,-524.55"/>
<polygon fill="#000000" fill-opacity="0.200000" stroke="#000000" stroke-width="2" stroke-opacity="0.200000" points="240.77,-524.72 239.4,-518.51 236.6,-524.22 240.77,-524.72"/>
</g>
<!-- src/server/middlewares/renderFullPage.tsx&#45;&gt;src/server/components/html.tsx -->
<g id="edge20" class="edge">
<title>src/server/middlewares/renderFullPage.tsx&#45;&gt;src/server/components/html.tsx</title>
<path fill="none" stroke="#000000" stroke-width="2" stroke-opacity="0.200000" d="M190.53,-1307.38C196.54,-1307.38 202.59,-1307.38 208.3,-1307.38"/>
<polygon fill="#000000" fill-opacity="0.200000" stroke="#000000" stroke-width="2" stroke-opacity="0.200000" points="208.35,-1309.48 214.35,-1307.38 208.35,-1305.28 208.35,-1309.48"/>
</g>
<!-- src/shared/pages/404/index.tsx -->
<g id="node29" class="node">
<title>src/shared/pages/404/index.tsx</title>
<g id="a_node29"><a xlink:href="src/shared/pages/404/index.tsx" xlink:title="index.tsx">
<path fill="#bbfeff" stroke="black" d="M467.5,-1156.38C467.5,-1156.38 425.5,-1156.38 425.5,-1156.38 422.5,-1156.38 419.5,-1153.38 419.5,-1150.38 419.5,-1150.38 419.5,-1144.38 419.5,-1144.38 419.5,-1141.38 422.5,-1138.38 425.5,-1138.38 425.5,-1138.38 467.5,-1138.38 467.5,-1138.38 470.5,-1138.38 473.5,-1141.38 473.5,-1144.38 473.5,-1144.38 473.5,-1150.38 473.5,-1150.38 473.5,-1153.38 470.5,-1156.38 467.5,-1156.38"/>
<text text-anchor="middle" x="446.5" y="-1145.18" font-family="Helvetica,sans-Serif" font-size="9.00">index.tsx</text>
</a>
</g>
</g>
<!-- src/shared/components/sections/Content/index.tsx&#45;&gt;src/shared/pages/404/index.tsx -->
<g id="edge34" class="edge">
<title>src/shared/components/sections/Content/index.tsx&#45;&gt;src/shared/pages/404/index.tsx</title>
<path fill="none" stroke="#000000" stroke-width="2" stroke-opacity="0.200000" d="M367.37,-608.7C368.56,-609.8 369.63,-611.02 370.5,-612.38 401.38,-660.34 356.51,-1078.85 389.5,-1125.38 395.2,-1133.42 404.32,-1138.53 413.55,-1141.76"/>
<polygon fill="#000000" fill-opacity="0.200000" stroke="#000000" stroke-width="2" stroke-opacity="0.200000" points="412.93,-1143.77 419.28,-1143.55 414.18,-1139.76 412.93,-1143.77"/>
</g>
<!-- src/shared/pages/home/index.tsx -->
<g id="node30" class="node">
<title>src/shared/pages/home/index.tsx</title>
<g id="a_node30"><a xlink:href="src/shared/pages/home/index.tsx" xlink:title="index.tsx">
<path fill="#bbfeff" stroke="black" d="M467.5,-1096.38C467.5,-1096.38 425.5,-1096.38 425.5,-1096.38 422.5,-1096.38 419.5,-1093.38 419.5,-1090.38 419.5,-1090.38 419.5,-1084.38 419.5,-1084.38 419.5,-1081.38 422.5,-1078.38 425.5,-1078.38 425.5,-1078.38 467.5,-1078.38 467.5,-1078.38 470.5,-1078.38 473.5,-1081.38 473.5,-1084.38 473.5,-1084.38 473.5,-1090.38 473.5,-1090.38 473.5,-1093.38 470.5,-1096.38 467.5,-1096.38"/>
<text text-anchor="middle" x="446.5" y="-1085.18" font-family="Helvetica,sans-Serif" font-size="9.00">index.tsx</text>
</a>
</g>
</g>
<!-- src/shared/components/sections/Content/index.tsx&#45;&gt;src/shared/pages/home/index.tsx -->
<g id="edge35" class="edge">
<title>src/shared/components/sections/Content/index.tsx&#45;&gt;src/shared/pages/home/index.tsx</title>
<path fill="none" stroke="#000000" stroke-width="2" stroke-opacity="0.200000" d="M367.37,-608.71C368.56,-609.8 369.62,-611.02 370.5,-612.38 397.88,-654.67 360.26,-1024.35 389.5,-1065.38 395.22,-1073.41 404.34,-1078.51 413.57,-1081.75"/>
<polygon fill="#000000" fill-opacity="0.200000" stroke="#000000" stroke-width="2" stroke-opacity="0.200000" points="412.95,-1083.75 419.3,-1083.53 414.2,-1079.74 412.95,-1083.75"/>
</g>
<!-- src/shared/pages/page&#45;1/index.tsx -->
<g id="node31" class="node">
<title>src/shared/pages/page&#45;1/index.tsx</title>
<g id="a_node31"><a xlink:href="src/shared/pages/page-1/index.tsx" xlink:title="index.tsx">
<path fill="#bbfeff" stroke="black" d="M467.5,-1036.38C467.5,-1036.38 425.5,-1036.38 425.5,-1036.38 422.5,-1036.38 419.5,-1033.38 419.5,-1030.38 419.5,-1030.38 419.5,-1024.38 419.5,-1024.38 419.5,-1021.38 422.5,-1018.38 425.5,-1018.38 425.5,-1018.38 467.5,-1018.38 467.5,-1018.38 470.5,-1018.38 473.5,-1021.38 473.5,-1024.38 473.5,-1024.38 473.5,-1030.38 473.5,-1030.38 473.5,-1033.38 470.5,-1036.38 467.5,-1036.38"/>
<text text-anchor="middle" x="446.5" y="-1025.18" font-family="Helvetica,sans-Serif" font-size="9.00">index.tsx</text>
</a>
</g>
</g>
<!-- src/shared/components/sections/Content/index.tsx&#45;&gt;src/shared/pages/page&#45;1/index.tsx -->
<g id="edge36" class="edge">
<title>src/shared/components/sections/Content/index.tsx&#45;&gt;src/shared/pages/page&#45;1/index.tsx</title>
<path fill="none" stroke="#000000" stroke-width="2" stroke-opacity="0.200000" d="M367.36,-608.71C368.55,-609.81 369.62,-611.03 370.5,-612.38 418.25,-685.62 338.53,-934.34 389.5,-1005.38 395.25,-1013.39 404.37,-1018.49 413.6,-1021.72"/>
<polygon fill="#000000" fill-opacity="0.200000" stroke="#000000" stroke-width="2" stroke-opacity="0.200000" points="412.98,-1023.73 419.33,-1023.51 414.23,-1019.72 412.98,-1023.73"/>
</g>
<!-- src/shared/pages/page&#45;2/index.tsx -->
<g id="node32" class="node">
<title>src/shared/pages/page&#45;2/index.tsx</title>
<g id="a_node32"><a xlink:href="src/shared/pages/page-2/index.tsx" xlink:title="index.tsx">
<path fill="#bbfeff" stroke="black" d="M467.5,-976.38C467.5,-976.38 425.5,-976.38 425.5,-976.38 422.5,-976.38 419.5,-973.38 419.5,-970.38 419.5,-970.38 419.5,-964.38 419.5,-964.38 419.5,-961.38 422.5,-958.38 425.5,-958.38 425.5,-958.38 467.5,-958.38 467.5,-958.38 470.5,-958.38 473.5,-961.38 473.5,-964.38 473.5,-964.38 473.5,-970.38 473.5,-970.38 473.5,-973.38 470.5,-976.38 467.5,-976.38"/>
<text text-anchor="middle" x="446.5" y="-965.18" font-family="Helvetica,sans-Serif" font-size="9.00">index.tsx</text>
</a>
</g>
</g>
<!-- src/shared/components/sections/Content/index.tsx&#45;&gt;src/shared/pages/page&#45;2/index.tsx -->
<g id="edge37" class="edge">
<title>src/shared/components/sections/Content/index.tsx&#45;&gt;src/shared/pages/page&#45;2/index.tsx</title>
<path fill="none" stroke="#000000" stroke-width="2" stroke-opacity="0.200000" d="M367.34,-608.72C368.54,-609.81 369.61,-611.03 370.5,-612.38 411.25,-674.29 346.03,-885.34 389.5,-945.38 395.28,-953.37 404.42,-958.45 413.64,-961.69"/>
<polygon fill="#000000" fill-opacity="0.200000" stroke="#000000" stroke-width="2" stroke-opacity="0.200000" points="413.02,-963.7 419.37,-963.48 414.27,-959.69 413.02,-963.7"/>
</g>
<!-- src/shared/pages/page&#45;3/index.tsx -->
<g id="node33" class="node">
<title>src/shared/pages/page&#45;3/index.tsx</title>
<g id="a_node33"><a xlink:href="src/shared/pages/page-3/index.tsx" xlink:title="index.tsx">
<path fill="#bbfeff" stroke="black" d="M467.5,-916.38C467.5,-916.38 425.5,-916.38 425.5,-916.38 422.5,-916.38 419.5,-913.38 419.5,-910.38 419.5,-910.38 419.5,-904.38 419.5,-904.38 419.5,-901.38 422.5,-898.38 425.5,-898.38 425.5,-898.38 467.5,-898.38 467.5,-898.38 470.5,-898.38 473.5,-901.38 473.5,-904.38 473.5,-904.38 473.5,-910.38 473.5,-910.38 473.5,-913.38 470.5,-916.38 467.5,-916.38"/>
<text text-anchor="middle" x="446.5" y="-905.18" font-family="Helvetica,sans-Serif" font-size="9.00">index.tsx</text>
</a>
</g>
</g>
<!-- src/shared/components/sections/Content/index.tsx&#45;&gt;src/shared/pages/page&#45;3/index.tsx -->
<g id="edge38" class="edge">
<title>src/shared/components/sections/Content/index.tsx&#45;&gt;src/shared/pages/page&#45;3/index.tsx</title>
<path fill="none" stroke="#000000" stroke-width="2" stroke-opacity="0.200000" d="M367.29,-608.75C368.5,-609.84 369.59,-611.04 370.5,-612.38 397.26,-651.65 373.47,-780.64 389.5,-825.38 399.01,-851.91 419.22,-878.01 432.58,-893.39"/>
<polygon fill="#000000" fill-opacity="0.200000" stroke="#000000" stroke-width="2" stroke-opacity="0.200000" points="431.27,-895.09 436.82,-898.19 434.42,-892.3 431.27,-895.09"/>
</g>
<!-- src/shared/routes.ts -->
<g id="node34" class="node">
<title>src/shared/routes.ts</title>
<g id="a_node34"><a xlink:href="src/shared/routes.ts" xlink:title="routes.ts">
<path fill="#ddfeff" stroke="black" d="M467.5,-1234.38C467.5,-1234.38 425.5,-1234.38 425.5,-1234.38 422.5,-1234.38 419.5,-1231.38 419.5,-1228.38 419.5,-1228.38 419.5,-1222.38 419.5,-1222.38 419.5,-1219.38 422.5,-1216.38 425.5,-1216.38 425.5,-1216.38 467.5,-1216.38 467.5,-1216.38 470.5,-1216.38 473.5,-1219.38 473.5,-1222.38 473.5,-1222.38 473.5,-1228.38 473.5,-1228.38 473.5,-1231.38 470.5,-1234.38 467.5,-1234.38"/>
<text text-anchor="middle" x="446.5" y="-1223.18" font-family="Helvetica,sans-Serif" font-size="9.00">routes.ts</text>
</a>
</g>
</g>
<!-- src/shared/components/sections/Content/index.tsx&#45;&gt;src/shared/routes.ts -->
<g id="edge39" class="edge">
<title>src/shared/components/sections/Content/index.tsx&#45;&gt;src/shared/routes.ts</title>
<path fill="none" stroke="#000000" stroke-width="2" stroke-opacity="0.200000" d="M367.38,-608.7C368.57,-609.8 369.63,-611.02 370.5,-612.38 404.88,-666 359.42,-1129.23 389.5,-1185.38 395.95,-1197.42 407.8,-1206.68 418.95,-1213.24"/>
<polygon fill="#000000" fill-opacity="0.200000" stroke="#000000" stroke-width="2" stroke-opacity="0.200000" points="418.07,-1215.16 424.34,-1216.25 420.12,-1211.49 418.07,-1215.16"/>
</g>
<!-- src/shared/components/sections/Content/style.scss -->
<g id="node35" class="node">
<title>src/shared/components/sections/Content/style.scss</title>
<g id="a_node35"><a xlink:href="src/shared/components/sections/Content/style.scss" xlink:title="style.scss">
<path fill="#ffffcc" stroke="black" d="M468.5,-608.38C468.5,-608.38 424.5,-608.38 424.5,-608.38 421.5,-608.38 418.5,-605.38 418.5,-602.38 418.5,-602.38 418.5,-596.38 418.5,-596.38 418.5,-593.38 421.5,-590.38 424.5,-590.38 424.5,-590.38 468.5,-590.38 468.5,-590.38 471.5,-590.38 474.5,-593.38 474.5,-596.38 474.5,-596.38 474.5,-602.38 474.5,-602.38 474.5,-605.38 471.5,-608.38 468.5,-608.38"/>
<text text-anchor="middle" x="446.5" y="-597.18" font-family="Helvetica,sans-Serif" font-size="9.00">style.scss</text>
</a>
</g>
</g>
<!-- src/shared/components/sections/Content/index.tsx&#45;&gt;src/shared/components/sections/Content/style.scss -->
<g id="edge40" class="edge">
<title>src/shared/components/sections/Content/index.tsx&#45;&gt;src/shared/components/sections/Content/style.scss</title>
<path fill="none" stroke="#000000" stroke-width="2" stroke-opacity="0.200000" d="M370.51,-599.38C383.18,-599.38 398.57,-599.38 412.1,-599.38"/>
<polygon fill="#000000" fill-opacity="0.200000" stroke="#000000" stroke-width="2" stroke-opacity="0.200000" points="412.17,-601.48 418.17,-599.38 412.17,-597.28 412.17,-601.48"/>
</g>
<!-- src/shared/components/sections/Footer/style.scss -->
<g id="node36" class="node">
<title>src/shared/components/sections/Footer/style.scss</title>
<g id="a_node36"><a xlink:href="src/shared/components/sections/Footer/style.scss" xlink:title="style.scss">
<path fill="#ffffcc" stroke="black" d="M468.5,-548.38C468.5,-548.38 424.5,-548.38 424.5,-548.38 421.5,-548.38 418.5,-545.38 418.5,-542.38 418.5,-542.38 418.5,-536.38 418.5,-536.38 418.5,-533.38 421.5,-530.38 424.5,-530.38 424.5,-530.38 468.5,-530.38 468.5,-530.38 471.5,-530.38 474.5,-533.38 474.5,-536.38 474.5,-536.38 474.5,-542.38 474.5,-542.38 474.5,-545.38 471.5,-548.38 468.5,-548.38"/>
<text text-anchor="middle" x="446.5" y="-537.18" font-family="Helvetica,sans-Serif" font-size="9.00">style.scss</text>
</a>
</g>
</g>
<!-- src/shared/components/sections/Footer/index.tsx&#45;&gt;src/shared/components/sections/Footer/style.scss -->
<g id="edge41" class="edge">
<title>src/shared/components/sections/Footer/index.tsx&#45;&gt;src/shared/components/sections/Footer/style.scss</title>
<path fill="none" stroke="#000000" stroke-width="2" stroke-opacity="0.200000" d="M370.51,-539.38C383.18,-539.38 398.57,-539.38 412.1,-539.38"/>
<polygon fill="#000000" fill-opacity="0.200000" stroke="#000000" stroke-width="2" stroke-opacity="0.200000" points="412.17,-541.48 418.17,-539.38 412.17,-537.28 412.17,-541.48"/>
</g>
<!-- src/shared/assets/react.svg -->
<g id="node24" class="node">
<title>src/shared/assets/react.svg</title>
<g id="a_node24"><a xlink:href="src/shared/assets/react.svg" xlink:title="react.svg">
<path fill="#ffffcc" stroke="black" d="M467.5,-412.38C467.5,-412.38 425.5,-412.38 425.5,-412.38 422.5,-412.38 419.5,-409.38 419.5,-406.38 419.5,-406.38 419.5,-400.38 419.5,-400.38 419.5,-397.38 422.5,-394.38 425.5,-394.38 425.5,-394.38 467.5,-394.38 467.5,-394.38 470.5,-394.38 473.5,-397.38 473.5,-400.38 473.5,-400.38 473.5,-406.38 473.5,-406.38 473.5,-409.38 470.5,-412.38 467.5,-412.38"/>
<text text-anchor="middle" x="446.5" y="-401.18" font-family="Helvetica,sans-Serif" font-size="9.00">react.svg</text>
</a>
</g>
</g>
<!-- src/shared/components/sections/Header/index.tsx&#45;&gt;src/shared/assets/react.svg -->
<g id="edge42" class="edge">
<title>src/shared/components/sections/Header/index.tsx&#45;&gt;src/shared/assets/react.svg</title>
<path fill="none" stroke="#000000" stroke-width="2" stroke-opacity="0.200000" d="M363.81,-470.36C366.11,-469.1 368.39,-467.76 370.5,-466.38 393.23,-451.45 416.83,-430.59 431.34,-417.03"/>
<polygon fill="#000000" fill-opacity="0.200000" stroke="#000000" stroke-width="2" stroke-opacity="0.200000" points="432.98,-418.38 435.9,-412.73 430.09,-415.32 432.98,-418.38"/>
</g>
<!-- src/shared/components/organisms/LocaleSelect/index.tsx -->
<g id="node28" class="node">
<title>src/shared/components/organisms/LocaleSelect/index.tsx</title>
<g id="a_node28"><a xlink:href="src/shared/components/organisms/LocaleSelect/index.tsx" xlink:title="index.tsx">
<path fill="#bbfeff" stroke="black" d="M467.5,-702.38C467.5,-702.38 425.5,-702.38 425.5,-702.38 422.5,-702.38 419.5,-699.38 419.5,-696.38 419.5,-696.38 419.5,-690.38 419.5,-690.38 419.5,-687.38 422.5,-684.38 425.5,-684.38 425.5,-684.38 467.5,-684.38 467.5,-684.38 470.5,-684.38 473.5,-687.38 473.5,-690.38 473.5,-690.38 473.5,-696.38 473.5,-696.38 473.5,-699.38 470.5,-702.38 467.5,-702.38"/>
<text text-anchor="middle" x="446.5" y="-691.18" font-family="Helvetica,sans-Serif" font-size="9.00">index.tsx</text>
</a>
</g>
</g>
<!-- src/shared/components/sections/Header/index.tsx&#45;&gt;src/shared/components/organisms/LocaleSelect/index.tsx -->
<g id="edge44" class="edge">
<title>src/shared/components/sections/Header/index.tsx&#45;&gt;src/shared/components/organisms/LocaleSelect/index.tsx</title>
<path fill="none" stroke="#000000" stroke-width="2" stroke-opacity="0.200000" d="M352.12,-488.62C358.09,-496.36 366.09,-507.94 370.5,-519.38 389.61,-568.94 365.32,-590.08 389.5,-637.38 398.45,-654.89 414.88,-670.31 427.63,-680.51"/>
<polygon fill="#000000" fill-opacity="0.200000" stroke="#000000" stroke-width="2" stroke-opacity="0.200000" points="426.47,-682.27 432.49,-684.29 429.05,-678.95 426.47,-682.27"/>
</g>
<!-- src/shared/components/sections/Header/index.tsx&#45;&gt;src/shared/routes.ts -->
<g id="edge43" class="edge">
<title>src/shared/components/sections/Header/index.tsx&#45;&gt;src/shared/routes.ts</title>
<path fill="none" stroke="#000000" stroke-width="2" stroke-opacity="0.200000" d="M352.53,-488.48C358.73,-496.14 366.85,-507.68 370.5,-519.38 392.55,-590.05 354.69,-1120.04 389.5,-1185.38 395.92,-1197.43 407.77,-1206.69 418.92,-1213.26"/>
<polygon fill="#000000" fill-opacity="0.200000" stroke="#000000" stroke-width="2" stroke-opacity="0.200000" points="418.05,-1215.18 424.31,-1216.26 420.1,-1211.51 418.05,-1215.18"/>
</g>
<!-- src/shared/components/sections/Header/style.scss -->
<g id="node37" class="node">
<title>src/shared/components/sections/Header/style.scss</title>
<g id="a_node37"><a xlink:href="src/shared/components/sections/Header/style.scss" xlink:title="style.scss">
<path fill="#ffffcc" stroke="black" d="M468.5,-488.38C468.5,-488.38 424.5,-488.38 424.5,-488.38 421.5,-488.38 418.5,-485.38 418.5,-482.38 418.5,-482.38 418.5,-476.38 418.5,-476.38 418.5,-473.38 421.5,-470.38 424.5,-470.38 424.5,-470.38 468.5,-470.38 468.5,-470.38 471.5,-470.38 474.5,-473.38 474.5,-476.38 474.5,-476.38 474.5,-482.38 474.5,-482.38 474.5,-485.38 471.5,-488.38 468.5,-488.38"/>
<text text-anchor="middle" x="446.5" y="-477.18" font-family="Helvetica,sans-Serif" font-size="9.00">style.scss</text>
</a>
</g>
</g>
<!-- src/shared/components/sections/Header/index.tsx&#45;&gt;src/shared/components/sections/Header/style.scss -->
<g id="edge45" class="edge">
<title>src/shared/components/sections/Header/index.tsx&#45;&gt;src/shared/components/sections/Header/style.scss</title>
<path fill="none" stroke="#000000" stroke-width="2" stroke-opacity="0.200000" d="M370.51,-479.38C383.18,-479.38 398.57,-479.38 412.1,-479.38"/>
<polygon fill="#000000" fill-opacity="0.200000" stroke="#000000" stroke-width="2" stroke-opacity="0.200000" points="412.17,-481.48 418.17,-479.38 412.17,-477.28 412.17,-481.48"/>
</g>
<!-- src/shared/lib/i18n/withLocale.tsx&#45;&gt;src/shared/lib/i18n/config.ts -->
<g id="edge51" class="edge">
<title>src/shared/lib/i18n/withLocale.tsx&#45;&gt;src/shared/lib/i18n/config.ts</title>
<path fill="none" stroke="#000000" stroke-width="2" stroke-opacity="0.200000" d="M604.76,-280.49C608.21,-279.84 611.69,-279.18 615.1,-278.53"/>
<polygon fill="#000000" fill-opacity="0.200000" stroke="#000000" stroke-width="2" stroke-opacity="0.200000" points="615.63,-280.57 621.13,-277.38 614.85,-276.44 615.63,-280.57"/>
</g>
<!-- src/shared/lib/i18n/withLocale.tsx&#45;&gt;src/shared/lib/redux/app/types.ts -->
<g id="edge50" class="edge">
<title>src/shared/lib/i18n/withLocale.tsx&#45;&gt;src/shared/lib/redux/app/types.ts</title>
<path fill="none" stroke="#000000" stroke-width="2" stroke-opacity="0.200000" d="M594.46,-278.28C597.98,-276.57 601.43,-274.6 604.5,-272.38 611.65,-267.21 611.02,-263.36 617.5,-257.38 649.19,-228.13 690.77,-199.57 714.87,-183.84"/>
<polygon fill="#000000" fill-opacity="0.200000" stroke="#000000" stroke-width="2" stroke-opacity="0.200000" points="716.14,-185.52 720.03,-180.5 713.85,-182 716.14,-185.52"/>
</g>
<!-- src/shared/lib/redux/app/actions.ts -->
<g id="node38" class="node">
<title>src/shared/lib/redux/app/actions.ts</title>
<g id="a_node38"><a xlink:href="src/shared/lib/redux/app/actions.ts" xlink:title="actions.ts">
<path fill="#ddfeff" stroke="black" d="M670,-150.38C670,-150.38 627,-150.38 627,-150.38 624,-150.38 621,-147.38 621,-144.38 621,-144.38 621,-138.38 621,-138.38 621,-135.38 624,-132.38 627,-132.38 627,-132.38 670,-132.38 670,-132.38 673,-132.38 676,-135.38 676,-138.38 676,-138.38 676,-144.38 676,-144.38 676,-147.38 673,-150.38 670,-150.38"/>
<text text-anchor="middle" x="648.5" y="-139.18" font-family="Helvetica,sans-Serif" font-size="9.00">actions.ts</text>
</a>
</g>
</g>
<!-- src/shared/lib/i18n/withLocale.tsx&#45;&gt;src/shared/lib/redux/app/actions.ts -->
<g id="edge48" class="edge">
<title>src/shared/lib/i18n/withLocale.tsx&#45;&gt;src/shared/lib/redux/app/actions.ts</title>
<path fill="none" stroke="#000000" stroke-width="2" stroke-opacity="0.200000" d="M598.33,-278.23C600.68,-276.58 602.79,-274.65 604.5,-272.38 635.64,-230.89 587.81,-198.92 617.5,-156.38 617.9,-155.81 618.33,-155.25 618.78,-154.72"/>
<polygon fill="#000000" fill-opacity="0.200000" stroke="#000000" stroke-width="2" stroke-opacity="0.200000" points="620.43,-156.06 623.44,-150.45 617.59,-152.96 620.43,-156.06"/>
</g>
<!-- src/shared/lib/redux/app/selectors.ts -->
<g id="node39" class="node">
<title>src/shared/lib/redux/app/selectors.ts</title>
<g id="a_node39"><a xlink:href="src/shared/lib/redux/app/selectors.ts" xlink:title="selectors.ts">
<path fill="#ddfeff" stroke="black" d="M673.5,-180.38C673.5,-180.38 623.5,-180.38 623.5,-180.38 620.5,-180.38 617.5,-177.38 617.5,-174.38 617.5,-174.38 617.5,-168.38 617.5,-168.38 617.5,-165.38 620.5,-162.38 623.5,-162.38 623.5,-162.38 673.5,-162.38 673.5,-162.38 676.5,-162.38 679.5,-165.38 679.5,-168.38 679.5,-168.38 679.5,-174.38 679.5,-174.38 679.5,-177.38 676.5,-180.38 673.5,-180.38"/>
<text text-anchor="middle" x="648.5" y="-169.18" font-family="Helvetica,sans-Serif" font-size="9.00">selectors.ts</text>
</a>
</g>
</g>
<!-- src/shared/lib/i18n/withLocale.tsx&#45;&gt;src/shared/lib/redux/app/selectors.ts -->
<g id="edge49" class="edge">
<title>src/shared/lib/i18n/withLocale.tsx&#45;&gt;src/shared/lib/redux/app/selectors.ts</title>
<path fill="none" stroke="#000000" stroke-width="2" stroke-opacity="0.200000" d="M597.77,-278.28C600.29,-276.62 602.6,-274.67 604.5,-272.38 622.45,-250.69 605.73,-235.96 617.5,-210.38 621.74,-201.17 628.49,-192.12 634.51,-185.06"/>
<polygon fill="#000000" fill-opacity="0.200000" stroke="#000000" stroke-width="2" stroke-opacity="0.200000" points="636.13,-186.4 638.53,-180.52 632.98,-183.62 636.13,-186.4"/>
</g>
<!-- src/shared/__test__/App.test.tsx -->
<g id="node23" class="node">
<title>src/shared/__test__/App.test.tsx</title>
<g id="a_node23"><a xlink:href="src/shared/__test__/App.test.tsx" xlink:title="App.test.tsx">
<path fill="#bbfeff" stroke="black" d="M169,-518.38C169,-518.38 118,-518.38 118,-518.38 115,-518.38 112,-515.38 112,-512.38 112,-512.38 112,-506.38 112,-506.38 112,-503.38 115,-500.38 118,-500.38 118,-500.38 169,-500.38 169,-500.38 172,-500.38 175,-503.38 175,-506.38 175,-506.38 175,-512.38 175,-512.38 175,-515.38 172,-518.38 169,-518.38"/>
<text text-anchor="middle" x="143.5" y="-507.18" font-family="Helvetica,sans-Serif" font-size="9.00">App.test.tsx</text>
</a>
</g>
</g>
<!-- src/shared/__test__/App.test.tsx&#45;&gt;src/shared/App.tsx -->
<g id="edge27" class="edge">
<title>src/shared/__test__/App.test.tsx&#45;&gt;src/shared/App.tsx</title>
<path fill="none" stroke="#000000" stroke-width="2" stroke-opacity="0.200000" d="M175.14,-509.38C185.69,-509.38 197.53,-509.38 208.21,-509.38"/>
<polygon fill="#000000" fill-opacity="0.200000" stroke="#000000" stroke-width="2" stroke-opacity="0.200000" points="208.34,-511.48 214.34,-509.38 208.34,-507.28 208.34,-511.48"/>
</g>
<!-- src/shared/components/molecules/Menu/index.stories.tsx -->
<g id="node25" class="node">
<title>src/shared/components/molecules/Menu/index.stories.tsx</title>
<g id="a_node25"><a xlink:href="src/shared/components/molecules/Menu/index.stories.tsx" xlink:title="index.stories.tsx">
<path fill="#bbfeff" stroke="black" d="M481.5,-796.38C481.5,-796.38 411.5,-796.38 411.5,-796.38 408.5,-796.38 405.5,-793.38 405.5,-790.38 405.5,-790.38 405.5,-784.38 405.5,-784.38 405.5,-781.38 408.5,-778.38 411.5,-778.38 411.5,-778.38 481.5,-778.38 481.5,-778.38 484.5,-778.38 487.5,-781.38 487.5,-784.38 487.5,-784.38 487.5,-790.38 487.5,-790.38 487.5,-793.38 484.5,-796.38 481.5,-796.38"/>
<text text-anchor="middle" x="446.5" y="-785.18" font-family="Helvetica,sans-Serif" font-size="9.00">index.stories.tsx</text>
</a>
</g>
</g>
<!-- src/shared/components/molecules/Menu/index.tsx -->
<g id="node26" class="node">
<title>src/shared/components/molecules/Menu/index.tsx</title>
<g id="a_node26"><a xlink:href="src/shared/components/molecules/Menu/index.tsx" xlink:title="index.tsx">
<path fill="#bbfeff" stroke="black" d="M588.5,-796.38C588.5,-796.38 546.5,-796.38 546.5,-796.38 543.5,-796.38 540.5,-793.38 540.5,-790.38 540.5,-790.38 540.5,-784.38 540.5,-784.38 540.5,-781.38 543.5,-778.38 546.5,-778.38 546.5,-778.38 588.5,-778.38 588.5,-778.38 591.5,-778.38 594.5,-781.38 594.5,-784.38 594.5,-784.38 594.5,-790.38 594.5,-790.38 594.5,-793.38 591.5,-796.38 588.5,-796.38"/>
<text text-anchor="middle" x="567.5" y="-785.18" font-family="Helvetica,sans-Serif" font-size="9.00">index.tsx</text>
</a>
</g>
</g>
<!-- src/shared/components/molecules/Menu/index.stories.tsx&#45;&gt;src/shared/components/molecules/Menu/index.tsx -->
<g id="edge28" class="edge">
<title>src/shared/components/molecules/Menu/index.stories.tsx&#45;&gt;src/shared/components/molecules/Menu/index.tsx</title>
<path fill="none" stroke="#000000" stroke-width="2" stroke-opacity="0.200000" d="M487.79,-787.38C502.87,-787.38 519.81,-787.38 534.09,-787.38"/>
<polygon fill="#000000" fill-opacity="0.200000" stroke="#000000" stroke-width="2" stroke-opacity="0.200000" points="534.45,-789.48 540.45,-787.38 534.45,-785.28 534.45,-789.48"/>
</g>
<!-- src/shared/components/molecules/Menu/style.scss -->
<g id="node27" class="node">
<title>src/shared/components/molecules/Menu/style.scss</title>
<g id="a_node27"><a xlink:href="src/shared/components/molecules/Menu/style.scss" xlink:title="style.scss">
<path fill="#ffffcc" stroke="black" d="M670.5,-796.38C670.5,-796.38 626.5,-796.38 626.5,-796.38 623.5,-796.38 620.5,-793.38 620.5,-790.38 620.5,-790.38 620.5,-784.38 620.5,-784.38 620.5,-781.38 623.5,-778.38 626.5,-778.38 626.5,-778.38 670.5,-778.38 670.5,-778.38 673.5,-778.38 676.5,-781.38 676.5,-784.38 676.5,-784.38 676.5,-790.38 676.5,-790.38 676.5,-793.38 673.5,-796.38 670.5,-796.38"/>
<text text-anchor="middle" x="648.5" y="-785.18" font-family="Helvetica,sans-Serif" font-size="9.00">style.scss</text>
</a>
</g>
</g>
<!-- src/shared/components/molecules/Menu/index.tsx&#45;&gt;src/shared/components/molecules/Menu/style.scss -->
<g id="edge29" class="edge">
<title>src/shared/components/molecules/Menu/index.tsx&#45;&gt;src/shared/components/molecules/Menu/style.scss</title>
<path fill="none" stroke="#000000" stroke-width="2" stroke-opacity="0.200000" d="M594.81,-787.38C601,-787.38 607.68,-787.38 614.14,-787.38"/>
<polygon fill="#000000" fill-opacity="0.200000" stroke="#000000" stroke-width="2" stroke-opacity="0.200000" points="614.5,-789.48 620.5,-787.38 614.5,-785.28 614.5,-789.48"/>
</g>
<!-- src/shared/components/organisms/LocaleSelect/index.tsx&#45;&gt;src/shared/lib/i18n/index.tsx -->
<g id="edge30" class="edge">
<title>src/shared/components/organisms/LocaleSelect/index.tsx&#45;&gt;src/shared/lib/i18n/index.tsx</title>
<path fill="none" stroke="#000000" stroke-width="2" stroke-opacity="0.200000" d="M457.34,-684.14C467.61,-673.83 483.21,-656.11 490.5,-637.38 520.03,-561.5 472.27,-336.46 522.5,-272.38 525.65,-268.36 529.93,-265.41 534.59,-263.25"/>
<polygon fill="#000000" fill-opacity="0.200000" stroke="#000000" stroke-width="2" stroke-opacity="0.200000" points="535.36,-265.2 540.18,-261.06 533.83,-261.29 535.36,-265.2"/>
</g>
<!-- src/shared/components/organisms/LocaleSelect/index.tsx&#45;&gt;src/shared/lib/i18n/config.ts -->
<g id="edge31" class="edge">
<title>src/shared/components/organisms/LocaleSelect/index.tsx&#45;&gt;src/shared/lib/i18n/config.ts</title>
<path fill="none" stroke="#000000" stroke-width="2" stroke-opacity="0.200000" d="M456.43,-684.28C466.21,-673.81 481.67,-655.71 490.5,-637.38 516.14,-584.16 501.41,-563.56 522.5,-508.38 556.29,-419.99 615.64,-322.55 638.33,-286.66"/>
<polygon fill="#000000" fill-opacity="0.200000" stroke="#000000" stroke-width="2" stroke-opacity="0.200000" points="640.2,-287.63 641.65,-281.43 636.66,-285.37 640.2,-287.63"/>
</g>
<!-- src/shared/components/organisms/LocaleSelect/index.tsx&#45;&gt;src/shared/lib/redux/app/types.ts -->
<g id="edge32" class="edge">
<title>src/shared/components/organisms/LocaleSelect/index.tsx&#45;&gt;src/shared/lib/redux/app/types.ts</title>
<path fill="none" stroke="#000000" stroke-width="2" stroke-opacity="0.200000" d="M455.87,-684.27C491.6,-644.87 632.55,-483.94 700.5,-325.38 721.17,-277.15 729.95,-214.83 733.05,-186.54"/>
<polygon fill="#000000" fill-opacity="0.200000" stroke="#000000" stroke-width="2" stroke-opacity="0.200000" points="735.16,-186.61 733.69,-180.42 730.98,-186.17 735.16,-186.61"/>
</g>
<!-- src/shared/components/organisms/LocaleSelect/index.tsx&#45;&gt;src/shared/components/molecules/Menu/index.tsx -->
<g id="edge33" class="edge">
<title>src/shared/components/organisms/LocaleSelect/index.tsx&#45;&gt;src/shared/components/molecules/Menu/index.tsx</title>
<path fill="none" stroke="#000000" stroke-width="2" stroke-opacity="0.200000" d="M458.91,-702.39C480.09,-719.12 525.56,-755.04 550.06,-774.39"/>
<polygon fill="#000000" fill-opacity="0.200000" stroke="#000000" stroke-width="2" stroke-opacity="0.200000" points="548.94,-776.18 554.95,-778.25 551.54,-772.89 548.94,-776.18"/>
</g>
<!-- src/shared/lib/redux/app/actions.ts&#45;&gt;src/shared/lib/redux/app/types.ts -->
<g id="edge52" class="edge">
<title>src/shared/lib/redux/app/actions.ts&#45;&gt;src/shared/lib/redux/app/types.ts</title>
<path fill="none" stroke="#000000" stroke-width="2" stroke-opacity="0.200000" d="M676.18,-148.52C684.08,-150.82 692.7,-153.52 700.5,-156.38 703.38,-157.43 706.36,-158.61 709.3,-159.83"/>
<polygon fill="#000000" fill-opacity="0.200000" stroke="#000000" stroke-width="2" stroke-opacity="0.200000" points="708.92,-161.95 715.26,-162.37 710.56,-158.09 708.92,-161.95"/>
</g>
<!-- src/shared/lib/redux/app/selectors.ts&#45;&gt;src/shared/lib/redux/app/types.ts -->
<g id="edge56" class="edge">
<title>src/shared/lib/redux/app/selectors.ts&#45;&gt;src/shared/lib/redux/app/types.ts</title>
<path fill="none" stroke="#000000" stroke-width="2" stroke-opacity="0.200000" d="M679.71,-171.38C687.01,-171.38 694.85,-171.38 702.25,-171.38"/>
<polygon fill="#000000" fill-opacity="0.200000" stroke="#000000" stroke-width="2" stroke-opacity="0.200000" points="702.34,-173.48 708.34,-171.38 702.34,-169.28 702.34,-173.48"/>
</g>
<!-- src/shared/lib/redux/app/reducers.ts -->
<g id="node40" class="node">
<title>src/shared/lib/redux/app/reducers.ts</title>
<g id="a_node40"><a xlink:href="src/shared/lib/redux/app/reducers.ts" xlink:title="reducers.ts">
<path fill="#ddfeff" stroke="black" d="M592.5,-150.38C592.5,-150.38 542.5,-150.38 542.5,-150.38 539.5,-150.38 536.5,-147.38 536.5,-144.38 536.5,-144.38 536.5,-138.38 536.5,-138.38 536.5,-135.38 539.5,-132.38 542.5,-132.38 542.5,-132.38 592.5,-132.38 592.5,-132.38 595.5,-132.38 598.5,-135.38 598.5,-138.38 598.5,-138.38 598.5,-144.38 598.5,-144.38 598.5,-147.38 595.5,-150.38 592.5,-150.38"/>
<text text-anchor="middle" x="567.5" y="-139.18" font-family="Helvetica,sans-Serif" font-size="9.00">reducers.ts</text>
</a>
</g>
</g>
<!-- src/shared/lib/redux/app/reducers.ts&#45;&gt;src/shared/lib/i18n/config.ts -->
<g id="edge53" class="edge">
<title>src/shared/lib/redux/app/reducers.ts&#45;&gt;src/shared/lib/i18n/config.ts</title>
<path fill="none" stroke="#000000" stroke-width="2" stroke-opacity="0.200000" d="M573.93,-150.38C587.4,-172.72 622.46,-230.86 638.84,-258.01"/>
<polygon fill="#000000" fill-opacity="0.200000" stroke="#000000" stroke-width="2" stroke-opacity="0.200000" points="637.14,-259.26 642.03,-263.31 640.73,-257.09 637.14,-259.26"/>
</g>
<!-- src/shared/lib/redux/app/reducers.ts&#45;&gt;src/shared/lib/redux/app/types.ts -->
<g id="edge55" class="edge">
<title>src/shared/lib/redux/app/reducers.ts&#45;&gt;src/shared/lib/redux/app/types.ts</title>
<path fill="none" stroke="#000000" stroke-width="2" stroke-opacity="0.200000" d="M589.4,-132.24C616.5,-121.85 664.57,-108.49 700.5,-126.38 713.07,-132.64 722.23,-146.01 727.85,-156.56"/>
<polygon fill="#000000" fill-opacity="0.200000" stroke="#000000" stroke-width="2" stroke-opacity="0.200000" points="726.05,-157.64 730.61,-162.07 729.8,-155.76 726.05,-157.64"/>
</g>
<!-- src/shared/lib/redux/app/reducers.ts&#45;&gt;src/shared/lib/redux/app/actions.ts -->
<g id="edge54" class="edge">
<title>src/shared/lib/redux/app/reducers.ts&#45;&gt;src/shared/lib/redux/app/actions.ts</title>
<path fill="none" stroke="#000000" stroke-width="2" stroke-opacity="0.200000" d="M598.82,-141.38C604.01,-141.38 609.42,-141.38 614.68,-141.38"/>
<polygon fill="#000000" fill-opacity="0.200000" stroke="#000000" stroke-width="2" stroke-opacity="0.200000" points="614.75,-143.48 620.75,-141.38 614.75,-139.28 614.75,-143.48"/>
</g>
<!-- src/shared/lib/redux/rootReducer.ts&#45;&gt;src/shared/lib/redux/app/reducers.ts -->
<g id="edge58" class="edge">
<title>src/shared/lib/redux/rootReducer.ts&#45;&gt;src/shared/lib/redux/app/reducers.ts</title>
<path fill="none" stroke="#000000" stroke-width="2" stroke-opacity="0.200000" d="M485.15,-141.38C499.44,-141.38 515.68,-141.38 529.88,-141.38"/>
<polygon fill="#000000" fill-opacity="0.200000" stroke="#000000" stroke-width="2" stroke-opacity="0.200000" points="530.24,-143.48 536.24,-141.38 530.24,-139.28 530.24,-143.48"/>
</g>
</g>
</svg>
