<?xml version="1.0" encoding="UTF-8" standalone="no"?>
<!DOCTYPE svg PUBLIC "-//W3C//DTD SVG 1.1//EN"
 "http://www.w3.org/Graphics/SVG/1.1/DTD/svg11.dtd">
<!-- Generated by graphviz version 2.44.1 (20200629.0846)
 -->
<!-- Title: dependency&#45;cruiser output Pages: 1 -->
<svg width="731pt" height="1597pt"
 viewBox="0.00 0.00 731.00 1596.61" xmlns="http://www.w3.org/2000/svg" xmlns:xlink="http://www.w3.org/1999/xlink">
<g id="graph0" class="graph" transform="scale(1 1) rotate(0) translate(4 1592.61)">
<title>dependency&#45;cruiser output</title>
<polygon fill="white" stroke="transparent" points="-4,4 -4,-1592.61 727,-1592.61 727,4 -4,4"/>
<g id="clust1" class="cluster">
<title>cluster_config</title>
<path fill="#ffffff" stroke="black" stroke-width="2" d="M120.5,-1516.9C120.5,-1516.9 166.5,-1516.9 166.5,-1516.9 172.5,-1516.9 178.5,-1522.9 178.5,-1528.9 178.5,-1528.9 178.5,-1556.9 178.5,-1556.9 178.5,-1562.9 172.5,-1568.9 166.5,-1568.9 166.5,-1568.9 120.5,-1568.9 120.5,-1568.9 114.5,-1568.9 108.5,-1562.9 108.5,-1556.9 108.5,-1556.9 108.5,-1528.9 108.5,-1528.9 108.5,-1522.9 114.5,-1516.9 120.5,-1516.9"/>
<text text-anchor="middle" x="143.5" y="-1557.7" font-family="Helvetica,sans-Serif" font-weight="bold" font-size="9.00">config</text>
</g>
<g id="clust2" class="cluster">
<title>cluster_src</title>
<path fill="#ffffff" stroke="black" stroke-width="2" d="M20,-36.9C20,-36.9 703,-36.9 703,-36.9 709,-36.9 715,-42.9 715,-48.9 715,-48.9 715,-1496.9 715,-1496.9 715,-1502.9 709,-1508.9 703,-1508.9 703,-1508.9 20,-1508.9 20,-1508.9 14,-1508.9 8,-1502.9 8,-1496.9 8,-1496.9 8,-48.9 8,-48.9 8,-42.9 14,-36.9 20,-36.9"/>
<text text-anchor="middle" x="361.5" y="-1497.7" font-family="Helvetica,sans-Serif" font-weight="bold" font-size="9.00">src</text>
</g>
<g id="clust3" class="cluster">
<title>cluster_src/client</title>
<path fill="#ffffff" stroke="black" stroke-width="2" d="M120.5,-54.9C120.5,-54.9 166.5,-54.9 166.5,-54.9 172.5,-54.9 178.5,-60.9 178.5,-66.9 178.5,-66.9 178.5,-94.9 178.5,-94.9 178.5,-100.9 172.5,-106.9 166.5,-106.9 166.5,-106.9 120.5,-106.9 120.5,-106.9 114.5,-106.9 108.5,-100.9 108.5,-94.9 108.5,-94.9 108.5,-66.9 108.5,-66.9 108.5,-60.9 114.5,-54.9 120.5,-54.9"/>
<text text-anchor="middle" x="143.5" y="-95.7" font-family="Helvetica,sans-Serif" font-weight="bold" font-size="9.00">client</text>
</g>
<g id="clust4" class="cluster">
<title>cluster_src/server</title>
<path fill="#ffffff" stroke="black" stroke-width="2" d="M28,-1306.9C28,-1306.9 280.5,-1306.9 280.5,-1306.9 286.5,-1306.9 292.5,-1312.9 292.5,-1318.9 292.5,-1318.9 292.5,-1470.9 292.5,-1470.9 292.5,-1476.9 286.5,-1482.9 280.5,-1482.9 280.5,-1482.9 28,-1482.9 28,-1482.9 22,-1482.9 16,-1476.9 16,-1470.9 16,-1470.9 16,-1318.9 16,-1318.9 16,-1312.9 22,-1306.9 28,-1306.9"/>
<text text-anchor="middle" x="154.25" y="-1471.7" font-family="Helvetica,sans-Serif" font-weight="bold" font-size="9.00">server</text>
</g>
<g id="clust5" class="cluster">
<title>cluster_src/server/components</title>
<path fill="#ffffff" stroke="black" stroke-width="2" d="M226.5,-1314.9C226.5,-1314.9 272.5,-1314.9 272.5,-1314.9 278.5,-1314.9 284.5,-1320.9 284.5,-1326.9 284.5,-1326.9 284.5,-1354.9 284.5,-1354.9 284.5,-1360.9 278.5,-1366.9 272.5,-1366.9 272.5,-1366.9 226.5,-1366.9 226.5,-1366.9 220.5,-1366.9 214.5,-1360.9 214.5,-1354.9 214.5,-1354.9 214.5,-1326.9 214.5,-1326.9 214.5,-1320.9 220.5,-1314.9 226.5,-1314.9"/>
<text text-anchor="middle" x="249.5" y="-1355.7" font-family="Helvetica,sans-Serif" font-weight="bold" font-size="9.00">components</text>
</g>
<g id="clust6" class="cluster">
<title>cluster_src/server/middlewares</title>
<path fill="#ffffff" stroke="black" stroke-width="2" d="M100.5,-1314.9C100.5,-1314.9 186.5,-1314.9 186.5,-1314.9 192.5,-1314.9 198.5,-1320.9 198.5,-1326.9 198.5,-1326.9 198.5,-1444.9 198.5,-1444.9 198.5,-1450.9 192.5,-1456.9 186.5,-1456.9 186.5,-1456.9 100.5,-1456.9 100.5,-1456.9 94.5,-1456.9 88.5,-1450.9 88.5,-1444.9 88.5,-1444.9 88.5,-1326.9 88.5,-1326.9 88.5,-1320.9 94.5,-1314.9 100.5,-1314.9"/>
<text text-anchor="middle" x="143.5" y="-1445.7" font-family="Helvetica,sans-Serif" font-weight="bold" font-size="9.00">middlewares</text>
</g>
<g id="clust7" class="cluster">
<title>cluster_src/shared</title>
<path fill="#ffffff" stroke="black" stroke-width="2" d="M116,-114.9C116,-114.9 695,-114.9 695,-114.9 701,-114.9 707,-120.9 707,-126.9 707,-126.9 707,-1286.9 707,-1286.9 707,-1292.9 701,-1298.9 695,-1298.9 695,-1298.9 116,-1298.9 116,-1298.9 110,-1298.9 104,-1292.9 104,-1286.9 104,-1286.9 104,-126.9 104,-126.9 104,-120.9 110,-114.9 116,-114.9"/>
<text text-anchor="middle" x="405.5" y="-1287.7" font-family="Helvetica,sans-Serif" font-weight="bold" font-size="9.00">shared</text>
</g>
<g id="clust22" class="cluster">
<title>cluster_src/shared/pages</title>
<path fill="#ffffff" stroke="black" stroke-width="2" d="M435,-558.9C435,-558.9 497,-558.9 497,-558.9 503,-558.9 509,-564.9 509,-570.9 509,-570.9 509,-872.9 509,-872.9 509,-878.9 503,-884.9 497,-884.9 497,-884.9 435,-884.9 435,-884.9 429,-884.9 423,-878.9 423,-872.9 423,-872.9 423,-570.9 423,-570.9 423,-564.9 429,-558.9 435,-558.9"/>
<text text-anchor="middle" x="466" y="-873.7" font-family="Helvetica,sans-Serif" font-weight="bold" font-size="9.00">pages</text>
</g>
<g id="clust23" class="cluster">
<title>cluster_src/shared/pages/404</title>
<path fill="#ffffff" stroke="black" stroke-width="2" d="M443,-806.9C443,-806.9 489,-806.9 489,-806.9 495,-806.9 501,-812.9 501,-818.9 501,-818.9 501,-846.9 501,-846.9 501,-852.9 495,-858.9 489,-858.9 489,-858.9 443,-858.9 443,-858.9 437,-858.9 431,-852.9 431,-846.9 431,-846.9 431,-818.9 431,-818.9 431,-812.9 437,-806.9 443,-806.9"/>
<text text-anchor="middle" x="466" y="-847.7" font-family="Helvetica,sans-Serif" font-weight="bold" font-size="9.00">404</text>
</g>
<g id="clust24" class="cluster">
<title>cluster_src/shared/pages/home</title>
<path fill="#ffffff" stroke="black" stroke-width="2" d="M443,-746.9C443,-746.9 489,-746.9 489,-746.9 495,-746.9 501,-752.9 501,-758.9 501,-758.9 501,-786.9 501,-786.9 501,-792.9 495,-798.9 489,-798.9 489,-798.9 443,-798.9 443,-798.9 437,-798.9 431,-792.9 431,-786.9 431,-786.9 431,-758.9 431,-758.9 431,-752.9 437,-746.9 443,-746.9"/>
<text text-anchor="middle" x="466" y="-787.7" font-family="Helvetica,sans-Serif" font-weight="bold" font-size="9.00">home</text>
</g>
<g id="clust25" class="cluster">
<title>cluster_src/shared/pages/page&#45;1</title>
<path fill="#ffffff" stroke="black" stroke-width="2" d="M443,-686.9C443,-686.9 489,-686.9 489,-686.9 495,-686.9 501,-692.9 501,-698.9 501,-698.9 501,-726.9 501,-726.9 501,-732.9 495,-738.9 489,-738.9 489,-738.9 443,-738.9 443,-738.9 437,-738.9 431,-732.9 431,-726.9 431,-726.9 431,-698.9 431,-698.9 431,-692.9 437,-686.9 443,-686.9"/>
<text text-anchor="middle" x="466" y="-727.7" font-family="Helvetica,sans-Serif" font-weight="bold" font-size="9.00">page&#45;1</text>
</g>
<g id="clust26" class="cluster">
<title>cluster_src/shared/pages/page&#45;2</title>
<path fill="#ffffff" stroke="black" stroke-width="2" d="M443,-626.9C443,-626.9 489,-626.9 489,-626.9 495,-626.9 501,-632.9 501,-638.9 501,-638.9 501,-666.9 501,-666.9 501,-672.9 495,-678.9 489,-678.9 489,-678.9 443,-678.9 443,-678.9 437,-678.9 431,-672.9 431,-666.9 431,-666.9 431,-638.9 431,-638.9 431,-632.9 437,-626.9 443,-626.9"/>
<text text-anchor="middle" x="466" y="-667.7" font-family="Helvetica,sans-Serif" font-weight="bold" font-size="9.00">page&#45;2</text>
</g>
<g id="clust27" class="cluster">
<title>cluster_src/shared/pages/page&#45;3</title>
<path fill="#ffffff" stroke="black" stroke-width="2" d="M443,-566.9C443,-566.9 489,-566.9 489,-566.9 495,-566.9 501,-572.9 501,-578.9 501,-578.9 501,-606.9 501,-606.9 501,-612.9 495,-618.9 489,-618.9 489,-618.9 443,-618.9 443,-618.9 437,-618.9 431,-612.9 431,-606.9 431,-606.9 431,-578.9 431,-578.9 431,-572.9 437,-566.9 443,-566.9"/>
<text text-anchor="middle" x="466" y="-607.7" font-family="Helvetica,sans-Serif" font-weight="bold" font-size="9.00">page&#45;3</text>
</g>
<g id="clust8" class="cluster">
<title>cluster_src/shared/assets</title>
<path fill="#ffffff" stroke="black" stroke-width="2" d="M438,-902.9C438,-902.9 494,-902.9 494,-902.9 500,-902.9 506,-908.9 506,-914.9 506,-914.9 506,-972.9 506,-972.9 506,-978.9 500,-984.9 494,-984.9 494,-984.9 438,-984.9 438,-984.9 432,-984.9 426,-978.9 426,-972.9 426,-972.9 426,-914.9 426,-914.9 426,-908.9 432,-902.9 438,-902.9"/>
<text text-anchor="middle" x="466" y="-973.7" font-family="Helvetica,sans-Serif" font-weight="bold" font-size="9.00">assets</text>
</g>
<g id="clust9" class="cluster">
<title>cluster_src/shared/components</title>
<path fill="#ffffff" stroke="black" stroke-width="2" d="M312.5,-122.9C312.5,-122.9 687,-122.9 687,-122.9 693,-122.9 699,-128.9 699,-134.9 699,-134.9 699,-538.9 699,-538.9 699,-544.9 693,-550.9 687,-550.9 687,-550.9 312.5,-550.9 312.5,-550.9 306.5,-550.9 300.5,-544.9 300.5,-538.9 300.5,-538.9 300.5,-134.9 300.5,-134.9 300.5,-128.9 306.5,-122.9 312.5,-122.9"/>
<text text-anchor="middle" x="499.75" y="-539.7" font-family="Helvetica,sans-Serif" font-weight="bold" font-size="9.00">components</text>
</g>
<g id="clust14" class="cluster">
<title>cluster_src/shared/components/sections</title>
<path fill="#ffffff" stroke="black" stroke-width="2" d="M320.5,-224.9C320.5,-224.9 498,-224.9 498,-224.9 504,-224.9 510,-230.9 510,-236.9 510,-236.9 510,-418.9 510,-418.9 510,-424.9 504,-430.9 498,-430.9 498,-430.9 320.5,-430.9 320.5,-430.9 314.5,-430.9 308.5,-424.9 308.5,-418.9 308.5,-418.9 308.5,-236.9 308.5,-236.9 308.5,-230.9 314.5,-224.9 320.5,-224.9"/>
<text text-anchor="middle" x="409.25" y="-419.7" font-family="Helvetica,sans-Serif" font-weight="bold" font-size="9.00">sections</text>
</g>
<g id="clust15" class="cluster">
<title>cluster_src/shared/components/sections/Content</title>
<path fill="#ffffff" stroke="black" stroke-width="2" d="M328.5,-352.9C328.5,-352.9 490,-352.9 490,-352.9 496,-352.9 502,-358.9 502,-364.9 502,-364.9 502,-392.9 502,-392.9 502,-398.9 496,-404.9 490,-404.9 490,-404.9 328.5,-404.9 328.5,-404.9 322.5,-404.9 316.5,-398.9 316.5,-392.9 316.5,-392.9 316.5,-364.9 316.5,-364.9 316.5,-358.9 322.5,-352.9 328.5,-352.9"/>
<text text-anchor="middle" x="409.25" y="-393.7" font-family="Helvetica,sans-Serif" font-weight="bold" font-size="9.00">Content</text>
</g>
<g id="clust16" class="cluster">
<title>cluster_src/shared/components/sections/Footer</title>
<path fill="#ffffff" stroke="black" stroke-width="2" d="M328.5,-232.9C328.5,-232.9 490,-232.9 490,-232.9 496,-232.9 502,-238.9 502,-244.9 502,-244.9 502,-272.9 502,-272.9 502,-278.9 496,-284.9 490,-284.9 490,-284.9 328.5,-284.9 328.5,-284.9 322.5,-284.9 316.5,-278.9 316.5,-272.9 316.5,-272.9 316.5,-244.9 316.5,-244.9 316.5,-238.9 322.5,-232.9 328.5,-232.9"/>
<text text-anchor="middle" x="409.25" y="-273.7" font-family="Helvetica,sans-Serif" font-weight="bold" font-size="9.00">Footer</text>
</g>
<g id="clust17" class="cluster">
<title>cluster_src/shared/components/sections/Header</title>
<path fill="#ffffff" stroke="black" stroke-width="2" d="M328.5,-292.9C328.5,-292.9 490,-292.9 490,-292.9 496,-292.9 502,-298.9 502,-304.9 502,-304.9 502,-332.9 502,-332.9 502,-338.9 496,-344.9 490,-344.9 490,-344.9 328.5,-344.9 328.5,-344.9 322.5,-344.9 316.5,-338.9 316.5,-332.9 316.5,-332.9 316.5,-304.9 316.5,-304.9 316.5,-298.9 322.5,-292.9 328.5,-292.9"/>
<text text-anchor="middle" x="409.25" y="-333.7" font-family="Helvetica,sans-Serif" font-weight="bold" font-size="9.00">Header</text>
</g>
<g id="clust10" class="cluster">
<title>cluster_src/shared/components/molecules</title>
<path fill="#ffffff" stroke="black" stroke-width="2" d="M421,-130.9C421,-130.9 679,-130.9 679,-130.9 685,-130.9 691,-136.9 691,-142.9 691,-142.9 691,-204.9 691,-204.9 691,-210.9 685,-216.9 679,-216.9 679,-216.9 421,-216.9 421,-216.9 415,-216.9 409,-210.9 409,-204.9 409,-204.9 409,-142.9 409,-142.9 409,-136.9 415,-130.9 421,-130.9"/>
<text text-anchor="middle" x="550" y="-205.7" font-family="Helvetica,sans-Serif" font-weight="bold" font-size="9.00">molecules</text>
</g>
<g id="clust11" class="cluster">
<title>cluster_src/shared/components/molecules/Menu</title>
<path fill="#ffffff" stroke="black" stroke-width="2" d="M429,-138.9C429,-138.9 671,-138.9 671,-138.9 677,-138.9 683,-144.9 683,-150.9 683,-150.9 683,-178.9 683,-178.9 683,-184.9 677,-190.9 671,-190.9 671,-190.9 429,-190.9 429,-190.9 423,-190.9 417,-184.9 417,-178.9 417,-178.9 417,-150.9 417,-150.9 417,-144.9 423,-138.9 429,-138.9"/>
<text text-anchor="middle" x="550" y="-179.7" font-family="Helvetica,sans-Serif" font-weight="bold" font-size="9.00">Menu</text>
</g>
<g id="clust12" class="cluster">
<title>cluster_src/shared/components/organisms</title>
<path fill="#ffffff" stroke="black" stroke-width="2" d="M434,-438.9C434,-438.9 498,-438.9 498,-438.9 504,-438.9 510,-444.9 510,-450.9 510,-450.9 510,-512.9 510,-512.9 510,-518.9 504,-524.9 498,-524.9 498,-524.9 434,-524.9 434,-524.9 428,-524.9 422,-518.9 422,-512.9 422,-512.9 422,-450.9 422,-450.9 422,-444.9 428,-438.9 434,-438.9"/>
<text text-anchor="middle" x="466" y="-513.7" font-family="Helvetica,sans-Serif" font-weight="bold" font-size="9.00">organisms</text>
</g>
<g id="clust13" class="cluster">
<title>cluster_src/shared/components/organisms/LocaleSelect</title>
<path fill="#ffffff" stroke="black" stroke-width="2" d="M442,-446.9C442,-446.9 490,-446.9 490,-446.9 496,-446.9 502,-452.9 502,-458.9 502,-458.9 502,-486.9 502,-486.9 502,-492.9 496,-498.9 490,-498.9 490,-498.9 442,-498.9 442,-498.9 436,-498.9 430,-492.9 430,-486.9 430,-486.9 430,-458.9 430,-458.9 430,-452.9 436,-446.9 442,-446.9"/>
<text text-anchor="middle" x="466" y="-487.7" font-family="Helvetica,sans-Serif" font-weight="bold" font-size="9.00">LocaleSelect</text>
</g>
<g id="clust18" class="cluster">
<title>cluster_src/shared/lib</title>
<path fill="#ffffff" stroke="black" stroke-width="2" d="M218.5,-1018.9C218.5,-1018.9 686,-1018.9 686,-1018.9 692,-1018.9 698,-1024.9 698,-1030.9 698,-1030.9 698,-1260.9 698,-1260.9 698,-1266.9 692,-1272.9 686,-1272.9 686,-1272.9 218.5,-1272.9 218.5,-1272.9 212.5,-1272.9 206.5,-1266.9 206.5,-1260.9 206.5,-1260.9 206.5,-1030.9 206.5,-1030.9 206.5,-1024.9 212.5,-1018.9 218.5,-1018.9"/>
<text text-anchor="middle" x="452.25" y="-1261.7" font-family="Helvetica,sans-Serif" font-weight="bold" font-size="9.00">lib</text>
</g>
<g id="clust19" class="cluster">
<title>cluster_src/shared/lib/i18n</title>
<path fill="#ffffff" stroke="black" stroke-width="2" d="M433,-1164.9C433,-1164.9 598,-1164.9 598,-1164.9 604,-1164.9 610,-1170.9 610,-1176.9 610,-1176.9 610,-1234.9 610,-1234.9 610,-1240.9 604,-1246.9 598,-1246.9 598,-1246.9 433,-1246.9 433,-1246.9 427,-1246.9 421,-1240.9 421,-1234.9 421,-1234.9 421,-1176.9 421,-1176.9 421,-1170.9 427,-1164.9 433,-1164.9"/>
<text text-anchor="middle" x="515.5" y="-1235.7" font-family="Helvetica,sans-Serif" font-weight="bold" font-size="9.00">i18n</text>
</g>
<g id="clust20" class="cluster">
<title>cluster_src/shared/lib/store</title>
<path fill="#ffffff" stroke="black" stroke-width="2" d="M226.5,-1026.9C226.5,-1026.9 678,-1026.9 678,-1026.9 684,-1026.9 690,-1032.9 690,-1038.9 690,-1038.9 690,-1144.9 690,-1144.9 690,-1150.9 684,-1156.9 678,-1156.9 678,-1156.9 226.5,-1156.9 226.5,-1156.9 220.5,-1156.9 214.5,-1150.9 214.5,-1144.9 214.5,-1144.9 214.5,-1038.9 214.5,-1038.9 214.5,-1032.9 220.5,-1026.9 226.5,-1026.9"/>
<text text-anchor="middle" x="452.25" y="-1145.7" font-family="Helvetica,sans-Serif" font-weight="bold" font-size="9.00">store</text>
</g>
<g id="clust21" class="cluster">
<title>cluster_src/shared/lib/store/app</title>
<path fill="#ffffff" stroke="black" stroke-width="2" d="M439,-1034.9C439,-1034.9 670,-1034.9 670,-1034.9 676,-1034.9 682,-1040.9 682,-1046.9 682,-1046.9 682,-1118.9 682,-1118.9 682,-1124.9 676,-1130.9 670,-1130.9 670,-1130.9 439,-1130.9 439,-1130.9 433,-1130.9 427,-1124.9 427,-1118.9 427,-1118.9 427,-1046.9 427,-1046.9 427,-1040.9 433,-1034.9 439,-1034.9"/>
<text text-anchor="middle" x="554.5" y="-1119.7" font-family="Helvetica,sans-Serif" font-weight="bold" font-size="9.00">app</text>
</g>
<!-- config/paths.ts -->
<g id="node1" class="node">
<title>config/paths.ts</title>
<g id="a_node1"><a xlink:href="config/paths.ts" xlink:title="paths.ts">
<path fill="#ddfeff" stroke="black" d="M164.5,-1542.9C164.5,-1542.9 122.5,-1542.9 122.5,-1542.9 119.5,-1542.9 116.5,-1539.9 116.5,-1536.9 116.5,-1536.9 116.5,-1530.9 116.5,-1530.9 116.5,-1527.9 119.5,-1524.9 122.5,-1524.9 122.5,-1524.9 164.5,-1524.9 164.5,-1524.9 167.5,-1524.9 170.5,-1527.9 170.5,-1530.9 170.5,-1530.9 170.5,-1536.9 170.5,-1536.9 170.5,-1539.9 167.5,-1542.9 164.5,-1542.9"/>
<text text-anchor="middle" x="143.5" y="-1531.7" font-family="Helvetica,sans-Serif" font-size="9.00">paths.ts</text>
</a>
</g>
</g>
<!-- fs -->
<g id="node2" class="node">
<title>fs</title>
<path fill="#ffffcc" stroke="grey" d="M270.5,-1534.9C270.5,-1534.9 228.5,-1534.9 228.5,-1534.9 225.5,-1534.9 222.5,-1531.9 222.5,-1528.9 222.5,-1528.9 222.5,-1522.9 222.5,-1522.9 222.5,-1519.9 225.5,-1516.9 228.5,-1516.9 228.5,-1516.9 270.5,-1516.9 270.5,-1516.9 273.5,-1516.9 276.5,-1519.9 276.5,-1522.9 276.5,-1522.9 276.5,-1528.9 276.5,-1528.9 276.5,-1531.9 273.5,-1534.9 270.5,-1534.9"/>
<text text-anchor="middle" x="249.5" y="-1523.7" font-family="Helvetica,sans-Serif" font-size="9.00" fill="grey">fs</text>
</g>
<!-- config/paths.ts&#45;&gt;fs -->
<g id="edge1" class="edge">
<title>config/paths.ts&#45;&gt;fs</title>
<path fill="none" stroke="#000000" stroke-dasharray="5,2" stroke-opacity="0.200000" d="M170.74,-1531.88C184.54,-1530.82 201.57,-1529.51 216.17,-1528.39"/>
<polygon fill="#000000" fill-opacity="0.200000" stroke="#000000" stroke-opacity="0.200000" points="216.44,-1530.47 222.26,-1527.92 216.12,-1526.28 216.44,-1530.47"/>
</g>
<!-- path -->
<g id="node3" class="node">
<title>path</title>
<path fill="#ffffcc" stroke="grey" d="M270.5,-1564.9C270.5,-1564.9 228.5,-1564.9 228.5,-1564.9 225.5,-1564.9 222.5,-1561.9 222.5,-1558.9 222.5,-1558.9 222.5,-1552.9 222.5,-1552.9 222.5,-1549.9 225.5,-1546.9 228.5,-1546.9 228.5,-1546.9 270.5,-1546.9 270.5,-1546.9 273.5,-1546.9 276.5,-1549.9 276.5,-1552.9 276.5,-1552.9 276.5,-1558.9 276.5,-1558.9 276.5,-1561.9 273.5,-1564.9 270.5,-1564.9"/>
<text text-anchor="middle" x="249.5" y="-1553.7" font-family="Helvetica,sans-Serif" font-size="9.00" fill="grey">path</text>
</g>
<!-- config/paths.ts&#45;&gt;path -->
<g id="edge2" class="edge">
<title>config/paths.ts&#45;&gt;path</title>
<path fill="none" stroke="#000000" stroke-dasharray="5,2" stroke-opacity="0.200000" d="M170.74,-1539.45C184.54,-1542.37 201.57,-1545.97 216.17,-1549.06"/>
<polygon fill="#000000" fill-opacity="0.200000" stroke="#000000" stroke-opacity="0.200000" points="215.96,-1551.16 222.26,-1550.35 216.83,-1547.05 215.96,-1551.16"/>
</g>
<!-- src/client/index.tsx -->
<g id="node4" class="node">
<title>src/client/index.tsx</title>
<g id="a_node4"><a xlink:href="src/client/index.tsx" xlink:title="index.tsx">
<path fill="#bbfeff" stroke="black" d="M164.5,-80.9C164.5,-80.9 122.5,-80.9 122.5,-80.9 119.5,-80.9 116.5,-77.9 116.5,-74.9 116.5,-74.9 116.5,-68.9 116.5,-68.9 116.5,-65.9 119.5,-62.9 122.5,-62.9 122.5,-62.9 164.5,-62.9 164.5,-62.9 167.5,-62.9 170.5,-65.9 170.5,-68.9 170.5,-68.9 170.5,-74.9 170.5,-74.9 170.5,-77.9 167.5,-80.9 164.5,-80.9"/>
<text text-anchor="middle" x="143.5" y="-69.7" font-family="Helvetica,sans-Serif" font-size="9.00">index.tsx</text>
</a>
</g>
</g>
<!-- src/shared/App.tsx -->
<g id="node5" class="node">
<title>src/shared/App.tsx</title>
<g id="a_node5"><a xlink:href="src/shared/App.tsx" xlink:title="App.tsx">
<path fill="#bbfeff" stroke="black" d="M270.5,-880.9C270.5,-880.9 228.5,-880.9 228.5,-880.9 225.5,-880.9 222.5,-877.9 222.5,-874.9 222.5,-874.9 222.5,-868.9 222.5,-868.9 222.5,-865.9 225.5,-862.9 228.5,-862.9 228.5,-862.9 270.5,-862.9 270.5,-862.9 273.5,-862.9 276.5,-865.9 276.5,-868.9 276.5,-868.9 276.5,-874.9 276.5,-874.9 276.5,-877.9 273.5,-880.9 270.5,-880.9"/>
<text text-anchor="middle" x="249.5" y="-869.7" font-family="Helvetica,sans-Serif" font-size="9.00">App.tsx</text>
</a>
</g>
</g>
<!-- src/client/index.tsx&#45;&gt;src/shared/App.tsx -->
<g id="edge3" class="edge">
<title>src/client/index.tsx&#45;&gt;src/shared/App.tsx</title>
<path fill="none" stroke="#000000" stroke-width="2" stroke-opacity="0.200000" d="M164.23,-80.99C176.35,-87.71 190.96,-98.07 198.5,-111.9 235.41,-179.56 246.56,-754.33 248.26,-856.42"/>
<polygon fill="#000000" fill-opacity="0.200000" stroke="#000000" stroke-width="2" stroke-opacity="0.200000" points="246.16,-856.74 248.36,-862.7 250.36,-856.67 246.16,-856.74"/>
</g>
<!-- src/shared/lib/i18n/index.tsx -->
<g id="node6" class="node">
<title>src/shared/lib/i18n/index.tsx</title>
<g id="a_node6"><a xlink:href="src/shared/lib/i18n/index.tsx" xlink:title="index.tsx">
<path fill="#bbfeff" stroke="black" d="M487,-1190.9C487,-1190.9 445,-1190.9 445,-1190.9 442,-1190.9 439,-1187.9 439,-1184.9 439,-1184.9 439,-1178.9 439,-1178.9 439,-1175.9 442,-1172.9 445,-1172.9 445,-1172.9 487,-1172.9 487,-1172.9 490,-1172.9 493,-1175.9 493,-1178.9 493,-1178.9 493,-1184.9 493,-1184.9 493,-1187.9 490,-1190.9 487,-1190.9"/>
<text text-anchor="middle" x="466" y="-1179.7" font-family="Helvetica,sans-Serif" font-size="9.00">index.tsx</text>
</a>
</g>
</g>
<!-- src/client/index.tsx&#45;&gt;src/shared/lib/i18n/index.tsx -->
<g id="edge4" class="edge">
<title>src/client/index.tsx&#45;&gt;src/shared/lib/i18n/index.tsx</title>
<path fill="none" stroke="#000000" stroke-width="2" stroke-opacity="0.200000" d="M170.51,-74.12C201.68,-77.8 254.46,-87.4 292.5,-111.9 349.7,-148.73 366.3,-166.13 390,-229.9 425,-324.08 366.06,-1043.07 409,-1133.9 416.13,-1148.99 430.53,-1161.16 442.93,-1169.47"/>
<polygon fill="#000000" fill-opacity="0.200000" stroke="#000000" stroke-width="2" stroke-opacity="0.200000" points="441.92,-1171.32 448.1,-1172.79 444.19,-1167.78 441.92,-1171.32"/>
</g>
<!-- src/shared/lib/store/index.ts -->
<g id="node7" class="node">
<title>src/shared/lib/store/index.ts</title>
<g id="a_node7"><a xlink:href="src/shared/lib/store/index.ts" xlink:title="index.ts">
<path fill="#ddfeff" stroke="black" d="M270.5,-1074.9C270.5,-1074.9 228.5,-1074.9 228.5,-1074.9 225.5,-1074.9 222.5,-1071.9 222.5,-1068.9 222.5,-1068.9 222.5,-1062.9 222.5,-1062.9 222.5,-1059.9 225.5,-1056.9 228.5,-1056.9 228.5,-1056.9 270.5,-1056.9 270.5,-1056.9 273.5,-1056.9 276.5,-1059.9 276.5,-1062.9 276.5,-1062.9 276.5,-1068.9 276.5,-1068.9 276.5,-1071.9 273.5,-1074.9 270.5,-1074.9"/>
<text text-anchor="middle" x="249.5" y="-1063.7" font-family="Helvetica,sans-Serif" font-size="9.00">index.ts</text>
</a>
</g>
</g>
<!-- src/client/index.tsx&#45;&gt;src/shared/lib/store/index.ts -->
<g id="edge5" class="edge">
<title>src/client/index.tsx&#45;&gt;src/shared/lib/store/index.ts</title>
<path fill="none" stroke="#000000" stroke-width="2" stroke-opacity="0.200000" d="M164.77,-81C176.94,-87.66 191.41,-97.97 198.5,-111.9 210.36,-135.2 190.9,-1031.93 206.5,-1052.9 209.13,-1056.44 212.71,-1059.04 216.68,-1060.95"/>
<polygon fill="#000000" fill-opacity="0.200000" stroke="#000000" stroke-width="2" stroke-opacity="0.200000" points="215.93,-1062.91 222.28,-1063.15 217.46,-1059 215.93,-1062.91"/>
</g>
<!-- src/shared/App.scss -->
<g id="node17" class="node">
<title>src/shared/App.scss</title>
<g id="a_node17"><a xlink:href="src/shared/App.scss" xlink:title="App.scss">
<path fill="#ffffcc" stroke="black" d="M372.5,-989.9C372.5,-989.9 330.5,-989.9 330.5,-989.9 327.5,-989.9 324.5,-986.9 324.5,-983.9 324.5,-983.9 324.5,-977.9 324.5,-977.9 324.5,-974.9 327.5,-971.9 330.5,-971.9 330.5,-971.9 372.5,-971.9 372.5,-971.9 375.5,-971.9 378.5,-974.9 378.5,-977.9 378.5,-977.9 378.5,-983.9 378.5,-983.9 378.5,-986.9 375.5,-989.9 372.5,-989.9"/>
<text text-anchor="middle" x="351.5" y="-978.7" font-family="Helvetica,sans-Serif" font-size="9.00">App.scss</text>
</a>
</g>
</g>
<!-- src/shared/App.tsx&#45;&gt;src/shared/App.scss -->
<g id="edge23" class="edge">
<title>src/shared/App.tsx&#45;&gt;src/shared/App.scss</title>
<path fill="none" stroke="#000000" stroke-width="2" stroke-opacity="0.200000" d="M253.11,-881.05C258.75,-899.22 273.77,-940.07 300.5,-962.9 305.71,-967.35 312.1,-970.73 318.56,-973.29"/>
<polygon fill="#000000" fill-opacity="0.200000" stroke="#000000" stroke-width="2" stroke-opacity="0.200000" points="318.11,-975.37 324.47,-975.42 319.54,-971.41 318.11,-975.37"/>
</g>
<!-- src/shared/assets/favicon.png -->
<g id="node19" class="node">
<title>src/shared/assets/favicon.png</title>
<g id="a_node19"><a xlink:href="src/shared/assets/favicon.png" xlink:title="favicon.png">
<path fill="#ffffcc" stroke="black" d="M492,-958.9C492,-958.9 440,-958.9 440,-958.9 437,-958.9 434,-955.9 434,-952.9 434,-952.9 434,-946.9 434,-946.9 434,-943.9 437,-940.9 440,-940.9 440,-940.9 492,-940.9 492,-940.9 495,-940.9 498,-943.9 498,-946.9 498,-946.9 498,-952.9 498,-952.9 498,-955.9 495,-958.9 492,-958.9"/>
<text text-anchor="middle" x="466" y="-947.7" font-family="Helvetica,sans-Serif" font-size="9.00">favicon.png</text>
</a>
</g>
</g>
<!-- src/shared/App.tsx&#45;&gt;src/shared/assets/favicon.png -->
<g id="edge24" class="edge">
<title>src/shared/App.tsx&#45;&gt;src/shared/assets/favicon.png</title>
<path fill="none" stroke="#000000" stroke-width="2" stroke-opacity="0.200000" d="M276.52,-879.04C305.17,-887.4 352.19,-902.6 390,-921.9 399.11,-926.55 399.7,-930.63 409,-934.9 414.95,-937.64 421.5,-939.95 427.95,-941.88"/>
<polygon fill="#000000" fill-opacity="0.200000" stroke="#000000" stroke-width="2" stroke-opacity="0.200000" points="427.48,-943.93 433.83,-943.55 428.63,-939.89 427.48,-943.93"/>
</g>
<!-- src/shared/components/sections/Content/index.tsx -->
<g id="node20" class="node">
<title>src/shared/components/sections/Content/index.tsx</title>
<g id="a_node20"><a xlink:href="src/shared/components/sections/Content/index.tsx" xlink:title="index.tsx">
<path fill="#bbfeff" stroke="black" d="M372.5,-378.9C372.5,-378.9 330.5,-378.9 330.5,-378.9 327.5,-378.9 324.5,-375.9 324.5,-372.9 324.5,-372.9 324.5,-366.9 324.5,-366.9 324.5,-363.9 327.5,-360.9 330.5,-360.9 330.5,-360.9 372.5,-360.9 372.5,-360.9 375.5,-360.9 378.5,-363.9 378.5,-366.9 378.5,-366.9 378.5,-372.9 378.5,-372.9 378.5,-375.9 375.5,-378.9 372.5,-378.9"/>
<text text-anchor="middle" x="351.5" y="-367.7" font-family="Helvetica,sans-Serif" font-size="9.00">index.tsx</text>
</a>
</g>
</g>
<!-- src/shared/App.tsx&#45;&gt;src/shared/components/sections/Content/index.tsx -->
<g id="edge25" class="edge">
<title>src/shared/App.tsx&#45;&gt;src/shared/components/sections/Content/index.tsx</title>
<path fill="none" stroke="#000000" stroke-width="2" stroke-opacity="0.200000" d="M250.82,-862.53C253.14,-797.98 267.99,-420.79 300.5,-382.9 305.06,-377.58 311.49,-374.3 318.23,-372.31"/>
<polygon fill="#000000" fill-opacity="0.200000" stroke="#000000" stroke-width="2" stroke-opacity="0.200000" points="319.11,-374.26 324.46,-370.82 318.13,-370.17 319.11,-374.26"/>
</g>
<!-- src/shared/components/sections/Footer/index.tsx -->
<g id="node21" class="node">
<title>src/shared/components/sections/Footer/index.tsx</title>
<g id="a_node21"><a xlink:href="src/shared/components/sections/Footer/index.tsx" xlink:title="index.tsx">
<path fill="#bbfeff" stroke="black" d="M372.5,-258.9C372.5,-258.9 330.5,-258.9 330.5,-258.9 327.5,-258.9 324.5,-255.9 324.5,-252.9 324.5,-252.9 324.5,-246.9 324.5,-246.9 324.5,-243.9 327.5,-240.9 330.5,-240.9 330.5,-240.9 372.5,-240.9 372.5,-240.9 375.5,-240.9 378.5,-243.9 378.5,-246.9 378.5,-246.9 378.5,-252.9 378.5,-252.9 378.5,-255.9 375.5,-258.9 372.5,-258.9"/>
<text text-anchor="middle" x="351.5" y="-247.7" font-family="Helvetica,sans-Serif" font-size="9.00">index.tsx</text>
</a>
</g>
</g>
<!-- src/shared/App.tsx&#45;&gt;src/shared/components/sections/Footer/index.tsx -->
<g id="edge26" class="edge">
<title>src/shared/App.tsx&#45;&gt;src/shared/components/sections/Footer/index.tsx</title>
<path fill="none" stroke="#000000" stroke-width="2" stroke-opacity="0.200000" d="M250.31,-862.49C249.13,-795.86 244.45,-394.77 300.5,-289.9 306.66,-278.38 317.7,-269.01 327.84,-262.24"/>
<polygon fill="#000000" fill-opacity="0.200000" stroke="#000000" stroke-width="2" stroke-opacity="0.200000" points="329.1,-263.93 333.03,-258.94 326.84,-260.38 329.1,-263.93"/>
</g>
<!-- src/shared/components/sections/Header/index.tsx -->
<g id="node22" class="node">
<title>src/shared/components/sections/Header/index.tsx</title>
<g id="a_node22"><a xlink:href="src/shared/components/sections/Header/index.tsx" xlink:title="index.tsx">
<path fill="#bbfeff" stroke="black" d="M372.5,-318.9C372.5,-318.9 330.5,-318.9 330.5,-318.9 327.5,-318.9 324.5,-315.9 324.5,-312.9 324.5,-312.9 324.5,-306.9 324.5,-306.9 324.5,-303.9 327.5,-300.9 330.5,-300.9 330.5,-300.9 372.5,-300.9 372.5,-300.9 375.5,-300.9 378.5,-303.9 378.5,-306.9 378.5,-306.9 378.5,-312.9 378.5,-312.9 378.5,-315.9 375.5,-318.9 372.5,-318.9"/>
<text text-anchor="middle" x="351.5" y="-307.7" font-family="Helvetica,sans-Serif" font-size="9.00">index.tsx</text>
</a>
</g>
</g>
<!-- src/shared/App.tsx&#45;&gt;src/shared/components/sections/Header/index.tsx -->
<g id="edge27" class="edge">
<title>src/shared/App.tsx&#45;&gt;src/shared/components/sections/Header/index.tsx</title>
<path fill="none" stroke="#000000" stroke-width="2" stroke-opacity="0.200000" d="M250.42,-862.68C250.01,-800.61 249.94,-443.39 300.5,-349.9 306.71,-338.41 317.76,-329.04 327.89,-322.26"/>
<polygon fill="#000000" fill-opacity="0.200000" stroke="#000000" stroke-width="2" stroke-opacity="0.200000" points="329.14,-323.96 333.08,-318.96 326.89,-320.41 329.14,-323.96"/>
</g>
<!-- src/shared/lib/i18n/withLocale.tsx -->
<g id="node23" class="node">
<title>src/shared/lib/i18n/withLocale.tsx</title>
<g id="a_node23"><a xlink:href="src/shared/lib/i18n/withLocale.tsx" xlink:title="withLocale.tsx">
<path fill="#bbfeff" stroke="black" d="M497,-1220.9C497,-1220.9 435,-1220.9 435,-1220.9 432,-1220.9 429,-1217.9 429,-1214.9 429,-1214.9 429,-1208.9 429,-1208.9 429,-1205.9 432,-1202.9 435,-1202.9 435,-1202.9 497,-1202.9 497,-1202.9 500,-1202.9 503,-1205.9 503,-1208.9 503,-1208.9 503,-1214.9 503,-1214.9 503,-1217.9 500,-1220.9 497,-1220.9"/>
<text text-anchor="middle" x="466" y="-1209.7" font-family="Helvetica,sans-Serif" font-size="9.00">withLocale.tsx</text>
</a>
</g>
</g>
<!-- src/shared/App.tsx&#45;&gt;src/shared/lib/i18n/withLocale.tsx -->
<g id="edge28" class="edge">
<title>src/shared/App.tsx&#45;&gt;src/shared/lib/i18n/withLocale.tsx</title>
<path fill="none" stroke="#000000" stroke-width="2" stroke-opacity="0.200000" d="M253.39,-881.15C259.25,-898.24 274.26,-934.57 300.5,-951.9 334.1,-974.09 362.59,-936.41 390,-965.9 425.07,-1003.63 375.99,-1157.36 409,-1196.9 412.69,-1201.33 417.54,-1204.52 422.84,-1206.82"/>
<polygon fill="#000000" fill-opacity="0.200000" stroke="#000000" stroke-width="2" stroke-opacity="0.200000" points="422.37,-1208.88 428.72,-1208.97 423.81,-1204.94 422.37,-1208.88"/>
</g>
<!-- src/shared/lib/i18n/config.ts -->
<g id="node10" class="node">
<title>src/shared/lib/i18n/config.ts</title>
<g id="a_node10"><a xlink:href="src/shared/lib/i18n/config.ts" xlink:title="config.ts">
<path fill="#ddfeff" stroke="black" d="M596,-1190.9C596,-1190.9 554,-1190.9 554,-1190.9 551,-1190.9 548,-1187.9 548,-1184.9 548,-1184.9 548,-1178.9 548,-1178.9 548,-1175.9 551,-1172.9 554,-1172.9 554,-1172.9 596,-1172.9 596,-1172.9 599,-1172.9 602,-1175.9 602,-1178.9 602,-1178.9 602,-1184.9 602,-1184.9 602,-1187.9 599,-1190.9 596,-1190.9"/>
<text text-anchor="middle" x="575" y="-1179.7" font-family="Helvetica,sans-Serif" font-size="9.00">config.ts</text>
</a>
</g>
</g>
<!-- src/shared/lib/i18n/index.tsx&#45;&gt;src/shared/lib/i18n/config.ts -->
<g id="edge47" class="edge">
<title>src/shared/lib/i18n/index.tsx&#45;&gt;src/shared/lib/i18n/config.ts</title>
<path fill="none" stroke="#000000" stroke-width="2" stroke-opacity="0.200000" d="M493.18,-1181.9C507.81,-1181.9 526.18,-1181.9 541.71,-1181.9"/>
<polygon fill="#000000" fill-opacity="0.200000" stroke="#000000" stroke-width="2" stroke-opacity="0.200000" points="541.72,-1184 547.72,-1181.9 541.72,-1179.8 541.72,-1184"/>
</g>
<!-- src/shared/lib/store/rootReducer.ts -->
<g id="node41" class="node">
<title>src/shared/lib/store/rootReducer.ts</title>
<g id="a_node41"><a xlink:href="src/shared/lib/store/rootReducer.ts" xlink:title="rootReducer.ts">
<path fill="#ddfeff" stroke="black" d="M384,-1074.9C384,-1074.9 319,-1074.9 319,-1074.9 316,-1074.9 313,-1071.9 313,-1068.9 313,-1068.9 313,-1062.9 313,-1062.9 313,-1059.9 316,-1056.9 319,-1056.9 319,-1056.9 384,-1056.9 384,-1056.9 387,-1056.9 390,-1059.9 390,-1062.9 390,-1062.9 390,-1068.9 390,-1068.9 390,-1071.9 387,-1074.9 384,-1074.9"/>
<text text-anchor="middle" x="351.5" y="-1063.7" font-family="Helvetica,sans-Serif" font-size="9.00">rootReducer.ts</text>
</a>
</g>
</g>
<!-- src/shared/lib/store/index.ts&#45;&gt;src/shared/lib/store/rootReducer.ts -->
<g id="edge57" class="edge">
<title>src/shared/lib/store/index.ts&#45;&gt;src/shared/lib/store/rootReducer.ts</title>
<path fill="none" stroke="#000000" stroke-width="2" stroke-opacity="0.200000" d="M276.51,-1065.9C285.8,-1065.9 296.54,-1065.9 306.9,-1065.9"/>
<polygon fill="#000000" fill-opacity="0.200000" stroke="#000000" stroke-width="2" stroke-opacity="0.200000" points="306.94,-1068 312.94,-1065.9 306.94,-1063.8 306.94,-1068"/>
</g>
<!-- src/global.d.ts -->
<g id="node8" class="node">
<title>src/global.d.ts</title>
<g id="a_node8"><a xlink:href="src/global.d.ts" xlink:title="global.d.ts">
<path fill="#ccffcc" stroke="black" d="M74.5,-680.9C74.5,-680.9 27.5,-680.9 27.5,-680.9 24.5,-680.9 21.5,-677.9 21.5,-674.9 21.5,-674.9 21.5,-668.9 21.5,-668.9 21.5,-665.9 24.5,-662.9 27.5,-662.9 27.5,-662.9 74.5,-662.9 74.5,-662.9 77.5,-662.9 80.5,-665.9 80.5,-668.9 80.5,-668.9 80.5,-674.9 80.5,-674.9 80.5,-677.9 77.5,-680.9 74.5,-680.9"/>
<text text-anchor="middle" x="51" y="-669.7" font-family="Helvetica,sans-Serif" font-size="9.00">global.d.ts</text>
</a>
</g>
</g>
<!-- src/server/components/html.tsx -->
<g id="node9" class="node">
<title>src/server/components/html.tsx</title>
<g id="a_node9"><a xlink:href="src/server/components/html.tsx" xlink:title="html.tsx">
<path fill="#bbfeff" stroke="black" d="M270.5,-1340.9C270.5,-1340.9 228.5,-1340.9 228.5,-1340.9 225.5,-1340.9 222.5,-1337.9 222.5,-1334.9 222.5,-1334.9 222.5,-1328.9 222.5,-1328.9 222.5,-1325.9 225.5,-1322.9 228.5,-1322.9 228.5,-1322.9 270.5,-1322.9 270.5,-1322.9 273.5,-1322.9 276.5,-1325.9 276.5,-1328.9 276.5,-1328.9 276.5,-1334.9 276.5,-1334.9 276.5,-1337.9 273.5,-1340.9 270.5,-1340.9"/>
<text text-anchor="middle" x="249.5" y="-1329.7" font-family="Helvetica,sans-Serif" font-size="9.00">html.tsx</text>
</a>
</g>
</g>
<!-- src/server/components/html.tsx&#45;&gt;src/shared/lib/i18n/config.ts -->
<g id="edge6" class="edge">
<title>src/server/components/html.tsx&#45;&gt;src/shared/lib/i18n/config.ts</title>
<path fill="none" stroke="#000000" stroke-width="2" stroke-opacity="0.200000" d="M259.24,-1322.6C268.61,-1313.13 284.34,-1298.63 300.5,-1289.9 386.04,-1243.68 422.55,-1269.41 510,-1226.9 527.74,-1218.28 545.96,-1204.95 558.39,-1195.04"/>
<polygon fill="#000000" fill-opacity="0.200000" stroke="#000000" stroke-width="2" stroke-opacity="0.200000" points="560.01,-1196.43 563.35,-1191.02 557.37,-1193.17 560.01,-1196.43"/>
</g>
<!-- src/shared/lib/store/app/types.ts -->
<g id="node11" class="node">
<title>src/shared/lib/store/app/types.ts</title>
<g id="a_node11"><a xlink:href="src/shared/lib/store/app/types.ts" xlink:title="types.ts">
<path fill="#ddfeff" stroke="black" d="M668,-1089.9C668,-1089.9 626,-1089.9 626,-1089.9 623,-1089.9 620,-1086.9 620,-1083.9 620,-1083.9 620,-1077.9 620,-1077.9 620,-1074.9 623,-1071.9 626,-1071.9 626,-1071.9 668,-1071.9 668,-1071.9 671,-1071.9 674,-1074.9 674,-1077.9 674,-1077.9 674,-1083.9 674,-1083.9 674,-1086.9 671,-1089.9 668,-1089.9"/>
<text text-anchor="middle" x="647" y="-1078.7" font-family="Helvetica,sans-Serif" font-size="9.00">types.ts</text>
</a>
</g>
</g>
<!-- src/server/components/html.tsx&#45;&gt;src/shared/lib/store/app/types.ts -->
<g id="edge7" class="edge">
<title>src/server/components/html.tsx&#45;&gt;src/shared/lib/store/app/types.ts</title>
<path fill="none" stroke="#000000" stroke-width="2" stroke-opacity="0.200000" d="M276.65,-1334.56C342.76,-1339.72 517.87,-1343.36 610,-1249.9 631.41,-1228.18 641.52,-1134.34 644.77,-1096.65"/>
<polygon fill="#000000" fill-opacity="0.200000" stroke="#000000" stroke-width="2" stroke-opacity="0.200000" points="646.9,-1096.45 645.3,-1090.3 642.71,-1096.1 646.9,-1096.45"/>
</g>
<!-- src/shared/lib/i18n/config.ts&#45;&gt;src/shared/lib/store/app/types.ts -->
<g id="edge46" class="edge">
<title>src/shared/lib/i18n/config.ts&#45;&gt;src/shared/lib/store/app/types.ts</title>
<path fill="none" stroke="#000000" stroke-width="2" stroke-opacity="0.200000" d="M582.57,-1172.74C589.46,-1163.1 600.57,-1147.49 610,-1133.9 619.07,-1120.83 629.25,-1105.81 636.46,-1095.11"/>
<polygon fill="#000000" fill-opacity="0.200000" stroke="#000000" stroke-width="2" stroke-opacity="0.200000" points="638.33,-1096.09 639.94,-1089.94 634.85,-1093.74 638.33,-1096.09"/>
</g>
<!-- src/server/index.ts -->
<g id="node12" class="node">
<title>src/server/index.ts</title>
<g id="a_node12"><a xlink:href="src/server/index.ts" xlink:title="index.ts">
<path fill="#ddfeff" stroke="black" d="M72,-1400.9C72,-1400.9 30,-1400.9 30,-1400.9 27,-1400.9 24,-1397.9 24,-1394.9 24,-1394.9 24,-1388.9 24,-1388.9 24,-1385.9 27,-1382.9 30,-1382.9 30,-1382.9 72,-1382.9 72,-1382.9 75,-1382.9 78,-1385.9 78,-1388.9 78,-1388.9 78,-1394.9 78,-1394.9 78,-1397.9 75,-1400.9 72,-1400.9"/>
<text text-anchor="middle" x="51" y="-1389.7" font-family="Helvetica,sans-Serif" font-size="9.00">index.ts</text>
</a>
</g>
</g>
<!-- src/server/index.ts&#45;&gt;config/paths.ts -->
<g id="edge8" class="edge">
<title>src/server/index.ts&#45;&gt;config/paths.ts</title>
<path fill="none" stroke="#000000" stroke-width="2" stroke-opacity="0.200000" d="M56.35,-1400.92C62.83,-1414.16 75.66,-1439.49 88.5,-1459.9 102.08,-1481.48 119.83,-1505.05 131.2,-1519.66"/>
<polygon fill="#000000" fill-opacity="0.200000" stroke="#000000" stroke-width="2" stroke-opacity="0.200000" points="129.73,-1521.19 135.08,-1524.61 133.03,-1518.6 129.73,-1521.19"/>
</g>
<!-- src/server/index.ts&#45;&gt;path -->
<g id="edge14" class="edge">
<title>src/server/index.ts&#45;&gt;path</title>
<path fill="none" stroke="#000000" stroke-dasharray="5,2" stroke-opacity="0.200000" d="M52.4,-1401.17C54.04,-1434.84 61.59,-1549.9 88.5,-1571.9 127.52,-1603.8 191.09,-1582.75 225.17,-1567.56"/>
<polygon fill="#000000" fill-opacity="0.200000" stroke="#000000" stroke-opacity="0.200000" points="226.19,-1569.4 230.78,-1565 224.45,-1565.58 226.19,-1569.4"/>
</g>
<!-- src/server/index.ts&#45;&gt;src/shared/lib/i18n/index.tsx -->
<g id="edge9" class="edge">
<title>src/server/index.ts&#45;&gt;src/shared/lib/i18n/index.tsx</title>
<path fill="none" stroke="#000000" stroke-width="2" stroke-opacity="0.200000" d="M77.1,-1382.81C78.4,-1381.66 79.55,-1380.36 80.5,-1378.9 90.51,-1363.43 75.43,-64.89 88.5,-51.9 185.66,44.67 311.65,-3.54 390,-115.9 422.35,-162.3 384.89,-1082.73 409,-1133.9 416.12,-1149 430.51,-1161.17 442.92,-1169.48"/>
<polygon fill="#000000" fill-opacity="0.200000" stroke="#000000" stroke-width="2" stroke-opacity="0.200000" points="441.91,-1171.32 448.09,-1172.8 444.18,-1167.79 441.91,-1171.32"/>
</g>
<!-- src/server/middlewares/addStore.tsx -->
<g id="node13" class="node">
<title>src/server/middlewares/addStore.tsx</title>
<g id="a_node13"><a xlink:href="src/server/middlewares/addStore.tsx" xlink:title="addStore.tsx">
<path fill="#bbfeff" stroke="black" d="M171.5,-1370.9C171.5,-1370.9 115.5,-1370.9 115.5,-1370.9 112.5,-1370.9 109.5,-1367.9 109.5,-1364.9 109.5,-1364.9 109.5,-1358.9 109.5,-1358.9 109.5,-1355.9 112.5,-1352.9 115.5,-1352.9 115.5,-1352.9 171.5,-1352.9 171.5,-1352.9 174.5,-1352.9 177.5,-1355.9 177.5,-1358.9 177.5,-1358.9 177.5,-1364.9 177.5,-1364.9 177.5,-1367.9 174.5,-1370.9 171.5,-1370.9"/>
<text text-anchor="middle" x="143.5" y="-1359.7" font-family="Helvetica,sans-Serif" font-size="9.00">addStore.tsx</text>
</a>
</g>
</g>
<!-- src/server/index.ts&#45;&gt;src/server/middlewares/addStore.tsx -->
<g id="edge10" class="edge">
<title>src/server/index.ts&#45;&gt;src/server/middlewares/addStore.tsx</title>
<path fill="none" stroke="#000000" stroke-width="2" stroke-opacity="0.200000" d="M73.07,-1382.74C78.08,-1380.7 83.45,-1378.63 88.5,-1376.9 93.33,-1375.24 98.45,-1373.64 103.53,-1372.13"/>
<polygon fill="#000000" fill-opacity="0.200000" stroke="#000000" stroke-width="2" stroke-opacity="0.200000" points="104.29,-1374.09 109.47,-1370.4 103.12,-1370.06 104.29,-1374.09"/>
</g>
<!-- src/server/middlewares/handleErrors.ts -->
<g id="node14" class="node">
<title>src/server/middlewares/handleErrors.ts</title>
<g id="a_node14"><a xlink:href="src/server/middlewares/handleErrors.ts" xlink:title="handleErrors.ts">
<path fill="#ddfeff" stroke="black" d="M177,-1430.9C177,-1430.9 110,-1430.9 110,-1430.9 107,-1430.9 104,-1427.9 104,-1424.9 104,-1424.9 104,-1418.9 104,-1418.9 104,-1415.9 107,-1412.9 110,-1412.9 110,-1412.9 177,-1412.9 177,-1412.9 180,-1412.9 183,-1415.9 183,-1418.9 183,-1418.9 183,-1424.9 183,-1424.9 183,-1427.9 180,-1430.9 177,-1430.9"/>
<text text-anchor="middle" x="143.5" y="-1419.7" font-family="Helvetica,sans-Serif" font-size="9.00">handleErrors.ts</text>
</a>
</g>
</g>
<!-- src/server/index.ts&#45;&gt;src/server/middlewares/handleErrors.ts -->
<g id="edge11" class="edge">
<title>src/server/index.ts&#45;&gt;src/server/middlewares/handleErrors.ts</title>
<path fill="none" stroke="#000000" stroke-width="2" stroke-opacity="0.200000" d="M73.07,-1401.06C78.08,-1403.1 83.45,-1405.17 88.5,-1406.9 92.68,-1408.33 97.07,-1409.73 101.47,-1411.06"/>
<polygon fill="#000000" fill-opacity="0.200000" stroke="#000000" stroke-width="2" stroke-opacity="0.200000" points="101.11,-1413.14 107.46,-1412.82 102.29,-1409.11 101.11,-1413.14"/>
</g>
<!-- src/server/middlewares/i18n.ts -->
<g id="node15" class="node">
<title>src/server/middlewares/i18n.ts</title>
<g id="a_node15"><a xlink:href="src/server/middlewares/i18n.ts" xlink:title="i18n.ts">
<path fill="#ddfeff" stroke="black" d="M164.5,-1400.9C164.5,-1400.9 122.5,-1400.9 122.5,-1400.9 119.5,-1400.9 116.5,-1397.9 116.5,-1394.9 116.5,-1394.9 116.5,-1388.9 116.5,-1388.9 116.5,-1385.9 119.5,-1382.9 122.5,-1382.9 122.5,-1382.9 164.5,-1382.9 164.5,-1382.9 167.5,-1382.9 170.5,-1385.9 170.5,-1388.9 170.5,-1388.9 170.5,-1394.9 170.5,-1394.9 170.5,-1397.9 167.5,-1400.9 164.5,-1400.9"/>
<text text-anchor="middle" x="143.5" y="-1389.7" font-family="Helvetica,sans-Serif" font-size="9.00">i18n.ts</text>
</a>
</g>
</g>
<!-- src/server/index.ts&#45;&gt;src/server/middlewares/i18n.ts -->
<g id="edge12" class="edge">
<title>src/server/index.ts&#45;&gt;src/server/middlewares/i18n.ts</title>
<path fill="none" stroke="#000000" stroke-width="2" stroke-opacity="0.200000" d="M78.18,-1391.9C88.21,-1391.9 99.78,-1391.9 110.32,-1391.9"/>
<polygon fill="#000000" fill-opacity="0.200000" stroke="#000000" stroke-width="2" stroke-opacity="0.200000" points="110.38,-1394 116.38,-1391.9 110.38,-1389.8 110.38,-1394"/>
</g>
<!-- src/server/middlewares/renderFullPage.tsx -->
<g id="node16" class="node">
<title>src/server/middlewares/renderFullPage.tsx</title>
<g id="a_node16"><a xlink:href="src/server/middlewares/renderFullPage.tsx" xlink:title="renderFullPage.tsx">
<path fill="#bbfeff" stroke="black" d="M184.5,-1340.9C184.5,-1340.9 102.5,-1340.9 102.5,-1340.9 99.5,-1340.9 96.5,-1337.9 96.5,-1334.9 96.5,-1334.9 96.5,-1328.9 96.5,-1328.9 96.5,-1325.9 99.5,-1322.9 102.5,-1322.9 102.5,-1322.9 184.5,-1322.9 184.5,-1322.9 187.5,-1322.9 190.5,-1325.9 190.5,-1328.9 190.5,-1328.9 190.5,-1334.9 190.5,-1334.9 190.5,-1337.9 187.5,-1340.9 184.5,-1340.9"/>
<text text-anchor="middle" x="143.5" y="-1329.7" font-family="Helvetica,sans-Serif" font-size="9.00">renderFullPage.tsx</text>
</a>
</g>
</g>
<!-- src/server/index.ts&#45;&gt;src/server/middlewares/renderFullPage.tsx -->
<g id="edge13" class="edge">
<title>src/server/index.ts&#45;&gt;src/server/middlewares/renderFullPage.tsx</title>
<path fill="none" stroke="#000000" stroke-width="2" stroke-opacity="0.200000" d="M76.46,-1382.73C77.95,-1381.6 79.32,-1380.32 80.5,-1378.9 89.88,-1367.63 78.27,-1357.4 88.5,-1346.9 89.37,-1346.01 90.28,-1345.17 91.23,-1344.39"/>
<polygon fill="#000000" fill-opacity="0.200000" stroke="#000000" stroke-width="2" stroke-opacity="0.200000" points="92.6,-1345.99 96.31,-1340.83 90.19,-1342.55 92.6,-1345.99"/>
</g>
<!-- src/server/middlewares/addStore.tsx&#45;&gt;src/shared/lib/store/index.ts -->
<g id="edge15" class="edge">
<title>src/server/middlewares/addStore.tsx&#45;&gt;src/shared/lib/store/index.ts</title>
<path fill="none" stroke="#000000" stroke-width="2" stroke-opacity="0.200000" d="M177.71,-1358.79C185.48,-1356.55 193.07,-1352.88 198.5,-1346.9 203.07,-1341.87 236.57,-1138.81 246.02,-1081.07"/>
<polygon fill="#000000" fill-opacity="0.200000" stroke="#000000" stroke-width="2" stroke-opacity="0.200000" points="248.11,-1081.32 247.01,-1075.06 243.97,-1080.64 248.11,-1081.32"/>
</g>
<!-- src/server/middlewares/handleErrors.ts&#45;&gt;path -->
<g id="edge16" class="edge">
<title>src/server/middlewares/handleErrors.ts&#45;&gt;path</title>
<path fill="none" stroke="#000000" stroke-dasharray="5,2" stroke-opacity="0.200000" d="M150.8,-1430.91C161.77,-1446.95 184.57,-1481.79 198.5,-1513.9 203.48,-1525.38 197.9,-1531.81 206.5,-1540.9 209.36,-1543.92 212.87,-1546.34 216.63,-1548.27"/>
<polygon fill="#000000" fill-opacity="0.200000" stroke="#000000" stroke-opacity="0.200000" points="215.94,-1550.26 222.28,-1550.76 217.64,-1546.41 215.94,-1550.26"/>
</g>
<!-- src/server/middlewares/i18n.ts&#45;&gt;fs -->
<g id="edge17" class="edge">
<title>src/server/middlewares/i18n.ts&#45;&gt;fs</title>
<path fill="none" stroke="#000000" stroke-dasharray="5,2" stroke-opacity="0.200000" d="M170.7,-1394.35C180.37,-1396.41 190.83,-1400.15 198.5,-1406.9 229.84,-1434.5 242.05,-1484.97 246.37,-1510.4"/>
<polygon fill="#000000" fill-opacity="0.200000" stroke="#000000" stroke-opacity="0.200000" points="244.34,-1510.98 247.35,-1516.58 248.48,-1510.32 244.34,-1510.98"/>
</g>
<!-- src/server/middlewares/i18n.ts&#45;&gt;path -->
<g id="edge18" class="edge">
<title>src/server/middlewares/i18n.ts&#45;&gt;path</title>
<path fill="none" stroke="#000000" stroke-dasharray="5,2" stroke-opacity="0.200000" d="M170.59,-1392.85C180.86,-1394.64 191.77,-1398.58 198.5,-1406.9 217.25,-1430.1 188.6,-1517.04 206.5,-1540.9 209.18,-1544.48 212.79,-1547.2 216.78,-1549.28"/>
<polygon fill="#000000" fill-opacity="0.200000" stroke="#000000" stroke-opacity="0.200000" points="216.05,-1551.25 222.38,-1551.73 217.73,-1547.4 216.05,-1551.25"/>
</g>
<!-- src/server/middlewares/renderFullPage.tsx&#45;&gt;src/shared/App.tsx -->
<g id="edge19" class="edge">
<title>src/server/middlewares/renderFullPage.tsx&#45;&gt;src/shared/App.tsx</title>
<path fill="none" stroke="#000000" stroke-width="2" stroke-opacity="0.200000" d="M172.88,-1322.81C182.71,-1318.17 192.71,-1311.43 198.5,-1301.9 206.53,-1288.7 204.2,-1039.18 206.5,-1023.9 214.22,-972.52 233.58,-913.78 243.07,-886.83"/>
<polygon fill="#000000" fill-opacity="0.200000" stroke="#000000" stroke-width="2" stroke-opacity="0.200000" points="245.12,-887.34 245.16,-880.99 241.17,-885.93 245.12,-887.34"/>
</g>
<!-- src/server/middlewares/renderFullPage.tsx&#45;&gt;src/server/components/html.tsx -->
<g id="edge20" class="edge">
<title>src/server/middlewares/renderFullPage.tsx&#45;&gt;src/server/components/html.tsx</title>
<path fill="none" stroke="#000000" stroke-width="2" stroke-opacity="0.200000" d="M190.72,-1331.9C199.37,-1331.9 208.23,-1331.9 216.33,-1331.9"/>
<polygon fill="#000000" fill-opacity="0.200000" stroke="#000000" stroke-width="2" stroke-opacity="0.200000" points="216.37,-1334 222.37,-1331.9 216.37,-1329.8 216.37,-1334"/>
</g>
<!-- src/shared/App.test.tsx -->
<g id="node18" class="node">
<title>src/shared/App.test.tsx</title>
<g id="a_node18"><a xlink:href="src/shared/App.test.tsx" xlink:title="App.test.tsx">
<path fill="#bbfeff" stroke="black" d="M169,-891.9C169,-891.9 118,-891.9 118,-891.9 115,-891.9 112,-888.9 112,-885.9 112,-885.9 112,-879.9 112,-879.9 112,-876.9 115,-873.9 118,-873.9 118,-873.9 169,-873.9 169,-873.9 172,-873.9 175,-876.9 175,-879.9 175,-879.9 175,-885.9 175,-885.9 175,-888.9 172,-891.9 169,-891.9"/>
<text text-anchor="middle" x="143.5" y="-880.7" font-family="Helvetica,sans-Serif" font-size="9.00">App.test.tsx</text>
</a>
</g>
</g>
<!-- src/shared/App.test.tsx&#45;&gt;src/shared/App.tsx -->
<g id="edge21" class="edge">
<title>src/shared/App.test.tsx&#45;&gt;src/shared/App.tsx</title>
<path fill="none" stroke="#000000" stroke-width="2" stroke-opacity="0.200000" d="M175.14,-879.66C188.01,-878.3 203,-876.71 216.06,-875.33"/>
<polygon fill="#000000" fill-opacity="0.200000" stroke="#000000" stroke-width="2" stroke-opacity="0.200000" points="216.55,-877.39 222.3,-874.67 216.11,-873.21 216.55,-877.39"/>
</g>
<!-- src/shared/App.test.tsx&#45;&gt;src/shared/lib/store/app/types.ts -->
<g id="edge22" class="edge">
<title>src/shared/App.test.tsx&#45;&gt;src/shared/lib/store/app/types.ts</title>
<path fill="none" stroke="#000000" stroke-width="2" stroke-opacity="0.200000" d="M175.19,-885.56C215.41,-888.82 288.18,-893.9 350.5,-893.9 350.5,-893.9 350.5,-893.9 467,-893.9 486.3,-893.9 493.38,-890.1 510,-899.9 578.82,-940.46 624.09,-1030.7 639.82,-1066.17"/>
<polygon fill="#000000" fill-opacity="0.200000" stroke="#000000" stroke-width="2" stroke-opacity="0.200000" points="637.93,-1067.1 642.25,-1071.76 641.78,-1065.42 637.93,-1067.1"/>
</g>
<!-- src/shared/pages/404/index.tsx -->
<g id="node29" class="node">
<title>src/shared/pages/404/index.tsx</title>
<g id="a_node29"><a xlink:href="src/shared/pages/404/index.tsx" xlink:title="index.tsx">
<path fill="#bbfeff" stroke="black" d="M487,-832.9C487,-832.9 445,-832.9 445,-832.9 442,-832.9 439,-829.9 439,-826.9 439,-826.9 439,-820.9 439,-820.9 439,-817.9 442,-814.9 445,-814.9 445,-814.9 487,-814.9 487,-814.9 490,-814.9 493,-817.9 493,-820.9 493,-820.9 493,-826.9 493,-826.9 493,-829.9 490,-832.9 487,-832.9"/>
<text text-anchor="middle" x="466" y="-821.7" font-family="Helvetica,sans-Serif" font-size="9.00">index.tsx</text>
</a>
</g>
</g>
<!-- src/shared/components/sections/Content/index.tsx&#45;&gt;src/shared/pages/404/index.tsx -->
<g id="edge34" class="edge">
<title>src/shared/components/sections/Content/index.tsx&#45;&gt;src/shared/pages/404/index.tsx</title>
<path fill="none" stroke="#000000" stroke-width="2" stroke-opacity="0.200000" d="M378.55,-374.39C383,-376.31 387.11,-379.04 390,-382.9 445.75,-457.59 354.78,-726.09 409,-801.9 414.74,-809.92 423.86,-815.02 433.09,-818.26"/>
<polygon fill="#000000" fill-opacity="0.200000" stroke="#000000" stroke-width="2" stroke-opacity="0.200000" points="432.47,-820.26 438.82,-820.04 433.72,-816.25 432.47,-820.26"/>
</g>
<!-- src/shared/pages/home/index.tsx -->
<g id="node30" class="node">
<title>src/shared/pages/home/index.tsx</title>
<g id="a_node30"><a xlink:href="src/shared/pages/home/index.tsx" xlink:title="index.tsx">
<path fill="#bbfeff" stroke="black" d="M487,-772.9C487,-772.9 445,-772.9 445,-772.9 442,-772.9 439,-769.9 439,-766.9 439,-766.9 439,-760.9 439,-760.9 439,-757.9 442,-754.9 445,-754.9 445,-754.9 487,-754.9 487,-754.9 490,-754.9 493,-757.9 493,-760.9 493,-760.9 493,-766.9 493,-766.9 493,-769.9 490,-772.9 487,-772.9"/>
<text text-anchor="middle" x="466" y="-761.7" font-family="Helvetica,sans-Serif" font-size="9.00">index.tsx</text>
</a>
</g>
</g>
<!-- src/shared/components/sections/Content/index.tsx&#45;&gt;src/shared/pages/home/index.tsx -->
<g id="edge35" class="edge">
<title>src/shared/components/sections/Content/index.tsx&#45;&gt;src/shared/pages/home/index.tsx</title>
<path fill="none" stroke="#000000" stroke-width="2" stroke-opacity="0.200000" d="M378.53,-374.41C382.98,-376.33 387.1,-379.05 390,-382.9 438.03,-446.74 362.28,-677.1 409,-741.9 414.77,-749.9 423.9,-754.99 433.12,-758.23"/>
<polygon fill="#000000" fill-opacity="0.200000" stroke="#000000" stroke-width="2" stroke-opacity="0.200000" points="432.5,-760.24 438.85,-760.02 433.75,-756.23 432.5,-760.24"/>
</g>
<!-- src/shared/pages/page&#45;1/index.tsx -->
<g id="node31" class="node">
<title>src/shared/pages/page&#45;1/index.tsx</title>
<g id="a_node31"><a xlink:href="src/shared/pages/page-1/index.tsx" xlink:title="index.tsx">
<path fill="#bbfeff" stroke="black" d="M487,-712.9C487,-712.9 445,-712.9 445,-712.9 442,-712.9 439,-709.9 439,-706.9 439,-706.9 439,-700.9 439,-700.9 439,-697.9 442,-694.9 445,-694.9 445,-694.9 487,-694.9 487,-694.9 490,-694.9 493,-697.9 493,-700.9 493,-700.9 493,-706.9 493,-706.9 493,-709.9 490,-712.9 487,-712.9"/>
<text text-anchor="middle" x="466" y="-701.7" font-family="Helvetica,sans-Serif" font-size="9.00">index.tsx</text>
</a>
</g>
</g>
<!-- src/shared/components/sections/Content/index.tsx&#45;&gt;src/shared/pages/page&#45;1/index.tsx -->
<g id="edge36" class="edge">
<title>src/shared/components/sections/Content/index.tsx&#45;&gt;src/shared/pages/page&#45;1/index.tsx</title>
<path fill="none" stroke="#000000" stroke-width="2" stroke-opacity="0.200000" d="M378.88,-374.6C383.19,-376.51 387.16,-379.17 390,-382.9 430.31,-435.89 369.78,-628.1 409,-681.9 414.75,-689.79 423.78,-694.86 432.91,-698.1"/>
<polygon fill="#000000" fill-opacity="0.200000" stroke="#000000" stroke-width="2" stroke-opacity="0.200000" points="432.55,-700.19 438.9,-699.98 433.81,-696.18 432.55,-700.19"/>
</g>
<!-- src/shared/pages/page&#45;2/index.tsx -->
<g id="node32" class="node">
<title>src/shared/pages/page&#45;2/index.tsx</title>
<g id="a_node32"><a xlink:href="src/shared/pages/page-2/index.tsx" xlink:title="index.tsx">
<path fill="#bbfeff" stroke="black" d="M487,-652.9C487,-652.9 445,-652.9 445,-652.9 442,-652.9 439,-649.9 439,-646.9 439,-646.9 439,-640.9 439,-640.9 439,-637.9 442,-634.9 445,-634.9 445,-634.9 487,-634.9 487,-634.9 490,-634.9 493,-637.9 493,-640.9 493,-640.9 493,-646.9 493,-646.9 493,-649.9 490,-652.9 487,-652.9"/>
<text text-anchor="middle" x="466" y="-641.7" font-family="Helvetica,sans-Serif" font-size="9.00">index.tsx</text>
</a>
</g>
</g>
<!-- src/shared/components/sections/Content/index.tsx&#45;&gt;src/shared/pages/page&#45;2/index.tsx -->
<g id="edge37" class="edge">
<title>src/shared/components/sections/Content/index.tsx&#45;&gt;src/shared/pages/page&#45;2/index.tsx</title>
<path fill="none" stroke="#000000" stroke-width="2" stroke-opacity="0.200000" d="M378.83,-374.64C383.14,-376.54 387.13,-379.19 390,-382.9 422.59,-425.05 377.27,-579.1 409,-621.9 414.82,-629.75 423.86,-634.8 432.99,-638.05"/>
<polygon fill="#000000" fill-opacity="0.200000" stroke="#000000" stroke-width="2" stroke-opacity="0.200000" points="432.62,-640.13 438.97,-639.93 433.88,-636.13 432.62,-640.13"/>
</g>
<!-- src/shared/pages/page&#45;3/index.tsx -->
<g id="node33" class="node">
<title>src/shared/pages/page&#45;3/index.tsx</title>
<g id="a_node33"><a xlink:href="src/shared/pages/page-3/index.tsx" xlink:title="index.tsx">
<path fill="#bbfeff" stroke="black" d="M487,-592.9C487,-592.9 445,-592.9 445,-592.9 442,-592.9 439,-589.9 439,-586.9 439,-586.9 439,-580.9 439,-580.9 439,-577.9 442,-574.9 445,-574.9 445,-574.9 487,-574.9 487,-574.9 490,-574.9 493,-577.9 493,-580.9 493,-580.9 493,-586.9 493,-586.9 493,-589.9 490,-592.9 487,-592.9"/>
<text text-anchor="middle" x="466" y="-581.7" font-family="Helvetica,sans-Serif" font-size="9.00">index.tsx</text>
</a>
</g>
</g>
<!-- src/shared/components/sections/Content/index.tsx&#45;&gt;src/shared/pages/page&#45;3/index.tsx -->
<g id="edge38" class="edge">
<title>src/shared/components/sections/Content/index.tsx&#45;&gt;src/shared/pages/page&#45;3/index.tsx</title>
<path fill="none" stroke="#000000" stroke-width="2" stroke-opacity="0.200000" d="M378.6,-374.83C382.93,-376.71 386.99,-379.31 390,-382.9 424.41,-423.94 389.2,-452.14 409,-501.9 419.42,-528.09 439.38,-554.28 452.44,-569.78"/>
<polygon fill="#000000" fill-opacity="0.200000" stroke="#000000" stroke-width="2" stroke-opacity="0.200000" points="451.08,-571.42 456.58,-574.61 454.27,-568.69 451.08,-571.42"/>
</g>
<!-- src/shared/routes.ts -->
<g id="node34" class="node">
<title>src/shared/routes.ts</title>
<g id="a_node34"><a xlink:href="src/shared/routes.ts" xlink:title="routes.ts">
<path fill="#ddfeff" stroke="black" d="M487,-1010.9C487,-1010.9 445,-1010.9 445,-1010.9 442,-1010.9 439,-1007.9 439,-1004.9 439,-1004.9 439,-998.9 439,-998.9 439,-995.9 442,-992.9 445,-992.9 445,-992.9 487,-992.9 487,-992.9 490,-992.9 493,-995.9 493,-998.9 493,-998.9 493,-1004.9 493,-1004.9 493,-1007.9 490,-1010.9 487,-1010.9"/>
<text text-anchor="middle" x="466" y="-999.7" font-family="Helvetica,sans-Serif" font-size="9.00">routes.ts</text>
</a>
</g>
</g>
<!-- src/shared/components/sections/Content/index.tsx&#45;&gt;src/shared/routes.ts -->
<g id="edge39" class="edge">
<title>src/shared/components/sections/Content/index.tsx&#45;&gt;src/shared/routes.ts</title>
<path fill="none" stroke="#000000" stroke-width="2" stroke-opacity="0.200000" d="M378.6,-374.36C383.04,-376.28 387.14,-379.02 390,-382.9 429.85,-437.08 366.78,-935.55 409,-987.9 414.83,-995.13 423.78,-998.96 432.83,-1000.91"/>
<polygon fill="#000000" fill-opacity="0.200000" stroke="#000000" stroke-width="2" stroke-opacity="0.200000" points="432.49,-1002.98 438.75,-1001.93 433.2,-998.84 432.49,-1002.98"/>
</g>
<!-- src/shared/components/sections/Content/style.scss -->
<g id="node35" class="node">
<title>src/shared/components/sections/Content/style.scss</title>
<g id="a_node35"><a xlink:href="src/shared/components/sections/Content/style.scss" xlink:title="style.scss">
<path fill="#ffffcc" stroke="black" d="M488,-378.9C488,-378.9 444,-378.9 444,-378.9 441,-378.9 438,-375.9 438,-372.9 438,-372.9 438,-366.9 438,-366.9 438,-363.9 441,-360.9 444,-360.9 444,-360.9 488,-360.9 488,-360.9 491,-360.9 494,-363.9 494,-366.9 494,-366.9 494,-372.9 494,-372.9 494,-375.9 491,-378.9 488,-378.9"/>
<text text-anchor="middle" x="466" y="-367.7" font-family="Helvetica,sans-Serif" font-size="9.00">style.scss</text>
</a>
</g>
</g>
<!-- src/shared/components/sections/Content/index.tsx&#45;&gt;src/shared/components/sections/Content/style.scss -->
<g id="edge40" class="edge">
<title>src/shared/components/sections/Content/index.tsx&#45;&gt;src/shared/components/sections/Content/style.scss</title>
<path fill="none" stroke="#000000" stroke-width="2" stroke-opacity="0.200000" d="M378.59,-369.9C394.43,-369.9 414.8,-369.9 431.79,-369.9"/>
<polygon fill="#000000" fill-opacity="0.200000" stroke="#000000" stroke-width="2" stroke-opacity="0.200000" points="431.87,-372 437.87,-369.9 431.87,-367.8 431.87,-372"/>
</g>
<!-- src/shared/components/sections/Footer/style.scss -->
<g id="node36" class="node">
<title>src/shared/components/sections/Footer/style.scss</title>
<g id="a_node36"><a xlink:href="src/shared/components/sections/Footer/style.scss" xlink:title="style.scss">
<path fill="#ffffcc" stroke="black" d="M488,-258.9C488,-258.9 444,-258.9 444,-258.9 441,-258.9 438,-255.9 438,-252.9 438,-252.9 438,-246.9 438,-246.9 438,-243.9 441,-240.9 444,-240.9 444,-240.9 488,-240.9 488,-240.9 491,-240.9 494,-243.9 494,-246.9 494,-246.9 494,-252.9 494,-252.9 494,-255.9 491,-258.9 488,-258.9"/>
<text text-anchor="middle" x="466" y="-247.7" font-family="Helvetica,sans-Serif" font-size="9.00">style.scss</text>
</a>
</g>
</g>
<!-- src/shared/components/sections/Footer/index.tsx&#45;&gt;src/shared/components/sections/Footer/style.scss -->
<g id="edge41" class="edge">
<title>src/shared/components/sections/Footer/index.tsx&#45;&gt;src/shared/components/sections/Footer/style.scss</title>
<path fill="none" stroke="#000000" stroke-width="2" stroke-opacity="0.200000" d="M378.59,-249.9C394.43,-249.9 414.8,-249.9 431.79,-249.9"/>
<polygon fill="#000000" fill-opacity="0.200000" stroke="#000000" stroke-width="2" stroke-opacity="0.200000" points="431.87,-252 437.87,-249.9 431.87,-247.8 431.87,-252"/>
</g>
<!-- src/shared/assets/react.svg -->
<g id="node24" class="node">
<title>src/shared/assets/react.svg</title>
<g id="a_node24"><a xlink:href="src/shared/assets/react.svg" xlink:title="react.svg">
<path fill="#ffffcc" stroke="black" d="M487,-928.9C487,-928.9 445,-928.9 445,-928.9 442,-928.9 439,-925.9 439,-922.9 439,-922.9 439,-916.9 439,-916.9 439,-913.9 442,-910.9 445,-910.9 445,-910.9 487,-910.9 487,-910.9 490,-910.9 493,-913.9 493,-916.9 493,-916.9 493,-922.9 493,-922.9 493,-925.9 490,-928.9 487,-928.9"/>
<text text-anchor="middle" x="466" y="-917.7" font-family="Helvetica,sans-Serif" font-size="9.00">react.svg</text>
</a>
</g>
</g>
<!-- src/shared/components/sections/Header/index.tsx&#45;&gt;src/shared/assets/react.svg -->
<g id="edge42" class="edge">
<title>src/shared/components/sections/Header/index.tsx&#45;&gt;src/shared/assets/react.svg</title>
<path fill="none" stroke="#000000" stroke-width="2" stroke-opacity="0.200000" d="M364.72,-318.91C373.52,-326.17 384.72,-337.25 390,-349.9 433.83,-454.98 364.4,-757.14 409,-861.9 416.84,-880.32 433.4,-896.26 446.49,-906.74"/>
<polygon fill="#000000" fill-opacity="0.200000" stroke="#000000" stroke-width="2" stroke-opacity="0.200000" points="445.46,-908.6 451.49,-910.62 448.03,-905.28 445.46,-908.6"/>
</g>
<!-- src/shared/components/organisms/LocaleSelect/index.tsx -->
<g id="node28" class="node">
<title>src/shared/components/organisms/LocaleSelect/index.tsx</title>
<g id="a_node28"><a xlink:href="src/shared/components/organisms/LocaleSelect/index.tsx" xlink:title="index.tsx">
<path fill="#bbfeff" stroke="black" d="M487,-472.9C487,-472.9 445,-472.9 445,-472.9 442,-472.9 439,-469.9 439,-466.9 439,-466.9 439,-460.9 439,-460.9 439,-457.9 442,-454.9 445,-454.9 445,-454.9 487,-454.9 487,-454.9 490,-454.9 493,-457.9 493,-460.9 493,-460.9 493,-466.9 493,-466.9 493,-469.9 490,-472.9 487,-472.9"/>
<text text-anchor="middle" x="466" y="-461.7" font-family="Helvetica,sans-Serif" font-size="9.00">index.tsx</text>
</a>
</g>
</g>
<!-- src/shared/components/sections/Header/index.tsx&#45;&gt;src/shared/components/organisms/LocaleSelect/index.tsx -->
<g id="edge44" class="edge">
<title>src/shared/components/sections/Header/index.tsx&#45;&gt;src/shared/components/organisms/LocaleSelect/index.tsx</title>
<path fill="none" stroke="#000000" stroke-width="2" stroke-opacity="0.200000" d="M363.4,-319.09C371.72,-326.61 382.92,-337.94 390,-349.9 403.83,-373.24 394.8,-384.79 409,-407.9 419.42,-424.86 435.97,-440.55 448.38,-450.98"/>
<polygon fill="#000000" fill-opacity="0.200000" stroke="#000000" stroke-width="2" stroke-opacity="0.200000" points="447.11,-452.65 453.07,-454.85 449.78,-449.41 447.11,-452.65"/>
</g>
<!-- src/shared/components/sections/Header/index.tsx&#45;&gt;src/shared/routes.ts -->
<g id="edge43" class="edge">
<title>src/shared/components/sections/Header/index.tsx&#45;&gt;src/shared/routes.ts</title>
<path fill="none" stroke="#000000" stroke-width="2" stroke-opacity="0.200000" d="M365.12,-319.2C373.87,-326.47 384.84,-337.41 390,-349.9 417.06,-415.46 364.53,-932.66 409,-987.9 414.83,-995.14 423.77,-998.97 432.82,-1000.91"/>
<polygon fill="#000000" fill-opacity="0.200000" stroke="#000000" stroke-width="2" stroke-opacity="0.200000" points="432.48,-1002.98 438.75,-1001.93 433.19,-998.84 432.48,-1002.98"/>
</g>
<!-- src/shared/components/sections/Header/style.scss -->
<g id="node37" class="node">
<title>src/shared/components/sections/Header/style.scss</title>
<g id="a_node37"><a xlink:href="src/shared/components/sections/Header/style.scss" xlink:title="style.scss">
<path fill="#ffffcc" stroke="black" d="M488,-318.9C488,-318.9 444,-318.9 444,-318.9 441,-318.9 438,-315.9 438,-312.9 438,-312.9 438,-306.9 438,-306.9 438,-303.9 441,-300.9 444,-300.9 444,-300.9 488,-300.9 488,-300.9 491,-300.9 494,-303.9 494,-306.9 494,-306.9 494,-312.9 494,-312.9 494,-315.9 491,-318.9 488,-318.9"/>
<text text-anchor="middle" x="466" y="-307.7" font-family="Helvetica,sans-Serif" font-size="9.00">style.scss</text>
</a>
</g>
</g>
<!-- src/shared/components/sections/Header/index.tsx&#45;&gt;src/shared/components/sections/Header/style.scss -->
<g id="edge45" class="edge">
<title>src/shared/components/sections/Header/index.tsx&#45;&gt;src/shared/components/sections/Header/style.scss</title>
<path fill="none" stroke="#000000" stroke-width="2" stroke-opacity="0.200000" d="M378.59,-309.9C394.43,-309.9 414.8,-309.9 431.79,-309.9"/>
<polygon fill="#000000" fill-opacity="0.200000" stroke="#000000" stroke-width="2" stroke-opacity="0.200000" points="431.87,-312 437.87,-309.9 431.87,-307.8 431.87,-312"/>
</g>
<!-- src/shared/lib/i18n/withLocale.tsx&#45;&gt;src/shared/lib/i18n/config.ts -->
<g id="edge51" class="edge">
<title>src/shared/lib/i18n/withLocale.tsx&#45;&gt;src/shared/lib/i18n/config.ts</title>
<path fill="none" stroke="#000000" stroke-width="2" stroke-opacity="0.200000" d="M499.1,-1202.9C512.56,-1199.13 528.17,-1194.75 541.65,-1190.97"/>
<polygon fill="#000000" fill-opacity="0.200000" stroke="#000000" stroke-width="2" stroke-opacity="0.200000" points="542.46,-1192.92 547.67,-1189.28 541.33,-1188.88 542.46,-1192.92"/>
</g>
<!-- src/shared/lib/i18n/withLocale.tsx&#45;&gt;src/shared/lib/store/app/types.ts -->
<g id="edge50" class="edge">
<title>src/shared/lib/i18n/withLocale.tsx&#45;&gt;src/shared/lib/store/app/types.ts</title>
<path fill="none" stroke="#000000" stroke-width="2" stroke-opacity="0.200000" d="M503.17,-1218.3C534.87,-1221.76 580.38,-1221.21 610,-1196.9 640.53,-1171.85 645.66,-1121.38 646.21,-1096.08"/>
<polygon fill="#000000" fill-opacity="0.200000" stroke="#000000" stroke-width="2" stroke-opacity="0.200000" points="648.31,-1095.95 646.26,-1089.94 644.11,-1095.92 648.31,-1095.95"/>
</g>
<!-- src/shared/lib/store/app/actions.ts -->
<g id="node38" class="node">
<title>src/shared/lib/store/app/actions.ts</title>
<g id="a_node38"><a xlink:href="src/shared/lib/store/app/actions.ts" xlink:title="actions.ts">
<path fill="#ddfeff" stroke="black" d="M596.5,-1074.9C596.5,-1074.9 553.5,-1074.9 553.5,-1074.9 550.5,-1074.9 547.5,-1071.9 547.5,-1068.9 547.5,-1068.9 547.5,-1062.9 547.5,-1062.9 547.5,-1059.9 550.5,-1056.9 553.5,-1056.9 553.5,-1056.9 596.5,-1056.9 596.5,-1056.9 599.5,-1056.9 602.5,-1059.9 602.5,-1062.9 602.5,-1062.9 602.5,-1068.9 602.5,-1068.9 602.5,-1071.9 599.5,-1074.9 596.5,-1074.9"/>
<text text-anchor="middle" x="575" y="-1063.7" font-family="Helvetica,sans-Serif" font-size="9.00">actions.ts</text>
</a>
</g>
</g>
<!-- src/shared/lib/i18n/withLocale.tsx&#45;&gt;src/shared/lib/store/app/actions.ts -->
<g id="edge48" class="edge">
<title>src/shared/lib/i18n/withLocale.tsx&#45;&gt;src/shared/lib/store/app/actions.ts</title>
<path fill="none" stroke="#000000" stroke-width="2" stroke-opacity="0.200000" d="M502.52,-1202.78C505.27,-1201.13 507.82,-1199.19 510,-1196.9 547.02,-1157.96 509.55,-1122.12 544,-1080.9 544.58,-1080.2 545.21,-1079.53 545.86,-1078.89"/>
<polygon fill="#000000" fill-opacity="0.200000" stroke="#000000" stroke-width="2" stroke-opacity="0.200000" points="547.26,-1080.47 550.61,-1075.07 544.62,-1077.2 547.26,-1080.47"/>
</g>
<!-- src/shared/lib/store/app/selectors.ts -->
<g id="node39" class="node">
<title>src/shared/lib/store/app/selectors.ts</title>
<g id="a_node39"><a xlink:href="src/shared/lib/store/app/selectors.ts" xlink:title="selectors.ts">
<path fill="#ddfeff" stroke="black" d="M600,-1104.9C600,-1104.9 550,-1104.9 550,-1104.9 547,-1104.9 544,-1101.9 544,-1098.9 544,-1098.9 544,-1092.9 544,-1092.9 544,-1089.9 547,-1086.9 550,-1086.9 550,-1086.9 600,-1086.9 600,-1086.9 603,-1086.9 606,-1089.9 606,-1092.9 606,-1092.9 606,-1098.9 606,-1098.9 606,-1101.9 603,-1104.9 600,-1104.9"/>
<text text-anchor="middle" x="575" y="-1093.7" font-family="Helvetica,sans-Serif" font-size="9.00">selectors.ts</text>
</a>
</g>
</g>
<!-- src/shared/lib/i18n/withLocale.tsx&#45;&gt;src/shared/lib/store/app/selectors.ts -->
<g id="edge49" class="edge">
<title>src/shared/lib/i18n/withLocale.tsx&#45;&gt;src/shared/lib/store/app/selectors.ts</title>
<path fill="none" stroke="#000000" stroke-width="2" stroke-opacity="0.200000" d="M500.58,-1202.74C503.94,-1201.09 507.15,-1199.16 510,-1196.9 539.43,-1173.55 559.23,-1132.73 568.32,-1110.82"/>
<polygon fill="#000000" fill-opacity="0.200000" stroke="#000000" stroke-width="2" stroke-opacity="0.200000" points="570.3,-1111.52 570.59,-1105.17 566.4,-1109.95 570.3,-1111.52"/>
</g>
<!-- src/shared/components/molecules/Menu/index.stories.tsx -->
<g id="node25" class="node">
<title>src/shared/components/molecules/Menu/index.stories.tsx</title>
<g id="a_node25"><a xlink:href="src/shared/components/molecules/Menu/index.stories.tsx" xlink:title="index.stories.tsx">
<path fill="#bbfeff" stroke="black" d="M501,-164.9C501,-164.9 431,-164.9 431,-164.9 428,-164.9 425,-161.9 425,-158.9 425,-158.9 425,-152.9 425,-152.9 425,-149.9 428,-146.9 431,-146.9 431,-146.9 501,-146.9 501,-146.9 504,-146.9 507,-149.9 507,-152.9 507,-152.9 507,-158.9 507,-158.9 507,-161.9 504,-164.9 501,-164.9"/>
<text text-anchor="middle" x="466" y="-153.7" font-family="Helvetica,sans-Serif" font-size="9.00">index.stories.tsx</text>
</a>
</g>
</g>
<!-- src/shared/components/molecules/Menu/index.tsx -->
<g id="node26" class="node">
<title>src/shared/components/molecules/Menu/index.tsx</title>
<g id="a_node26"><a xlink:href="src/shared/components/molecules/Menu/index.tsx" xlink:title="index.tsx">
<path fill="#bbfeff" stroke="black" d="M596,-164.9C596,-164.9 554,-164.9 554,-164.9 551,-164.9 548,-161.9 548,-158.9 548,-158.9 548,-152.9 548,-152.9 548,-149.9 551,-146.9 554,-146.9 554,-146.9 596,-146.9 596,-146.9 599,-146.9 602,-149.9 602,-152.9 602,-152.9 602,-158.9 602,-158.9 602,-161.9 599,-164.9 596,-164.9"/>
<text text-anchor="middle" x="575" y="-153.7" font-family="Helvetica,sans-Serif" font-size="9.00">index.tsx</text>
</a>
</g>
</g>
<!-- src/shared/components/molecules/Menu/index.stories.tsx&#45;&gt;src/shared/components/molecules/Menu/index.tsx -->
<g id="edge29" class="edge">
<title>src/shared/components/molecules/Menu/index.stories.tsx&#45;&gt;src/shared/components/molecules/Menu/index.tsx</title>
<path fill="none" stroke="#000000" stroke-width="2" stroke-opacity="0.200000" d="M507.15,-155.9C518.55,-155.9 530.81,-155.9 541.69,-155.9"/>
<polygon fill="#000000" fill-opacity="0.200000" stroke="#000000" stroke-width="2" stroke-opacity="0.200000" points="541.91,-158 547.91,-155.9 541.91,-153.8 541.91,-158"/>
</g>
<!-- src/shared/components/molecules/Menu/style.scss -->
<g id="node27" class="node">
<title>src/shared/components/molecules/Menu/style.scss</title>
<g id="a_node27"><a xlink:href="src/shared/components/molecules/Menu/style.scss" xlink:title="style.scss">
<path fill="#ffffcc" stroke="black" d="M669,-164.9C669,-164.9 625,-164.9 625,-164.9 622,-164.9 619,-161.9 619,-158.9 619,-158.9 619,-152.9 619,-152.9 619,-149.9 622,-146.9 625,-146.9 625,-146.9 669,-146.9 669,-146.9 672,-146.9 675,-149.9 675,-152.9 675,-152.9 675,-158.9 675,-158.9 675,-161.9 672,-164.9 669,-164.9"/>
<text text-anchor="middle" x="647" y="-153.7" font-family="Helvetica,sans-Serif" font-size="9.00">style.scss</text>
</a>
</g>
</g>
<!-- src/shared/components/molecules/Menu/index.tsx&#45;&gt;src/shared/components/molecules/Menu/style.scss -->
<g id="edge30" class="edge">
<title>src/shared/components/molecules/Menu/index.tsx&#45;&gt;src/shared/components/molecules/Menu/style.scss</title>
<path fill="none" stroke="#000000" stroke-width="2" stroke-opacity="0.200000" d="M602.07,-155.9C605.47,-155.9 608.99,-155.9 612.49,-155.9"/>
<polygon fill="#000000" fill-opacity="0.200000" stroke="#000000" stroke-width="2" stroke-opacity="0.200000" points="612.74,-158 618.74,-155.9 612.74,-153.8 612.74,-158"/>
</g>
<!-- src/shared/components/organisms/LocaleSelect/index.tsx&#45;&gt;src/shared/lib/i18n/config.ts -->
<g id="edge31" class="edge">
<title>src/shared/components/organisms/LocaleSelect/index.tsx&#45;&gt;src/shared/lib/i18n/config.ts</title>
<path fill="none" stroke="#000000" stroke-width="2" stroke-opacity="0.200000" d="M472.15,-472.91C481.63,-490 501.63,-528.6 510,-563.9 568.56,-810.84 466.8,-892.14 544,-1133.9 547.95,-1146.26 555.81,-1158.65 562.49,-1167.74"/>
<polygon fill="#000000" fill-opacity="0.200000" stroke="#000000" stroke-width="2" stroke-opacity="0.200000" points="560.95,-1169.18 566.25,-1172.69 564.29,-1166.64 560.95,-1169.18"/>
</g>
<!-- src/shared/components/organisms/LocaleSelect/index.tsx&#45;&gt;src/shared/lib/store/app/types.ts -->
<g id="edge32" class="edge">
<title>src/shared/components/organisms/LocaleSelect/index.tsx&#45;&gt;src/shared/lib/store/app/types.ts</title>
<path fill="none" stroke="#000000" stroke-width="2" stroke-opacity="0.200000" d="M475.8,-473.12C501.83,-501.05 578.65,-588.3 610,-676.9 636.06,-750.56 643.99,-1000.09 645.64,-1065.24"/>
<polygon fill="#000000" fill-opacity="0.200000" stroke="#000000" stroke-width="2" stroke-opacity="0.200000" points="643.55,-1065.66 645.8,-1071.61 647.75,-1065.56 643.55,-1065.66"/>
</g>
<!-- src/shared/components/organisms/LocaleSelect/index.tsx&#45;&gt;src/shared/components/molecules/Menu/index.tsx -->
<g id="edge33" class="edge">
<title>src/shared/components/organisms/LocaleSelect/index.tsx&#45;&gt;src/shared/components/molecules/Menu/index.tsx</title>
<path fill="none" stroke="#000000" stroke-width="2" stroke-opacity="0.200000" d="M475.91,-454.79C485.67,-444.32 501.12,-426.21 510,-407.9 550.61,-324.21 567.31,-211.96 572.28,-171.36"/>
<polygon fill="#000000" fill-opacity="0.200000" stroke="#000000" stroke-width="2" stroke-opacity="0.200000" points="574.41,-171.26 573.03,-165.06 570.24,-170.77 574.41,-171.26"/>
</g>
<!-- src/shared/lib/store/app/actions.ts&#45;&gt;src/shared/lib/store/app/types.ts -->
<g id="edge52" class="edge">
<title>src/shared/lib/store/app/actions.ts&#45;&gt;src/shared/lib/store/app/types.ts</title>
<path fill="none" stroke="#000000" stroke-width="2" stroke-opacity="0.200000" d="M602.86,-1071.66C606.42,-1072.42 610.1,-1073.21 613.73,-1073.99"/>
<polygon fill="#000000" fill-opacity="0.200000" stroke="#000000" stroke-width="2" stroke-opacity="0.200000" points="613.48,-1076.08 619.79,-1075.28 614.36,-1071.97 613.48,-1076.08"/>
</g>
<!-- src/shared/lib/store/app/selectors.ts&#45;&gt;src/shared/lib/store/app/types.ts -->
<g id="edge56" class="edge">
<title>src/shared/lib/store/app/selectors.ts&#45;&gt;src/shared/lib/store/app/types.ts</title>
<path fill="none" stroke="#000000" stroke-width="2" stroke-opacity="0.200000" d="M606.09,-1089.45C608.68,-1088.9 611.3,-1088.34 613.9,-1087.78"/>
<polygon fill="#000000" fill-opacity="0.200000" stroke="#000000" stroke-width="2" stroke-opacity="0.200000" points="614.47,-1089.8 619.9,-1086.49 613.59,-1085.7 614.47,-1089.8"/>
</g>
<!-- src/shared/lib/store/app/reducers.ts -->
<g id="node40" class="node">
<title>src/shared/lib/store/app/reducers.ts</title>
<g id="a_node40"><a xlink:href="src/shared/lib/store/app/reducers.ts" xlink:title="reducers.ts">
<path fill="#ddfeff" stroke="black" d="M491,-1074.9C491,-1074.9 441,-1074.9 441,-1074.9 438,-1074.9 435,-1071.9 435,-1068.9 435,-1068.9 435,-1062.9 435,-1062.9 435,-1059.9 438,-1056.9 441,-1056.9 441,-1056.9 491,-1056.9 491,-1056.9 494,-1056.9 497,-1059.9 497,-1062.9 497,-1062.9 497,-1068.9 497,-1068.9 497,-1071.9 494,-1074.9 491,-1074.9"/>
<text text-anchor="middle" x="466" y="-1063.7" font-family="Helvetica,sans-Serif" font-size="9.00">reducers.ts</text>
</a>
</g>
</g>
<!-- src/shared/lib/store/app/reducers.ts&#45;&gt;src/shared/lib/i18n/config.ts -->
<g id="edge53" class="edge">
<title>src/shared/lib/store/app/reducers.ts&#45;&gt;src/shared/lib/i18n/config.ts</title>
<path fill="none" stroke="#000000" stroke-width="2" stroke-opacity="0.200000" d="M475.4,-1075C494.15,-1095.33 539.51,-1144.51 561.56,-1168.41"/>
<polygon fill="#000000" fill-opacity="0.200000" stroke="#000000" stroke-width="2" stroke-opacity="0.200000" points="560.03,-1169.85 565.64,-1172.84 563.12,-1167.01 560.03,-1169.85"/>
</g>
<!-- src/shared/lib/store/app/reducers.ts&#45;&gt;src/shared/lib/store/app/types.ts -->
<g id="edge55" class="edge">
<title>src/shared/lib/store/app/reducers.ts&#45;&gt;src/shared/lib/store/app/types.ts</title>
<path fill="none" stroke="#000000" stroke-width="2" stroke-opacity="0.200000" d="M497.16,-1058.63C511.29,-1055.58 528.41,-1052.4 544,-1050.9 573.2,-1048.08 582.42,-1040.91 610,-1050.9 619.14,-1054.21 627.6,-1060.97 634.01,-1067.24"/>
<polygon fill="#000000" fill-opacity="0.200000" stroke="#000000" stroke-width="2" stroke-opacity="0.200000" points="632.81,-1069.02 638.5,-1071.87 635.83,-1066.1 632.81,-1069.02"/>
</g>
<!-- src/shared/lib/store/app/reducers.ts&#45;&gt;src/shared/lib/store/app/actions.ts -->
<g id="edge54" class="edge">
<title>src/shared/lib/store/app/reducers.ts&#45;&gt;src/shared/lib/store/app/actions.ts</title>
<path fill="none" stroke="#000000" stroke-width="2" stroke-opacity="0.200000" d="M497.09,-1065.9C510.81,-1065.9 527.09,-1065.9 541.14,-1065.9"/>
<polygon fill="#000000" fill-opacity="0.200000" stroke="#000000" stroke-width="2" stroke-opacity="0.200000" points="541.41,-1068 547.41,-1065.9 541.41,-1063.8 541.41,-1068"/>
</g>
<!-- src/shared/lib/store/rootReducer.ts&#45;&gt;src/shared/lib/store/app/reducers.ts -->
<g id="edge58" class="edge">
<title>src/shared/lib/store/rootReducer.ts&#45;&gt;src/shared/lib/store/app/reducers.ts</title>
<path fill="none" stroke="#000000" stroke-width="2" stroke-opacity="0.200000" d="M390.27,-1065.9C402.67,-1065.9 416.41,-1065.9 428.69,-1065.9"/>
<polygon fill="#000000" fill-opacity="0.200000" stroke="#000000" stroke-width="2" stroke-opacity="0.200000" points="428.97,-1068 434.97,-1065.9 428.97,-1063.8 428.97,-1068"/>
</g>
<!-- src/shared/routes.test.tsx -->
<g id="node42" class="node">
<title>src/shared/routes.test.tsx</title>
<g id="a_node42"><a xlink:href="src/shared/routes.test.tsx" xlink:title="routes.test.tsx">
<path fill="#bbfeff" stroke="black" d="M381.5,-945.9C381.5,-945.9 321.5,-945.9 321.5,-945.9 318.5,-945.9 315.5,-942.9 315.5,-939.9 315.5,-939.9 315.5,-933.9 315.5,-933.9 315.5,-930.9 318.5,-927.9 321.5,-927.9 321.5,-927.9 381.5,-927.9 381.5,-927.9 384.5,-927.9 387.5,-930.9 387.5,-933.9 387.5,-933.9 387.5,-939.9 387.5,-939.9 387.5,-942.9 384.5,-945.9 381.5,-945.9"/>
<text text-anchor="middle" x="351.5" y="-934.7" font-family="Helvetica,sans-Serif" font-size="9.00">routes.test.tsx</text>
</a>
</g>
</g>
<!-- src/shared/routes.test.tsx&#45;&gt;src/shared/routes.ts -->
<g id="edge59" class="edge">
<title>src/shared/routes.test.tsx&#45;&gt;src/shared/routes.ts</title>
<path fill="none" stroke="#000000" stroke-width="2" stroke-opacity="0.200000" d="M376.86,-945.95C381.55,-948.39 386.19,-951.36 390,-954.9 402.41,-966.41 395.49,-977.7 409,-987.9 415.82,-993.05 424.31,-996.32 432.6,-998.4"/>
<polygon fill="#000000" fill-opacity="0.200000" stroke="#000000" stroke-width="2" stroke-opacity="0.200000" points="432.56,-1000.54 438.87,-999.76 433.45,-996.43 432.56,-1000.54"/>
</g>
</g>
</svg>
