<?xml version="1.0" encoding="UTF-8" standalone="no"?>
<!DOCTYPE svg PUBLIC "-//W3C//DTD SVG 1.1//EN"
 "http://www.w3.org/Graphics/SVG/1.1/DTD/svg11.dtd">
<!-- Generated by graphviz version 2.44.1 (20200629.0846)
 -->
<!-- Title: dependency&#45;cruiser output Pages: 1 -->
<svg width="659pt" height="935pt"
 viewBox="0.00 0.00 658.50 935.50" xmlns="http://www.w3.org/2000/svg" xmlns:xlink="http://www.w3.org/1999/xlink">
<g id="graph0" class="graph" transform="scale(1 1) rotate(0) translate(4 931.5)">
<title>dependency&#45;cruiser output</title>
<polygon fill="white" stroke="transparent" points="-4,4 -4,-931.5 654.5,-931.5 654.5,4 -4,4"/>
<g id="clust1" class="cluster">
<title>cluster_config</title>
<path fill="#ffffff" stroke="black" stroke-width="2" d="M120.5,-854C120.5,-854 166.5,-854 166.5,-854 172.5,-854 178.5,-860 178.5,-866 178.5,-866 178.5,-894 178.5,-894 178.5,-900 172.5,-906 166.5,-906 166.5,-906 120.5,-906 120.5,-906 114.5,-906 108.5,-900 108.5,-894 108.5,-894 108.5,-866 108.5,-866 108.5,-860 114.5,-854 120.5,-854"/>
<text text-anchor="middle" x="143.5" y="-894.8" font-family="Helvetica,sans-Serif" font-weight="bold" font-size="9.00">config</text>
</g>
<g id="clust2" class="cluster">
<title>cluster_src</title>
<path fill="#ffffff" stroke="black" stroke-width="2" d="M20,-8C20,-8 630.5,-8 630.5,-8 636.5,-8 642.5,-14 642.5,-20 642.5,-20 642.5,-834 642.5,-834 642.5,-840 636.5,-846 630.5,-846 630.5,-846 20,-846 20,-846 14,-846 8,-840 8,-834 8,-834 8,-20 8,-20 8,-14 14,-8 20,-8"/>
<text text-anchor="middle" x="325.25" y="-834.8" font-family="Helvetica,sans-Serif" font-weight="bold" font-size="9.00">src</text>
</g>
<g id="clust3" class="cluster">
<title>cluster_src/client</title>
<path fill="#ffffff" stroke="black" stroke-width="2" d="M120.5,-768C120.5,-768 166.5,-768 166.5,-768 172.5,-768 178.5,-774 178.5,-780 178.5,-780 178.5,-808 178.5,-808 178.5,-814 172.5,-820 166.5,-820 166.5,-820 120.5,-820 120.5,-820 114.5,-820 108.5,-814 108.5,-808 108.5,-808 108.5,-780 108.5,-780 108.5,-774 114.5,-768 120.5,-768"/>
<text text-anchor="middle" x="143.5" y="-808.8" font-family="Helvetica,sans-Serif" font-weight="bold" font-size="9.00">client</text>
</g>
<g id="clust4" class="cluster">
<title>cluster_src/server</title>
<path fill="#ffffff" stroke="black" stroke-width="2" d="M28,-42C28,-42 280.5,-42 280.5,-42 286.5,-42 292.5,-48 292.5,-54 292.5,-54 292.5,-206 292.5,-206 292.5,-212 286.5,-218 280.5,-218 280.5,-218 28,-218 28,-218 22,-218 16,-212 16,-206 16,-206 16,-54 16,-54 16,-48 22,-42 28,-42"/>
<text text-anchor="middle" x="154.25" y="-206.8" font-family="Helvetica,sans-Serif" font-weight="bold" font-size="9.00">server</text>
</g>
<g id="clust5" class="cluster">
<title>cluster_src/server/components</title>
<path fill="#ffffff" stroke="black" stroke-width="2" d="M226.5,-50C226.5,-50 272.5,-50 272.5,-50 278.5,-50 284.5,-56 284.5,-62 284.5,-62 284.5,-90 284.5,-90 284.5,-96 278.5,-102 272.5,-102 272.5,-102 226.5,-102 226.5,-102 220.5,-102 214.5,-96 214.5,-90 214.5,-90 214.5,-62 214.5,-62 214.5,-56 220.5,-50 226.5,-50"/>
<text text-anchor="middle" x="249.5" y="-90.8" font-family="Helvetica,sans-Serif" font-weight="bold" font-size="9.00">components</text>
</g>
<g id="clust6" class="cluster">
<title>cluster_src/server/middlewares</title>
<path fill="#ffffff" stroke="black" stroke-width="2" d="M100.5,-50C100.5,-50 186.5,-50 186.5,-50 192.5,-50 198.5,-56 198.5,-62 198.5,-62 198.5,-180 198.5,-180 198.5,-186 192.5,-192 186.5,-192 186.5,-192 100.5,-192 100.5,-192 94.5,-192 88.5,-186 88.5,-180 88.5,-180 88.5,-62 88.5,-62 88.5,-56 94.5,-50 100.5,-50"/>
<text text-anchor="middle" x="143.5" y="-180.8" font-family="Helvetica,sans-Serif" font-weight="bold" font-size="9.00">middlewares</text>
</g>
<g id="clust7" class="cluster">
<title>cluster_src/shared</title>
<path fill="#ffffff" stroke="black" stroke-width="2" d="M218.5,-226C218.5,-226 622.5,-226 622.5,-226 628.5,-226 634.5,-232 634.5,-238 634.5,-238 634.5,-808 634.5,-808 634.5,-814 628.5,-820 622.5,-820 622.5,-820 218.5,-820 218.5,-820 212.5,-820 206.5,-814 206.5,-808 206.5,-808 206.5,-238 206.5,-238 206.5,-232 212.5,-226 218.5,-226"/>
<text text-anchor="middle" x="420.5" y="-808.8" font-family="Helvetica,sans-Serif" font-weight="bold" font-size="9.00">shared</text>
</g>
<g id="clust8" class="cluster">
<title>cluster_src/shared/assets</title>
<path fill="#ffffff" stroke="black" stroke-width="2" d="M402.5,-234C402.5,-234 458.5,-234 458.5,-234 464.5,-234 470.5,-240 470.5,-246 470.5,-246 470.5,-274 470.5,-274 470.5,-280 464.5,-286 458.5,-286 458.5,-286 402.5,-286 402.5,-286 396.5,-286 390.5,-280 390.5,-274 390.5,-274 390.5,-246 390.5,-246 390.5,-240 396.5,-234 402.5,-234"/>
<text text-anchor="middle" x="430.5" y="-274.8" font-family="Helvetica,sans-Serif" font-weight="bold" font-size="9.00">assets</text>
</g>
<g id="clust9" class="cluster">
<title>cluster_src/shared/i18n</title>
<path fill="#ffffff" stroke="black" stroke-width="2" d="M397.5,-548C397.5,-548 535.5,-548 535.5,-548 541.5,-548 547.5,-554 547.5,-560 547.5,-560 547.5,-618 547.5,-618 547.5,-624 541.5,-630 535.5,-630 535.5,-630 397.5,-630 397.5,-630 391.5,-630 385.5,-624 385.5,-618 385.5,-618 385.5,-560 385.5,-560 385.5,-554 391.5,-548 397.5,-548"/>
<text text-anchor="middle" x="466.5" y="-618.8" font-family="Helvetica,sans-Serif" font-weight="bold" font-size="9.00">i18n</text>
</g>
<g id="clust10" class="cluster">
<title>cluster_src/shared/pages</title>
<path fill="#ffffff" stroke="black" stroke-width="2" d="M399.5,-294C399.5,-294 461.5,-294 461.5,-294 467.5,-294 473.5,-300 473.5,-306 473.5,-306 473.5,-488 473.5,-488 473.5,-494 467.5,-500 461.5,-500 461.5,-500 399.5,-500 399.5,-500 393.5,-500 387.5,-494 387.5,-488 387.5,-488 387.5,-306 387.5,-306 387.5,-300 393.5,-294 399.5,-294"/>
<text text-anchor="middle" x="430.5" y="-488.8" font-family="Helvetica,sans-Serif" font-weight="bold" font-size="9.00">pages</text>
</g>
<g id="clust11" class="cluster">
<title>cluster_src/shared/pages/404</title>
<path fill="#ffffff" stroke="black" stroke-width="2" d="M407.5,-422C407.5,-422 453.5,-422 453.5,-422 459.5,-422 465.5,-428 465.5,-434 465.5,-434 465.5,-462 465.5,-462 465.5,-468 459.5,-474 453.5,-474 453.5,-474 407.5,-474 407.5,-474 401.5,-474 395.5,-468 395.5,-462 395.5,-462 395.5,-434 395.5,-434 395.5,-428 401.5,-422 407.5,-422"/>
<text text-anchor="middle" x="430.5" y="-462.8" font-family="Helvetica,sans-Serif" font-weight="bold" font-size="9.00">404</text>
</g>
<g id="clust12" class="cluster">
<title>cluster_src/shared/pages/about</title>
<path fill="#ffffff" stroke="black" stroke-width="2" d="M407.5,-362C407.5,-362 453.5,-362 453.5,-362 459.5,-362 465.5,-368 465.5,-374 465.5,-374 465.5,-402 465.5,-402 465.5,-408 459.5,-414 453.5,-414 453.5,-414 407.5,-414 407.5,-414 401.5,-414 395.5,-408 395.5,-402 395.5,-402 395.5,-374 395.5,-374 395.5,-368 401.5,-362 407.5,-362"/>
<text text-anchor="middle" x="430.5" y="-402.8" font-family="Helvetica,sans-Serif" font-weight="bold" font-size="9.00">about</text>
</g>
<g id="clust13" class="cluster">
<title>cluster_src/shared/pages/home</title>
<path fill="#ffffff" stroke="black" stroke-width="2" d="M407.5,-302C407.5,-302 453.5,-302 453.5,-302 459.5,-302 465.5,-308 465.5,-314 465.5,-314 465.5,-342 465.5,-342 465.5,-348 459.5,-354 453.5,-354 453.5,-354 407.5,-354 407.5,-354 401.5,-354 395.5,-348 395.5,-342 395.5,-342 395.5,-314 395.5,-314 395.5,-308 401.5,-302 407.5,-302"/>
<text text-anchor="middle" x="430.5" y="-342.8" font-family="Helvetica,sans-Serif" font-weight="bold" font-size="9.00">home</text>
</g>
<g id="clust14" class="cluster">
<title>cluster_src/shared/store</title>
<path fill="#ffffff" stroke="black" stroke-width="2" d="M226.5,-664C226.5,-664 614.5,-664 614.5,-664 620.5,-664 626.5,-670 626.5,-676 626.5,-676 626.5,-782 626.5,-782 626.5,-788 620.5,-794 614.5,-794 614.5,-794 226.5,-794 226.5,-794 220.5,-794 214.5,-788 214.5,-782 214.5,-782 214.5,-676 214.5,-676 214.5,-670 220.5,-664 226.5,-664"/>
<text text-anchor="middle" x="420.5" y="-782.8" font-family="Helvetica,sans-Serif" font-weight="bold" font-size="9.00">store</text>
</g>
<g id="clust15" class="cluster">
<title>cluster_src/shared/store/app</title>
<path fill="#ffffff" stroke="black" stroke-width="2" d="M403.5,-672C403.5,-672 606.5,-672 606.5,-672 612.5,-672 618.5,-678 618.5,-684 618.5,-684 618.5,-756 618.5,-756 618.5,-762 612.5,-768 606.5,-768 606.5,-768 403.5,-768 403.5,-768 397.5,-768 391.5,-762 391.5,-756 391.5,-756 391.5,-684 391.5,-684 391.5,-678 397.5,-672 403.5,-672"/>
<text text-anchor="middle" x="505" y="-756.8" font-family="Helvetica,sans-Serif" font-weight="bold" font-size="9.00">app</text>
</g>
<!-- config/paths.ts -->
<g id="node1" class="node">
<title>config/paths.ts</title>
<g id="a_node1"><a xlink:href="config/paths.ts" xlink:title="paths.ts">
<path fill="#ddfeff" stroke="black" d="M164.5,-880C164.5,-880 122.5,-880 122.5,-880 119.5,-880 116.5,-877 116.5,-874 116.5,-874 116.5,-868 116.5,-868 116.5,-865 119.5,-862 122.5,-862 122.5,-862 164.5,-862 164.5,-862 167.5,-862 170.5,-865 170.5,-868 170.5,-868 170.5,-874 170.5,-874 170.5,-877 167.5,-880 164.5,-880"/>
<text text-anchor="middle" x="143.5" y="-868.8" font-family="Helvetica,sans-Serif" font-size="9.00">paths.ts</text>
</a>
</g>
</g>
<!-- fs -->
<g id="node2" class="node">
<title>fs</title>
<path fill="#ffffcc" stroke="grey" d="M270.5,-872C270.5,-872 228.5,-872 228.5,-872 225.5,-872 222.5,-869 222.5,-866 222.5,-866 222.5,-860 222.5,-860 222.5,-857 225.5,-854 228.5,-854 228.5,-854 270.5,-854 270.5,-854 273.5,-854 276.5,-857 276.5,-860 276.5,-860 276.5,-866 276.5,-866 276.5,-869 273.5,-872 270.5,-872"/>
<text text-anchor="middle" x="249.5" y="-860.8" font-family="Helvetica,sans-Serif" font-size="9.00" fill="grey">fs</text>
</g>
<!-- config/paths.ts&#45;&gt;fs -->
<g id="edge1" class="edge">
<title>config/paths.ts&#45;&gt;fs</title>
<path fill="none" stroke="#000000" stroke-dasharray="5,2" stroke-opacity="0.200000" d="M170.74,-868.98C184.54,-867.92 201.57,-866.61 216.17,-865.49"/>
<polygon fill="#000000" fill-opacity="0.200000" stroke="#000000" stroke-opacity="0.200000" points="216.44,-867.57 222.26,-865.02 216.12,-863.38 216.44,-867.57"/>
</g>
<!-- path -->
<g id="node3" class="node">
<title>path</title>
<path fill="#ffffcc" stroke="grey" d="M270.5,-902C270.5,-902 228.5,-902 228.5,-902 225.5,-902 222.5,-899 222.5,-896 222.5,-896 222.5,-890 222.5,-890 222.5,-887 225.5,-884 228.5,-884 228.5,-884 270.5,-884 270.5,-884 273.5,-884 276.5,-887 276.5,-890 276.5,-890 276.5,-896 276.5,-896 276.5,-899 273.5,-902 270.5,-902"/>
<text text-anchor="middle" x="249.5" y="-890.8" font-family="Helvetica,sans-Serif" font-size="9.00" fill="grey">path</text>
</g>
<!-- config/paths.ts&#45;&gt;path -->
<g id="edge2" class="edge">
<title>config/paths.ts&#45;&gt;path</title>
<path fill="none" stroke="#000000" stroke-dasharray="5,2" stroke-opacity="0.200000" d="M170.74,-876.55C184.54,-879.47 201.57,-883.07 216.17,-886.16"/>
<polygon fill="#000000" fill-opacity="0.200000" stroke="#000000" stroke-opacity="0.200000" points="215.96,-888.26 222.26,-887.45 216.83,-884.15 215.96,-888.26"/>
</g>
<!-- src/client/index.tsx -->
<g id="node4" class="node">
<title>src/client/index.tsx</title>
<g id="a_node4"><a xlink:href="src/client/index.tsx" xlink:title="index.tsx">
<path fill="#bbfeff" stroke="black" d="M164.5,-794C164.5,-794 122.5,-794 122.5,-794 119.5,-794 116.5,-791 116.5,-788 116.5,-788 116.5,-782 116.5,-782 116.5,-779 119.5,-776 122.5,-776 122.5,-776 164.5,-776 164.5,-776 167.5,-776 170.5,-779 170.5,-782 170.5,-782 170.5,-788 170.5,-788 170.5,-791 167.5,-794 164.5,-794"/>
<text text-anchor="middle" x="143.5" y="-782.8" font-family="Helvetica,sans-Serif" font-size="9.00">index.tsx</text>
</a>
</g>
</g>
<!-- src/shared/App.tsx -->
<g id="node5" class="node">
<title>src/shared/App.tsx</title>
<g id="a_node5"><a xlink:href="src/shared/App.tsx" xlink:title="App.tsx">
<path fill="#bbfeff" stroke="black" d="M360,-518C360,-518 318,-518 318,-518 315,-518 312,-515 312,-512 312,-512 312,-506 312,-506 312,-503 315,-500 318,-500 318,-500 360,-500 360,-500 363,-500 366,-503 366,-506 366,-506 366,-512 366,-512 366,-515 363,-518 360,-518"/>
<text text-anchor="middle" x="339" y="-506.8" font-family="Helvetica,sans-Serif" font-size="9.00">App.tsx</text>
</a>
</g>
</g>
<!-- src/client/index.tsx&#45;&gt;src/shared/App.tsx -->
<g id="edge3" class="edge">
<title>src/client/index.tsx&#45;&gt;src/shared/App.tsx</title>
<path fill="none" stroke="#000000" stroke-width="2" stroke-opacity="0.200000" d="M170.8,-791.61C208.57,-800.38 275.53,-813 292.5,-797 303.51,-786.62 298.23,-675.97 300.5,-661 308.22,-610 325.11,-551.08 333.32,-524.01"/>
<polygon fill="#000000" fill-opacity="0.200000" stroke="#000000" stroke-width="2" stroke-opacity="0.200000" points="335.37,-524.49 335.12,-518.13 331.36,-523.26 335.37,-524.49"/>
</g>
<!-- src/shared/i18n/index.tsx -->
<g id="node6" class="node">
<title>src/shared/i18n/index.tsx</title>
<g id="a_node6"><a xlink:href="src/shared/i18n/index.tsx" xlink:title="index.tsx">
<path fill="#bbfeff" stroke="black" d="M451.5,-574C451.5,-574 409.5,-574 409.5,-574 406.5,-574 403.5,-571 403.5,-568 403.5,-568 403.5,-562 403.5,-562 403.5,-559 406.5,-556 409.5,-556 409.5,-556 451.5,-556 451.5,-556 454.5,-556 457.5,-559 457.5,-562 457.5,-562 457.5,-568 457.5,-568 457.5,-571 454.5,-574 451.5,-574"/>
<text text-anchor="middle" x="430.5" y="-562.8" font-family="Helvetica,sans-Serif" font-size="9.00">index.tsx</text>
</a>
</g>
</g>
<!-- src/client/index.tsx&#45;&gt;src/shared/i18n/index.tsx -->
<g id="edge4" class="edge">
<title>src/client/index.tsx&#45;&gt;src/shared/i18n/index.tsx</title>
<path fill="none" stroke="#000000" stroke-width="2" stroke-opacity="0.200000" d="M160.21,-794C172.4,-800.44 189.95,-808.55 206.5,-812 281.19,-827.56 327.4,-854.53 377.5,-797 393.35,-778.81 371.1,-599.36 385.5,-580 388.62,-575.81 392.97,-572.78 397.73,-570.59"/>
<polygon fill="#000000" fill-opacity="0.200000" stroke="#000000" stroke-width="2" stroke-opacity="0.200000" points="398.61,-572.5 403.46,-568.39 397.11,-568.58 398.61,-572.5"/>
</g>
<!-- src/shared/store/index.ts -->
<g id="node7" class="node">
<title>src/shared/store/index.ts</title>
<g id="a_node7"><a xlink:href="src/shared/store/index.ts" xlink:title="index.ts">
<path fill="#ddfeff" stroke="black" d="M270.5,-735C270.5,-735 228.5,-735 228.5,-735 225.5,-735 222.5,-732 222.5,-729 222.5,-729 222.5,-723 222.5,-723 222.5,-720 225.5,-717 228.5,-717 228.5,-717 270.5,-717 270.5,-717 273.5,-717 276.5,-720 276.5,-723 276.5,-723 276.5,-729 276.5,-729 276.5,-732 273.5,-735 270.5,-735"/>
<text text-anchor="middle" x="249.5" y="-723.8" font-family="Helvetica,sans-Serif" font-size="9.00">index.ts</text>
</a>
</g>
</g>
<!-- src/client/index.tsx&#45;&gt;src/shared/store/index.ts -->
<g id="edge5" class="edge">
<title>src/client/index.tsx&#45;&gt;src/shared/store/index.ts</title>
<path fill="none" stroke="#000000" stroke-width="2" stroke-opacity="0.200000" d="M154.74,-775.67C166.48,-765.42 186.66,-749.06 206.5,-739 209.64,-737.41 213.01,-735.97 216.43,-734.68"/>
<polygon fill="#000000" fill-opacity="0.200000" stroke="#000000" stroke-width="2" stroke-opacity="0.200000" points="217.24,-736.62 222.19,-732.64 215.84,-732.66 217.24,-736.62"/>
</g>
<!-- src/shared/App.tsx&#45;&gt;src/shared/i18n/index.tsx -->
<g id="edge21" class="edge">
<title>src/shared/App.tsx&#45;&gt;src/shared/i18n/index.tsx</title>
<path fill="none" stroke="#000000" stroke-width="2" stroke-opacity="0.200000" d="M347.42,-518.22C355.72,-527.96 370.05,-543.11 385.5,-552 389.12,-554.08 393.1,-555.86 397.14,-557.36"/>
<polygon fill="#000000" fill-opacity="0.200000" stroke="#000000" stroke-width="2" stroke-opacity="0.200000" points="396.72,-559.44 403.08,-559.38 398.07,-555.46 396.72,-559.44"/>
</g>
<!-- src/shared/App.scss -->
<g id="node15" class="node">
<title>src/shared/App.scss</title>
<g id="a_node15"><a xlink:href="src/shared/App.scss" xlink:title="App.scss">
<path fill="#ffffcc" stroke="black" d="M451.5,-540C451.5,-540 409.5,-540 409.5,-540 406.5,-540 403.5,-537 403.5,-534 403.5,-534 403.5,-528 403.5,-528 403.5,-525 406.5,-522 409.5,-522 409.5,-522 451.5,-522 451.5,-522 454.5,-522 457.5,-525 457.5,-528 457.5,-528 457.5,-534 457.5,-534 457.5,-537 454.5,-540 451.5,-540"/>
<text text-anchor="middle" x="430.5" y="-528.8" font-family="Helvetica,sans-Serif" font-size="9.00">App.scss</text>
</a>
</g>
</g>
<!-- src/shared/App.tsx&#45;&gt;src/shared/App.scss -->
<g id="edge19" class="edge">
<title>src/shared/App.tsx&#45;&gt;src/shared/App.scss</title>
<path fill="none" stroke="#000000" stroke-width="2" stroke-opacity="0.200000" d="M366.37,-515.48C376.11,-517.88 387.26,-520.62 397.45,-523.12"/>
<polygon fill="#000000" fill-opacity="0.200000" stroke="#000000" stroke-width="2" stroke-opacity="0.200000" points="396.99,-525.17 403.32,-524.56 397.99,-521.09 396.99,-525.17"/>
</g>
<!-- src/shared/assets/favicon.png -->
<g id="node16" class="node">
<title>src/shared/assets/favicon.png</title>
<g id="a_node16"><a xlink:href="src/shared/assets/favicon.png" xlink:title="favicon.png">
<path fill="#ffffcc" stroke="black" d="M456.5,-260C456.5,-260 404.5,-260 404.5,-260 401.5,-260 398.5,-257 398.5,-254 398.5,-254 398.5,-248 398.5,-248 398.5,-245 401.5,-242 404.5,-242 404.5,-242 456.5,-242 456.5,-242 459.5,-242 462.5,-245 462.5,-248 462.5,-248 462.5,-254 462.5,-254 462.5,-257 459.5,-260 456.5,-260"/>
<text text-anchor="middle" x="430.5" y="-248.8" font-family="Helvetica,sans-Serif" font-size="9.00">favicon.png</text>
</a>
</g>
</g>
<!-- src/shared/App.tsx&#45;&gt;src/shared/assets/favicon.png -->
<g id="edge20" class="edge">
<title>src/shared/App.tsx&#45;&gt;src/shared/assets/favicon.png</title>
<path fill="none" stroke="#000000" stroke-width="2" stroke-opacity="0.200000" d="M340.31,-499.62C341.66,-469.01 348.8,-369.9 385.5,-299 392.47,-285.54 404.2,-273.01 413.8,-264.14"/>
<polygon fill="#000000" fill-opacity="0.200000" stroke="#000000" stroke-width="2" stroke-opacity="0.200000" points="415.26,-265.65 418.31,-260.08 412.45,-262.53 415.26,-265.65"/>
</g>
<!-- src/shared/i18n/withLocale.tsx -->
<g id="node17" class="node">
<title>src/shared/i18n/withLocale.tsx</title>
<g id="a_node17"><a xlink:href="src/shared/i18n/withLocale.tsx" xlink:title="withLocale.tsx">
<path fill="#bbfeff" stroke="black" d="M461.5,-604C461.5,-604 399.5,-604 399.5,-604 396.5,-604 393.5,-601 393.5,-598 393.5,-598 393.5,-592 393.5,-592 393.5,-589 396.5,-586 399.5,-586 399.5,-586 461.5,-586 461.5,-586 464.5,-586 467.5,-589 467.5,-592 467.5,-592 467.5,-598 467.5,-598 467.5,-601 464.5,-604 461.5,-604"/>
<text text-anchor="middle" x="430.5" y="-592.8" font-family="Helvetica,sans-Serif" font-size="9.00">withLocale.tsx</text>
</a>
</g>
</g>
<!-- src/shared/App.tsx&#45;&gt;src/shared/i18n/withLocale.tsx -->
<g id="edge22" class="edge">
<title>src/shared/App.tsx&#45;&gt;src/shared/i18n/withLocale.tsx</title>
<path fill="none" stroke="#000000" stroke-width="2" stroke-opacity="0.200000" d="M343.54,-518.25C349.76,-533.33 364.07,-563.2 385.5,-580 386.87,-581.07 388.32,-582.07 389.83,-583"/>
<polygon fill="#000000" fill-opacity="0.200000" stroke="#000000" stroke-width="2" stroke-opacity="0.200000" points="388.88,-584.87 395.15,-585.9 390.89,-581.19 388.88,-584.87"/>
</g>
<!-- src/shared/pages/404/index.tsx -->
<g id="node18" class="node">
<title>src/shared/pages/404/index.tsx</title>
<g id="a_node18"><a xlink:href="src/shared/pages/404/index.tsx" xlink:title="index.tsx">
<path fill="#bbfeff" stroke="black" d="M451.5,-448C451.5,-448 409.5,-448 409.5,-448 406.5,-448 403.5,-445 403.5,-442 403.5,-442 403.5,-436 403.5,-436 403.5,-433 406.5,-430 409.5,-430 409.5,-430 451.5,-430 451.5,-430 454.5,-430 457.5,-433 457.5,-436 457.5,-436 457.5,-442 457.5,-442 457.5,-445 454.5,-448 451.5,-448"/>
<text text-anchor="middle" x="430.5" y="-436.8" font-family="Helvetica,sans-Serif" font-size="9.00">index.tsx</text>
</a>
</g>
</g>
<!-- src/shared/App.tsx&#45;&gt;src/shared/pages/404/index.tsx -->
<g id="edge23" class="edge">
<title>src/shared/App.tsx&#45;&gt;src/shared/pages/404/index.tsx</title>
<path fill="none" stroke="#000000" stroke-width="2" stroke-opacity="0.200000" d="M344.89,-499.85C352.11,-487.22 366.8,-464.58 385.5,-452 389.13,-449.55 393.24,-447.56 397.44,-445.94"/>
<polygon fill="#000000" fill-opacity="0.200000" stroke="#000000" stroke-width="2" stroke-opacity="0.200000" points="398.22,-447.89 403.2,-443.94 396.85,-443.92 398.22,-447.89"/>
</g>
<!-- src/shared/pages/about/index.tsx -->
<g id="node19" class="node">
<title>src/shared/pages/about/index.tsx</title>
<g id="a_node19"><a xlink:href="src/shared/pages/about/index.tsx" xlink:title="index.tsx">
<path fill="#bbfeff" stroke="black" d="M451.5,-388C451.5,-388 409.5,-388 409.5,-388 406.5,-388 403.5,-385 403.5,-382 403.5,-382 403.5,-376 403.5,-376 403.5,-373 406.5,-370 409.5,-370 409.5,-370 451.5,-370 451.5,-370 454.5,-370 457.5,-373 457.5,-376 457.5,-376 457.5,-382 457.5,-382 457.5,-385 454.5,-388 451.5,-388"/>
<text text-anchor="middle" x="430.5" y="-376.8" font-family="Helvetica,sans-Serif" font-size="9.00">index.tsx</text>
</a>
</g>
</g>
<!-- src/shared/App.tsx&#45;&gt;src/shared/pages/about/index.tsx -->
<g id="edge24" class="edge">
<title>src/shared/App.tsx&#45;&gt;src/shared/pages/about/index.tsx</title>
<path fill="none" stroke="#000000" stroke-width="2" stroke-opacity="0.200000" d="M343.29,-499.95C349.73,-483 365.14,-445.75 385.5,-419 393.2,-408.88 403.68,-399.24 412.48,-391.96"/>
<polygon fill="#000000" fill-opacity="0.200000" stroke="#000000" stroke-width="2" stroke-opacity="0.200000" points="413.82,-393.57 417.17,-388.17 411.18,-390.31 413.82,-393.57"/>
</g>
<!-- src/shared/pages/home/index.tsx -->
<g id="node20" class="node">
<title>src/shared/pages/home/index.tsx</title>
<g id="a_node20"><a xlink:href="src/shared/pages/home/index.tsx" xlink:title="index.tsx">
<path fill="#bbfeff" stroke="black" d="M451.5,-328C451.5,-328 409.5,-328 409.5,-328 406.5,-328 403.5,-325 403.5,-322 403.5,-322 403.5,-316 403.5,-316 403.5,-313 406.5,-310 409.5,-310 409.5,-310 451.5,-310 451.5,-310 454.5,-310 457.5,-313 457.5,-316 457.5,-316 457.5,-322 457.5,-322 457.5,-325 454.5,-328 451.5,-328"/>
<text text-anchor="middle" x="430.5" y="-316.8" font-family="Helvetica,sans-Serif" font-size="9.00">index.tsx</text>
</a>
</g>
</g>
<!-- src/shared/App.tsx&#45;&gt;src/shared/pages/home/index.tsx -->
<g id="edge25" class="edge">
<title>src/shared/App.tsx&#45;&gt;src/shared/pages/home/index.tsx</title>
<path fill="none" stroke="#000000" stroke-width="2" stroke-opacity="0.200000" d="M341.05,-499.85C344.23,-475.3 355.4,-406.61 385.5,-359 392.2,-348.4 402.45,-338.85 411.38,-331.74"/>
<polygon fill="#000000" fill-opacity="0.200000" stroke="#000000" stroke-width="2" stroke-opacity="0.200000" points="412.69,-333.38 416.16,-328.05 410.13,-330.05 412.69,-333.38"/>
</g>
<!-- src/shared/routes.ts -->
<g id="node21" class="node">
<title>src/shared/routes.ts</title>
<g id="a_node21"><a xlink:href="src/shared/routes.ts" xlink:title="routes.ts">
<path fill="#ddfeff" stroke="black" d="M451.5,-656C451.5,-656 409.5,-656 409.5,-656 406.5,-656 403.5,-653 403.5,-650 403.5,-650 403.5,-644 403.5,-644 403.5,-641 406.5,-638 409.5,-638 409.5,-638 451.5,-638 451.5,-638 454.5,-638 457.5,-641 457.5,-644 457.5,-644 457.5,-650 457.5,-650 457.5,-653 454.5,-656 451.5,-656"/>
<text text-anchor="middle" x="430.5" y="-644.8" font-family="Helvetica,sans-Serif" font-size="9.00">routes.ts</text>
</a>
</g>
</g>
<!-- src/shared/App.tsx&#45;&gt;src/shared/routes.ts -->
<g id="edge26" class="edge">
<title>src/shared/App.tsx&#45;&gt;src/shared/routes.ts</title>
<path fill="none" stroke="#000000" stroke-width="2" stroke-opacity="0.200000" d="M340.69,-518.27C342.88,-541.12 351.71,-600.65 385.5,-633 388.92,-636.27 393.1,-638.78 397.52,-640.7"/>
<polygon fill="#000000" fill-opacity="0.200000" stroke="#000000" stroke-width="2" stroke-opacity="0.200000" points="396.84,-642.69 403.19,-642.84 398.31,-638.76 396.84,-642.69"/>
</g>
<!-- src/shared/store/app/types.ts -->
<g id="node22" class="node">
<title>src/shared/store/app/types.ts</title>
<g id="a_node22"><a xlink:href="src/shared/store/app/types.ts" xlink:title="types.ts">
<path fill="#ddfeff" stroke="black" d="M604.5,-698C604.5,-698 562.5,-698 562.5,-698 559.5,-698 556.5,-695 556.5,-692 556.5,-692 556.5,-686 556.5,-686 556.5,-683 559.5,-680 562.5,-680 562.5,-680 604.5,-680 604.5,-680 607.5,-680 610.5,-683 610.5,-686 610.5,-686 610.5,-692 610.5,-692 610.5,-695 607.5,-698 604.5,-698"/>
<text text-anchor="middle" x="583.5" y="-686.8" font-family="Helvetica,sans-Serif" font-size="9.00">types.ts</text>
</a>
</g>
</g>
<!-- src/shared/App.tsx&#45;&gt;src/shared/store/app/types.ts -->
<g id="edge27" class="edge">
<title>src/shared/App.tsx&#45;&gt;src/shared/store/app/types.ts</title>
<path fill="none" stroke="#000000" stroke-width="2" stroke-opacity="0.200000" d="M366.22,-504.36C411.09,-498.11 502.17,-493.09 547.5,-545 580.09,-582.32 583.45,-644.97 583.12,-673.73"/>
<polygon fill="#000000" fill-opacity="0.200000" stroke="#000000" stroke-width="2" stroke-opacity="0.200000" points="581.02,-673.92 582.98,-679.96 585.22,-674.01 581.02,-673.92"/>
</g>
<!-- src/shared/i18n/config.ts -->
<g id="node23" class="node">
<title>src/shared/i18n/config.ts</title>
<g id="a_node23"><a xlink:href="src/shared/i18n/config.ts" xlink:title="config.ts">
<path fill="#ddfeff" stroke="black" d="M533.5,-591C533.5,-591 491.5,-591 491.5,-591 488.5,-591 485.5,-588 485.5,-585 485.5,-585 485.5,-579 485.5,-579 485.5,-576 488.5,-573 491.5,-573 491.5,-573 533.5,-573 533.5,-573 536.5,-573 539.5,-576 539.5,-579 539.5,-579 539.5,-585 539.5,-585 539.5,-588 536.5,-591 533.5,-591"/>
<text text-anchor="middle" x="512.5" y="-579.8" font-family="Helvetica,sans-Serif" font-size="9.00">config.ts</text>
</a>
</g>
</g>
<!-- src/shared/i18n/index.tsx&#45;&gt;src/shared/i18n/config.ts -->
<g id="edge28" class="edge">
<title>src/shared/i18n/index.tsx&#45;&gt;src/shared/i18n/config.ts</title>
<path fill="none" stroke="#000000" stroke-width="2" stroke-opacity="0.200000" d="M457.69,-570.57C464.6,-572.03 472.13,-573.63 479.32,-575.16"/>
<polygon fill="#000000" fill-opacity="0.200000" stroke="#000000" stroke-width="2" stroke-opacity="0.200000" points="478.94,-577.23 485.25,-576.42 479.81,-573.12 478.94,-577.23"/>
</g>
<!-- src/shared/store/rootReducer.ts -->
<g id="node27" class="node">
<title>src/shared/store/rootReducer.ts</title>
<g id="a_node27"><a xlink:href="src/shared/store/rootReducer.ts" xlink:title="rootReducer.ts">
<path fill="#ddfeff" stroke="black" d="M371.5,-735C371.5,-735 306.5,-735 306.5,-735 303.5,-735 300.5,-732 300.5,-729 300.5,-729 300.5,-723 300.5,-723 300.5,-720 303.5,-717 306.5,-717 306.5,-717 371.5,-717 371.5,-717 374.5,-717 377.5,-720 377.5,-723 377.5,-723 377.5,-729 377.5,-729 377.5,-732 374.5,-735 371.5,-735"/>
<text text-anchor="middle" x="339" y="-723.8" font-family="Helvetica,sans-Serif" font-size="9.00">rootReducer.ts</text>
</a>
</g>
</g>
<!-- src/shared/store/index.ts&#45;&gt;src/shared/store/rootReducer.ts -->
<g id="edge37" class="edge">
<title>src/shared/store/index.ts&#45;&gt;src/shared/store/rootReducer.ts</title>
<path fill="none" stroke="#000000" stroke-width="2" stroke-opacity="0.200000" d="M276.75,-726C282.34,-726 288.38,-726 294.42,-726"/>
<polygon fill="#000000" fill-opacity="0.200000" stroke="#000000" stroke-width="2" stroke-opacity="0.200000" points="294.44,-728.1 300.44,-726 294.44,-723.9 294.44,-728.1"/>
</g>
<!-- src/global.d.ts -->
<g id="node8" class="node">
<title>src/global.d.ts</title>
<g id="a_node8"><a xlink:href="src/global.d.ts" xlink:title="global.d.ts">
<path fill="#ccffcc" stroke="black" d="M74.5,-34C74.5,-34 27.5,-34 27.5,-34 24.5,-34 21.5,-31 21.5,-28 21.5,-28 21.5,-22 21.5,-22 21.5,-19 24.5,-16 27.5,-16 27.5,-16 74.5,-16 74.5,-16 77.5,-16 80.5,-19 80.5,-22 80.5,-22 80.5,-28 80.5,-28 80.5,-31 77.5,-34 74.5,-34"/>
<text text-anchor="middle" x="51" y="-22.8" font-family="Helvetica,sans-Serif" font-size="9.00">global.d.ts</text>
</a>
</g>
</g>
<!-- src/server/components/html.tsx -->
<g id="node9" class="node">
<title>src/server/components/html.tsx</title>
<g id="a_node9"><a xlink:href="src/server/components/html.tsx" xlink:title="html.tsx">
<path fill="#bbfeff" stroke="black" d="M270.5,-76C270.5,-76 228.5,-76 228.5,-76 225.5,-76 222.5,-73 222.5,-70 222.5,-70 222.5,-64 222.5,-64 222.5,-61 225.5,-58 228.5,-58 228.5,-58 270.5,-58 270.5,-58 273.5,-58 276.5,-61 276.5,-64 276.5,-64 276.5,-70 276.5,-70 276.5,-73 273.5,-76 270.5,-76"/>
<text text-anchor="middle" x="249.5" y="-64.8" font-family="Helvetica,sans-Serif" font-size="9.00">html.tsx</text>
</a>
</g>
</g>
<!-- src/server/index.ts -->
<g id="node10" class="node">
<title>src/server/index.ts</title>
<g id="a_node10"><a xlink:href="src/server/index.ts" xlink:title="index.ts">
<path fill="#ddfeff" stroke="black" d="M72,-136C72,-136 30,-136 30,-136 27,-136 24,-133 24,-130 24,-130 24,-124 24,-124 24,-121 27,-118 30,-118 30,-118 72,-118 72,-118 75,-118 78,-121 78,-124 78,-124 78,-130 78,-130 78,-133 75,-136 72,-136"/>
<text text-anchor="middle" x="51" y="-124.8" font-family="Helvetica,sans-Serif" font-size="9.00">index.ts</text>
</a>
</g>
</g>
<!-- src/server/index.ts&#45;&gt;config/paths.ts -->
<g id="edge6" class="edge">
<title>src/server/index.ts&#45;&gt;config/paths.ts</title>
<path fill="none" stroke="#000000" stroke-width="2" stroke-opacity="0.200000" d="M52.05,-136.12C52.57,-213.46 57.33,-758.19 88.5,-823 95.64,-837.84 109.65,-850.08 121.61,-858.48"/>
<polygon fill="#000000" fill-opacity="0.200000" stroke="#000000" stroke-width="2" stroke-opacity="0.200000" points="120.44,-860.23 126.59,-861.85 122.79,-856.75 120.44,-860.23"/>
</g>
<!-- src/server/index.ts&#45;&gt;path -->
<g id="edge12" class="edge">
<title>src/server/index.ts&#45;&gt;path</title>
<path fill="none" stroke="#000000" stroke-dasharray="5,2" stroke-opacity="0.200000" d="M52.07,-136.24C52.77,-222.31 59.1,-880.94 88.5,-909 125.44,-944.26 191.28,-920.96 225.86,-904.79"/>
<polygon fill="#000000" fill-opacity="0.200000" stroke="#000000" stroke-opacity="0.200000" points="227.03,-906.55 231.53,-902.06 225.22,-902.77 227.03,-906.55"/>
</g>
<!-- src/server/index.ts&#45;&gt;src/shared/i18n/index.tsx -->
<g id="edge7" class="edge">
<title>src/server/index.ts&#45;&gt;src/shared/i18n/index.tsx</title>
<path fill="none" stroke="#000000" stroke-width="2" stroke-opacity="0.200000" d="M76.66,-118C78.11,-116.82 79.41,-115.49 80.5,-114 89.34,-101.89 77.29,-56.95 88.5,-47 156.31,13.19 215.7,1.19 292.5,-47 366.08,-93.17 357.1,-138.56 377.5,-223 381.79,-240.77 374.38,-537.49 385.5,-552 388.63,-556.09 392.99,-558.94 397.76,-560.92"/>
<polygon fill="#000000" fill-opacity="0.200000" stroke="#000000" stroke-width="2" stroke-opacity="0.200000" points="397.14,-562.93 403.49,-562.87 398.48,-558.95 397.14,-562.93"/>
</g>
<!-- src/server/middlewares/addStore.tsx -->
<g id="node11" class="node">
<title>src/server/middlewares/addStore.tsx</title>
<g id="a_node11"><a xlink:href="src/server/middlewares/addStore.tsx" xlink:title="addStore.tsx">
<path fill="#bbfeff" stroke="black" d="M171.5,-106C171.5,-106 115.5,-106 115.5,-106 112.5,-106 109.5,-103 109.5,-100 109.5,-100 109.5,-94 109.5,-94 109.5,-91 112.5,-88 115.5,-88 115.5,-88 171.5,-88 171.5,-88 174.5,-88 177.5,-91 177.5,-94 177.5,-94 177.5,-100 177.5,-100 177.5,-103 174.5,-106 171.5,-106"/>
<text text-anchor="middle" x="143.5" y="-94.8" font-family="Helvetica,sans-Serif" font-size="9.00">addStore.tsx</text>
</a>
</g>
</g>
<!-- src/server/index.ts&#45;&gt;src/server/middlewares/addStore.tsx -->
<g id="edge8" class="edge">
<title>src/server/index.ts&#45;&gt;src/server/middlewares/addStore.tsx</title>
<path fill="none" stroke="#000000" stroke-width="2" stroke-opacity="0.200000" d="M73.07,-117.84C78.08,-115.8 83.45,-113.73 88.5,-112 93.33,-110.34 98.45,-108.74 103.53,-107.23"/>
<polygon fill="#000000" fill-opacity="0.200000" stroke="#000000" stroke-width="2" stroke-opacity="0.200000" points="104.29,-109.19 109.47,-105.5 103.12,-105.16 104.29,-109.19"/>
</g>
<!-- src/server/middlewares/handleErrors.ts -->
<g id="node12" class="node">
<title>src/server/middlewares/handleErrors.ts</title>
<g id="a_node12"><a xlink:href="src/server/middlewares/handleErrors.ts" xlink:title="handleErrors.ts">
<path fill="#ddfeff" stroke="black" d="M177,-166C177,-166 110,-166 110,-166 107,-166 104,-163 104,-160 104,-160 104,-154 104,-154 104,-151 107,-148 110,-148 110,-148 177,-148 177,-148 180,-148 183,-151 183,-154 183,-154 183,-160 183,-160 183,-163 180,-166 177,-166"/>
<text text-anchor="middle" x="143.5" y="-154.8" font-family="Helvetica,sans-Serif" font-size="9.00">handleErrors.ts</text>
</a>
</g>
</g>
<!-- src/server/index.ts&#45;&gt;src/server/middlewares/handleErrors.ts -->
<g id="edge9" class="edge">
<title>src/server/index.ts&#45;&gt;src/server/middlewares/handleErrors.ts</title>
<path fill="none" stroke="#000000" stroke-width="2" stroke-opacity="0.200000" d="M73.07,-136.16C78.08,-138.2 83.45,-140.27 88.5,-142 92.68,-143.43 97.07,-144.83 101.47,-146.16"/>
<polygon fill="#000000" fill-opacity="0.200000" stroke="#000000" stroke-width="2" stroke-opacity="0.200000" points="101.11,-148.24 107.46,-147.92 102.29,-144.21 101.11,-148.24"/>
</g>
<!-- src/server/middlewares/i18n.ts -->
<g id="node13" class="node">
<title>src/server/middlewares/i18n.ts</title>
<g id="a_node13"><a xlink:href="src/server/middlewares/i18n.ts" xlink:title="i18n.ts">
<path fill="#ddfeff" stroke="black" d="M164.5,-136C164.5,-136 122.5,-136 122.5,-136 119.5,-136 116.5,-133 116.5,-130 116.5,-130 116.5,-124 116.5,-124 116.5,-121 119.5,-118 122.5,-118 122.5,-118 164.5,-118 164.5,-118 167.5,-118 170.5,-121 170.5,-124 170.5,-124 170.5,-130 170.5,-130 170.5,-133 167.5,-136 164.5,-136"/>
<text text-anchor="middle" x="143.5" y="-124.8" font-family="Helvetica,sans-Serif" font-size="9.00">i18n.ts</text>
</a>
</g>
</g>
<!-- src/server/index.ts&#45;&gt;src/server/middlewares/i18n.ts -->
<g id="edge10" class="edge">
<title>src/server/index.ts&#45;&gt;src/server/middlewares/i18n.ts</title>
<path fill="none" stroke="#000000" stroke-width="2" stroke-opacity="0.200000" d="M78.18,-127C88.21,-127 99.78,-127 110.32,-127"/>
<polygon fill="#000000" fill-opacity="0.200000" stroke="#000000" stroke-width="2" stroke-opacity="0.200000" points="110.38,-129.1 116.38,-127 110.38,-124.9 110.38,-129.1"/>
</g>
<!-- src/server/middlewares/renderFullPage.tsx -->
<g id="node14" class="node">
<title>src/server/middlewares/renderFullPage.tsx</title>
<g id="a_node14"><a xlink:href="src/server/middlewares/renderFullPage.tsx" xlink:title="renderFullPage.tsx">
<path fill="#bbfeff" stroke="black" d="M184.5,-76C184.5,-76 102.5,-76 102.5,-76 99.5,-76 96.5,-73 96.5,-70 96.5,-70 96.5,-64 96.5,-64 96.5,-61 99.5,-58 102.5,-58 102.5,-58 184.5,-58 184.5,-58 187.5,-58 190.5,-61 190.5,-64 190.5,-64 190.5,-70 190.5,-70 190.5,-73 187.5,-76 184.5,-76"/>
<text text-anchor="middle" x="143.5" y="-64.8" font-family="Helvetica,sans-Serif" font-size="9.00">renderFullPage.tsx</text>
</a>
</g>
</g>
<!-- src/server/index.ts&#45;&gt;src/server/middlewares/renderFullPage.tsx -->
<g id="edge11" class="edge">
<title>src/server/index.ts&#45;&gt;src/server/middlewares/renderFullPage.tsx</title>
<path fill="none" stroke="#000000" stroke-width="2" stroke-opacity="0.200000" d="M76.46,-117.83C77.95,-116.69 79.32,-115.42 80.5,-114 89.88,-102.73 78.27,-92.5 88.5,-82 89.37,-81.11 90.28,-80.27 91.23,-79.49"/>
<polygon fill="#000000" fill-opacity="0.200000" stroke="#000000" stroke-width="2" stroke-opacity="0.200000" points="92.6,-81.09 96.31,-75.93 90.19,-77.65 92.6,-81.09"/>
</g>
<!-- src/server/middlewares/addStore.tsx&#45;&gt;src/shared/store/index.ts -->
<g id="edge13" class="edge">
<title>src/server/middlewares/addStore.tsx&#45;&gt;src/shared/store/index.ts</title>
<path fill="none" stroke="#000000" stroke-width="2" stroke-opacity="0.200000" d="M177.55,-99.29C185.62,-101.5 193.39,-105.37 198.5,-112 218.88,-138.45 186.51,-686.26 206.5,-713 209.14,-716.53 212.73,-719.13 216.7,-721.04"/>
<polygon fill="#000000" fill-opacity="0.200000" stroke="#000000" stroke-width="2" stroke-opacity="0.200000" points="215.94,-723 222.3,-723.23 217.48,-719.09 215.94,-723"/>
</g>
<!-- src/server/middlewares/handleErrors.ts&#45;&gt;path -->
<g id="edge14" class="edge">
<title>src/server/middlewares/handleErrors.ts&#45;&gt;path</title>
<path fill="none" stroke="#000000" stroke-dasharray="5,2" stroke-opacity="0.200000" d="M145.39,-166.28C150.73,-222.29 179.03,-520.98 198.5,-765 199.5,-777.55 198.89,-867.97 206.5,-878 209.2,-881.56 212.82,-884.28 216.81,-886.35"/>
<polygon fill="#000000" fill-opacity="0.200000" stroke="#000000" stroke-opacity="0.200000" points="216.08,-888.33 222.42,-888.8 217.76,-884.48 216.08,-888.33"/>
</g>
<!-- src/server/middlewares/i18n.ts&#45;&gt;fs -->
<g id="edge15" class="edge">
<title>src/server/middlewares/i18n.ts&#45;&gt;fs</title>
<path fill="none" stroke="#000000" stroke-dasharray="5,2" stroke-opacity="0.200000" d="M170.51,-127.75C180.88,-129.48 191.91,-133.44 198.5,-142 209.6,-156.42 201.31,-779.56 206.5,-797 212.46,-816.99 226.39,-836.76 236.58,-849.37"/>
<polygon fill="#000000" fill-opacity="0.200000" stroke="#000000" stroke-opacity="0.200000" points="234.96,-850.71 240.41,-853.99 238.2,-848.03 234.96,-850.71"/>
</g>
<!-- src/server/middlewares/i18n.ts&#45;&gt;path -->
<g id="edge16" class="edge">
<title>src/server/middlewares/i18n.ts&#45;&gt;path</title>
<path fill="none" stroke="#000000" stroke-dasharray="5,2" stroke-opacity="0.200000" d="M170.51,-127.74C180.89,-129.48 191.92,-133.44 198.5,-142 210.96,-158.21 194.63,-861.35 206.5,-878 209.1,-881.64 212.66,-884.4 216.62,-886.5"/>
<polygon fill="#000000" fill-opacity="0.200000" stroke="#000000" stroke-opacity="0.200000" points="215.87,-888.46 222.21,-888.96 217.56,-884.62 215.87,-888.46"/>
</g>
<!-- src/server/middlewares/renderFullPage.tsx&#45;&gt;src/shared/App.tsx -->
<g id="edge17" class="edge">
<title>src/server/middlewares/renderFullPage.tsx&#45;&gt;src/shared/App.tsx</title>
<path fill="none" stroke="#000000" stroke-width="2" stroke-opacity="0.200000" d="M190.5,-76.12C193.4,-77.77 196.11,-79.71 198.5,-82 200.5,-83.91 308.75,-418.51 333.15,-493.99"/>
<polygon fill="#000000" fill-opacity="0.200000" stroke="#000000" stroke-width="2" stroke-opacity="0.200000" points="331.16,-494.67 335,-499.73 335.16,-493.37 331.16,-494.67"/>
</g>
<!-- src/server/middlewares/renderFullPage.tsx&#45;&gt;src/server/components/html.tsx -->
<g id="edge18" class="edge">
<title>src/server/middlewares/renderFullPage.tsx&#45;&gt;src/server/components/html.tsx</title>
<path fill="none" stroke="#000000" stroke-width="2" stroke-opacity="0.200000" d="M190.72,-67C199.37,-67 208.23,-67 216.33,-67"/>
<polygon fill="#000000" fill-opacity="0.200000" stroke="#000000" stroke-width="2" stroke-opacity="0.200000" points="216.37,-69.1 222.37,-67 216.37,-64.9 216.37,-69.1"/>
</g>
<!-- src/shared/i18n/withLocale.tsx&#45;&gt;src/shared/store/app/types.ts -->
<g id="edge31" class="edge">
<title>src/shared/i18n/withLocale.tsx&#45;&gt;src/shared/store/app/types.ts</title>
<path fill="none" stroke="#000000" stroke-width="2" stroke-opacity="0.200000" d="M464.49,-604.02C467.59,-605.22 470.64,-606.55 473.5,-608 510.52,-626.79 548.18,-658.05 568.09,-675.74"/>
<polygon fill="#000000" fill-opacity="0.200000" stroke="#000000" stroke-width="2" stroke-opacity="0.200000" points="566.89,-677.48 572.75,-679.93 569.69,-674.36 566.89,-677.48"/>
</g>
<!-- src/shared/i18n/withLocale.tsx&#45;&gt;src/shared/i18n/config.ts -->
<g id="edge32" class="edge">
<title>src/shared/i18n/withLocale.tsx&#45;&gt;src/shared/i18n/config.ts</title>
<path fill="none" stroke="#000000" stroke-width="2" stroke-opacity="0.200000" d="M467.75,-589.11C471.66,-588.47 475.62,-587.83 479.47,-587.21"/>
<polygon fill="#000000" fill-opacity="0.200000" stroke="#000000" stroke-width="2" stroke-opacity="0.200000" points="479.83,-589.27 485.42,-586.24 479.16,-585.13 479.83,-589.27"/>
</g>
<!-- src/shared/store/app/actions.ts -->
<g id="node24" class="node">
<title>src/shared/store/app/actions.ts</title>
<g id="a_node24"><a xlink:href="src/shared/store/app/actions.ts" xlink:title="actions.ts">
<path fill="#ddfeff" stroke="black" d="M534,-728C534,-728 491,-728 491,-728 488,-728 485,-725 485,-722 485,-722 485,-716 485,-716 485,-713 488,-710 491,-710 491,-710 534,-710 534,-710 537,-710 540,-713 540,-716 540,-716 540,-722 540,-722 540,-725 537,-728 534,-728"/>
<text text-anchor="middle" x="512.5" y="-716.8" font-family="Helvetica,sans-Serif" font-size="9.00">actions.ts</text>
</a>
</g>
</g>
<!-- src/shared/i18n/withLocale.tsx&#45;&gt;src/shared/store/app/actions.ts -->
<g id="edge29" class="edge">
<title>src/shared/i18n/withLocale.tsx&#45;&gt;src/shared/store/app/actions.ts</title>
<path fill="none" stroke="#000000" stroke-width="2" stroke-opacity="0.200000" d="M467.81,-602.81C469.94,-604.26 471.87,-605.98 473.5,-608 486.91,-624.69 469.5,-686.27 481.5,-704 481.89,-704.58 482.31,-705.14 482.76,-705.67"/>
<polygon fill="#000000" fill-opacity="0.200000" stroke="#000000" stroke-width="2" stroke-opacity="0.200000" points="481.55,-707.42 487.37,-709.97 484.41,-704.34 481.55,-707.42"/>
</g>
<!-- src/shared/store/app/selectors.ts -->
<g id="node25" class="node">
<title>src/shared/store/app/selectors.ts</title>
<g id="a_node25"><a xlink:href="src/shared/store/app/selectors.ts" xlink:title="selectors.ts">
<path fill="#ddfeff" stroke="black" d="M537.5,-698C537.5,-698 487.5,-698 487.5,-698 484.5,-698 481.5,-695 481.5,-692 481.5,-692 481.5,-686 481.5,-686 481.5,-683 484.5,-680 487.5,-680 487.5,-680 537.5,-680 537.5,-680 540.5,-680 543.5,-683 543.5,-686 543.5,-686 543.5,-692 543.5,-692 543.5,-695 540.5,-698 537.5,-698"/>
<text text-anchor="middle" x="512.5" y="-686.8" font-family="Helvetica,sans-Serif" font-size="9.00">selectors.ts</text>
</a>
</g>
</g>
<!-- src/shared/i18n/withLocale.tsx&#45;&gt;src/shared/store/app/selectors.ts -->
<g id="edge30" class="edge">
<title>src/shared/i18n/withLocale.tsx&#45;&gt;src/shared/store/app/selectors.ts</title>
<path fill="none" stroke="#000000" stroke-width="2" stroke-opacity="0.200000" d="M467.71,-603.49C469.81,-604.79 471.76,-606.28 473.5,-608 481.79,-616.21 476.95,-622.26 481.5,-633 487.66,-647.53 496.3,-663.31 502.73,-674.4"/>
<polygon fill="#000000" fill-opacity="0.200000" stroke="#000000" stroke-width="2" stroke-opacity="0.200000" points="501.02,-675.63 505.86,-679.75 504.64,-673.51 501.02,-675.63"/>
</g>
<!-- src/shared/store/app/actions.ts&#45;&gt;src/shared/store/app/types.ts -->
<g id="edge33" class="edge">
<title>src/shared/store/app/actions.ts&#45;&gt;src/shared/store/app/types.ts</title>
<path fill="none" stroke="#000000" stroke-width="2" stroke-opacity="0.200000" d="M534.2,-710C540.9,-707.09 548.43,-703.81 555.52,-700.73"/>
<polygon fill="#000000" fill-opacity="0.200000" stroke="#000000" stroke-width="2" stroke-opacity="0.200000" points="556.67,-702.52 561.33,-698.2 554.99,-698.67 556.67,-702.52"/>
</g>
<!-- src/shared/store/app/selectors.ts&#45;&gt;src/shared/store/app/types.ts -->
<g id="edge36" class="edge">
<title>src/shared/store/app/selectors.ts&#45;&gt;src/shared/store/app/types.ts</title>
<path fill="none" stroke="#000000" stroke-width="2" stroke-opacity="0.200000" d="M543.56,-689C545.67,-689 547.8,-689 549.92,-689"/>
<polygon fill="#000000" fill-opacity="0.200000" stroke="#000000" stroke-width="2" stroke-opacity="0.200000" points="550.21,-691.1 556.21,-689 550.21,-686.9 550.21,-691.1"/>
</g>
<!-- src/shared/store/app/reducers.ts -->
<g id="node26" class="node">
<title>src/shared/store/app/reducers.ts</title>
<g id="a_node26"><a xlink:href="src/shared/store/app/reducers.ts" xlink:title="reducers.ts">
<path fill="#ddfeff" stroke="black" d="M455.5,-735C455.5,-735 405.5,-735 405.5,-735 402.5,-735 399.5,-732 399.5,-729 399.5,-729 399.5,-723 399.5,-723 399.5,-720 402.5,-717 405.5,-717 405.5,-717 455.5,-717 455.5,-717 458.5,-717 461.5,-720 461.5,-723 461.5,-723 461.5,-729 461.5,-729 461.5,-732 458.5,-735 455.5,-735"/>
<text text-anchor="middle" x="430.5" y="-723.8" font-family="Helvetica,sans-Serif" font-size="9.00">reducers.ts</text>
</a>
</g>
</g>
<!-- src/shared/store/app/reducers.ts&#45;&gt;src/shared/store/app/types.ts -->
<g id="edge35" class="edge">
<title>src/shared/store/app/reducers.ts&#45;&gt;src/shared/store/app/types.ts</title>
<path fill="none" stroke="#000000" stroke-width="2" stroke-opacity="0.200000" d="M457.82,-735.04C482.32,-741.84 519.21,-747.84 547.5,-734 560.25,-727.76 569.7,-714.39 575.55,-703.83"/>
<polygon fill="#000000" fill-opacity="0.200000" stroke="#000000" stroke-width="2" stroke-opacity="0.200000" points="577.51,-704.61 578.42,-698.32 573.78,-702.67 577.51,-704.61"/>
</g>
<!-- src/shared/store/app/reducers.ts&#45;&gt;src/shared/store/app/actions.ts -->
<g id="edge34" class="edge">
<title>src/shared/store/app/reducers.ts&#45;&gt;src/shared/store/app/actions.ts</title>
<path fill="none" stroke="#000000" stroke-width="2" stroke-opacity="0.200000" d="M461.74,-723.35C467.33,-722.86 473.19,-722.35 478.85,-721.86"/>
<polygon fill="#000000" fill-opacity="0.200000" stroke="#000000" stroke-width="2" stroke-opacity="0.200000" points="479.09,-723.94 484.89,-721.33 478.73,-719.76 479.09,-723.94"/>
</g>
<!-- src/shared/store/rootReducer.ts&#45;&gt;src/shared/store/app/reducers.ts -->
<g id="edge38" class="edge">
<title>src/shared/store/rootReducer.ts&#45;&gt;src/shared/store/app/reducers.ts</title>
<path fill="none" stroke="#000000" stroke-width="2" stroke-opacity="0.200000" d="M377.7,-726C382.8,-726 388.03,-726 393.12,-726"/>
<polygon fill="#000000" fill-opacity="0.200000" stroke="#000000" stroke-width="2" stroke-opacity="0.200000" points="393.45,-728.1 399.45,-726 393.45,-723.9 393.45,-728.1"/>
</g>
</g>
</svg>
