<?xml version="1.0" encoding="UTF-8" standalone="no"?>
<!DOCTYPE svg PUBLIC "-//W3C//DTD SVG 1.1//EN"
 "http://www.w3.org/Graphics/SVG/1.1/DTD/svg11.dtd">
<!-- Generated by graphviz version 2.44.1 (20200629.0846)
 -->
<!-- Title: dependency&#45;cruiser output Pages: 1 -->
<svg width="774pt" height="1163pt"
 viewBox="0.00 0.00 773.50 1162.68" xmlns="http://www.w3.org/2000/svg" xmlns:xlink="http://www.w3.org/1999/xlink">
<g id="graph0" class="graph" transform="scale(1 1) rotate(0) translate(4 1158.68)">
<title>dependency&#45;cruiser output</title>
<polygon fill="white" stroke="transparent" points="-4,4 -4,-1158.68 769.5,-1158.68 769.5,4 -4,4"/>
<g id="clust1" class="cluster">
<title>cluster_config</title>
<path fill="#ffffff" stroke="black" stroke-width="2" d="M120.5,-1083.48C120.5,-1083.48 166.5,-1083.48 166.5,-1083.48 172.5,-1083.48 178.5,-1089.48 178.5,-1095.48 178.5,-1095.48 178.5,-1123.48 178.5,-1123.48 178.5,-1129.48 172.5,-1135.48 166.5,-1135.48 166.5,-1135.48 120.5,-1135.48 120.5,-1135.48 114.5,-1135.48 108.5,-1129.48 108.5,-1123.48 108.5,-1123.48 108.5,-1095.48 108.5,-1095.48 108.5,-1089.48 114.5,-1083.48 120.5,-1083.48"/>
<text text-anchor="middle" x="143.5" y="-1124.28" font-family="Helvetica,sans-Serif" font-weight="bold" font-size="9.00">config</text>
</g>
<g id="clust2" class="cluster">
<title>cluster_src</title>
<path fill="#ffffff" stroke="black" stroke-width="2" d="M20,-13.48C20,-13.48 745.5,-13.48 745.5,-13.48 751.5,-13.48 757.5,-19.48 757.5,-25.48 757.5,-25.48 757.5,-1063.48 757.5,-1063.48 757.5,-1069.48 751.5,-1075.48 745.5,-1075.48 745.5,-1075.48 20,-1075.48 20,-1075.48 14,-1075.48 8,-1069.48 8,-1063.48 8,-1063.48 8,-25.48 8,-25.48 8,-19.48 14,-13.48 20,-13.48"/>
<text text-anchor="middle" x="382.75" y="-1064.28" font-family="Helvetica,sans-Serif" font-weight="bold" font-size="9.00">src</text>
</g>
<g id="clust3" class="cluster">
<title>cluster_src/client</title>
<path fill="#ffffff" stroke="black" stroke-width="2" d="M120.5,-333.48C120.5,-333.48 166.5,-333.48 166.5,-333.48 172.5,-333.48 178.5,-339.48 178.5,-345.48 178.5,-345.48 178.5,-373.48 178.5,-373.48 178.5,-379.48 172.5,-385.48 166.5,-385.48 166.5,-385.48 120.5,-385.48 120.5,-385.48 114.5,-385.48 108.5,-379.48 108.5,-373.48 108.5,-373.48 108.5,-345.48 108.5,-345.48 108.5,-339.48 114.5,-333.48 120.5,-333.48"/>
<text text-anchor="middle" x="143.5" y="-374.28" font-family="Helvetica,sans-Serif" font-weight="bold" font-size="9.00">client</text>
</g>
<g id="clust4" class="cluster">
<title>cluster_src/server</title>
<path fill="#ffffff" stroke="black" stroke-width="2" d="M28,-873.48C28,-873.48 272.5,-873.48 272.5,-873.48 278.5,-873.48 284.5,-879.48 284.5,-885.48 284.5,-885.48 284.5,-1037.48 284.5,-1037.48 284.5,-1043.48 278.5,-1049.48 272.5,-1049.48 272.5,-1049.48 28,-1049.48 28,-1049.48 22,-1049.48 16,-1043.48 16,-1037.48 16,-1037.48 16,-885.48 16,-885.48 16,-879.48 22,-873.48 28,-873.48"/>
<text text-anchor="middle" x="150.25" y="-1038.28" font-family="Helvetica,sans-Serif" font-weight="bold" font-size="9.00">server</text>
</g>
<g id="clust5" class="cluster">
<title>cluster_src/server/components</title>
<path fill="#ffffff" stroke="black" stroke-width="2" d="M218.5,-881.48C218.5,-881.48 264.5,-881.48 264.5,-881.48 270.5,-881.48 276.5,-887.48 276.5,-893.48 276.5,-893.48 276.5,-921.48 276.5,-921.48 276.5,-927.48 270.5,-933.48 264.5,-933.48 264.5,-933.48 218.5,-933.48 218.5,-933.48 212.5,-933.48 206.5,-927.48 206.5,-921.48 206.5,-921.48 206.5,-893.48 206.5,-893.48 206.5,-887.48 212.5,-881.48 218.5,-881.48"/>
<text text-anchor="middle" x="241.5" y="-922.28" font-family="Helvetica,sans-Serif" font-weight="bold" font-size="9.00">components</text>
</g>
<g id="clust6" class="cluster">
<title>cluster_src/server/middlewares</title>
<path fill="#ffffff" stroke="black" stroke-width="2" d="M100.5,-881.48C100.5,-881.48 186.5,-881.48 186.5,-881.48 192.5,-881.48 198.5,-887.48 198.5,-893.48 198.5,-893.48 198.5,-1011.48 198.5,-1011.48 198.5,-1017.48 192.5,-1023.48 186.5,-1023.48 186.5,-1023.48 100.5,-1023.48 100.5,-1023.48 94.5,-1023.48 88.5,-1017.48 88.5,-1011.48 88.5,-1011.48 88.5,-893.48 88.5,-893.48 88.5,-887.48 94.5,-881.48 100.5,-881.48"/>
<text text-anchor="middle" x="143.5" y="-1012.28" font-family="Helvetica,sans-Serif" font-weight="bold" font-size="9.00">middlewares</text>
</g>
<g id="clust7" class="cluster">
<title>cluster_src/shared</title>
<path fill="#ffffff" stroke="black" stroke-width="2" d="M218.5,-27.48C218.5,-27.48 737.5,-27.48 737.5,-27.48 743.5,-27.48 749.5,-33.48 749.5,-39.48 749.5,-39.48 749.5,-853.48 749.5,-853.48 749.5,-859.48 743.5,-865.48 737.5,-865.48 737.5,-865.48 218.5,-865.48 218.5,-865.48 212.5,-865.48 206.5,-859.48 206.5,-853.48 206.5,-853.48 206.5,-39.48 206.5,-39.48 206.5,-33.48 212.5,-27.48 218.5,-27.48"/>
<text text-anchor="middle" x="478" y="-854.28" font-family="Helvetica,sans-Serif" font-weight="bold" font-size="9.00">shared</text>
</g>
<g id="clust8" class="cluster">
<title>cluster_src/shared/assets</title>
<path fill="#ffffff" stroke="black" stroke-width="2" d="M400,-609.48C400,-609.48 456,-609.48 456,-609.48 462,-609.48 468,-615.48 468,-621.48 468,-621.48 468,-679.48 468,-679.48 468,-685.48 462,-691.48 456,-691.48 456,-691.48 400,-691.48 400,-691.48 394,-691.48 388,-685.48 388,-679.48 388,-679.48 388,-621.48 388,-621.48 388,-615.48 394,-609.48 400,-609.48"/>
<text text-anchor="middle" x="428" y="-680.28" font-family="Helvetica,sans-Serif" font-weight="bold" font-size="9.00">assets</text>
</g>
<g id="clust9" class="cluster">
<title>cluster_src/shared/components</title>
<path fill="#ffffff" stroke="black" stroke-width="2" d="M304.5,-61.48C304.5,-61.48 576.5,-61.48 576.5,-61.48 582.5,-61.48 588.5,-67.48 588.5,-73.48 588.5,-73.48 588.5,-255.48 588.5,-255.48 588.5,-261.48 582.5,-267.48 576.5,-267.48 576.5,-267.48 304.5,-267.48 304.5,-267.48 298.5,-267.48 292.5,-261.48 292.5,-255.48 292.5,-255.48 292.5,-73.48 292.5,-73.48 292.5,-67.48 298.5,-61.48 304.5,-61.48"/>
<text text-anchor="middle" x="440.5" y="-256.28" font-family="Helvetica,sans-Serif" font-weight="bold" font-size="9.00">components</text>
</g>
<g id="clust10" class="cluster">
<title>cluster_src/shared/components/organisms</title>
<path fill="#ffffff" stroke="black" stroke-width="2" d="M390.5,-189.48C390.5,-189.48 568.5,-189.48 568.5,-189.48 574.5,-189.48 580.5,-195.48 580.5,-201.48 580.5,-201.48 580.5,-229.48 580.5,-229.48 580.5,-235.48 574.5,-241.48 568.5,-241.48 568.5,-241.48 390.5,-241.48 390.5,-241.48 384.5,-241.48 378.5,-235.48 378.5,-229.48 378.5,-229.48 378.5,-201.48 378.5,-201.48 378.5,-195.48 384.5,-189.48 390.5,-189.48"/>
<text text-anchor="middle" x="479.5" y="-230.28" font-family="Helvetica,sans-Serif" font-weight="bold" font-size="9.00">organisms</text>
</g>
<g id="clust11" class="cluster">
<title>cluster_src/shared/components/sections</title>
<path fill="#ffffff" stroke="black" stroke-width="2" d="M312.5,-69.48C312.5,-69.48 458.5,-69.48 458.5,-69.48 464.5,-69.48 470.5,-75.48 470.5,-81.48 470.5,-81.48 470.5,-169.48 470.5,-169.48 470.5,-175.48 464.5,-181.48 458.5,-181.48 458.5,-181.48 312.5,-181.48 312.5,-181.48 306.5,-181.48 300.5,-175.48 300.5,-169.48 300.5,-169.48 300.5,-81.48 300.5,-81.48 300.5,-75.48 306.5,-69.48 312.5,-69.48"/>
<text text-anchor="middle" x="385.5" y="-170.28" font-family="Helvetica,sans-Serif" font-weight="bold" font-size="9.00">sections</text>
</g>
<g id="clust12" class="cluster">
<title>cluster_src/shared/i18n</title>
<path fill="#ffffff" stroke="black" stroke-width="2" d="M494.5,-619.48C494.5,-619.48 650.5,-619.48 650.5,-619.48 656.5,-619.48 662.5,-625.48 662.5,-631.48 662.5,-631.48 662.5,-689.48 662.5,-689.48 662.5,-695.48 656.5,-701.48 650.5,-701.48 650.5,-701.48 494.5,-701.48 494.5,-701.48 488.5,-701.48 482.5,-695.48 482.5,-689.48 482.5,-689.48 482.5,-631.48 482.5,-631.48 482.5,-625.48 488.5,-619.48 494.5,-619.48"/>
<text text-anchor="middle" x="572.5" y="-690.28" font-family="Helvetica,sans-Serif" font-weight="bold" font-size="9.00">i18n</text>
</g>
<g id="clust13" class="cluster">
<title>cluster_src/shared/pages</title>
<path fill="#ffffff" stroke="black" stroke-width="2" d="M397,-275.48C397,-275.48 459,-275.48 459,-275.48 465,-275.48 471,-281.48 471,-287.48 471,-287.48 471,-589.48 471,-589.48 471,-595.48 465,-601.48 459,-601.48 459,-601.48 397,-601.48 397,-601.48 391,-601.48 385,-595.48 385,-589.48 385,-589.48 385,-287.48 385,-287.48 385,-281.48 391,-275.48 397,-275.48"/>
<text text-anchor="middle" x="428" y="-590.28" font-family="Helvetica,sans-Serif" font-weight="bold" font-size="9.00">pages</text>
</g>
<g id="clust14" class="cluster">
<title>cluster_src/shared/pages/404</title>
<path fill="#ffffff" stroke="black" stroke-width="2" d="M405,-523.48C405,-523.48 451,-523.48 451,-523.48 457,-523.48 463,-529.48 463,-535.48 463,-535.48 463,-563.48 463,-563.48 463,-569.48 457,-575.48 451,-575.48 451,-575.48 405,-575.48 405,-575.48 399,-575.48 393,-569.48 393,-563.48 393,-563.48 393,-535.48 393,-535.48 393,-529.48 399,-523.48 405,-523.48"/>
<text text-anchor="middle" x="428" y="-564.28" font-family="Helvetica,sans-Serif" font-weight="bold" font-size="9.00">404</text>
</g>
<g id="clust15" class="cluster">
<title>cluster_src/shared/pages/home</title>
<path fill="#ffffff" stroke="black" stroke-width="2" d="M405,-463.48C405,-463.48 451,-463.48 451,-463.48 457,-463.48 463,-469.48 463,-475.48 463,-475.48 463,-503.48 463,-503.48 463,-509.48 457,-515.48 451,-515.48 451,-515.48 405,-515.48 405,-515.48 399,-515.48 393,-509.48 393,-503.48 393,-503.48 393,-475.48 393,-475.48 393,-469.48 399,-463.48 405,-463.48"/>
<text text-anchor="middle" x="428" y="-504.28" font-family="Helvetica,sans-Serif" font-weight="bold" font-size="9.00">home</text>
</g>
<g id="clust16" class="cluster">
<title>cluster_src/shared/pages/page&#45;1</title>
<path fill="#ffffff" stroke="black" stroke-width="2" d="M405,-403.48C405,-403.48 451,-403.48 451,-403.48 457,-403.48 463,-409.48 463,-415.48 463,-415.48 463,-443.48 463,-443.48 463,-449.48 457,-455.48 451,-455.48 451,-455.48 405,-455.48 405,-455.48 399,-455.48 393,-449.48 393,-443.48 393,-443.48 393,-415.48 393,-415.48 393,-409.48 399,-403.48 405,-403.48"/>
<text text-anchor="middle" x="428" y="-444.28" font-family="Helvetica,sans-Serif" font-weight="bold" font-size="9.00">page&#45;1</text>
</g>
<g id="clust17" class="cluster">
<title>cluster_src/shared/pages/page&#45;2</title>
<path fill="#ffffff" stroke="black" stroke-width="2" d="M405,-343.48C405,-343.48 451,-343.48 451,-343.48 457,-343.48 463,-349.48 463,-355.48 463,-355.48 463,-383.48 463,-383.48 463,-389.48 457,-395.48 451,-395.48 451,-395.48 405,-395.48 405,-395.48 399,-395.48 393,-389.48 393,-383.48 393,-383.48 393,-355.48 393,-355.48 393,-349.48 399,-343.48 405,-343.48"/>
<text text-anchor="middle" x="428" y="-384.28" font-family="Helvetica,sans-Serif" font-weight="bold" font-size="9.00">page&#45;2</text>
</g>
<g id="clust18" class="cluster">
<title>cluster_src/shared/pages/page&#45;3</title>
<path fill="#ffffff" stroke="black" stroke-width="2" d="M405,-283.48C405,-283.48 451,-283.48 451,-283.48 457,-283.48 463,-289.48 463,-295.48 463,-295.48 463,-323.48 463,-323.48 463,-329.48 457,-335.48 451,-335.48 451,-335.48 405,-335.48 405,-335.48 399,-335.48 393,-329.48 393,-323.48 393,-323.48 393,-295.48 393,-295.48 393,-289.48 399,-283.48 405,-283.48"/>
<text text-anchor="middle" x="428" y="-324.28" font-family="Helvetica,sans-Serif" font-weight="bold" font-size="9.00">page&#45;3</text>
</g>
<g id="clust19" class="cluster">
<title>cluster_src/shared/store</title>
<path fill="#ffffff" stroke="black" stroke-width="2" d="M316.5,-709.48C316.5,-709.48 729.5,-709.48 729.5,-709.48 735.5,-709.48 741.5,-715.48 741.5,-721.48 741.5,-721.48 741.5,-827.48 741.5,-827.48 741.5,-833.48 735.5,-839.48 729.5,-839.48 729.5,-839.48 316.5,-839.48 316.5,-839.48 310.5,-839.48 304.5,-833.48 304.5,-827.48 304.5,-827.48 304.5,-721.48 304.5,-721.48 304.5,-715.48 310.5,-709.48 316.5,-709.48"/>
<text text-anchor="middle" x="523" y="-828.28" font-family="Helvetica,sans-Serif" font-weight="bold" font-size="9.00">store</text>
</g>
<g id="clust20" class="cluster">
<title>cluster_src/shared/store/app</title>
<path fill="#ffffff" stroke="black" stroke-width="2" d="M500.5,-717.48C500.5,-717.48 721.5,-717.48 721.5,-717.48 727.5,-717.48 733.5,-723.48 733.5,-729.48 733.5,-729.48 733.5,-801.48 733.5,-801.48 733.5,-807.48 727.5,-813.48 721.5,-813.48 721.5,-813.48 500.5,-813.48 500.5,-813.48 494.5,-813.48 488.5,-807.48 488.5,-801.48 488.5,-801.48 488.5,-729.48 488.5,-729.48 488.5,-723.48 494.5,-717.48 500.5,-717.48"/>
<text text-anchor="middle" x="611" y="-802.28" font-family="Helvetica,sans-Serif" font-weight="bold" font-size="9.00">app</text>
</g>
<!-- config/paths.ts -->
<g id="node1" class="node">
<title>config/paths.ts</title>
<g id="a_node1"><a xlink:href="config/paths.ts" xlink:title="paths.ts">
<path fill="#ddfeff" stroke="black" d="M164.5,-1109.48C164.5,-1109.48 122.5,-1109.48 122.5,-1109.48 119.5,-1109.48 116.5,-1106.48 116.5,-1103.48 116.5,-1103.48 116.5,-1097.48 116.5,-1097.48 116.5,-1094.48 119.5,-1091.48 122.5,-1091.48 122.5,-1091.48 164.5,-1091.48 164.5,-1091.48 167.5,-1091.48 170.5,-1094.48 170.5,-1097.48 170.5,-1097.48 170.5,-1103.48 170.5,-1103.48 170.5,-1106.48 167.5,-1109.48 164.5,-1109.48"/>
<text text-anchor="middle" x="143.5" y="-1098.28" font-family="Helvetica,sans-Serif" font-size="9.00">paths.ts</text>
</a>
</g>
</g>
<!-- fs -->
<g id="node2" class="node">
<title>fs</title>
<path fill="#ffffcc" stroke="grey" d="M262.5,-1101.48C262.5,-1101.48 220.5,-1101.48 220.5,-1101.48 217.5,-1101.48 214.5,-1098.48 214.5,-1095.48 214.5,-1095.48 214.5,-1089.48 214.5,-1089.48 214.5,-1086.48 217.5,-1083.48 220.5,-1083.48 220.5,-1083.48 262.5,-1083.48 262.5,-1083.48 265.5,-1083.48 268.5,-1086.48 268.5,-1089.48 268.5,-1089.48 268.5,-1095.48 268.5,-1095.48 268.5,-1098.48 265.5,-1101.48 262.5,-1101.48"/>
<text text-anchor="middle" x="241.5" y="-1090.28" font-family="Helvetica,sans-Serif" font-size="9.00" fill="grey">fs</text>
</g>
<!-- config/paths.ts&#45;&gt;fs -->
<g id="edge1" class="edge">
<title>config/paths.ts&#45;&gt;fs</title>
<path fill="none" stroke="#000000" stroke-dasharray="5,2" stroke-opacity="0.200000" d="M170.73,-1098.29C182.27,-1097.33 195.93,-1096.19 208.09,-1095.18"/>
<polygon fill="#000000" fill-opacity="0.200000" stroke="#000000" stroke-opacity="0.200000" points="208.49,-1097.25 214.3,-1094.66 208.15,-1093.07 208.49,-1097.25"/>
</g>
<!-- path -->
<g id="node3" class="node">
<title>path</title>
<path fill="#ffffcc" stroke="grey" d="M262.5,-1131.48C262.5,-1131.48 220.5,-1131.48 220.5,-1131.48 217.5,-1131.48 214.5,-1128.48 214.5,-1125.48 214.5,-1125.48 214.5,-1119.48 214.5,-1119.48 214.5,-1116.48 217.5,-1113.48 220.5,-1113.48 220.5,-1113.48 262.5,-1113.48 262.5,-1113.48 265.5,-1113.48 268.5,-1116.48 268.5,-1119.48 268.5,-1119.48 268.5,-1125.48 268.5,-1125.48 268.5,-1128.48 265.5,-1131.48 262.5,-1131.48"/>
<text text-anchor="middle" x="241.5" y="-1120.28" font-family="Helvetica,sans-Serif" font-size="9.00" fill="grey">path</text>
</g>
<!-- config/paths.ts&#45;&gt;path -->
<g id="edge2" class="edge">
<title>config/paths.ts&#45;&gt;path</title>
<path fill="none" stroke="#000000" stroke-dasharray="5,2" stroke-opacity="0.200000" d="M170.73,-1106.49C182.37,-1109.16 196.18,-1112.32 208.43,-1115.13"/>
<polygon fill="#000000" fill-opacity="0.200000" stroke="#000000" stroke-opacity="0.200000" points="207.98,-1117.18 214.3,-1116.47 208.92,-1113.09 207.98,-1117.18"/>
</g>
<!-- src/client/index.tsx -->
<g id="node4" class="node">
<title>src/client/index.tsx</title>
<g id="a_node4"><a xlink:href="src/client/index.tsx" xlink:title="index.tsx">
<path fill="#bbfeff" stroke="black" d="M164.5,-359.48C164.5,-359.48 122.5,-359.48 122.5,-359.48 119.5,-359.48 116.5,-356.48 116.5,-353.48 116.5,-353.48 116.5,-347.48 116.5,-347.48 116.5,-344.48 119.5,-341.48 122.5,-341.48 122.5,-341.48 164.5,-341.48 164.5,-341.48 167.5,-341.48 170.5,-344.48 170.5,-347.48 170.5,-347.48 170.5,-353.48 170.5,-353.48 170.5,-356.48 167.5,-359.48 164.5,-359.48"/>
<text text-anchor="middle" x="143.5" y="-348.28" font-family="Helvetica,sans-Serif" font-size="9.00">index.tsx</text>
</a>
</g>
</g>
<!-- src/shared/App.tsx -->
<g id="node5" class="node">
<title>src/shared/App.tsx</title>
<g id="a_node5"><a xlink:href="src/shared/App.tsx" xlink:title="App.tsx">
<path fill="#bbfeff" stroke="black" d="M262.5,-381.48C262.5,-381.48 220.5,-381.48 220.5,-381.48 217.5,-381.48 214.5,-378.48 214.5,-375.48 214.5,-375.48 214.5,-369.48 214.5,-369.48 214.5,-366.48 217.5,-363.48 220.5,-363.48 220.5,-363.48 262.5,-363.48 262.5,-363.48 265.5,-363.48 268.5,-366.48 268.5,-369.48 268.5,-369.48 268.5,-375.48 268.5,-375.48 268.5,-378.48 265.5,-381.48 262.5,-381.48"/>
<text text-anchor="middle" x="241.5" y="-370.28" font-family="Helvetica,sans-Serif" font-size="9.00">App.tsx</text>
</a>
</g>
</g>
<!-- src/client/index.tsx&#45;&gt;src/shared/App.tsx -->
<g id="edge3" class="edge">
<title>src/client/index.tsx&#45;&gt;src/shared/App.tsx</title>
<path fill="none" stroke="#000000" stroke-width="2" stroke-opacity="0.200000" d="M170.73,-356.49C182.37,-359.16 196.18,-362.32 208.43,-365.13"/>
<polygon fill="#000000" fill-opacity="0.200000" stroke="#000000" stroke-width="2" stroke-opacity="0.200000" points="207.98,-367.18 214.3,-366.47 208.92,-363.09 207.98,-367.18"/>
</g>
<!-- src/shared/i18n/index.tsx -->
<g id="node6" class="node">
<title>src/shared/i18n/index.tsx</title>
<g id="a_node6"><a xlink:href="src/shared/i18n/index.tsx" xlink:title="index.tsx">
<path fill="#bbfeff" stroke="black" d="M548.5,-645.48C548.5,-645.48 506.5,-645.48 506.5,-645.48 503.5,-645.48 500.5,-642.48 500.5,-639.48 500.5,-639.48 500.5,-633.48 500.5,-633.48 500.5,-630.48 503.5,-627.48 506.5,-627.48 506.5,-627.48 548.5,-627.48 548.5,-627.48 551.5,-627.48 554.5,-630.48 554.5,-633.48 554.5,-633.48 554.5,-639.48 554.5,-639.48 554.5,-642.48 551.5,-645.48 548.5,-645.48"/>
<text text-anchor="middle" x="527.5" y="-634.28" font-family="Helvetica,sans-Serif" font-size="9.00">index.tsx</text>
</a>
</g>
</g>
<!-- src/client/index.tsx&#45;&gt;src/shared/i18n/index.tsx -->
<g id="edge4" class="edge">
<title>src/client/index.tsx&#45;&gt;src/shared/i18n/index.tsx</title>
<path fill="none" stroke="#000000" stroke-width="2" stroke-opacity="0.200000" d="M146.9,-341.27C157.39,-302.59 202.87,-151.34 292.5,-66.48 351.47,-10.65 412.08,28.4 471,-27.48 479.76,-35.79 481.51,-232.45 482.5,-244.48 494.66,-391.74 517.58,-569.24 524.48,-621.39"/>
<polygon fill="#000000" fill-opacity="0.200000" stroke="#000000" stroke-width="2" stroke-opacity="0.200000" points="522.41,-621.71 525.28,-627.38 526.57,-621.16 522.41,-621.71"/>
</g>
<!-- src/shared/store/index.ts -->
<g id="node7" class="node">
<title>src/shared/store/index.ts</title>
<g id="a_node7"><a xlink:href="src/shared/store/index.ts" xlink:title="index.ts">
<path fill="#ddfeff" stroke="black" d="M360.5,-773.48C360.5,-773.48 318.5,-773.48 318.5,-773.48 315.5,-773.48 312.5,-770.48 312.5,-767.48 312.5,-767.48 312.5,-761.48 312.5,-761.48 312.5,-758.48 315.5,-755.48 318.5,-755.48 318.5,-755.48 360.5,-755.48 360.5,-755.48 363.5,-755.48 366.5,-758.48 366.5,-761.48 366.5,-761.48 366.5,-767.48 366.5,-767.48 366.5,-770.48 363.5,-773.48 360.5,-773.48"/>
<text text-anchor="middle" x="339.5" y="-762.28" font-family="Helvetica,sans-Serif" font-size="9.00">index.ts</text>
</a>
</g>
</g>
<!-- src/client/index.tsx&#45;&gt;src/shared/store/index.ts -->
<g id="edge5" class="edge">
<title>src/client/index.tsx&#45;&gt;src/shared/store/index.ts</title>
<path fill="none" stroke="#000000" stroke-width="2" stroke-opacity="0.200000" d="M170.62,-342.04C202.35,-333.61 255.24,-325.76 284.5,-355.48 299.94,-371.16 279.05,-734.07 292.5,-751.48 296,-756.01 300.96,-759.05 306.34,-761.06"/>
<polygon fill="#000000" fill-opacity="0.200000" stroke="#000000" stroke-width="2" stroke-opacity="0.200000" points="305.93,-763.13 312.28,-762.87 307.15,-759.11 305.93,-763.13"/>
</g>
<!-- src/shared/App.scss -->
<g id="node17" class="node">
<title>src/shared/App.scss</title>
<g id="a_node17"><a xlink:href="src/shared/App.scss" xlink:title="App.scss">
<path fill="#ffffcc" stroke="black" d="M360.5,-381.48C360.5,-381.48 318.5,-381.48 318.5,-381.48 315.5,-381.48 312.5,-378.48 312.5,-375.48 312.5,-375.48 312.5,-369.48 312.5,-369.48 312.5,-366.48 315.5,-363.48 318.5,-363.48 318.5,-363.48 360.5,-363.48 360.5,-363.48 363.5,-363.48 366.5,-366.48 366.5,-369.48 366.5,-369.48 366.5,-375.48 366.5,-375.48 366.5,-378.48 363.5,-381.48 360.5,-381.48"/>
<text text-anchor="middle" x="339.5" y="-370.28" font-family="Helvetica,sans-Serif" font-size="9.00">App.scss</text>
</a>
</g>
</g>
<!-- src/shared/App.tsx&#45;&gt;src/shared/App.scss -->
<g id="edge21" class="edge">
<title>src/shared/App.tsx&#45;&gt;src/shared/App.scss</title>
<path fill="none" stroke="#000000" stroke-width="2" stroke-opacity="0.200000" d="M268.73,-372.48C280.27,-372.48 293.93,-372.48 306.09,-372.48"/>
<polygon fill="#000000" fill-opacity="0.200000" stroke="#000000" stroke-width="2" stroke-opacity="0.200000" points="306.3,-374.58 312.3,-372.48 306.3,-370.38 306.3,-374.58"/>
</g>
<!-- src/shared/assets/favicon.png -->
<g id="node18" class="node">
<title>src/shared/assets/favicon.png</title>
<g id="a_node18"><a xlink:href="src/shared/assets/favicon.png" xlink:title="favicon.png">
<path fill="#ffffcc" stroke="black" d="M454,-665.48C454,-665.48 402,-665.48 402,-665.48 399,-665.48 396,-662.48 396,-659.48 396,-659.48 396,-653.48 396,-653.48 396,-650.48 399,-647.48 402,-647.48 402,-647.48 454,-647.48 454,-647.48 457,-647.48 460,-650.48 460,-653.48 460,-653.48 460,-659.48 460,-659.48 460,-662.48 457,-665.48 454,-665.48"/>
<text text-anchor="middle" x="428" y="-654.28" font-family="Helvetica,sans-Serif" font-size="9.00">favicon.png</text>
</a>
</g>
</g>
<!-- src/shared/App.tsx&#45;&gt;src/shared/assets/favicon.png -->
<g id="edge22" class="edge">
<title>src/shared/App.tsx&#45;&gt;src/shared/assets/favicon.png</title>
<path fill="none" stroke="#000000" stroke-width="2" stroke-opacity="0.200000" d="M244.36,-381.49C252.65,-419.28 289.74,-566.52 378.5,-641.48 381.93,-644.37 385.91,-646.71 390.08,-648.59"/>
<polygon fill="#000000" fill-opacity="0.200000" stroke="#000000" stroke-width="2" stroke-opacity="0.200000" points="389.52,-650.63 395.87,-650.9 391.07,-646.73 389.52,-650.63"/>
</g>
<!-- src/shared/components/sections/Content.tsx -->
<g id="node19" class="node">
<title>src/shared/components/sections/Content.tsx</title>
<g id="a_node19"><a xlink:href="src/shared/components/sections/Content.tsx" xlink:title="Content.tsx">
<path fill="#bbfeff" stroke="black" d="M364.5,-155.48C364.5,-155.48 314.5,-155.48 314.5,-155.48 311.5,-155.48 308.5,-152.48 308.5,-149.48 308.5,-149.48 308.5,-143.48 308.5,-143.48 308.5,-140.48 311.5,-137.48 314.5,-137.48 314.5,-137.48 364.5,-137.48 364.5,-137.48 367.5,-137.48 370.5,-140.48 370.5,-143.48 370.5,-143.48 370.5,-149.48 370.5,-149.48 370.5,-152.48 367.5,-155.48 364.5,-155.48"/>
<text text-anchor="middle" x="339.5" y="-144.28" font-family="Helvetica,sans-Serif" font-size="9.00">Content.tsx</text>
</a>
</g>
</g>
<!-- src/shared/App.tsx&#45;&gt;src/shared/components/sections/Content.tsx -->
<g id="edge23" class="edge">
<title>src/shared/App.tsx&#45;&gt;src/shared/components/sections/Content.tsx</title>
<path fill="none" stroke="#000000" stroke-width="2" stroke-opacity="0.200000" d="M243.42,-363.32C247.31,-326.51 263.49,-189.82 292.5,-159.48 295.35,-156.5 298.83,-154.18 302.59,-152.39"/>
<polygon fill="#000000" fill-opacity="0.200000" stroke="#000000" stroke-width="2" stroke-opacity="0.200000" points="303.46,-154.3 308.24,-150.12 301.89,-150.4 303.46,-154.3"/>
</g>
<!-- src/shared/components/sections/Footer.tsx -->
<g id="node20" class="node">
<title>src/shared/components/sections/Footer.tsx</title>
<g id="a_node20"><a xlink:href="src/shared/components/sections/Footer.tsx" xlink:title="Footer.tsx">
<path fill="#bbfeff" stroke="black" d="M361.5,-95.48C361.5,-95.48 317.5,-95.48 317.5,-95.48 314.5,-95.48 311.5,-92.48 311.5,-89.48 311.5,-89.48 311.5,-83.48 311.5,-83.48 311.5,-80.48 314.5,-77.48 317.5,-77.48 317.5,-77.48 361.5,-77.48 361.5,-77.48 364.5,-77.48 367.5,-80.48 367.5,-83.48 367.5,-83.48 367.5,-89.48 367.5,-89.48 367.5,-92.48 364.5,-95.48 361.5,-95.48"/>
<text text-anchor="middle" x="339.5" y="-84.28" font-family="Helvetica,sans-Serif" font-size="9.00">Footer.tsx</text>
</a>
</g>
</g>
<!-- src/shared/App.tsx&#45;&gt;src/shared/components/sections/Footer.tsx -->
<g id="edge24" class="edge">
<title>src/shared/App.tsx&#45;&gt;src/shared/components/sections/Footer.tsx</title>
<path fill="none" stroke="#000000" stroke-width="2" stroke-opacity="0.200000" d="M242.96,-363.3C245.29,-320.63 257.05,-141.98 292.5,-101.48 296,-97.48 300.58,-94.54 305.49,-92.39"/>
<polygon fill="#000000" fill-opacity="0.200000" stroke="#000000" stroke-width="2" stroke-opacity="0.200000" points="306.47,-94.26 311.36,-90.19 305,-90.32 306.47,-94.26"/>
</g>
<!-- src/shared/components/sections/Header.tsx -->
<g id="node21" class="node">
<title>src/shared/components/sections/Header.tsx</title>
<g id="a_node21"><a xlink:href="src/shared/components/sections/Header.tsx" xlink:title="Header.tsx">
<path fill="#bbfeff" stroke="black" d="M364,-125.48C364,-125.48 315,-125.48 315,-125.48 312,-125.48 309,-122.48 309,-119.48 309,-119.48 309,-113.48 309,-113.48 309,-110.48 312,-107.48 315,-107.48 315,-107.48 364,-107.48 364,-107.48 367,-107.48 370,-110.48 370,-113.48 370,-113.48 370,-119.48 370,-119.48 370,-122.48 367,-125.48 364,-125.48"/>
<text text-anchor="middle" x="339.5" y="-114.28" font-family="Helvetica,sans-Serif" font-size="9.00">Header.tsx</text>
</a>
</g>
</g>
<!-- src/shared/App.tsx&#45;&gt;src/shared/components/sections/Header.tsx -->
<g id="edge25" class="edge">
<title>src/shared/App.tsx&#45;&gt;src/shared/components/sections/Header.tsx</title>
<path fill="none" stroke="#000000" stroke-width="2" stroke-opacity="0.200000" d="M243.19,-363.27C246.37,-323.5 260.72,-166.98 292.5,-131.48 295.43,-128.21 299.08,-125.65 303.03,-123.64"/>
<polygon fill="#000000" fill-opacity="0.200000" stroke="#000000" stroke-width="2" stroke-opacity="0.200000" points="303.9,-125.56 308.57,-121.24 302.23,-121.7 303.9,-125.56"/>
</g>
<!-- src/shared/i18n/withLocale.tsx -->
<g id="node22" class="node">
<title>src/shared/i18n/withLocale.tsx</title>
<g id="a_node22"><a xlink:href="src/shared/i18n/withLocale.tsx" xlink:title="withLocale.tsx">
<path fill="#bbfeff" stroke="black" d="M558.5,-675.48C558.5,-675.48 496.5,-675.48 496.5,-675.48 493.5,-675.48 490.5,-672.48 490.5,-669.48 490.5,-669.48 490.5,-663.48 490.5,-663.48 490.5,-660.48 493.5,-657.48 496.5,-657.48 496.5,-657.48 558.5,-657.48 558.5,-657.48 561.5,-657.48 564.5,-660.48 564.5,-663.48 564.5,-663.48 564.5,-669.48 564.5,-669.48 564.5,-672.48 561.5,-675.48 558.5,-675.48"/>
<text text-anchor="middle" x="527.5" y="-664.28" font-family="Helvetica,sans-Serif" font-size="9.00">withLocale.tsx</text>
</a>
</g>
</g>
<!-- src/shared/App.tsx&#45;&gt;src/shared/i18n/withLocale.tsx -->
<g id="edge26" class="edge">
<title>src/shared/App.tsx&#45;&gt;src/shared/i18n/withLocale.tsx</title>
<path fill="none" stroke="#000000" stroke-width="2" stroke-opacity="0.200000" d="M242.59,-381.58C243.6,-427.44 255.07,-633.31 378.5,-694.48 415.34,-712.73 431.01,-704 471,-694.48 483.93,-691.4 497.27,-684.8 507.63,-678.78"/>
<polygon fill="#000000" fill-opacity="0.200000" stroke="#000000" stroke-width="2" stroke-opacity="0.200000" points="508.99,-680.41 513.06,-675.52 506.83,-676.81 508.99,-680.41"/>
</g>
<!-- src/shared/i18n/config.ts -->
<g id="node10" class="node">
<title>src/shared/i18n/config.ts</title>
<g id="a_node10"><a xlink:href="src/shared/i18n/config.ts" xlink:title="config.ts">
<path fill="#ddfeff" stroke="black" d="M648.5,-675.48C648.5,-675.48 606.5,-675.48 606.5,-675.48 603.5,-675.48 600.5,-672.48 600.5,-669.48 600.5,-669.48 600.5,-663.48 600.5,-663.48 600.5,-660.48 603.5,-657.48 606.5,-657.48 606.5,-657.48 648.5,-657.48 648.5,-657.48 651.5,-657.48 654.5,-660.48 654.5,-663.48 654.5,-663.48 654.5,-669.48 654.5,-669.48 654.5,-672.48 651.5,-675.48 648.5,-675.48"/>
<text text-anchor="middle" x="627.5" y="-664.28" font-family="Helvetica,sans-Serif" font-size="9.00">config.ts</text>
</a>
</g>
</g>
<!-- src/shared/i18n/index.tsx&#45;&gt;src/shared/i18n/config.ts -->
<g id="edge44" class="edge">
<title>src/shared/i18n/index.tsx&#45;&gt;src/shared/i18n/config.ts</title>
<path fill="none" stroke="#000000" stroke-width="2" stroke-opacity="0.200000" d="M554.7,-642.24C565.28,-644.77 577.56,-647.97 588.5,-651.48 592.05,-652.62 595.74,-653.92 599.36,-655.27"/>
<polygon fill="#000000" fill-opacity="0.200000" stroke="#000000" stroke-width="2" stroke-opacity="0.200000" points="598.62,-657.23 604.97,-657.42 600.12,-653.31 598.62,-657.23"/>
</g>
<!-- src/shared/store/rootReducer.ts -->
<g id="node38" class="node">
<title>src/shared/store/rootReducer.ts</title>
<g id="a_node38"><a xlink:href="src/shared/store/rootReducer.ts" xlink:title="rootReducer.ts">
<path fill="#ddfeff" stroke="black" d="M460.5,-773.48C460.5,-773.48 395.5,-773.48 395.5,-773.48 392.5,-773.48 389.5,-770.48 389.5,-767.48 389.5,-767.48 389.5,-761.48 389.5,-761.48 389.5,-758.48 392.5,-755.48 395.5,-755.48 395.5,-755.48 460.5,-755.48 460.5,-755.48 463.5,-755.48 466.5,-758.48 466.5,-761.48 466.5,-761.48 466.5,-767.48 466.5,-767.48 466.5,-770.48 463.5,-773.48 460.5,-773.48"/>
<text text-anchor="middle" x="428" y="-762.28" font-family="Helvetica,sans-Serif" font-size="9.00">rootReducer.ts</text>
</a>
</g>
</g>
<!-- src/shared/store/index.ts&#45;&gt;src/shared/store/rootReducer.ts -->
<g id="edge54" class="edge">
<title>src/shared/store/index.ts&#45;&gt;src/shared/store/rootReducer.ts</title>
<path fill="none" stroke="#000000" stroke-width="2" stroke-opacity="0.200000" d="M366.92,-764.48C372.1,-764.48 377.67,-764.48 383.24,-764.48"/>
<polygon fill="#000000" fill-opacity="0.200000" stroke="#000000" stroke-width="2" stroke-opacity="0.200000" points="383.28,-766.58 389.28,-764.48 383.28,-762.38 383.28,-766.58"/>
</g>
<!-- src/global.d.ts -->
<g id="node8" class="node">
<title>src/global.d.ts</title>
<g id="a_node8"><a xlink:href="src/global.d.ts" xlink:title="global.d.ts">
<path fill="#ccffcc" stroke="black" d="M74.5,-452.48C74.5,-452.48 27.5,-452.48 27.5,-452.48 24.5,-452.48 21.5,-449.48 21.5,-446.48 21.5,-446.48 21.5,-440.48 21.5,-440.48 21.5,-437.48 24.5,-434.48 27.5,-434.48 27.5,-434.48 74.5,-434.48 74.5,-434.48 77.5,-434.48 80.5,-437.48 80.5,-440.48 80.5,-440.48 80.5,-446.48 80.5,-446.48 80.5,-449.48 77.5,-452.48 74.5,-452.48"/>
<text text-anchor="middle" x="51" y="-441.28" font-family="Helvetica,sans-Serif" font-size="9.00">global.d.ts</text>
</a>
</g>
</g>
<!-- src/server/components/html.tsx -->
<g id="node9" class="node">
<title>src/server/components/html.tsx</title>
<g id="a_node9"><a xlink:href="src/server/components/html.tsx" xlink:title="html.tsx">
<path fill="#bbfeff" stroke="black" d="M262.5,-907.48C262.5,-907.48 220.5,-907.48 220.5,-907.48 217.5,-907.48 214.5,-904.48 214.5,-901.48 214.5,-901.48 214.5,-895.48 214.5,-895.48 214.5,-892.48 217.5,-889.48 220.5,-889.48 220.5,-889.48 262.5,-889.48 262.5,-889.48 265.5,-889.48 268.5,-892.48 268.5,-895.48 268.5,-895.48 268.5,-901.48 268.5,-901.48 268.5,-904.48 265.5,-907.48 262.5,-907.48"/>
<text text-anchor="middle" x="241.5" y="-896.28" font-family="Helvetica,sans-Serif" font-size="9.00">html.tsx</text>
</a>
</g>
</g>
<!-- src/server/components/html.tsx&#45;&gt;src/shared/i18n/config.ts -->
<g id="edge6" class="edge">
<title>src/server/components/html.tsx&#45;&gt;src/shared/i18n/config.ts</title>
<path fill="none" stroke="#000000" stroke-width="2" stroke-opacity="0.200000" d="M268.54,-893.65C324.26,-883.29 451.53,-859.48 471,-854.48 524.16,-840.82 554.5,-859.56 588.5,-816.48 602.59,-798.63 589.38,-736.07 596.5,-714.48 600.56,-702.15 608.42,-689.77 615.07,-680.67"/>
<polygon fill="#000000" fill-opacity="0.200000" stroke="#000000" stroke-width="2" stroke-opacity="0.200000" points="616.87,-681.77 618.81,-675.71 613.52,-679.24 616.87,-681.77"/>
</g>
<!-- src/shared/store/app/types.ts -->
<g id="node11" class="node">
<title>src/shared/store/app/types.ts</title>
<g id="a_node11"><a xlink:href="src/shared/store/app/types.ts" xlink:title="types.ts">
<path fill="#ddfeff" stroke="black" d="M719.5,-743.48C719.5,-743.48 677.5,-743.48 677.5,-743.48 674.5,-743.48 671.5,-740.48 671.5,-737.48 671.5,-737.48 671.5,-731.48 671.5,-731.48 671.5,-728.48 674.5,-725.48 677.5,-725.48 677.5,-725.48 719.5,-725.48 719.5,-725.48 722.5,-725.48 725.5,-728.48 725.5,-731.48 725.5,-731.48 725.5,-737.48 725.5,-737.48 725.5,-740.48 722.5,-743.48 719.5,-743.48"/>
<text text-anchor="middle" x="698.5" y="-732.28" font-family="Helvetica,sans-Serif" font-size="9.00">types.ts</text>
</a>
</g>
</g>
<!-- src/server/components/html.tsx&#45;&gt;src/shared/store/app/types.ts -->
<g id="edge7" class="edge">
<title>src/server/components/html.tsx&#45;&gt;src/shared/store/app/types.ts</title>
<path fill="none" stroke="#000000" stroke-width="2" stroke-opacity="0.200000" d="M268.77,-897.32C304.55,-895.84 370.6,-893.48 427,-893.48 427,-893.48 427,-893.48 528.5,-893.48 612.24,-893.48 671.42,-788.64 690.71,-749.22"/>
<polygon fill="#000000" fill-opacity="0.200000" stroke="#000000" stroke-width="2" stroke-opacity="0.200000" points="692.76,-749.8 693.46,-743.48 688.97,-747.99 692.76,-749.8"/>
</g>
<!-- src/shared/i18n/config.ts&#45;&gt;src/shared/store/app/types.ts -->
<g id="edge43" class="edge">
<title>src/shared/i18n/config.ts&#45;&gt;src/shared/store/app/types.ts</title>
<path fill="none" stroke="#000000" stroke-width="2" stroke-opacity="0.200000" d="M637.81,-675.65C649.7,-687.37 670.39,-707.76 684.02,-721.19"/>
<polygon fill="#000000" fill-opacity="0.200000" stroke="#000000" stroke-width="2" stroke-opacity="0.200000" points="682.59,-722.74 688.34,-725.45 685.54,-719.75 682.59,-722.74"/>
</g>
<!-- src/server/index.ts -->
<g id="node12" class="node">
<title>src/server/index.ts</title>
<g id="a_node12"><a xlink:href="src/server/index.ts" xlink:title="index.ts">
<path fill="#ddfeff" stroke="black" d="M72,-967.48C72,-967.48 30,-967.48 30,-967.48 27,-967.48 24,-964.48 24,-961.48 24,-961.48 24,-955.48 24,-955.48 24,-952.48 27,-949.48 30,-949.48 30,-949.48 72,-949.48 72,-949.48 75,-949.48 78,-952.48 78,-955.48 78,-955.48 78,-961.48 78,-961.48 78,-964.48 75,-967.48 72,-967.48"/>
<text text-anchor="middle" x="51" y="-956.28" font-family="Helvetica,sans-Serif" font-size="9.00">index.ts</text>
</a>
</g>
</g>
<!-- src/server/index.ts&#45;&gt;config/paths.ts -->
<g id="edge8" class="edge">
<title>src/server/index.ts&#45;&gt;config/paths.ts</title>
<path fill="none" stroke="#000000" stroke-width="2" stroke-opacity="0.200000" d="M56.35,-967.5C62.83,-980.74 75.66,-1006.06 88.5,-1026.48 102.08,-1048.06 119.83,-1071.63 131.2,-1086.24"/>
<polygon fill="#000000" fill-opacity="0.200000" stroke="#000000" stroke-width="2" stroke-opacity="0.200000" points="129.73,-1087.76 135.08,-1091.19 133.03,-1085.17 129.73,-1087.76"/>
</g>
<!-- src/server/index.ts&#45;&gt;path -->
<g id="edge14" class="edge">
<title>src/server/index.ts&#45;&gt;path</title>
<path fill="none" stroke="#000000" stroke-dasharray="5,2" stroke-opacity="0.200000" d="M52.4,-967.75C54.04,-1001.42 61.59,-1116.48 88.5,-1138.48 125.24,-1168.52 184.85,-1148.77 217.43,-1134.14"/>
<polygon fill="#000000" fill-opacity="0.200000" stroke="#000000" stroke-opacity="0.200000" points="218.62,-1135.91 223.18,-1131.48 216.86,-1132.09 218.62,-1135.91"/>
</g>
<!-- src/server/index.ts&#45;&gt;src/shared/i18n/index.tsx -->
<g id="edge9" class="edge">
<title>src/server/index.ts&#45;&gt;src/shared/i18n/index.tsx</title>
<path fill="none" stroke="#000000" stroke-width="2" stroke-opacity="0.200000" d="M76.66,-949.47C78.11,-948.3 79.41,-946.97 80.5,-945.48 98.19,-921.26 67.98,-900.35 88.5,-878.48 135.51,-828.39 171.81,-850.48 240.5,-850.48 240.5,-850.48 240.5,-850.48 340.5,-850.48 369.55,-850.48 450.47,-863.03 471,-842.48 501.05,-812.4 456.73,-685.3 482.5,-651.48 485.59,-647.42 489.85,-644.45 494.49,-642.28"/>
<polygon fill="#000000" fill-opacity="0.200000" stroke="#000000" stroke-width="2" stroke-opacity="0.200000" points="495.27,-644.23 500.08,-640.08 493.73,-640.32 495.27,-644.23"/>
</g>
<!-- src/server/middlewares/addStore.tsx -->
<g id="node13" class="node">
<title>src/server/middlewares/addStore.tsx</title>
<g id="a_node13"><a xlink:href="src/server/middlewares/addStore.tsx" xlink:title="addStore.tsx">
<path fill="#bbfeff" stroke="black" d="M171.5,-937.48C171.5,-937.48 115.5,-937.48 115.5,-937.48 112.5,-937.48 109.5,-934.48 109.5,-931.48 109.5,-931.48 109.5,-925.48 109.5,-925.48 109.5,-922.48 112.5,-919.48 115.5,-919.48 115.5,-919.48 171.5,-919.48 171.5,-919.48 174.5,-919.48 177.5,-922.48 177.5,-925.48 177.5,-925.48 177.5,-931.48 177.5,-931.48 177.5,-934.48 174.5,-937.48 171.5,-937.48"/>
<text text-anchor="middle" x="143.5" y="-926.28" font-family="Helvetica,sans-Serif" font-size="9.00">addStore.tsx</text>
</a>
</g>
</g>
<!-- src/server/index.ts&#45;&gt;src/server/middlewares/addStore.tsx -->
<g id="edge10" class="edge">
<title>src/server/index.ts&#45;&gt;src/server/middlewares/addStore.tsx</title>
<path fill="none" stroke="#000000" stroke-width="2" stroke-opacity="0.200000" d="M73.07,-949.32C78.08,-947.28 83.45,-945.21 88.5,-943.48 93.33,-941.82 98.45,-940.21 103.53,-938.71"/>
<polygon fill="#000000" fill-opacity="0.200000" stroke="#000000" stroke-width="2" stroke-opacity="0.200000" points="104.29,-940.67 109.47,-936.98 103.12,-936.64 104.29,-940.67"/>
</g>
<!-- src/server/middlewares/handleErrors.ts -->
<g id="node14" class="node">
<title>src/server/middlewares/handleErrors.ts</title>
<g id="a_node14"><a xlink:href="src/server/middlewares/handleErrors.ts" xlink:title="handleErrors.ts">
<path fill="#ddfeff" stroke="black" d="M177,-997.48C177,-997.48 110,-997.48 110,-997.48 107,-997.48 104,-994.48 104,-991.48 104,-991.48 104,-985.48 104,-985.48 104,-982.48 107,-979.48 110,-979.48 110,-979.48 177,-979.48 177,-979.48 180,-979.48 183,-982.48 183,-985.48 183,-985.48 183,-991.48 183,-991.48 183,-994.48 180,-997.48 177,-997.48"/>
<text text-anchor="middle" x="143.5" y="-986.28" font-family="Helvetica,sans-Serif" font-size="9.00">handleErrors.ts</text>
</a>
</g>
</g>
<!-- src/server/index.ts&#45;&gt;src/server/middlewares/handleErrors.ts -->
<g id="edge11" class="edge">
<title>src/server/index.ts&#45;&gt;src/server/middlewares/handleErrors.ts</title>
<path fill="none" stroke="#000000" stroke-width="2" stroke-opacity="0.200000" d="M73.07,-967.64C78.08,-969.68 83.45,-971.74 88.5,-973.48 92.68,-974.91 97.07,-976.31 101.47,-977.63"/>
<polygon fill="#000000" fill-opacity="0.200000" stroke="#000000" stroke-width="2" stroke-opacity="0.200000" points="101.11,-979.72 107.46,-979.4 102.29,-975.69 101.11,-979.72"/>
</g>
<!-- src/server/middlewares/i18n.ts -->
<g id="node15" class="node">
<title>src/server/middlewares/i18n.ts</title>
<g id="a_node15"><a xlink:href="src/server/middlewares/i18n.ts" xlink:title="i18n.ts">
<path fill="#ddfeff" stroke="black" d="M164.5,-967.48C164.5,-967.48 122.5,-967.48 122.5,-967.48 119.5,-967.48 116.5,-964.48 116.5,-961.48 116.5,-961.48 116.5,-955.48 116.5,-955.48 116.5,-952.48 119.5,-949.48 122.5,-949.48 122.5,-949.48 164.5,-949.48 164.5,-949.48 167.5,-949.48 170.5,-952.48 170.5,-955.48 170.5,-955.48 170.5,-961.48 170.5,-961.48 170.5,-964.48 167.5,-967.48 164.5,-967.48"/>
<text text-anchor="middle" x="143.5" y="-956.28" font-family="Helvetica,sans-Serif" font-size="9.00">i18n.ts</text>
</a>
</g>
</g>
<!-- src/server/index.ts&#45;&gt;src/server/middlewares/i18n.ts -->
<g id="edge12" class="edge">
<title>src/server/index.ts&#45;&gt;src/server/middlewares/i18n.ts</title>
<path fill="none" stroke="#000000" stroke-width="2" stroke-opacity="0.200000" d="M78.18,-958.48C88.21,-958.48 99.78,-958.48 110.32,-958.48"/>
<polygon fill="#000000" fill-opacity="0.200000" stroke="#000000" stroke-width="2" stroke-opacity="0.200000" points="110.38,-960.58 116.38,-958.48 110.38,-956.38 110.38,-960.58"/>
</g>
<!-- src/server/middlewares/renderFullPage.tsx -->
<g id="node16" class="node">
<title>src/server/middlewares/renderFullPage.tsx</title>
<g id="a_node16"><a xlink:href="src/server/middlewares/renderFullPage.tsx" xlink:title="renderFullPage.tsx">
<path fill="#bbfeff" stroke="black" d="M184.5,-907.48C184.5,-907.48 102.5,-907.48 102.5,-907.48 99.5,-907.48 96.5,-904.48 96.5,-901.48 96.5,-901.48 96.5,-895.48 96.5,-895.48 96.5,-892.48 99.5,-889.48 102.5,-889.48 102.5,-889.48 184.5,-889.48 184.5,-889.48 187.5,-889.48 190.5,-892.48 190.5,-895.48 190.5,-895.48 190.5,-901.48 190.5,-901.48 190.5,-904.48 187.5,-907.48 184.5,-907.48"/>
<text text-anchor="middle" x="143.5" y="-896.28" font-family="Helvetica,sans-Serif" font-size="9.00">renderFullPage.tsx</text>
</a>
</g>
</g>
<!-- src/server/index.ts&#45;&gt;src/server/middlewares/renderFullPage.tsx -->
<g id="edge13" class="edge">
<title>src/server/index.ts&#45;&gt;src/server/middlewares/renderFullPage.tsx</title>
<path fill="none" stroke="#000000" stroke-width="2" stroke-opacity="0.200000" d="M76.46,-949.31C77.95,-948.17 79.32,-946.9 80.5,-945.48 89.88,-934.21 78.27,-923.98 88.5,-913.48 89.37,-912.59 90.28,-911.75 91.23,-910.96"/>
<polygon fill="#000000" fill-opacity="0.200000" stroke="#000000" stroke-width="2" stroke-opacity="0.200000" points="92.6,-912.57 96.31,-907.41 90.19,-909.13 92.6,-912.57"/>
</g>
<!-- src/server/middlewares/addStore.tsx&#45;&gt;src/shared/store/index.ts -->
<g id="edge15" class="edge">
<title>src/server/middlewares/addStore.tsx&#45;&gt;src/shared/store/index.ts</title>
<path fill="none" stroke="#000000" stroke-width="2" stroke-opacity="0.200000" d="M177.51,-925.19C185.29,-922.95 192.92,-919.32 198.5,-913.48 209.52,-901.94 194.95,-889.49 206.5,-878.48 231.98,-854.17 255.97,-885.13 284.5,-864.48 313.45,-843.52 328.46,-802.16 334.77,-779.76"/>
<polygon fill="#000000" fill-opacity="0.200000" stroke="#000000" stroke-width="2" stroke-opacity="0.200000" points="336.87,-780.06 336.39,-773.72 332.81,-778.97 336.87,-780.06"/>
</g>
<!-- src/server/middlewares/handleErrors.ts&#45;&gt;path -->
<g id="edge16" class="edge">
<title>src/server/middlewares/handleErrors.ts&#45;&gt;path</title>
<path fill="none" stroke="#000000" stroke-dasharray="5,2" stroke-opacity="0.200000" d="M150.8,-997.49C161.77,-1013.53 184.57,-1048.37 198.5,-1080.48 203.48,-1091.96 198.23,-1098.08 206.5,-1107.48 207.33,-1108.42 208.23,-1109.31 209.19,-1110.14"/>
<polygon fill="#000000" fill-opacity="0.200000" stroke="#000000" stroke-opacity="0.200000" points="208.27,-1112.07 214.36,-1113.88 210.73,-1108.67 208.27,-1112.07"/>
</g>
<!-- src/server/middlewares/i18n.ts&#45;&gt;fs -->
<g id="edge17" class="edge">
<title>src/server/middlewares/i18n.ts&#45;&gt;fs</title>
<path fill="none" stroke="#000000" stroke-dasharray="5,2" stroke-opacity="0.200000" d="M170.63,-960.64C180.41,-962.66 190.96,-966.44 198.5,-973.48 228.34,-1001.34 236.99,-1051.7 239.49,-1077.03"/>
<polygon fill="#000000" fill-opacity="0.200000" stroke="#000000" stroke-opacity="0.200000" points="237.41,-1077.4 240.02,-1083.19 241.6,-1077.03 237.41,-1077.4"/>
</g>
<!-- src/server/middlewares/i18n.ts&#45;&gt;path -->
<g id="edge18" class="edge">
<title>src/server/middlewares/i18n.ts&#45;&gt;path</title>
<path fill="none" stroke="#000000" stroke-dasharray="5,2" stroke-opacity="0.200000" d="M170.59,-959.43C180.86,-961.21 191.77,-965.15 198.5,-973.48 217.25,-996.68 189.47,-1082.98 206.5,-1107.48 207.4,-1108.78 208.44,-1109.96 209.59,-1111.05"/>
<polygon fill="#000000" fill-opacity="0.200000" stroke="#000000" stroke-opacity="0.200000" points="208.4,-1112.78 214.45,-1114.75 210.95,-1109.44 208.4,-1112.78"/>
</g>
<!-- src/server/middlewares/renderFullPage.tsx&#45;&gt;src/shared/App.tsx -->
<g id="edge19" class="edge">
<title>src/server/middlewares/renderFullPage.tsx&#45;&gt;src/shared/App.tsx</title>
<path fill="none" stroke="#000000" stroke-width="2" stroke-opacity="0.200000" d="M146.17,-889.35C157.5,-827.25 223.25,-467.02 237.69,-387.86"/>
<polygon fill="#000000" fill-opacity="0.200000" stroke="#000000" stroke-width="2" stroke-opacity="0.200000" points="239.78,-388.14 238.79,-381.86 235.64,-387.39 239.78,-388.14"/>
</g>
<!-- src/server/middlewares/renderFullPage.tsx&#45;&gt;src/server/components/html.tsx -->
<g id="edge20" class="edge">
<title>src/server/middlewares/renderFullPage.tsx&#45;&gt;src/server/components/html.tsx</title>
<path fill="none" stroke="#000000" stroke-width="2" stroke-opacity="0.200000" d="M190.53,-898.48C196.54,-898.48 202.59,-898.48 208.3,-898.48"/>
<polygon fill="#000000" fill-opacity="0.200000" stroke="#000000" stroke-width="2" stroke-opacity="0.200000" points="208.35,-900.58 214.35,-898.48 208.35,-896.38 208.35,-900.58"/>
</g>
<!-- src/shared/components/sections/Content.scss -->
<g id="node26" class="node">
<title>src/shared/components/sections/Content.scss</title>
<g id="a_node26"><a xlink:href="src/shared/components/sections/Content.scss" xlink:title="Content.scss">
<path fill="#ffffcc" stroke="black" d="M456.5,-155.48C456.5,-155.48 399.5,-155.48 399.5,-155.48 396.5,-155.48 393.5,-152.48 393.5,-149.48 393.5,-149.48 393.5,-143.48 393.5,-143.48 393.5,-140.48 396.5,-137.48 399.5,-137.48 399.5,-137.48 456.5,-137.48 456.5,-137.48 459.5,-137.48 462.5,-140.48 462.5,-143.48 462.5,-143.48 462.5,-149.48 462.5,-149.48 462.5,-152.48 459.5,-155.48 456.5,-155.48"/>
<text text-anchor="middle" x="428" y="-144.28" font-family="Helvetica,sans-Serif" font-size="9.00">Content.scss</text>
</a>
</g>
</g>
<!-- src/shared/components/sections/Content.tsx&#45;&gt;src/shared/components/sections/Content.scss -->
<g id="edge37" class="edge">
<title>src/shared/components/sections/Content.tsx&#45;&gt;src/shared/components/sections/Content.scss</title>
<path fill="none" stroke="#000000" stroke-width="2" stroke-opacity="0.200000" d="M370.75,-146.48C376.12,-146.48 381.78,-146.48 387.36,-146.48"/>
<polygon fill="#000000" fill-opacity="0.200000" stroke="#000000" stroke-width="2" stroke-opacity="0.200000" points="387.37,-148.58 393.37,-146.48 387.37,-144.38 387.37,-148.58"/>
</g>
<!-- src/shared/pages/404/index.tsx -->
<g id="node27" class="node">
<title>src/shared/pages/404/index.tsx</title>
<g id="a_node27"><a xlink:href="src/shared/pages/404/index.tsx" xlink:title="index.tsx">
<path fill="#bbfeff" stroke="black" d="M449,-549.48C449,-549.48 407,-549.48 407,-549.48 404,-549.48 401,-546.48 401,-543.48 401,-543.48 401,-537.48 401,-537.48 401,-534.48 404,-531.48 407,-531.48 407,-531.48 449,-531.48 449,-531.48 452,-531.48 455,-534.48 455,-537.48 455,-537.48 455,-543.48 455,-543.48 455,-546.48 452,-549.48 449,-549.48"/>
<text text-anchor="middle" x="428" y="-538.28" font-family="Helvetica,sans-Serif" font-size="9.00">index.tsx</text>
</a>
</g>
</g>
<!-- src/shared/components/sections/Content.tsx&#45;&gt;src/shared/pages/404/index.tsx -->
<g id="edge31" class="edge">
<title>src/shared/components/sections/Content.tsx&#45;&gt;src/shared/pages/404/index.tsx</title>
<path fill="none" stroke="#000000" stroke-width="2" stroke-opacity="0.200000" d="M367.39,-155.91C368.56,-156.97 369.61,-158.16 370.5,-159.48 392.77,-192.59 356.51,-485.18 378.5,-518.48 382.52,-524.57 388.67,-528.99 395.25,-532.2"/>
<polygon fill="#000000" fill-opacity="0.200000" stroke="#000000" stroke-width="2" stroke-opacity="0.200000" points="394.51,-534.17 400.85,-534.62 396.18,-530.31 394.51,-534.17"/>
</g>
<!-- src/shared/pages/home/index.tsx -->
<g id="node28" class="node">
<title>src/shared/pages/home/index.tsx</title>
<g id="a_node28"><a xlink:href="src/shared/pages/home/index.tsx" xlink:title="index.tsx">
<path fill="#bbfeff" stroke="black" d="M449,-489.48C449,-489.48 407,-489.48 407,-489.48 404,-489.48 401,-486.48 401,-483.48 401,-483.48 401,-477.48 401,-477.48 401,-474.48 404,-471.48 407,-471.48 407,-471.48 449,-471.48 449,-471.48 452,-471.48 455,-474.48 455,-477.48 455,-477.48 455,-483.48 455,-483.48 455,-486.48 452,-489.48 449,-489.48"/>
<text text-anchor="middle" x="428" y="-478.28" font-family="Helvetica,sans-Serif" font-size="9.00">index.tsx</text>
</a>
</g>
</g>
<!-- src/shared/components/sections/Content.tsx&#45;&gt;src/shared/pages/home/index.tsx -->
<g id="edge32" class="edge">
<title>src/shared/components/sections/Content.tsx&#45;&gt;src/shared/pages/home/index.tsx</title>
<path fill="none" stroke="#000000" stroke-width="2" stroke-opacity="0.200000" d="M367.38,-155.91C368.56,-156.98 369.61,-158.16 370.5,-159.48 389.11,-187.01 360.12,-430.79 378.5,-458.48 382.53,-464.56 388.69,-468.98 395.27,-472.19"/>
<polygon fill="#000000" fill-opacity="0.200000" stroke="#000000" stroke-width="2" stroke-opacity="0.200000" points="394.53,-474.15 400.87,-474.61 396.2,-470.3 394.53,-474.15"/>
</g>
<!-- src/shared/pages/page&#45;1/index.tsx -->
<g id="node29" class="node">
<title>src/shared/pages/page&#45;1/index.tsx</title>
<g id="a_node29"><a xlink:href="src/shared/pages/page-1/index.tsx" xlink:title="index.tsx">
<path fill="#bbfeff" stroke="black" d="M449,-429.48C449,-429.48 407,-429.48 407,-429.48 404,-429.48 401,-426.48 401,-423.48 401,-423.48 401,-417.48 401,-417.48 401,-414.48 404,-411.48 407,-411.48 407,-411.48 449,-411.48 449,-411.48 452,-411.48 455,-414.48 455,-417.48 455,-417.48 455,-423.48 455,-423.48 455,-426.48 452,-429.48 449,-429.48"/>
<text text-anchor="middle" x="428" y="-418.28" font-family="Helvetica,sans-Serif" font-size="9.00">index.tsx</text>
</a>
</g>
</g>
<!-- src/shared/components/sections/Content.tsx&#45;&gt;src/shared/pages/page&#45;1/index.tsx -->
<g id="edge33" class="edge">
<title>src/shared/components/sections/Content.tsx&#45;&gt;src/shared/pages/page&#45;1/index.tsx</title>
<path fill="none" stroke="#000000" stroke-width="2" stroke-opacity="0.200000" d="M367.37,-155.92C368.55,-156.98 369.61,-158.16 370.5,-159.48 385.45,-181.44 363.73,-376.39 378.5,-398.48 382.55,-404.54 388.72,-408.96 395.3,-412.17"/>
<polygon fill="#000000" fill-opacity="0.200000" stroke="#000000" stroke-width="2" stroke-opacity="0.200000" points="394.56,-414.13 400.9,-414.59 396.22,-410.28 394.56,-414.13"/>
</g>
<!-- src/shared/pages/page&#45;2/index.tsx -->
<g id="node30" class="node">
<title>src/shared/pages/page&#45;2/index.tsx</title>
<g id="a_node30"><a xlink:href="src/shared/pages/page-2/index.tsx" xlink:title="index.tsx">
<path fill="#bbfeff" stroke="black" d="M449,-369.48C449,-369.48 407,-369.48 407,-369.48 404,-369.48 401,-366.48 401,-363.48 401,-363.48 401,-357.48 401,-357.48 401,-354.48 404,-351.48 407,-351.48 407,-351.48 449,-351.48 449,-351.48 452,-351.48 455,-354.48 455,-357.48 455,-357.48 455,-363.48 455,-363.48 455,-366.48 452,-369.48 449,-369.48"/>
<text text-anchor="middle" x="428" y="-358.28" font-family="Helvetica,sans-Serif" font-size="9.00">index.tsx</text>
</a>
</g>
</g>
<!-- src/shared/components/sections/Content.tsx&#45;&gt;src/shared/pages/page&#45;2/index.tsx -->
<g id="edge34" class="edge">
<title>src/shared/components/sections/Content.tsx&#45;&gt;src/shared/pages/page&#45;2/index.tsx</title>
<path fill="none" stroke="#000000" stroke-width="2" stroke-opacity="0.200000" d="M366.84,-155.48C368.23,-156.66 369.47,-157.98 370.5,-159.48 393.09,-192.27 356.19,-305.5 378.5,-338.48 382.59,-344.52 388.76,-348.93 395.35,-352.14"/>
<polygon fill="#000000" fill-opacity="0.200000" stroke="#000000" stroke-width="2" stroke-opacity="0.200000" points="394.61,-354.1 400.95,-354.56 396.27,-350.25 394.61,-354.1"/>
</g>
<!-- src/shared/pages/page&#45;3/index.tsx -->
<g id="node31" class="node">
<title>src/shared/pages/page&#45;3/index.tsx</title>
<g id="a_node31"><a xlink:href="src/shared/pages/page-3/index.tsx" xlink:title="index.tsx">
<path fill="#bbfeff" stroke="black" d="M449,-309.48C449,-309.48 407,-309.48 407,-309.48 404,-309.48 401,-306.48 401,-303.48 401,-303.48 401,-297.48 401,-297.48 401,-294.48 404,-291.48 407,-291.48 407,-291.48 449,-291.48 449,-291.48 452,-291.48 455,-294.48 455,-297.48 455,-297.48 455,-303.48 455,-303.48 455,-306.48 452,-309.48 449,-309.48"/>
<text text-anchor="middle" x="428" y="-298.28" font-family="Helvetica,sans-Serif" font-size="9.00">index.tsx</text>
</a>
</g>
</g>
<!-- src/shared/components/sections/Content.tsx&#45;&gt;src/shared/pages/page&#45;3/index.tsx -->
<g id="edge35" class="edge">
<title>src/shared/components/sections/Content.tsx&#45;&gt;src/shared/pages/page&#45;3/index.tsx</title>
<path fill="none" stroke="#000000" stroke-width="2" stroke-opacity="0.200000" d="M366.76,-155.54C368.16,-156.7 369.43,-158.01 370.5,-159.48 381.64,-174.83 371.05,-227.03 378.5,-244.48 385.66,-261.24 399.76,-276.61 410.92,-286.99"/>
<polygon fill="#000000" fill-opacity="0.200000" stroke="#000000" stroke-width="2" stroke-opacity="0.200000" points="409.64,-288.66 415.5,-291.12 412.45,-285.54 409.64,-288.66"/>
</g>
<!-- src/shared/routes.ts -->
<g id="node32" class="node">
<title>src/shared/routes.ts</title>
<g id="a_node32"><a xlink:href="src/shared/routes.ts" xlink:title="routes.ts">
<path fill="#ddfeff" stroke="black" d="M449,-53.48C449,-53.48 407,-53.48 407,-53.48 404,-53.48 401,-50.48 401,-47.48 401,-47.48 401,-41.48 401,-41.48 401,-38.48 404,-35.48 407,-35.48 407,-35.48 449,-35.48 449,-35.48 452,-35.48 455,-38.48 455,-41.48 455,-41.48 455,-47.48 455,-47.48 455,-50.48 452,-53.48 449,-53.48"/>
<text text-anchor="middle" x="428" y="-42.28" font-family="Helvetica,sans-Serif" font-size="9.00">routes.ts</text>
</a>
</g>
</g>
<!-- src/shared/components/sections/Content.tsx&#45;&gt;src/shared/routes.ts -->
<g id="edge36" class="edge">
<title>src/shared/components/sections/Content.tsx&#45;&gt;src/shared/routes.ts</title>
<path fill="none" stroke="#000000" stroke-width="2" stroke-opacity="0.200000" d="M364.54,-137.38C366.83,-135.72 368.89,-133.76 370.5,-131.48 387.29,-107.7 361.26,-89.93 378.5,-66.48 382.65,-60.83 388.59,-56.6 394.91,-53.44"/>
<polygon fill="#000000" fill-opacity="0.200000" stroke="#000000" stroke-width="2" stroke-opacity="0.200000" points="396.14,-55.19 400.77,-50.83 394.43,-51.35 396.14,-55.19"/>
</g>
<!-- src/shared/components/sections/Footer.scss -->
<g id="node33" class="node">
<title>src/shared/components/sections/Footer.scss</title>
<g id="a_node33"><a xlink:href="src/shared/components/sections/Footer.scss" xlink:title="Footer.scss">
<path fill="#ffffcc" stroke="black" d="M453.5,-95.48C453.5,-95.48 402.5,-95.48 402.5,-95.48 399.5,-95.48 396.5,-92.48 396.5,-89.48 396.5,-89.48 396.5,-83.48 396.5,-83.48 396.5,-80.48 399.5,-77.48 402.5,-77.48 402.5,-77.48 453.5,-77.48 453.5,-77.48 456.5,-77.48 459.5,-80.48 459.5,-83.48 459.5,-83.48 459.5,-89.48 459.5,-89.48 459.5,-92.48 456.5,-95.48 453.5,-95.48"/>
<text text-anchor="middle" x="428" y="-84.28" font-family="Helvetica,sans-Serif" font-size="9.00">Footer.scss</text>
</a>
</g>
</g>
<!-- src/shared/components/sections/Footer.tsx&#45;&gt;src/shared/components/sections/Footer.scss -->
<g id="edge38" class="edge">
<title>src/shared/components/sections/Footer.tsx&#45;&gt;src/shared/components/sections/Footer.scss</title>
<path fill="none" stroke="#000000" stroke-width="2" stroke-opacity="0.200000" d="M367.87,-86.48C374.91,-86.48 382.6,-86.48 390.03,-86.48"/>
<polygon fill="#000000" fill-opacity="0.200000" stroke="#000000" stroke-width="2" stroke-opacity="0.200000" points="390.2,-88.58 396.2,-86.48 390.2,-84.38 390.2,-88.58"/>
</g>
<!-- src/shared/assets/react.svg -->
<g id="node23" class="node">
<title>src/shared/assets/react.svg</title>
<g id="a_node23"><a xlink:href="src/shared/assets/react.svg" xlink:title="react.svg">
<path fill="#ffffcc" stroke="black" d="M449,-635.48C449,-635.48 407,-635.48 407,-635.48 404,-635.48 401,-632.48 401,-629.48 401,-629.48 401,-623.48 401,-623.48 401,-620.48 404,-617.48 407,-617.48 407,-617.48 449,-617.48 449,-617.48 452,-617.48 455,-620.48 455,-623.48 455,-623.48 455,-629.48 455,-629.48 455,-632.48 452,-635.48 449,-635.48"/>
<text text-anchor="middle" x="428" y="-624.28" font-family="Helvetica,sans-Serif" font-size="9.00">react.svg</text>
</a>
</g>
</g>
<!-- src/shared/components/sections/Header.tsx&#45;&gt;src/shared/assets/react.svg -->
<g id="edge39" class="edge">
<title>src/shared/components/sections/Header.tsx&#45;&gt;src/shared/assets/react.svg</title>
<path fill="none" stroke="#000000" stroke-width="2" stroke-opacity="0.200000" d="M365.06,-125.63C367.19,-127.28 369.07,-129.21 370.5,-131.48 383.75,-152.49 368.73,-555.64 378.5,-578.48 384.64,-592.84 397.32,-605.13 408.17,-613.69"/>
<polygon fill="#000000" fill-opacity="0.200000" stroke="#000000" stroke-width="2" stroke-opacity="0.200000" points="406.95,-615.4 413,-617.35 409.48,-612.05 406.95,-615.4"/>
</g>
<!-- src/shared/components/organisms/LocaleSelect.tsx -->
<g id="node25" class="node">
<title>src/shared/components/organisms/LocaleSelect.tsx</title>
<g id="a_node25"><a xlink:href="src/shared/components/organisms/LocaleSelect.tsx" xlink:title="LocaleSelect.tsx">
<path fill="#bbfeff" stroke="black" d="M463.5,-215.48C463.5,-215.48 392.5,-215.48 392.5,-215.48 389.5,-215.48 386.5,-212.48 386.5,-209.48 386.5,-209.48 386.5,-203.48 386.5,-203.48 386.5,-200.48 389.5,-197.48 392.5,-197.48 392.5,-197.48 463.5,-197.48 463.5,-197.48 466.5,-197.48 469.5,-200.48 469.5,-203.48 469.5,-203.48 469.5,-209.48 469.5,-209.48 469.5,-212.48 466.5,-215.48 463.5,-215.48"/>
<text text-anchor="middle" x="428" y="-204.28" font-family="Helvetica,sans-Serif" font-size="9.00">LocaleSelect.tsx</text>
</a>
</g>
</g>
<!-- src/shared/components/sections/Header.tsx&#45;&gt;src/shared/components/organisms/LocaleSelect.tsx -->
<g id="edge41" class="edge">
<title>src/shared/components/sections/Header.tsx&#45;&gt;src/shared/components/organisms/LocaleSelect.tsx</title>
<path fill="none" stroke="#000000" stroke-width="2" stroke-opacity="0.200000" d="M364.48,-125.62C366.77,-127.28 368.86,-129.22 370.5,-131.48 384.51,-150.75 364.13,-165.48 378.5,-184.48 381.48,-188.42 385.33,-191.67 389.55,-194.36"/>
<polygon fill="#000000" fill-opacity="0.200000" stroke="#000000" stroke-width="2" stroke-opacity="0.200000" points="388.81,-196.35 395.07,-197.46 390.87,-192.69 388.81,-196.35"/>
</g>
<!-- src/shared/components/sections/Header.tsx&#45;&gt;src/shared/routes.ts -->
<g id="edge40" class="edge">
<title>src/shared/components/sections/Header.tsx&#45;&gt;src/shared/routes.ts</title>
<path fill="none" stroke="#000000" stroke-width="2" stroke-opacity="0.200000" d="M364.02,-107.42C366.46,-105.74 368.7,-103.77 370.5,-101.48 380.36,-88.93 368.41,-78.84 378.5,-66.48 382.89,-61.11 388.87,-56.99 395.14,-53.86"/>
<polygon fill="#000000" fill-opacity="0.200000" stroke="#000000" stroke-width="2" stroke-opacity="0.200000" points="396.32,-55.63 400.93,-51.26 394.6,-51.8 396.32,-55.63"/>
</g>
<!-- src/shared/components/sections/Header.scss -->
<g id="node34" class="node">
<title>src/shared/components/sections/Header.scss</title>
<g id="a_node34"><a xlink:href="src/shared/components/sections/Header.scss" xlink:title="Header.scss">
<path fill="#ffffcc" stroke="black" d="M456,-125.48C456,-125.48 400,-125.48 400,-125.48 397,-125.48 394,-122.48 394,-119.48 394,-119.48 394,-113.48 394,-113.48 394,-110.48 397,-107.48 400,-107.48 400,-107.48 456,-107.48 456,-107.48 459,-107.48 462,-110.48 462,-113.48 462,-113.48 462,-119.48 462,-119.48 462,-122.48 459,-125.48 456,-125.48"/>
<text text-anchor="middle" x="428" y="-114.28" font-family="Helvetica,sans-Serif" font-size="9.00">Header.scss</text>
</a>
</g>
</g>
<!-- src/shared/components/sections/Header.tsx&#45;&gt;src/shared/components/sections/Header.scss -->
<g id="edge42" class="edge">
<title>src/shared/components/sections/Header.tsx&#45;&gt;src/shared/components/sections/Header.scss</title>
<path fill="none" stroke="#000000" stroke-width="2" stroke-opacity="0.200000" d="M370.27,-116.48C375.87,-116.48 381.8,-116.48 387.64,-116.48"/>
<polygon fill="#000000" fill-opacity="0.200000" stroke="#000000" stroke-width="2" stroke-opacity="0.200000" points="387.92,-118.58 393.92,-116.48 387.92,-114.38 387.92,-118.58"/>
</g>
<!-- src/shared/i18n/withLocale.tsx&#45;&gt;src/shared/i18n/config.ts -->
<g id="edge48" class="edge">
<title>src/shared/i18n/withLocale.tsx&#45;&gt;src/shared/i18n/config.ts</title>
<path fill="none" stroke="#000000" stroke-width="2" stroke-opacity="0.200000" d="M564.71,-666.48C574.37,-666.48 584.75,-666.48 594.18,-666.48"/>
<polygon fill="#000000" fill-opacity="0.200000" stroke="#000000" stroke-width="2" stroke-opacity="0.200000" points="594.23,-668.58 600.23,-666.48 594.23,-664.38 594.23,-668.58"/>
</g>
<!-- src/shared/i18n/withLocale.tsx&#45;&gt;src/shared/store/app/types.ts -->
<g id="edge47" class="edge">
<title>src/shared/i18n/withLocale.tsx&#45;&gt;src/shared/store/app/types.ts</title>
<path fill="none" stroke="#000000" stroke-width="2" stroke-opacity="0.200000" d="M564,-657.44C598.15,-649.63 646.85,-641.09 662.5,-651.48 685.33,-666.63 693.3,-699.91 696.06,-719.42"/>
<polygon fill="#000000" fill-opacity="0.200000" stroke="#000000" stroke-width="2" stroke-opacity="0.200000" points="693.99,-719.76 696.81,-725.46 698.16,-719.25 693.99,-719.76"/>
</g>
<!-- src/shared/store/app/actions.ts -->
<g id="node35" class="node">
<title>src/shared/store/app/actions.ts</title>
<g id="a_node35"><a xlink:href="src/shared/store/app/actions.ts" xlink:title="actions.ts">
<path fill="#ddfeff" stroke="black" d="M649,-773.48C649,-773.48 606,-773.48 606,-773.48 603,-773.48 600,-770.48 600,-767.48 600,-767.48 600,-761.48 600,-761.48 600,-758.48 603,-755.48 606,-755.48 606,-755.48 649,-755.48 649,-755.48 652,-755.48 655,-758.48 655,-761.48 655,-761.48 655,-767.48 655,-767.48 655,-770.48 652,-773.48 649,-773.48"/>
<text text-anchor="middle" x="627.5" y="-762.28" font-family="Helvetica,sans-Serif" font-size="9.00">actions.ts</text>
</a>
</g>
</g>
<!-- src/shared/i18n/withLocale.tsx&#45;&gt;src/shared/store/app/actions.ts -->
<g id="edge45" class="edge">
<title>src/shared/i18n/withLocale.tsx&#45;&gt;src/shared/store/app/actions.ts</title>
<path fill="none" stroke="#000000" stroke-width="2" stroke-opacity="0.200000" d="M545.37,-675.63C559.09,-683.96 577.86,-697.53 588.5,-714.48 596.98,-727.99 586.64,-736.93 596.5,-749.48 597.06,-750.19 597.67,-750.88 598.31,-751.53"/>
<polygon fill="#000000" fill-opacity="0.200000" stroke="#000000" stroke-width="2" stroke-opacity="0.200000" points="597.02,-753.2 602.98,-755.42 599.71,-749.97 597.02,-753.2"/>
</g>
<!-- src/shared/store/app/selectors.ts -->
<g id="node36" class="node">
<title>src/shared/store/app/selectors.ts</title>
<g id="a_node36"><a xlink:href="src/shared/store/app/selectors.ts" xlink:title="selectors.ts">
<path fill="#ddfeff" stroke="black" d="M652.5,-743.48C652.5,-743.48 602.5,-743.48 602.5,-743.48 599.5,-743.48 596.5,-740.48 596.5,-737.48 596.5,-737.48 596.5,-731.48 596.5,-731.48 596.5,-728.48 599.5,-725.48 602.5,-725.48 602.5,-725.48 652.5,-725.48 652.5,-725.48 655.5,-725.48 658.5,-728.48 658.5,-731.48 658.5,-731.48 658.5,-737.48 658.5,-737.48 658.5,-740.48 655.5,-743.48 652.5,-743.48"/>
<text text-anchor="middle" x="627.5" y="-732.28" font-family="Helvetica,sans-Serif" font-size="9.00">selectors.ts</text>
</a>
</g>
</g>
<!-- src/shared/i18n/withLocale.tsx&#45;&gt;src/shared/store/app/selectors.ts -->
<g id="edge46" class="edge">
<title>src/shared/i18n/withLocale.tsx&#45;&gt;src/shared/store/app/selectors.ts</title>
<path fill="none" stroke="#000000" stroke-width="2" stroke-opacity="0.200000" d="M541.72,-675.65C558.91,-687.58 589.02,-708.47 608.35,-721.88"/>
<polygon fill="#000000" fill-opacity="0.200000" stroke="#000000" stroke-width="2" stroke-opacity="0.200000" points="607.37,-723.76 613.49,-725.45 609.76,-720.31 607.37,-723.76"/>
</g>
<!-- src/shared/components/organisms/LocaleSelect.scss -->
<g id="node24" class="node">
<title>src/shared/components/organisms/LocaleSelect.scss</title>
<g id="a_node24"><a xlink:href="src/shared/components/organisms/LocaleSelect.scss" xlink:title="LocaleSelect.scss">
<path fill="#ffffcc" stroke="black" d="M566.5,-215.48C566.5,-215.48 488.5,-215.48 488.5,-215.48 485.5,-215.48 482.5,-212.48 482.5,-209.48 482.5,-209.48 482.5,-203.48 482.5,-203.48 482.5,-200.48 485.5,-197.48 488.5,-197.48 488.5,-197.48 566.5,-197.48 566.5,-197.48 569.5,-197.48 572.5,-200.48 572.5,-203.48 572.5,-203.48 572.5,-209.48 572.5,-209.48 572.5,-212.48 569.5,-215.48 566.5,-215.48"/>
<text text-anchor="middle" x="527.5" y="-204.28" font-family="Helvetica,sans-Serif" font-size="9.00">LocaleSelect.scss</text>
</a>
</g>
</g>
<!-- src/shared/components/organisms/LocaleSelect.tsx&#45;&gt;src/shared/i18n/index.tsx -->
<g id="edge27" class="edge">
<title>src/shared/components/organisms/LocaleSelect.tsx&#45;&gt;src/shared/i18n/index.tsx</title>
<path fill="none" stroke="#000000" stroke-width="2" stroke-opacity="0.200000" d="M436.29,-215.87C446.24,-229.31 463.69,-255.22 471,-280.48 486.14,-332.84 471.02,-472.2 482.5,-525.48 490.25,-561.44 508.4,-600.89 518.81,-621.71"/>
<polygon fill="#000000" fill-opacity="0.200000" stroke="#000000" stroke-width="2" stroke-opacity="0.200000" points="517.06,-622.9 521.65,-627.31 520.81,-621.01 517.06,-622.9"/>
</g>
<!-- src/shared/components/organisms/LocaleSelect.tsx&#45;&gt;src/shared/i18n/config.ts -->
<g id="edge28" class="edge">
<title>src/shared/components/organisms/LocaleSelect.tsx&#45;&gt;src/shared/i18n/config.ts</title>
<path fill="none" stroke="#000000" stroke-width="2" stroke-opacity="0.200000" d="M436.16,-215.91C445.96,-229.39 463.24,-255.36 471,-280.48 489.17,-339.28 464.04,-359.77 482.5,-418.48 513.1,-515.81 586.98,-616.23 615.24,-652.42"/>
<polygon fill="#000000" fill-opacity="0.200000" stroke="#000000" stroke-width="2" stroke-opacity="0.200000" points="613.71,-653.87 619.07,-657.29 617.01,-651.28 613.71,-653.87"/>
</g>
<!-- src/shared/components/organisms/LocaleSelect.tsx&#45;&gt;src/shared/store/app/types.ts -->
<g id="edge29" class="edge">
<title>src/shared/components/organisms/LocaleSelect.tsx&#45;&gt;src/shared/store/app/types.ts</title>
<path fill="none" stroke="#000000" stroke-width="2" stroke-opacity="0.200000" d="M437.35,-215.58C462.94,-243.88 541.46,-333.58 588.5,-419.48 633.43,-501.51 632.74,-527.81 662.5,-616.48 674.75,-652.99 687.1,-696.57 693.34,-719.17"/>
<polygon fill="#000000" fill-opacity="0.200000" stroke="#000000" stroke-width="2" stroke-opacity="0.200000" points="691.38,-720 695,-725.23 695.43,-718.89 691.38,-720"/>
</g>
<!-- src/shared/components/organisms/LocaleSelect.tsx&#45;&gt;src/shared/components/organisms/LocaleSelect.scss -->
<g id="edge30" class="edge">
<title>src/shared/components/organisms/LocaleSelect.tsx&#45;&gt;src/shared/components/organisms/LocaleSelect.scss</title>
<path fill="none" stroke="#000000" stroke-width="2" stroke-opacity="0.200000" d="M469.5,-206.48C471.78,-206.48 474.08,-206.48 476.39,-206.48"/>
<polygon fill="#000000" fill-opacity="0.200000" stroke="#000000" stroke-width="2" stroke-opacity="0.200000" points="476.5,-208.58 482.5,-206.48 476.5,-204.38 476.5,-208.58"/>
</g>
<!-- src/shared/store/app/actions.ts&#45;&gt;src/shared/store/app/types.ts -->
<g id="edge49" class="edge">
<title>src/shared/store/app/actions.ts&#45;&gt;src/shared/store/app/types.ts</title>
<path fill="none" stroke="#000000" stroke-width="2" stroke-opacity="0.200000" d="M649.2,-755.48C655.9,-752.57 663.43,-749.29 670.52,-746.21"/>
<polygon fill="#000000" fill-opacity="0.200000" stroke="#000000" stroke-width="2" stroke-opacity="0.200000" points="671.67,-748 676.33,-743.68 669.99,-744.15 671.67,-748"/>
</g>
<!-- src/shared/store/app/selectors.ts&#45;&gt;src/shared/store/app/types.ts -->
<g id="edge53" class="edge">
<title>src/shared/store/app/selectors.ts&#45;&gt;src/shared/store/app/types.ts</title>
<path fill="none" stroke="#000000" stroke-width="2" stroke-opacity="0.200000" d="M658.56,-734.48C660.67,-734.48 662.8,-734.48 664.92,-734.48"/>
<polygon fill="#000000" fill-opacity="0.200000" stroke="#000000" stroke-width="2" stroke-opacity="0.200000" points="665.21,-736.58 671.21,-734.48 665.21,-732.38 665.21,-736.58"/>
</g>
<!-- src/shared/store/app/reducers.ts -->
<g id="node37" class="node">
<title>src/shared/store/app/reducers.ts</title>
<g id="a_node37"><a xlink:href="src/shared/store/app/reducers.ts" xlink:title="reducers.ts">
<path fill="#ddfeff" stroke="black" d="M552.5,-773.48C552.5,-773.48 502.5,-773.48 502.5,-773.48 499.5,-773.48 496.5,-770.48 496.5,-767.48 496.5,-767.48 496.5,-761.48 496.5,-761.48 496.5,-758.48 499.5,-755.48 502.5,-755.48 502.5,-755.48 552.5,-755.48 552.5,-755.48 555.5,-755.48 558.5,-758.48 558.5,-761.48 558.5,-761.48 558.5,-767.48 558.5,-767.48 558.5,-770.48 555.5,-773.48 552.5,-773.48"/>
<text text-anchor="middle" x="527.5" y="-762.28" font-family="Helvetica,sans-Serif" font-size="9.00">reducers.ts</text>
</a>
</g>
</g>
<!-- src/shared/store/app/reducers.ts&#45;&gt;src/shared/i18n/config.ts -->
<g id="edge50" class="edge">
<title>src/shared/store/app/reducers.ts&#45;&gt;src/shared/i18n/config.ts</title>
<path fill="none" stroke="#000000" stroke-width="2" stroke-opacity="0.200000" d="M537.54,-755.43C554.9,-738.08 592.95,-700.03 613.21,-679.77"/>
<polygon fill="#000000" fill-opacity="0.200000" stroke="#000000" stroke-width="2" stroke-opacity="0.200000" points="614.72,-681.23 617.48,-675.5 611.75,-678.26 614.72,-681.23"/>
</g>
<!-- src/shared/store/app/reducers.ts&#45;&gt;src/shared/store/app/types.ts -->
<g id="edge52" class="edge">
<title>src/shared/store/app/reducers.ts&#45;&gt;src/shared/store/app/types.ts</title>
<path fill="none" stroke="#000000" stroke-width="2" stroke-opacity="0.200000" d="M549.68,-773.62C577.15,-784.01 625.91,-797.37 662.5,-779.48 675.25,-773.24 684.7,-759.87 690.55,-749.31"/>
<polygon fill="#000000" fill-opacity="0.200000" stroke="#000000" stroke-width="2" stroke-opacity="0.200000" points="692.51,-750.09 693.42,-743.8 688.78,-748.15 692.51,-750.09"/>
</g>
<!-- src/shared/store/app/reducers.ts&#45;&gt;src/shared/store/app/actions.ts -->
<g id="edge51" class="edge">
<title>src/shared/store/app/reducers.ts&#45;&gt;src/shared/store/app/actions.ts</title>
<path fill="none" stroke="#000000" stroke-width="2" stroke-opacity="0.200000" d="M558.7,-764.48C569.81,-764.48 582.43,-764.48 593.75,-764.48"/>
<polygon fill="#000000" fill-opacity="0.200000" stroke="#000000" stroke-width="2" stroke-opacity="0.200000" points="593.88,-766.58 599.88,-764.48 593.88,-762.38 593.88,-766.58"/>
</g>
<!-- src/shared/store/rootReducer.ts&#45;&gt;src/shared/store/app/reducers.ts -->
<g id="edge55" class="edge">
<title>src/shared/store/rootReducer.ts&#45;&gt;src/shared/store/app/reducers.ts</title>
<path fill="none" stroke="#000000" stroke-width="2" stroke-opacity="0.200000" d="M466.7,-764.48C474.4,-764.48 482.49,-764.48 490.15,-764.48"/>
<polygon fill="#000000" fill-opacity="0.200000" stroke="#000000" stroke-width="2" stroke-opacity="0.200000" points="490.46,-766.58 496.46,-764.48 490.46,-762.38 490.46,-766.58"/>
</g>
</g>
</svg>
