<?xml version="1.0" encoding="UTF-8" standalone="no"?>
<!DOCTYPE svg PUBLIC "-//W3C//DTD SVG 1.1//EN"
 "http://www.w3.org/Graphics/SVG/1.1/DTD/svg11.dtd">
<!-- Generated by graphviz version 2.44.1 (20200629.0846)
 -->
<!-- Title: dependency&#45;cruiser output Pages: 1 -->
<svg width="811pt" height="1414pt"
 viewBox="0.00 0.00 810.50 1414.37" xmlns="http://www.w3.org/2000/svg" xmlns:xlink="http://www.w3.org/1999/xlink">
<g id="graph0" class="graph" transform="scale(1 1) rotate(0) translate(4 1410.37)">
<title>dependency&#45;cruiser output</title>
<polygon fill="white" stroke="transparent" points="-4,4 -4,-1410.37 806.5,-1410.37 806.5,4 -4,4"/>
<g id="clust1" class="cluster">
<title>cluster_config</title>
<path fill="#ffffff" stroke="black" stroke-width="2" d="M120.5,-1335.17C120.5,-1335.17 166.5,-1335.17 166.5,-1335.17 172.5,-1335.17 178.5,-1341.17 178.5,-1347.17 178.5,-1347.17 178.5,-1375.17 178.5,-1375.17 178.5,-1381.17 172.5,-1387.17 166.5,-1387.17 166.5,-1387.17 120.5,-1387.17 120.5,-1387.17 114.5,-1387.17 108.5,-1381.17 108.5,-1375.17 108.5,-1375.17 108.5,-1347.17 108.5,-1347.17 108.5,-1341.17 114.5,-1335.17 120.5,-1335.17"/>
<text text-anchor="middle" x="143.5" y="-1375.97" font-family="Helvetica,sans-Serif" font-weight="bold" font-size="9.00">config</text>
</g>
<g id="clust2" class="cluster">
<title>cluster_src</title>
<path fill="#ffffff" stroke="black" stroke-width="2" d="M20,-17.17C20,-17.17 782.5,-17.17 782.5,-17.17 788.5,-17.17 794.5,-23.17 794.5,-29.17 794.5,-29.17 794.5,-1315.17 794.5,-1315.17 794.5,-1321.17 788.5,-1327.17 782.5,-1327.17 782.5,-1327.17 20,-1327.17 20,-1327.17 14,-1327.17 8,-1321.17 8,-1315.17 8,-1315.17 8,-29.17 8,-29.17 8,-23.17 14,-17.17 20,-17.17"/>
<text text-anchor="middle" x="401.25" y="-1315.97" font-family="Helvetica,sans-Serif" font-weight="bold" font-size="9.00">src</text>
</g>
<g id="clust3" class="cluster">
<title>cluster_src/client</title>
<path fill="#ffffff" stroke="black" stroke-width="2" d="M120.5,-843.17C120.5,-843.17 166.5,-843.17 166.5,-843.17 172.5,-843.17 178.5,-849.17 178.5,-855.17 178.5,-855.17 178.5,-883.17 178.5,-883.17 178.5,-889.17 172.5,-895.17 166.5,-895.17 166.5,-895.17 120.5,-895.17 120.5,-895.17 114.5,-895.17 108.5,-889.17 108.5,-883.17 108.5,-883.17 108.5,-855.17 108.5,-855.17 108.5,-849.17 114.5,-843.17 120.5,-843.17"/>
<text text-anchor="middle" x="143.5" y="-883.97" font-family="Helvetica,sans-Serif" font-weight="bold" font-size="9.00">client</text>
</g>
<g id="clust4" class="cluster">
<title>cluster_src/server</title>
<path fill="#ffffff" stroke="black" stroke-width="2" d="M28,-1125.17C28,-1125.17 272.5,-1125.17 272.5,-1125.17 278.5,-1125.17 284.5,-1131.17 284.5,-1137.17 284.5,-1137.17 284.5,-1289.17 284.5,-1289.17 284.5,-1295.17 278.5,-1301.17 272.5,-1301.17 272.5,-1301.17 28,-1301.17 28,-1301.17 22,-1301.17 16,-1295.17 16,-1289.17 16,-1289.17 16,-1137.17 16,-1137.17 16,-1131.17 22,-1125.17 28,-1125.17"/>
<text text-anchor="middle" x="150.25" y="-1289.97" font-family="Helvetica,sans-Serif" font-weight="bold" font-size="9.00">server</text>
</g>
<g id="clust5" class="cluster">
<title>cluster_src/server/components</title>
<path fill="#ffffff" stroke="black" stroke-width="2" d="M218.5,-1133.17C218.5,-1133.17 264.5,-1133.17 264.5,-1133.17 270.5,-1133.17 276.5,-1139.17 276.5,-1145.17 276.5,-1145.17 276.5,-1173.17 276.5,-1173.17 276.5,-1179.17 270.5,-1185.17 264.5,-1185.17 264.5,-1185.17 218.5,-1185.17 218.5,-1185.17 212.5,-1185.17 206.5,-1179.17 206.5,-1173.17 206.5,-1173.17 206.5,-1145.17 206.5,-1145.17 206.5,-1139.17 212.5,-1133.17 218.5,-1133.17"/>
<text text-anchor="middle" x="241.5" y="-1173.97" font-family="Helvetica,sans-Serif" font-weight="bold" font-size="9.00">components</text>
</g>
<g id="clust6" class="cluster">
<title>cluster_src/server/middlewares</title>
<path fill="#ffffff" stroke="black" stroke-width="2" d="M100.5,-1133.17C100.5,-1133.17 186.5,-1133.17 186.5,-1133.17 192.5,-1133.17 198.5,-1139.17 198.5,-1145.17 198.5,-1145.17 198.5,-1263.17 198.5,-1263.17 198.5,-1269.17 192.5,-1275.17 186.5,-1275.17 186.5,-1275.17 100.5,-1275.17 100.5,-1275.17 94.5,-1275.17 88.5,-1269.17 88.5,-1263.17 88.5,-1263.17 88.5,-1145.17 88.5,-1145.17 88.5,-1139.17 94.5,-1133.17 100.5,-1133.17"/>
<text text-anchor="middle" x="143.5" y="-1263.97" font-family="Helvetica,sans-Serif" font-weight="bold" font-size="9.00">middlewares</text>
</g>
<g id="clust7" class="cluster">
<title>cluster_src/shared</title>
<path fill="#ffffff" stroke="black" stroke-width="2" d="M218.5,-31.17C218.5,-31.17 774.5,-31.17 774.5,-31.17 780.5,-31.17 786.5,-37.17 786.5,-43.17 786.5,-43.17 786.5,-1105.17 786.5,-1105.17 786.5,-1111.17 780.5,-1117.17 774.5,-1117.17 774.5,-1117.17 218.5,-1117.17 218.5,-1117.17 212.5,-1117.17 206.5,-1111.17 206.5,-1105.17 206.5,-1105.17 206.5,-43.17 206.5,-43.17 206.5,-37.17 212.5,-31.17 218.5,-31.17"/>
<text text-anchor="middle" x="496.5" y="-1105.97" font-family="Helvetica,sans-Serif" font-weight="bold" font-size="9.00">shared</text>
</g>
<g id="clust8" class="cluster">
<title>cluster_src/shared/assets</title>
<path fill="#ffffff" stroke="black" stroke-width="2" d="M418.5,-835.17C418.5,-835.17 474.5,-835.17 474.5,-835.17 480.5,-835.17 486.5,-841.17 486.5,-847.17 486.5,-847.17 486.5,-905.17 486.5,-905.17 486.5,-911.17 480.5,-917.17 474.5,-917.17 474.5,-917.17 418.5,-917.17 418.5,-917.17 412.5,-917.17 406.5,-911.17 406.5,-905.17 406.5,-905.17 406.5,-847.17 406.5,-847.17 406.5,-841.17 412.5,-835.17 418.5,-835.17"/>
<text text-anchor="middle" x="446.5" y="-905.97" font-family="Helvetica,sans-Serif" font-weight="bold" font-size="9.00">assets</text>
</g>
<g id="clust9" class="cluster">
<title>cluster_src/shared/components</title>
<path fill="#ffffff" stroke="black" stroke-width="2" d="M304.5,-65.17C304.5,-65.17 688.5,-65.17 688.5,-65.17 694.5,-65.17 700.5,-71.17 700.5,-77.17 700.5,-77.17 700.5,-481.17 700.5,-481.17 700.5,-487.17 694.5,-493.17 688.5,-493.17 688.5,-493.17 304.5,-493.17 304.5,-493.17 298.5,-493.17 292.5,-487.17 292.5,-481.17 292.5,-481.17 292.5,-77.17 292.5,-77.17 292.5,-71.17 298.5,-65.17 304.5,-65.17"/>
<text text-anchor="middle" x="496.5" y="-481.97" font-family="Helvetica,sans-Serif" font-weight="bold" font-size="9.00">components</text>
</g>
<g id="clust10" class="cluster">
<title>cluster_src/shared/components/molecules</title>
<path fill="#ffffff" stroke="black" stroke-width="2" d="M405.5,-287.17C405.5,-287.17 680.5,-287.17 680.5,-287.17 686.5,-287.17 692.5,-293.17 692.5,-299.17 692.5,-299.17 692.5,-361.17 692.5,-361.17 692.5,-367.17 686.5,-373.17 680.5,-373.17 680.5,-373.17 405.5,-373.17 405.5,-373.17 399.5,-373.17 393.5,-367.17 393.5,-361.17 393.5,-361.17 393.5,-299.17 393.5,-299.17 393.5,-293.17 399.5,-287.17 405.5,-287.17"/>
<text text-anchor="middle" x="543" y="-361.97" font-family="Helvetica,sans-Serif" font-weight="bold" font-size="9.00">molecules</text>
</g>
<g id="clust11" class="cluster">
<title>cluster_src/shared/components/molecules/Menu</title>
<path fill="#ffffff" stroke="black" stroke-width="2" d="M413.5,-295.17C413.5,-295.17 672.5,-295.17 672.5,-295.17 678.5,-295.17 684.5,-301.17 684.5,-307.17 684.5,-307.17 684.5,-335.17 684.5,-335.17 684.5,-341.17 678.5,-347.17 672.5,-347.17 672.5,-347.17 413.5,-347.17 413.5,-347.17 407.5,-347.17 401.5,-341.17 401.5,-335.17 401.5,-335.17 401.5,-307.17 401.5,-307.17 401.5,-301.17 407.5,-295.17 413.5,-295.17"/>
<text text-anchor="middle" x="543" y="-335.97" font-family="Helvetica,sans-Serif" font-weight="bold" font-size="9.00">Menu</text>
</g>
<g id="clust12" class="cluster">
<title>cluster_src/shared/components/organisms</title>
<path fill="#ffffff" stroke="black" stroke-width="2" d="M414.5,-381.17C414.5,-381.17 478.5,-381.17 478.5,-381.17 484.5,-381.17 490.5,-387.17 490.5,-393.17 490.5,-393.17 490.5,-455.17 490.5,-455.17 490.5,-461.17 484.5,-467.17 478.5,-467.17 478.5,-467.17 414.5,-467.17 414.5,-467.17 408.5,-467.17 402.5,-461.17 402.5,-455.17 402.5,-455.17 402.5,-393.17 402.5,-393.17 402.5,-387.17 408.5,-381.17 414.5,-381.17"/>
<text text-anchor="middle" x="446.5" y="-455.97" font-family="Helvetica,sans-Serif" font-weight="bold" font-size="9.00">organisms</text>
</g>
<g id="clust13" class="cluster">
<title>cluster_src/shared/components/organisms/LocaleSelect</title>
<path fill="#ffffff" stroke="black" stroke-width="2" d="M422.5,-389.17C422.5,-389.17 470.5,-389.17 470.5,-389.17 476.5,-389.17 482.5,-395.17 482.5,-401.17 482.5,-401.17 482.5,-429.17 482.5,-429.17 482.5,-435.17 476.5,-441.17 470.5,-441.17 470.5,-441.17 422.5,-441.17 422.5,-441.17 416.5,-441.17 410.5,-435.17 410.5,-429.17 410.5,-429.17 410.5,-401.17 410.5,-401.17 410.5,-395.17 416.5,-389.17 422.5,-389.17"/>
<text text-anchor="middle" x="446.5" y="-429.97" font-family="Helvetica,sans-Serif" font-weight="bold" font-size="9.00">LocaleSelect</text>
</g>
<g id="clust14" class="cluster">
<title>cluster_src/shared/components/sections</title>
<path fill="#ffffff" stroke="black" stroke-width="2" d="M312.5,-73.17C312.5,-73.17 478.5,-73.17 478.5,-73.17 484.5,-73.17 490.5,-79.17 490.5,-85.17 490.5,-85.17 490.5,-267.17 490.5,-267.17 490.5,-273.17 484.5,-279.17 478.5,-279.17 478.5,-279.17 312.5,-279.17 312.5,-279.17 306.5,-279.17 300.5,-273.17 300.5,-267.17 300.5,-267.17 300.5,-85.17 300.5,-85.17 300.5,-79.17 306.5,-73.17 312.5,-73.17"/>
<text text-anchor="middle" x="395.5" y="-267.97" font-family="Helvetica,sans-Serif" font-weight="bold" font-size="9.00">sections</text>
</g>
<g id="clust15" class="cluster">
<title>cluster_src/shared/components/sections/Content</title>
<path fill="#ffffff" stroke="black" stroke-width="2" d="M320.5,-201.17C320.5,-201.17 470.5,-201.17 470.5,-201.17 476.5,-201.17 482.5,-207.17 482.5,-213.17 482.5,-213.17 482.5,-241.17 482.5,-241.17 482.5,-247.17 476.5,-253.17 470.5,-253.17 470.5,-253.17 320.5,-253.17 320.5,-253.17 314.5,-253.17 308.5,-247.17 308.5,-241.17 308.5,-241.17 308.5,-213.17 308.5,-213.17 308.5,-207.17 314.5,-201.17 320.5,-201.17"/>
<text text-anchor="middle" x="395.5" y="-241.97" font-family="Helvetica,sans-Serif" font-weight="bold" font-size="9.00">Content</text>
</g>
<g id="clust16" class="cluster">
<title>cluster_src/shared/components/sections/Footer</title>
<path fill="#ffffff" stroke="black" stroke-width="2" d="M320.5,-141.17C320.5,-141.17 470.5,-141.17 470.5,-141.17 476.5,-141.17 482.5,-147.17 482.5,-153.17 482.5,-153.17 482.5,-181.17 482.5,-181.17 482.5,-187.17 476.5,-193.17 470.5,-193.17 470.5,-193.17 320.5,-193.17 320.5,-193.17 314.5,-193.17 308.5,-187.17 308.5,-181.17 308.5,-181.17 308.5,-153.17 308.5,-153.17 308.5,-147.17 314.5,-141.17 320.5,-141.17"/>
<text text-anchor="middle" x="395.5" y="-181.97" font-family="Helvetica,sans-Serif" font-weight="bold" font-size="9.00">Footer</text>
</g>
<g id="clust17" class="cluster">
<title>cluster_src/shared/components/sections/Header</title>
<path fill="#ffffff" stroke="black" stroke-width="2" d="M320.5,-81.17C320.5,-81.17 470.5,-81.17 470.5,-81.17 476.5,-81.17 482.5,-87.17 482.5,-93.17 482.5,-93.17 482.5,-121.17 482.5,-121.17 482.5,-127.17 476.5,-133.17 470.5,-133.17 470.5,-133.17 320.5,-133.17 320.5,-133.17 314.5,-133.17 308.5,-127.17 308.5,-121.17 308.5,-121.17 308.5,-93.17 308.5,-93.17 308.5,-87.17 314.5,-81.17 320.5,-81.17"/>
<text text-anchor="middle" x="395.5" y="-121.97" font-family="Helvetica,sans-Serif" font-weight="bold" font-size="9.00">Header</text>
</g>
<g id="clust18" class="cluster">
<title>cluster_src/shared/i18n</title>
<path fill="#ffffff" stroke="black" stroke-width="2" d="M534.5,-845.17C534.5,-845.17 671.5,-845.17 671.5,-845.17 677.5,-845.17 683.5,-851.17 683.5,-857.17 683.5,-857.17 683.5,-915.17 683.5,-915.17 683.5,-921.17 677.5,-927.17 671.5,-927.17 671.5,-927.17 534.5,-927.17 534.5,-927.17 528.5,-927.17 522.5,-921.17 522.5,-915.17 522.5,-915.17 522.5,-857.17 522.5,-857.17 522.5,-851.17 528.5,-845.17 534.5,-845.17"/>
<text text-anchor="middle" x="603" y="-915.97" font-family="Helvetica,sans-Serif" font-weight="bold" font-size="9.00">i18n</text>
</g>
<g id="clust19" class="cluster">
<title>cluster_src/shared/pages</title>
<path fill="#ffffff" stroke="black" stroke-width="2" d="M415.5,-501.17C415.5,-501.17 477.5,-501.17 477.5,-501.17 483.5,-501.17 489.5,-507.17 489.5,-513.17 489.5,-513.17 489.5,-815.17 489.5,-815.17 489.5,-821.17 483.5,-827.17 477.5,-827.17 477.5,-827.17 415.5,-827.17 415.5,-827.17 409.5,-827.17 403.5,-821.17 403.5,-815.17 403.5,-815.17 403.5,-513.17 403.5,-513.17 403.5,-507.17 409.5,-501.17 415.5,-501.17"/>
<text text-anchor="middle" x="446.5" y="-815.97" font-family="Helvetica,sans-Serif" font-weight="bold" font-size="9.00">pages</text>
</g>
<g id="clust20" class="cluster">
<title>cluster_src/shared/pages/404</title>
<path fill="#ffffff" stroke="black" stroke-width="2" d="M423.5,-749.17C423.5,-749.17 469.5,-749.17 469.5,-749.17 475.5,-749.17 481.5,-755.17 481.5,-761.17 481.5,-761.17 481.5,-789.17 481.5,-789.17 481.5,-795.17 475.5,-801.17 469.5,-801.17 469.5,-801.17 423.5,-801.17 423.5,-801.17 417.5,-801.17 411.5,-795.17 411.5,-789.17 411.5,-789.17 411.5,-761.17 411.5,-761.17 411.5,-755.17 417.5,-749.17 423.5,-749.17"/>
<text text-anchor="middle" x="446.5" y="-789.97" font-family="Helvetica,sans-Serif" font-weight="bold" font-size="9.00">404</text>
</g>
<g id="clust21" class="cluster">
<title>cluster_src/shared/pages/home</title>
<path fill="#ffffff" stroke="black" stroke-width="2" d="M423.5,-689.17C423.5,-689.17 469.5,-689.17 469.5,-689.17 475.5,-689.17 481.5,-695.17 481.5,-701.17 481.5,-701.17 481.5,-729.17 481.5,-729.17 481.5,-735.17 475.5,-741.17 469.5,-741.17 469.5,-741.17 423.5,-741.17 423.5,-741.17 417.5,-741.17 411.5,-735.17 411.5,-729.17 411.5,-729.17 411.5,-701.17 411.5,-701.17 411.5,-695.17 417.5,-689.17 423.5,-689.17"/>
<text text-anchor="middle" x="446.5" y="-729.97" font-family="Helvetica,sans-Serif" font-weight="bold" font-size="9.00">home</text>
</g>
<g id="clust22" class="cluster">
<title>cluster_src/shared/pages/page&#45;1</title>
<path fill="#ffffff" stroke="black" stroke-width="2" d="M423.5,-629.17C423.5,-629.17 469.5,-629.17 469.5,-629.17 475.5,-629.17 481.5,-635.17 481.5,-641.17 481.5,-641.17 481.5,-669.17 481.5,-669.17 481.5,-675.17 475.5,-681.17 469.5,-681.17 469.5,-681.17 423.5,-681.17 423.5,-681.17 417.5,-681.17 411.5,-675.17 411.5,-669.17 411.5,-669.17 411.5,-641.17 411.5,-641.17 411.5,-635.17 417.5,-629.17 423.5,-629.17"/>
<text text-anchor="middle" x="446.5" y="-669.97" font-family="Helvetica,sans-Serif" font-weight="bold" font-size="9.00">page&#45;1</text>
</g>
<g id="clust23" class="cluster">
<title>cluster_src/shared/pages/page&#45;2</title>
<path fill="#ffffff" stroke="black" stroke-width="2" d="M423.5,-569.17C423.5,-569.17 469.5,-569.17 469.5,-569.17 475.5,-569.17 481.5,-575.17 481.5,-581.17 481.5,-581.17 481.5,-609.17 481.5,-609.17 481.5,-615.17 475.5,-621.17 469.5,-621.17 469.5,-621.17 423.5,-621.17 423.5,-621.17 417.5,-621.17 411.5,-615.17 411.5,-609.17 411.5,-609.17 411.5,-581.17 411.5,-581.17 411.5,-575.17 417.5,-569.17 423.5,-569.17"/>
<text text-anchor="middle" x="446.5" y="-609.97" font-family="Helvetica,sans-Serif" font-weight="bold" font-size="9.00">page&#45;2</text>
</g>
<g id="clust24" class="cluster">
<title>cluster_src/shared/pages/page&#45;3</title>
<path fill="#ffffff" stroke="black" stroke-width="2" d="M423.5,-509.17C423.5,-509.17 469.5,-509.17 469.5,-509.17 475.5,-509.17 481.5,-515.17 481.5,-521.17 481.5,-521.17 481.5,-549.17 481.5,-549.17 481.5,-555.17 475.5,-561.17 469.5,-561.17 469.5,-561.17 423.5,-561.17 423.5,-561.17 417.5,-561.17 411.5,-555.17 411.5,-549.17 411.5,-549.17 411.5,-521.17 411.5,-521.17 411.5,-515.17 417.5,-509.17 423.5,-509.17"/>
<text text-anchor="middle" x="446.5" y="-549.97" font-family="Helvetica,sans-Serif" font-weight="bold" font-size="9.00">page&#45;3</text>
</g>
<g id="clust25" class="cluster">
<title>cluster_src/shared/store</title>
<path fill="#ffffff" stroke="black" stroke-width="2" d="M320.5,-935.17C320.5,-935.17 766.5,-935.17 766.5,-935.17 772.5,-935.17 778.5,-941.17 778.5,-947.17 778.5,-947.17 778.5,-1053.17 778.5,-1053.17 778.5,-1059.17 772.5,-1065.17 766.5,-1065.17 766.5,-1065.17 320.5,-1065.17 320.5,-1065.17 314.5,-1065.17 308.5,-1059.17 308.5,-1053.17 308.5,-1053.17 308.5,-947.17 308.5,-947.17 308.5,-941.17 314.5,-935.17 320.5,-935.17"/>
<text text-anchor="middle" x="543.5" y="-1053.97" font-family="Helvetica,sans-Serif" font-weight="bold" font-size="9.00">store</text>
</g>
<g id="clust26" class="cluster">
<title>cluster_src/shared/store/app</title>
<path fill="#ffffff" stroke="black" stroke-width="2" d="M540.5,-943.17C540.5,-943.17 758.5,-943.17 758.5,-943.17 764.5,-943.17 770.5,-949.17 770.5,-955.17 770.5,-955.17 770.5,-1027.17 770.5,-1027.17 770.5,-1033.17 764.5,-1039.17 758.5,-1039.17 758.5,-1039.17 540.5,-1039.17 540.5,-1039.17 534.5,-1039.17 528.5,-1033.17 528.5,-1027.17 528.5,-1027.17 528.5,-955.17 528.5,-955.17 528.5,-949.17 534.5,-943.17 540.5,-943.17"/>
<text text-anchor="middle" x="649.5" y="-1027.97" font-family="Helvetica,sans-Serif" font-weight="bold" font-size="9.00">app</text>
</g>
<!-- config/paths.ts -->
<g id="node1" class="node">
<title>config/paths.ts</title>
<g id="a_node1"><a xlink:href="config/paths.ts" xlink:title="paths.ts">
<path fill="#ddfeff" stroke="black" d="M164.5,-1361.17C164.5,-1361.17 122.5,-1361.17 122.5,-1361.17 119.5,-1361.17 116.5,-1358.17 116.5,-1355.17 116.5,-1355.17 116.5,-1349.17 116.5,-1349.17 116.5,-1346.17 119.5,-1343.17 122.5,-1343.17 122.5,-1343.17 164.5,-1343.17 164.5,-1343.17 167.5,-1343.17 170.5,-1346.17 170.5,-1349.17 170.5,-1349.17 170.5,-1355.17 170.5,-1355.17 170.5,-1358.17 167.5,-1361.17 164.5,-1361.17"/>
<text text-anchor="middle" x="143.5" y="-1349.97" font-family="Helvetica,sans-Serif" font-size="9.00">paths.ts</text>
</a>
</g>
</g>
<!-- fs -->
<g id="node2" class="node">
<title>fs</title>
<path fill="#ffffcc" stroke="grey" d="M262.5,-1353.17C262.5,-1353.17 220.5,-1353.17 220.5,-1353.17 217.5,-1353.17 214.5,-1350.17 214.5,-1347.17 214.5,-1347.17 214.5,-1341.17 214.5,-1341.17 214.5,-1338.17 217.5,-1335.17 220.5,-1335.17 220.5,-1335.17 262.5,-1335.17 262.5,-1335.17 265.5,-1335.17 268.5,-1338.17 268.5,-1341.17 268.5,-1341.17 268.5,-1347.17 268.5,-1347.17 268.5,-1350.17 265.5,-1353.17 262.5,-1353.17"/>
<text text-anchor="middle" x="241.5" y="-1341.97" font-family="Helvetica,sans-Serif" font-size="9.00" fill="grey">fs</text>
</g>
<!-- config/paths.ts&#45;&gt;fs -->
<g id="edge1" class="edge">
<title>config/paths.ts&#45;&gt;fs</title>
<path fill="none" stroke="#000000" stroke-dasharray="5,2" stroke-opacity="0.200000" d="M170.73,-1349.98C182.27,-1349.02 195.93,-1347.88 208.09,-1346.87"/>
<polygon fill="#000000" fill-opacity="0.200000" stroke="#000000" stroke-opacity="0.200000" points="208.49,-1348.94 214.3,-1346.35 208.15,-1344.76 208.49,-1348.94"/>
</g>
<!-- path -->
<g id="node3" class="node">
<title>path</title>
<path fill="#ffffcc" stroke="grey" d="M262.5,-1383.17C262.5,-1383.17 220.5,-1383.17 220.5,-1383.17 217.5,-1383.17 214.5,-1380.17 214.5,-1377.17 214.5,-1377.17 214.5,-1371.17 214.5,-1371.17 214.5,-1368.17 217.5,-1365.17 220.5,-1365.17 220.5,-1365.17 262.5,-1365.17 262.5,-1365.17 265.5,-1365.17 268.5,-1368.17 268.5,-1371.17 268.5,-1371.17 268.5,-1377.17 268.5,-1377.17 268.5,-1380.17 265.5,-1383.17 262.5,-1383.17"/>
<text text-anchor="middle" x="241.5" y="-1371.97" font-family="Helvetica,sans-Serif" font-size="9.00" fill="grey">path</text>
</g>
<!-- config/paths.ts&#45;&gt;path -->
<g id="edge2" class="edge">
<title>config/paths.ts&#45;&gt;path</title>
<path fill="none" stroke="#000000" stroke-dasharray="5,2" stroke-opacity="0.200000" d="M170.73,-1358.18C182.37,-1360.85 196.18,-1364.01 208.43,-1366.82"/>
<polygon fill="#000000" fill-opacity="0.200000" stroke="#000000" stroke-opacity="0.200000" points="207.98,-1368.87 214.3,-1368.16 208.92,-1364.78 207.98,-1368.87"/>
</g>
<!-- src/client/index.tsx -->
<g id="node4" class="node">
<title>src/client/index.tsx</title>
<g id="a_node4"><a xlink:href="src/client/index.tsx" xlink:title="index.tsx">
<path fill="#bbfeff" stroke="black" d="M164.5,-869.17C164.5,-869.17 122.5,-869.17 122.5,-869.17 119.5,-869.17 116.5,-866.17 116.5,-863.17 116.5,-863.17 116.5,-857.17 116.5,-857.17 116.5,-854.17 119.5,-851.17 122.5,-851.17 122.5,-851.17 164.5,-851.17 164.5,-851.17 167.5,-851.17 170.5,-854.17 170.5,-857.17 170.5,-857.17 170.5,-863.17 170.5,-863.17 170.5,-866.17 167.5,-869.17 164.5,-869.17"/>
<text text-anchor="middle" x="143.5" y="-857.97" font-family="Helvetica,sans-Serif" font-size="9.00">index.tsx</text>
</a>
</g>
</g>
<!-- src/shared/App.tsx -->
<g id="node5" class="node">
<title>src/shared/App.tsx</title>
<g id="a_node5"><a xlink:href="src/shared/App.tsx" xlink:title="App.tsx">
<path fill="#bbfeff" stroke="black" d="M262.5,-891.17C262.5,-891.17 220.5,-891.17 220.5,-891.17 217.5,-891.17 214.5,-888.17 214.5,-885.17 214.5,-885.17 214.5,-879.17 214.5,-879.17 214.5,-876.17 217.5,-873.17 220.5,-873.17 220.5,-873.17 262.5,-873.17 262.5,-873.17 265.5,-873.17 268.5,-876.17 268.5,-879.17 268.5,-879.17 268.5,-885.17 268.5,-885.17 268.5,-888.17 265.5,-891.17 262.5,-891.17"/>
<text text-anchor="middle" x="241.5" y="-879.97" font-family="Helvetica,sans-Serif" font-size="9.00">App.tsx</text>
</a>
</g>
</g>
<!-- src/client/index.tsx&#45;&gt;src/shared/App.tsx -->
<g id="edge3" class="edge">
<title>src/client/index.tsx&#45;&gt;src/shared/App.tsx</title>
<path fill="none" stroke="#000000" stroke-width="2" stroke-opacity="0.200000" d="M170.73,-866.18C182.37,-868.85 196.18,-872.01 208.43,-874.82"/>
<polygon fill="#000000" fill-opacity="0.200000" stroke="#000000" stroke-width="2" stroke-opacity="0.200000" points="207.98,-876.87 214.3,-876.16 208.92,-872.78 207.98,-876.87"/>
</g>
<!-- src/shared/i18n/index.tsx -->
<g id="node6" class="node">
<title>src/shared/i18n/index.tsx</title>
<g id="a_node6"><a xlink:href="src/shared/i18n/index.tsx" xlink:title="index.tsx">
<path fill="#bbfeff" stroke="black" d="M588.5,-871.17C588.5,-871.17 546.5,-871.17 546.5,-871.17 543.5,-871.17 540.5,-868.17 540.5,-865.17 540.5,-865.17 540.5,-859.17 540.5,-859.17 540.5,-856.17 543.5,-853.17 546.5,-853.17 546.5,-853.17 588.5,-853.17 588.5,-853.17 591.5,-853.17 594.5,-856.17 594.5,-859.17 594.5,-859.17 594.5,-865.17 594.5,-865.17 594.5,-868.17 591.5,-871.17 588.5,-871.17"/>
<text text-anchor="middle" x="567.5" y="-859.97" font-family="Helvetica,sans-Serif" font-size="9.00">index.tsx</text>
</a>
</g>
</g>
<!-- src/client/index.tsx&#45;&gt;src/shared/i18n/index.tsx -->
<g id="edge4" class="edge">
<title>src/client/index.tsx&#45;&gt;src/shared/i18n/index.tsx</title>
<path fill="none" stroke="#000000" stroke-width="2" stroke-opacity="0.200000" d="M145.09,-851.04C150.38,-772.32 191.54,-207.95 292.5,-78.17 348.04,-6.78 423.7,29.8 490.5,-31.17 494.43,-34.76 555.35,-733.93 565.17,-846.85"/>
<polygon fill="#000000" fill-opacity="0.200000" stroke="#000000" stroke-width="2" stroke-opacity="0.200000" points="563.11,-847.36 565.72,-853.16 567.29,-847 563.11,-847.36"/>
</g>
<!-- src/shared/store/index.ts -->
<g id="node7" class="node">
<title>src/shared/store/index.ts</title>
<g id="a_node7"><a xlink:href="src/shared/store/index.ts" xlink:title="index.ts">
<path fill="#ddfeff" stroke="black" d="M364.5,-999.17C364.5,-999.17 322.5,-999.17 322.5,-999.17 319.5,-999.17 316.5,-996.17 316.5,-993.17 316.5,-993.17 316.5,-987.17 316.5,-987.17 316.5,-984.17 319.5,-981.17 322.5,-981.17 322.5,-981.17 364.5,-981.17 364.5,-981.17 367.5,-981.17 370.5,-984.17 370.5,-987.17 370.5,-987.17 370.5,-993.17 370.5,-993.17 370.5,-996.17 367.5,-999.17 364.5,-999.17"/>
<text text-anchor="middle" x="343.5" y="-987.97" font-family="Helvetica,sans-Serif" font-size="9.00">index.ts</text>
</a>
</g>
</g>
<!-- src/client/index.tsx&#45;&gt;src/shared/store/index.ts -->
<g id="edge5" class="edge">
<title>src/client/index.tsx&#45;&gt;src/shared/store/index.ts</title>
<path fill="none" stroke="#000000" stroke-width="2" stroke-opacity="0.200000" d="M170.69,-853.52C200.8,-847.48 250.46,-842.57 284.5,-865.17 322.51,-890.4 336.08,-947.41 340.52,-974.85"/>
<polygon fill="#000000" fill-opacity="0.200000" stroke="#000000" stroke-width="2" stroke-opacity="0.200000" points="338.46,-975.22 341.43,-980.84 342.61,-974.6 338.46,-975.22"/>
</g>
<!-- src/shared/App.scss -->
<g id="node17" class="node">
<title>src/shared/App.scss</title>
<g id="a_node17"><a xlink:href="src/shared/App.scss" xlink:title="App.scss">
<path fill="#ffffcc" stroke="black" d="M364.5,-1091.17C364.5,-1091.17 322.5,-1091.17 322.5,-1091.17 319.5,-1091.17 316.5,-1088.17 316.5,-1085.17 316.5,-1085.17 316.5,-1079.17 316.5,-1079.17 316.5,-1076.17 319.5,-1073.17 322.5,-1073.17 322.5,-1073.17 364.5,-1073.17 364.5,-1073.17 367.5,-1073.17 370.5,-1076.17 370.5,-1079.17 370.5,-1079.17 370.5,-1085.17 370.5,-1085.17 370.5,-1088.17 367.5,-1091.17 364.5,-1091.17"/>
<text text-anchor="middle" x="343.5" y="-1079.97" font-family="Helvetica,sans-Serif" font-size="9.00">App.scss</text>
</a>
</g>
</g>
<!-- src/shared/App.tsx&#45;&gt;src/shared/App.scss -->
<g id="edge21" class="edge">
<title>src/shared/App.tsx&#45;&gt;src/shared/App.scss</title>
<path fill="none" stroke="#000000" stroke-width="2" stroke-opacity="0.200000" d="M242.03,-891.44C241.04,-921.5 242.17,-1017.31 292.5,-1068.17 297.35,-1073.07 303.78,-1076.3 310.4,-1078.41"/>
<polygon fill="#000000" fill-opacity="0.200000" stroke="#000000" stroke-width="2" stroke-opacity="0.200000" points="310.15,-1080.51 316.49,-1080.05 311.24,-1076.46 310.15,-1080.51"/>
</g>
<!-- src/shared/assets/favicon.png -->
<g id="node18" class="node">
<title>src/shared/assets/favicon.png</title>
<g id="a_node18"><a xlink:href="src/shared/assets/favicon.png" xlink:title="favicon.png">
<path fill="#ffffcc" stroke="black" d="M472.5,-891.17C472.5,-891.17 420.5,-891.17 420.5,-891.17 417.5,-891.17 414.5,-888.17 414.5,-885.17 414.5,-885.17 414.5,-879.17 414.5,-879.17 414.5,-876.17 417.5,-873.17 420.5,-873.17 420.5,-873.17 472.5,-873.17 472.5,-873.17 475.5,-873.17 478.5,-876.17 478.5,-879.17 478.5,-879.17 478.5,-885.17 478.5,-885.17 478.5,-888.17 475.5,-891.17 472.5,-891.17"/>
<text text-anchor="middle" x="446.5" y="-879.97" font-family="Helvetica,sans-Serif" font-size="9.00">favicon.png</text>
</a>
</g>
</g>
<!-- src/shared/App.tsx&#45;&gt;src/shared/assets/favicon.png -->
<g id="edge22" class="edge">
<title>src/shared/App.tsx&#45;&gt;src/shared/assets/favicon.png</title>
<path fill="none" stroke="#000000" stroke-width="2" stroke-opacity="0.200000" d="M268.62,-882.17C304.17,-882.17 367.98,-882.17 408.45,-882.17"/>
<polygon fill="#000000" fill-opacity="0.200000" stroke="#000000" stroke-width="2" stroke-opacity="0.200000" points="408.5,-884.27 414.5,-882.17 408.5,-880.07 408.5,-884.27"/>
</g>
<!-- src/shared/components/sections/Content/index.tsx -->
<g id="node19" class="node">
<title>src/shared/components/sections/Content/index.tsx</title>
<g id="a_node19"><a xlink:href="src/shared/components/sections/Content/index.tsx" xlink:title="index.tsx">
<path fill="#bbfeff" stroke="black" d="M364.5,-227.17C364.5,-227.17 322.5,-227.17 322.5,-227.17 319.5,-227.17 316.5,-224.17 316.5,-221.17 316.5,-221.17 316.5,-215.17 316.5,-215.17 316.5,-212.17 319.5,-209.17 322.5,-209.17 322.5,-209.17 364.5,-209.17 364.5,-209.17 367.5,-209.17 370.5,-212.17 370.5,-215.17 370.5,-215.17 370.5,-221.17 370.5,-221.17 370.5,-224.17 367.5,-227.17 364.5,-227.17"/>
<text text-anchor="middle" x="343.5" y="-215.97" font-family="Helvetica,sans-Serif" font-size="9.00">index.tsx</text>
</a>
</g>
</g>
<!-- src/shared/App.tsx&#45;&gt;src/shared/components/sections/Content/index.tsx -->
<g id="edge23" class="edge">
<title>src/shared/App.tsx&#45;&gt;src/shared/components/sections/Content/index.tsx</title>
<path fill="none" stroke="#000000" stroke-width="2" stroke-opacity="0.200000" d="M242.57,-872.79C243.25,-796.77 249.41,-282.69 292.5,-231.17 296.99,-225.79 303.4,-222.49 310.13,-220.49"/>
<polygon fill="#000000" fill-opacity="0.200000" stroke="#000000" stroke-width="2" stroke-opacity="0.200000" points="311.01,-222.44 316.36,-219 310.04,-218.36 311.01,-222.44"/>
</g>
<!-- src/shared/components/sections/Footer/index.tsx -->
<g id="node20" class="node">
<title>src/shared/components/sections/Footer/index.tsx</title>
<g id="a_node20"><a xlink:href="src/shared/components/sections/Footer/index.tsx" xlink:title="index.tsx">
<path fill="#bbfeff" stroke="black" d="M364.5,-167.17C364.5,-167.17 322.5,-167.17 322.5,-167.17 319.5,-167.17 316.5,-164.17 316.5,-161.17 316.5,-161.17 316.5,-155.17 316.5,-155.17 316.5,-152.17 319.5,-149.17 322.5,-149.17 322.5,-149.17 364.5,-149.17 364.5,-149.17 367.5,-149.17 370.5,-152.17 370.5,-155.17 370.5,-155.17 370.5,-161.17 370.5,-161.17 370.5,-164.17 367.5,-167.17 364.5,-167.17"/>
<text text-anchor="middle" x="343.5" y="-155.97" font-family="Helvetica,sans-Serif" font-size="9.00">index.tsx</text>
</a>
</g>
</g>
<!-- src/shared/App.tsx&#45;&gt;src/shared/components/sections/Footer/index.tsx -->
<g id="edge24" class="edge">
<title>src/shared/App.tsx&#45;&gt;src/shared/components/sections/Footer/index.tsx</title>
<path fill="none" stroke="#000000" stroke-width="2" stroke-opacity="0.200000" d="M242.73,-872.95C244.71,-795.92 259.57,-260.73 292.5,-198.17 298.58,-186.61 309.62,-177.23 319.78,-170.47"/>
<polygon fill="#000000" fill-opacity="0.200000" stroke="#000000" stroke-width="2" stroke-opacity="0.200000" points="321.03,-172.16 324.98,-167.18 318.79,-168.61 321.03,-172.16"/>
</g>
<!-- src/shared/components/sections/Header/index.tsx -->
<g id="node21" class="node">
<title>src/shared/components/sections/Header/index.tsx</title>
<g id="a_node21"><a xlink:href="src/shared/components/sections/Header/index.tsx" xlink:title="index.tsx">
<path fill="#bbfeff" stroke="black" d="M364.5,-107.17C364.5,-107.17 322.5,-107.17 322.5,-107.17 319.5,-107.17 316.5,-104.17 316.5,-101.17 316.5,-101.17 316.5,-95.17 316.5,-95.17 316.5,-92.17 319.5,-89.17 322.5,-89.17 322.5,-89.17 364.5,-89.17 364.5,-89.17 367.5,-89.17 370.5,-92.17 370.5,-95.17 370.5,-95.17 370.5,-101.17 370.5,-101.17 370.5,-104.17 367.5,-107.17 364.5,-107.17"/>
<text text-anchor="middle" x="343.5" y="-95.97" font-family="Helvetica,sans-Serif" font-size="9.00">index.tsx</text>
</a>
</g>
</g>
<!-- src/shared/App.tsx&#45;&gt;src/shared/components/sections/Header/index.tsx -->
<g id="edge25" class="edge">
<title>src/shared/App.tsx&#45;&gt;src/shared/components/sections/Header/index.tsx</title>
<path fill="none" stroke="#000000" stroke-width="2" stroke-opacity="0.200000" d="M242.68,-872.66C244.27,-790.82 256.82,-206.43 292.5,-138.17 298.46,-126.76 309.26,-117.48 319.3,-110.75"/>
<polygon fill="#000000" fill-opacity="0.200000" stroke="#000000" stroke-width="2" stroke-opacity="0.200000" points="320.53,-112.46 324.46,-107.46 318.27,-108.92 320.53,-112.46"/>
</g>
<!-- src/shared/i18n/withLocale.tsx -->
<g id="node22" class="node">
<title>src/shared/i18n/withLocale.tsx</title>
<g id="a_node22"><a xlink:href="src/shared/i18n/withLocale.tsx" xlink:title="withLocale.tsx">
<path fill="#bbfeff" stroke="black" d="M598.5,-901.17C598.5,-901.17 536.5,-901.17 536.5,-901.17 533.5,-901.17 530.5,-898.17 530.5,-895.17 530.5,-895.17 530.5,-889.17 530.5,-889.17 530.5,-886.17 533.5,-883.17 536.5,-883.17 536.5,-883.17 598.5,-883.17 598.5,-883.17 601.5,-883.17 604.5,-886.17 604.5,-889.17 604.5,-889.17 604.5,-895.17 604.5,-895.17 604.5,-898.17 601.5,-901.17 598.5,-901.17"/>
<text text-anchor="middle" x="567.5" y="-889.97" font-family="Helvetica,sans-Serif" font-size="9.00">withLocale.tsx</text>
</a>
</g>
</g>
<!-- src/shared/App.tsx&#45;&gt;src/shared/i18n/withLocale.tsx -->
<g id="edge26" class="edge">
<title>src/shared/App.tsx&#45;&gt;src/shared/i18n/withLocale.tsx</title>
<path fill="none" stroke="#000000" stroke-width="2" stroke-opacity="0.200000" d="M266.85,-891.22C311.37,-906.58 408.81,-934.74 490.5,-920.17 508.34,-916.99 527.48,-909.91 542.09,-903.67"/>
<polygon fill="#000000" fill-opacity="0.200000" stroke="#000000" stroke-width="2" stroke-opacity="0.200000" points="543,-905.56 547.66,-901.24 541.32,-901.71 543,-905.56"/>
</g>
<!-- src/shared/i18n/config.ts -->
<g id="node10" class="node">
<title>src/shared/i18n/config.ts</title>
<g id="a_node10"><a xlink:href="src/shared/i18n/config.ts" xlink:title="config.ts">
<path fill="#ddfeff" stroke="black" d="M669.5,-901.17C669.5,-901.17 627.5,-901.17 627.5,-901.17 624.5,-901.17 621.5,-898.17 621.5,-895.17 621.5,-895.17 621.5,-889.17 621.5,-889.17 621.5,-886.17 624.5,-883.17 627.5,-883.17 627.5,-883.17 669.5,-883.17 669.5,-883.17 672.5,-883.17 675.5,-886.17 675.5,-889.17 675.5,-889.17 675.5,-895.17 675.5,-895.17 675.5,-898.17 672.5,-901.17 669.5,-901.17"/>
<text text-anchor="middle" x="648.5" y="-889.97" font-family="Helvetica,sans-Serif" font-size="9.00">config.ts</text>
</a>
</g>
</g>
<!-- src/shared/i18n/index.tsx&#45;&gt;src/shared/i18n/config.ts -->
<g id="edge46" class="edge">
<title>src/shared/i18n/index.tsx&#45;&gt;src/shared/i18n/config.ts</title>
<path fill="none" stroke="#000000" stroke-width="2" stroke-opacity="0.200000" d="M592.2,-871.17C600.25,-874.23 609.35,-877.68 617.81,-880.89"/>
<polygon fill="#000000" fill-opacity="0.200000" stroke="#000000" stroke-width="2" stroke-opacity="0.200000" points="617.19,-882.9 623.54,-883.07 618.68,-878.98 617.19,-882.9"/>
</g>
<!-- src/shared/store/rootReducer.ts -->
<g id="node40" class="node">
<title>src/shared/store/rootReducer.ts</title>
<g id="a_node40"><a xlink:href="src/shared/store/rootReducer.ts" xlink:title="rootReducer.ts">
<path fill="#ddfeff" stroke="black" d="M479,-999.17C479,-999.17 414,-999.17 414,-999.17 411,-999.17 408,-996.17 408,-993.17 408,-993.17 408,-987.17 408,-987.17 408,-984.17 411,-981.17 414,-981.17 414,-981.17 479,-981.17 479,-981.17 482,-981.17 485,-984.17 485,-987.17 485,-987.17 485,-993.17 485,-993.17 485,-996.17 482,-999.17 479,-999.17"/>
<text text-anchor="middle" x="446.5" y="-987.97" font-family="Helvetica,sans-Serif" font-size="9.00">rootReducer.ts</text>
</a>
</g>
</g>
<!-- src/shared/store/index.ts&#45;&gt;src/shared/store/rootReducer.ts -->
<g id="edge56" class="edge">
<title>src/shared/store/index.ts&#45;&gt;src/shared/store/rootReducer.ts</title>
<path fill="none" stroke="#000000" stroke-width="2" stroke-opacity="0.200000" d="M370.51,-990.17C379.99,-990.17 390.99,-990.17 401.59,-990.17"/>
<polygon fill="#000000" fill-opacity="0.200000" stroke="#000000" stroke-width="2" stroke-opacity="0.200000" points="401.77,-992.27 407.77,-990.17 401.77,-988.07 401.77,-992.27"/>
</g>
<!-- src/global.d.ts -->
<g id="node8" class="node">
<title>src/global.d.ts</title>
<g id="a_node8"><a xlink:href="src/global.d.ts" xlink:title="global.d.ts">
<path fill="#ccffcc" stroke="black" d="M74.5,-580.17C74.5,-580.17 27.5,-580.17 27.5,-580.17 24.5,-580.17 21.5,-577.17 21.5,-574.17 21.5,-574.17 21.5,-568.17 21.5,-568.17 21.5,-565.17 24.5,-562.17 27.5,-562.17 27.5,-562.17 74.5,-562.17 74.5,-562.17 77.5,-562.17 80.5,-565.17 80.5,-568.17 80.5,-568.17 80.5,-574.17 80.5,-574.17 80.5,-577.17 77.5,-580.17 74.5,-580.17"/>
<text text-anchor="middle" x="51" y="-568.97" font-family="Helvetica,sans-Serif" font-size="9.00">global.d.ts</text>
</a>
</g>
</g>
<!-- src/server/components/html.tsx -->
<g id="node9" class="node">
<title>src/server/components/html.tsx</title>
<g id="a_node9"><a xlink:href="src/server/components/html.tsx" xlink:title="html.tsx">
<path fill="#bbfeff" stroke="black" d="M262.5,-1159.17C262.5,-1159.17 220.5,-1159.17 220.5,-1159.17 217.5,-1159.17 214.5,-1156.17 214.5,-1153.17 214.5,-1153.17 214.5,-1147.17 214.5,-1147.17 214.5,-1144.17 217.5,-1141.17 220.5,-1141.17 220.5,-1141.17 262.5,-1141.17 262.5,-1141.17 265.5,-1141.17 268.5,-1144.17 268.5,-1147.17 268.5,-1147.17 268.5,-1153.17 268.5,-1153.17 268.5,-1156.17 265.5,-1159.17 262.5,-1159.17"/>
<text text-anchor="middle" x="241.5" y="-1147.97" font-family="Helvetica,sans-Serif" font-size="9.00">html.tsx</text>
</a>
</g>
</g>
<!-- src/server/components/html.tsx&#45;&gt;src/shared/i18n/config.ts -->
<g id="edge6" class="edge">
<title>src/server/components/html.tsx&#45;&gt;src/shared/i18n/config.ts</title>
<path fill="none" stroke="#000000" stroke-width="2" stroke-opacity="0.200000" d="M268.85,-1145.94C331.65,-1135.85 485.28,-1111.06 490.5,-1109.17 545.75,-1089.15 572.14,-1091.23 604.5,-1042.17 629.66,-1004.02 602.14,-983.21 617.5,-940.17 621.86,-927.94 629.71,-915.56 636.28,-906.43"/>
<polygon fill="#000000" fill-opacity="0.200000" stroke="#000000" stroke-width="2" stroke-opacity="0.200000" points="638.08,-907.53 639.97,-901.46 634.71,-905.02 638.08,-907.53"/>
</g>
<!-- src/shared/store/app/types.ts -->
<g id="node11" class="node">
<title>src/shared/store/app/types.ts</title>
<g id="a_node11"><a xlink:href="src/shared/store/app/types.ts" xlink:title="types.ts">
<path fill="#ddfeff" stroke="black" d="M756.5,-969.17C756.5,-969.17 714.5,-969.17 714.5,-969.17 711.5,-969.17 708.5,-966.17 708.5,-963.17 708.5,-963.17 708.5,-957.17 708.5,-957.17 708.5,-954.17 711.5,-951.17 714.5,-951.17 714.5,-951.17 756.5,-951.17 756.5,-951.17 759.5,-951.17 762.5,-954.17 762.5,-957.17 762.5,-957.17 762.5,-963.17 762.5,-963.17 762.5,-966.17 759.5,-969.17 756.5,-969.17"/>
<text text-anchor="middle" x="735.5" y="-957.97" font-family="Helvetica,sans-Serif" font-size="9.00">types.ts</text>
</a>
</g>
</g>
<!-- src/server/components/html.tsx&#45;&gt;src/shared/store/app/types.ts -->
<g id="edge7" class="edge">
<title>src/server/components/html.tsx&#45;&gt;src/shared/store/app/types.ts</title>
<path fill="none" stroke="#000000" stroke-width="2" stroke-opacity="0.200000" d="M268.77,-1149.32C307.47,-1148.15 382.05,-1146.17 445.5,-1146.17 445.5,-1146.17 445.5,-1146.17 568.5,-1146.17 659.88,-1146.17 713.44,-1019.67 729.41,-975.31"/>
<polygon fill="#000000" fill-opacity="0.200000" stroke="#000000" stroke-width="2" stroke-opacity="0.200000" points="731.48,-975.75 731.49,-969.39 727.52,-974.35 731.48,-975.75"/>
</g>
<!-- src/shared/i18n/config.ts&#45;&gt;src/shared/store/app/types.ts -->
<g id="edge45" class="edge">
<title>src/shared/i18n/config.ts&#45;&gt;src/shared/store/app/types.ts</title>
<path fill="none" stroke="#000000" stroke-width="2" stroke-opacity="0.200000" d="M660.96,-901.34C675.75,-913.17 701.55,-933.81 718.32,-947.23"/>
<polygon fill="#000000" fill-opacity="0.200000" stroke="#000000" stroke-width="2" stroke-opacity="0.200000" points="717.22,-949.03 723.22,-951.14 719.84,-945.75 717.22,-949.03"/>
</g>
<!-- src/server/index.ts -->
<g id="node12" class="node">
<title>src/server/index.ts</title>
<g id="a_node12"><a xlink:href="src/server/index.ts" xlink:title="index.ts">
<path fill="#ddfeff" stroke="black" d="M72,-1219.17C72,-1219.17 30,-1219.17 30,-1219.17 27,-1219.17 24,-1216.17 24,-1213.17 24,-1213.17 24,-1207.17 24,-1207.17 24,-1204.17 27,-1201.17 30,-1201.17 30,-1201.17 72,-1201.17 72,-1201.17 75,-1201.17 78,-1204.17 78,-1207.17 78,-1207.17 78,-1213.17 78,-1213.17 78,-1216.17 75,-1219.17 72,-1219.17"/>
<text text-anchor="middle" x="51" y="-1207.97" font-family="Helvetica,sans-Serif" font-size="9.00">index.ts</text>
</a>
</g>
</g>
<!-- src/server/index.ts&#45;&gt;config/paths.ts -->
<g id="edge8" class="edge">
<title>src/server/index.ts&#45;&gt;config/paths.ts</title>
<path fill="none" stroke="#000000" stroke-width="2" stroke-opacity="0.200000" d="M56.35,-1219.19C62.83,-1232.43 75.66,-1257.75 88.5,-1278.17 102.08,-1299.75 119.83,-1323.32 131.2,-1337.93"/>
<polygon fill="#000000" fill-opacity="0.200000" stroke="#000000" stroke-width="2" stroke-opacity="0.200000" points="129.73,-1339.45 135.08,-1342.88 133.03,-1336.86 129.73,-1339.45"/>
</g>
<!-- src/server/index.ts&#45;&gt;path -->
<g id="edge14" class="edge">
<title>src/server/index.ts&#45;&gt;path</title>
<path fill="none" stroke="#000000" stroke-dasharray="5,2" stroke-opacity="0.200000" d="M52.4,-1219.43C54.04,-1253.11 61.59,-1368.17 88.5,-1390.17 125.24,-1420.21 184.85,-1400.46 217.43,-1385.83"/>
<polygon fill="#000000" fill-opacity="0.200000" stroke="#000000" stroke-opacity="0.200000" points="218.62,-1387.59 223.18,-1383.17 216.86,-1383.78 218.62,-1387.59"/>
</g>
<!-- src/server/index.ts&#45;&gt;src/shared/i18n/index.tsx -->
<g id="edge9" class="edge">
<title>src/server/index.ts&#45;&gt;src/shared/i18n/index.tsx</title>
<path fill="none" stroke="#000000" stroke-width="2" stroke-opacity="0.200000" d="M76.66,-1201.16C78.11,-1199.99 79.41,-1198.66 80.5,-1197.17 98.19,-1172.95 67.77,-1151.84 88.5,-1130.17 135.83,-1080.7 172.04,-1105.17 240.5,-1105.17 240.5,-1105.17 240.5,-1105.17 344.5,-1105.17 390.15,-1105.17 459.15,-1102.64 490.5,-1068.17 548.42,-1004.5 466.78,-942.77 522.5,-877.17 525.8,-873.28 530.16,-870.39 534.85,-868.26"/>
<polygon fill="#000000" fill-opacity="0.200000" stroke="#000000" stroke-width="2" stroke-opacity="0.200000" points="535.63,-870.21 540.46,-866.08 534.11,-866.29 535.63,-870.21"/>
</g>
<!-- src/server/middlewares/addStore.tsx -->
<g id="node13" class="node">
<title>src/server/middlewares/addStore.tsx</title>
<g id="a_node13"><a xlink:href="src/server/middlewares/addStore.tsx" xlink:title="addStore.tsx">
<path fill="#bbfeff" stroke="black" d="M171.5,-1189.17C171.5,-1189.17 115.5,-1189.17 115.5,-1189.17 112.5,-1189.17 109.5,-1186.17 109.5,-1183.17 109.5,-1183.17 109.5,-1177.17 109.5,-1177.17 109.5,-1174.17 112.5,-1171.17 115.5,-1171.17 115.5,-1171.17 171.5,-1171.17 171.5,-1171.17 174.5,-1171.17 177.5,-1174.17 177.5,-1177.17 177.5,-1177.17 177.5,-1183.17 177.5,-1183.17 177.5,-1186.17 174.5,-1189.17 171.5,-1189.17"/>
<text text-anchor="middle" x="143.5" y="-1177.97" font-family="Helvetica,sans-Serif" font-size="9.00">addStore.tsx</text>
</a>
</g>
</g>
<!-- src/server/index.ts&#45;&gt;src/server/middlewares/addStore.tsx -->
<g id="edge10" class="edge">
<title>src/server/index.ts&#45;&gt;src/server/middlewares/addStore.tsx</title>
<path fill="none" stroke="#000000" stroke-width="2" stroke-opacity="0.200000" d="M73.07,-1201.01C78.08,-1198.97 83.45,-1196.9 88.5,-1195.17 93.33,-1193.51 98.45,-1191.9 103.53,-1190.39"/>
<polygon fill="#000000" fill-opacity="0.200000" stroke="#000000" stroke-width="2" stroke-opacity="0.200000" points="104.29,-1192.36 109.47,-1188.67 103.12,-1188.33 104.29,-1192.36"/>
</g>
<!-- src/server/middlewares/handleErrors.ts -->
<g id="node14" class="node">
<title>src/server/middlewares/handleErrors.ts</title>
<g id="a_node14"><a xlink:href="src/server/middlewares/handleErrors.ts" xlink:title="handleErrors.ts">
<path fill="#ddfeff" stroke="black" d="M177,-1249.17C177,-1249.17 110,-1249.17 110,-1249.17 107,-1249.17 104,-1246.17 104,-1243.17 104,-1243.17 104,-1237.17 104,-1237.17 104,-1234.17 107,-1231.17 110,-1231.17 110,-1231.17 177,-1231.17 177,-1231.17 180,-1231.17 183,-1234.17 183,-1237.17 183,-1237.17 183,-1243.17 183,-1243.17 183,-1246.17 180,-1249.17 177,-1249.17"/>
<text text-anchor="middle" x="143.5" y="-1237.97" font-family="Helvetica,sans-Serif" font-size="9.00">handleErrors.ts</text>
</a>
</g>
</g>
<!-- src/server/index.ts&#45;&gt;src/server/middlewares/handleErrors.ts -->
<g id="edge11" class="edge">
<title>src/server/index.ts&#45;&gt;src/server/middlewares/handleErrors.ts</title>
<path fill="none" stroke="#000000" stroke-width="2" stroke-opacity="0.200000" d="M73.07,-1219.32C78.08,-1221.36 83.45,-1223.43 88.5,-1225.17 92.68,-1226.6 97.07,-1228 101.47,-1229.32"/>
<polygon fill="#000000" fill-opacity="0.200000" stroke="#000000" stroke-width="2" stroke-opacity="0.200000" points="101.11,-1231.41 107.46,-1231.09 102.29,-1227.38 101.11,-1231.41"/>
</g>
<!-- src/server/middlewares/i18n.ts -->
<g id="node15" class="node">
<title>src/server/middlewares/i18n.ts</title>
<g id="a_node15"><a xlink:href="src/server/middlewares/i18n.ts" xlink:title="i18n.ts">
<path fill="#ddfeff" stroke="black" d="M164.5,-1219.17C164.5,-1219.17 122.5,-1219.17 122.5,-1219.17 119.5,-1219.17 116.5,-1216.17 116.5,-1213.17 116.5,-1213.17 116.5,-1207.17 116.5,-1207.17 116.5,-1204.17 119.5,-1201.17 122.5,-1201.17 122.5,-1201.17 164.5,-1201.17 164.5,-1201.17 167.5,-1201.17 170.5,-1204.17 170.5,-1207.17 170.5,-1207.17 170.5,-1213.17 170.5,-1213.17 170.5,-1216.17 167.5,-1219.17 164.5,-1219.17"/>
<text text-anchor="middle" x="143.5" y="-1207.97" font-family="Helvetica,sans-Serif" font-size="9.00">i18n.ts</text>
</a>
</g>
</g>
<!-- src/server/index.ts&#45;&gt;src/server/middlewares/i18n.ts -->
<g id="edge12" class="edge">
<title>src/server/index.ts&#45;&gt;src/server/middlewares/i18n.ts</title>
<path fill="none" stroke="#000000" stroke-width="2" stroke-opacity="0.200000" d="M78.18,-1210.17C88.21,-1210.17 99.78,-1210.17 110.32,-1210.17"/>
<polygon fill="#000000" fill-opacity="0.200000" stroke="#000000" stroke-width="2" stroke-opacity="0.200000" points="110.38,-1212.27 116.38,-1210.17 110.38,-1208.07 110.38,-1212.27"/>
</g>
<!-- src/server/middlewares/renderFullPage.tsx -->
<g id="node16" class="node">
<title>src/server/middlewares/renderFullPage.tsx</title>
<g id="a_node16"><a xlink:href="src/server/middlewares/renderFullPage.tsx" xlink:title="renderFullPage.tsx">
<path fill="#bbfeff" stroke="black" d="M184.5,-1159.17C184.5,-1159.17 102.5,-1159.17 102.5,-1159.17 99.5,-1159.17 96.5,-1156.17 96.5,-1153.17 96.5,-1153.17 96.5,-1147.17 96.5,-1147.17 96.5,-1144.17 99.5,-1141.17 102.5,-1141.17 102.5,-1141.17 184.5,-1141.17 184.5,-1141.17 187.5,-1141.17 190.5,-1144.17 190.5,-1147.17 190.5,-1147.17 190.5,-1153.17 190.5,-1153.17 190.5,-1156.17 187.5,-1159.17 184.5,-1159.17"/>
<text text-anchor="middle" x="143.5" y="-1147.97" font-family="Helvetica,sans-Serif" font-size="9.00">renderFullPage.tsx</text>
</a>
</g>
</g>
<!-- src/server/index.ts&#45;&gt;src/server/middlewares/renderFullPage.tsx -->
<g id="edge13" class="edge">
<title>src/server/index.ts&#45;&gt;src/server/middlewares/renderFullPage.tsx</title>
<path fill="none" stroke="#000000" stroke-width="2" stroke-opacity="0.200000" d="M76.46,-1201C77.95,-1199.86 79.32,-1198.59 80.5,-1197.17 89.88,-1185.9 78.27,-1175.67 88.5,-1165.17 89.37,-1164.28 90.28,-1163.44 91.23,-1162.65"/>
<polygon fill="#000000" fill-opacity="0.200000" stroke="#000000" stroke-width="2" stroke-opacity="0.200000" points="92.6,-1164.26 96.31,-1159.1 90.19,-1160.82 92.6,-1164.26"/>
</g>
<!-- src/server/middlewares/addStore.tsx&#45;&gt;src/shared/store/index.ts -->
<g id="edge15" class="edge">
<title>src/server/middlewares/addStore.tsx&#45;&gt;src/shared/store/index.ts</title>
<path fill="none" stroke="#000000" stroke-width="2" stroke-opacity="0.200000" d="M177.51,-1176.88C185.29,-1174.64 192.92,-1171.01 198.5,-1165.17 209.52,-1153.63 194.89,-1141.11 206.5,-1130.17 232.08,-1106.07 260.86,-1143.17 284.5,-1117.17 301.58,-1098.38 276.27,-1022.7 292.5,-1003.17 296.98,-997.78 303.37,-994.47 310.11,-992.47"/>
<polygon fill="#000000" fill-opacity="0.200000" stroke="#000000" stroke-width="2" stroke-opacity="0.200000" points="310.99,-994.42 316.33,-990.98 310.01,-990.33 310.99,-994.42"/>
</g>
<!-- src/server/middlewares/handleErrors.ts&#45;&gt;path -->
<g id="edge16" class="edge">
<title>src/server/middlewares/handleErrors.ts&#45;&gt;path</title>
<path fill="none" stroke="#000000" stroke-dasharray="5,2" stroke-opacity="0.200000" d="M150.8,-1249.18C161.77,-1265.21 184.57,-1300.06 198.5,-1332.17 203.48,-1343.65 198.23,-1349.77 206.5,-1359.17 207.33,-1360.11 208.23,-1361 209.19,-1361.83"/>
<polygon fill="#000000" fill-opacity="0.200000" stroke="#000000" stroke-opacity="0.200000" points="208.27,-1363.76 214.36,-1365.57 210.73,-1360.35 208.27,-1363.76"/>
</g>
<!-- src/server/middlewares/i18n.ts&#45;&gt;fs -->
<g id="edge17" class="edge">
<title>src/server/middlewares/i18n.ts&#45;&gt;fs</title>
<path fill="none" stroke="#000000" stroke-dasharray="5,2" stroke-opacity="0.200000" d="M170.63,-1212.33C180.41,-1214.35 190.96,-1218.13 198.5,-1225.17 228.34,-1253.03 236.99,-1303.39 239.49,-1328.72"/>
<polygon fill="#000000" fill-opacity="0.200000" stroke="#000000" stroke-opacity="0.200000" points="237.41,-1329.08 240.02,-1334.88 241.6,-1328.72 237.41,-1329.08"/>
</g>
<!-- src/server/middlewares/i18n.ts&#45;&gt;path -->
<g id="edge18" class="edge">
<title>src/server/middlewares/i18n.ts&#45;&gt;path</title>
<path fill="none" stroke="#000000" stroke-dasharray="5,2" stroke-opacity="0.200000" d="M170.59,-1211.12C180.86,-1212.9 191.77,-1216.84 198.5,-1225.17 217.25,-1248.37 189.47,-1334.67 206.5,-1359.17 207.4,-1360.47 208.44,-1361.65 209.59,-1362.74"/>
<polygon fill="#000000" fill-opacity="0.200000" stroke="#000000" stroke-opacity="0.200000" points="208.4,-1364.47 214.45,-1366.44 210.95,-1361.13 208.4,-1364.47"/>
</g>
<!-- src/server/middlewares/renderFullPage.tsx&#45;&gt;src/shared/App.tsx -->
<g id="edge19" class="edge">
<title>src/server/middlewares/renderFullPage.tsx&#45;&gt;src/shared/App.tsx</title>
<path fill="none" stroke="#000000" stroke-width="2" stroke-opacity="0.200000" d="M147.8,-1140.94C161.97,-1101.4 217.63,-946.01 235.17,-897.04"/>
<polygon fill="#000000" fill-opacity="0.200000" stroke="#000000" stroke-width="2" stroke-opacity="0.200000" points="237.16,-897.71 237.21,-891.35 233.21,-896.29 237.16,-897.71"/>
</g>
<!-- src/server/middlewares/renderFullPage.tsx&#45;&gt;src/server/components/html.tsx -->
<g id="edge20" class="edge">
<title>src/server/middlewares/renderFullPage.tsx&#45;&gt;src/server/components/html.tsx</title>
<path fill="none" stroke="#000000" stroke-width="2" stroke-opacity="0.200000" d="M190.53,-1150.17C196.54,-1150.17 202.59,-1150.17 208.3,-1150.17"/>
<polygon fill="#000000" fill-opacity="0.200000" stroke="#000000" stroke-width="2" stroke-opacity="0.200000" points="208.35,-1152.27 214.35,-1150.17 208.35,-1148.07 208.35,-1152.27"/>
</g>
<!-- src/shared/pages/404/index.tsx -->
<g id="node28" class="node">
<title>src/shared/pages/404/index.tsx</title>
<g id="a_node28"><a xlink:href="src/shared/pages/404/index.tsx" xlink:title="index.tsx">
<path fill="#bbfeff" stroke="black" d="M467.5,-775.17C467.5,-775.17 425.5,-775.17 425.5,-775.17 422.5,-775.17 419.5,-772.17 419.5,-769.17 419.5,-769.17 419.5,-763.17 419.5,-763.17 419.5,-760.17 422.5,-757.17 425.5,-757.17 425.5,-757.17 467.5,-757.17 467.5,-757.17 470.5,-757.17 473.5,-760.17 473.5,-763.17 473.5,-763.17 473.5,-769.17 473.5,-769.17 473.5,-772.17 470.5,-775.17 467.5,-775.17"/>
<text text-anchor="middle" x="446.5" y="-763.97" font-family="Helvetica,sans-Serif" font-size="9.00">index.tsx</text>
</a>
</g>
</g>
<!-- src/shared/components/sections/Content/index.tsx&#45;&gt;src/shared/pages/404/index.tsx -->
<g id="edge33" class="edge">
<title>src/shared/components/sections/Content/index.tsx&#45;&gt;src/shared/pages/404/index.tsx</title>
<path fill="none" stroke="#000000" stroke-width="2" stroke-opacity="0.200000" d="M367.36,-227.5C368.55,-228.59 369.62,-229.81 370.5,-231.17 432.65,-326.87 328.34,-650.48 393.5,-744.17 398.27,-751.03 405.63,-755.76 413.33,-759.02"/>
<polygon fill="#000000" fill-opacity="0.200000" stroke="#000000" stroke-width="2" stroke-opacity="0.200000" points="412.89,-761.1 419.25,-761.24 414.36,-757.16 412.89,-761.1"/>
</g>
<!-- src/shared/pages/home/index.tsx -->
<g id="node29" class="node">
<title>src/shared/pages/home/index.tsx</title>
<g id="a_node29"><a xlink:href="src/shared/pages/home/index.tsx" xlink:title="index.tsx">
<path fill="#bbfeff" stroke="black" d="M467.5,-715.17C467.5,-715.17 425.5,-715.17 425.5,-715.17 422.5,-715.17 419.5,-712.17 419.5,-709.17 419.5,-709.17 419.5,-703.17 419.5,-703.17 419.5,-700.17 422.5,-697.17 425.5,-697.17 425.5,-697.17 467.5,-697.17 467.5,-697.17 470.5,-697.17 473.5,-700.17 473.5,-703.17 473.5,-703.17 473.5,-709.17 473.5,-709.17 473.5,-712.17 470.5,-715.17 467.5,-715.17"/>
<text text-anchor="middle" x="446.5" y="-703.97" font-family="Helvetica,sans-Serif" font-size="9.00">index.tsx</text>
</a>
</g>
</g>
<!-- src/shared/components/sections/Content/index.tsx&#45;&gt;src/shared/pages/home/index.tsx -->
<g id="edge34" class="edge">
<title>src/shared/components/sections/Content/index.tsx&#45;&gt;src/shared/pages/home/index.tsx</title>
<path fill="none" stroke="#000000" stroke-width="2" stroke-opacity="0.200000" d="M367.35,-227.5C368.55,-228.6 369.62,-229.82 370.5,-231.17 425.65,-315.54 335.7,-601.59 393.5,-684.17 398.29,-691.02 405.66,-695.74 413.36,-699"/>
<polygon fill="#000000" fill-opacity="0.200000" stroke="#000000" stroke-width="2" stroke-opacity="0.200000" points="412.92,-701.08 419.27,-701.22 414.39,-697.15 412.92,-701.08"/>
</g>
<!-- src/shared/pages/page&#45;1/index.tsx -->
<g id="node30" class="node">
<title>src/shared/pages/page&#45;1/index.tsx</title>
<g id="a_node30"><a xlink:href="src/shared/pages/page-1/index.tsx" xlink:title="index.tsx">
<path fill="#bbfeff" stroke="black" d="M467.5,-655.17C467.5,-655.17 425.5,-655.17 425.5,-655.17 422.5,-655.17 419.5,-652.17 419.5,-649.17 419.5,-649.17 419.5,-643.17 419.5,-643.17 419.5,-640.17 422.5,-637.17 425.5,-637.17 425.5,-637.17 467.5,-637.17 467.5,-637.17 470.5,-637.17 473.5,-640.17 473.5,-643.17 473.5,-643.17 473.5,-649.17 473.5,-649.17 473.5,-652.17 470.5,-655.17 467.5,-655.17"/>
<text text-anchor="middle" x="446.5" y="-643.97" font-family="Helvetica,sans-Serif" font-size="9.00">index.tsx</text>
</a>
</g>
</g>
<!-- src/shared/components/sections/Content/index.tsx&#45;&gt;src/shared/pages/page&#45;1/index.tsx -->
<g id="edge35" class="edge">
<title>src/shared/components/sections/Content/index.tsx&#45;&gt;src/shared/pages/page&#45;1/index.tsx</title>
<path fill="none" stroke="#000000" stroke-width="2" stroke-opacity="0.200000" d="M367.34,-227.51C368.54,-228.6 369.61,-229.82 370.5,-231.17 418.65,-304.21 343.06,-552.69 393.5,-624.17 398.32,-631 405.7,-635.72 413.39,-638.98"/>
<polygon fill="#000000" fill-opacity="0.200000" stroke="#000000" stroke-width="2" stroke-opacity="0.200000" points="412.95,-641.05 419.3,-641.19 414.42,-637.12 412.95,-641.05"/>
</g>
<!-- src/shared/pages/page&#45;2/index.tsx -->
<g id="node31" class="node">
<title>src/shared/pages/page&#45;2/index.tsx</title>
<g id="a_node31"><a xlink:href="src/shared/pages/page-2/index.tsx" xlink:title="index.tsx">
<path fill="#bbfeff" stroke="black" d="M467.5,-595.17C467.5,-595.17 425.5,-595.17 425.5,-595.17 422.5,-595.17 419.5,-592.17 419.5,-589.17 419.5,-589.17 419.5,-583.17 419.5,-583.17 419.5,-580.17 422.5,-577.17 425.5,-577.17 425.5,-577.17 467.5,-577.17 467.5,-577.17 470.5,-577.17 473.5,-580.17 473.5,-583.17 473.5,-583.17 473.5,-589.17 473.5,-589.17 473.5,-592.17 470.5,-595.17 467.5,-595.17"/>
<text text-anchor="middle" x="446.5" y="-583.97" font-family="Helvetica,sans-Serif" font-size="9.00">index.tsx</text>
</a>
</g>
</g>
<!-- src/shared/components/sections/Content/index.tsx&#45;&gt;src/shared/pages/page&#45;2/index.tsx -->
<g id="edge36" class="edge">
<title>src/shared/components/sections/Content/index.tsx&#45;&gt;src/shared/pages/page&#45;2/index.tsx</title>
<path fill="none" stroke="#000000" stroke-width="2" stroke-opacity="0.200000" d="M367.33,-227.52C368.53,-228.61 369.6,-229.82 370.5,-231.17 411.65,-292.88 350.42,-503.79 393.5,-564.17 398.35,-570.97 405.74,-575.68 413.44,-578.94"/>
<polygon fill="#000000" fill-opacity="0.200000" stroke="#000000" stroke-width="2" stroke-opacity="0.200000" points="413,-581.02 419.35,-581.16 414.47,-577.09 413,-581.02"/>
</g>
<!-- src/shared/pages/page&#45;3/index.tsx -->
<g id="node32" class="node">
<title>src/shared/pages/page&#45;3/index.tsx</title>
<g id="a_node32"><a xlink:href="src/shared/pages/page-3/index.tsx" xlink:title="index.tsx">
<path fill="#bbfeff" stroke="black" d="M467.5,-535.17C467.5,-535.17 425.5,-535.17 425.5,-535.17 422.5,-535.17 419.5,-532.17 419.5,-529.17 419.5,-529.17 419.5,-523.17 419.5,-523.17 419.5,-520.17 422.5,-517.17 425.5,-517.17 425.5,-517.17 467.5,-517.17 467.5,-517.17 470.5,-517.17 473.5,-520.17 473.5,-523.17 473.5,-523.17 473.5,-529.17 473.5,-529.17 473.5,-532.17 470.5,-535.17 467.5,-535.17"/>
<text text-anchor="middle" x="446.5" y="-523.97" font-family="Helvetica,sans-Serif" font-size="9.00">index.tsx</text>
</a>
</g>
</g>
<!-- src/shared/components/sections/Content/index.tsx&#45;&gt;src/shared/pages/page&#45;3/index.tsx -->
<g id="edge37" class="edge">
<title>src/shared/components/sections/Content/index.tsx&#45;&gt;src/shared/pages/page&#45;3/index.tsx</title>
<path fill="none" stroke="#000000" stroke-width="2" stroke-opacity="0.200000" d="M367.27,-227.56C368.48,-228.64 369.58,-229.84 370.5,-231.17 397.67,-270.26 377.79,-399.23 393.5,-444.17 402.6,-470.19 421.29,-496.42 433.61,-511.98"/>
<polygon fill="#000000" fill-opacity="0.200000" stroke="#000000" stroke-width="2" stroke-opacity="0.200000" points="432.12,-513.48 437.52,-516.83 435.39,-510.84 432.12,-513.48"/>
</g>
<!-- src/shared/routes.ts -->
<g id="node33" class="node">
<title>src/shared/routes.ts</title>
<g id="a_node33"><a xlink:href="src/shared/routes.ts" xlink:title="routes.ts">
<path fill="#ddfeff" stroke="black" d="M467.5,-57.17C467.5,-57.17 425.5,-57.17 425.5,-57.17 422.5,-57.17 419.5,-54.17 419.5,-51.17 419.5,-51.17 419.5,-45.17 419.5,-45.17 419.5,-42.17 422.5,-39.17 425.5,-39.17 425.5,-39.17 467.5,-39.17 467.5,-39.17 470.5,-39.17 473.5,-42.17 473.5,-45.17 473.5,-45.17 473.5,-51.17 473.5,-51.17 473.5,-54.17 470.5,-57.17 467.5,-57.17"/>
<text text-anchor="middle" x="446.5" y="-45.97" font-family="Helvetica,sans-Serif" font-size="9.00">routes.ts</text>
</a>
</g>
</g>
<!-- src/shared/components/sections/Content/index.tsx&#45;&gt;src/shared/routes.ts -->
<g id="edge38" class="edge">
<title>src/shared/components/sections/Content/index.tsx&#45;&gt;src/shared/routes.ts</title>
<path fill="none" stroke="#000000" stroke-width="2" stroke-opacity="0.200000" d="M358.64,-209.08C363.07,-205.56 367.57,-201.17 370.5,-196.17 397.54,-150.08 362.45,-121.65 393.5,-78.17 398.91,-70.59 406.88,-64.64 414.97,-60.12"/>
<polygon fill="#000000" fill-opacity="0.200000" stroke="#000000" stroke-width="2" stroke-opacity="0.200000" points="416.2,-61.84 420.55,-57.21 414.26,-58.12 416.2,-61.84"/>
</g>
<!-- src/shared/components/sections/Content/style.scss -->
<g id="node34" class="node">
<title>src/shared/components/sections/Content/style.scss</title>
<g id="a_node34"><a xlink:href="src/shared/components/sections/Content/style.scss" xlink:title="style.scss">
<path fill="#ffffcc" stroke="black" d="M468.5,-227.17C468.5,-227.17 424.5,-227.17 424.5,-227.17 421.5,-227.17 418.5,-224.17 418.5,-221.17 418.5,-221.17 418.5,-215.17 418.5,-215.17 418.5,-212.17 421.5,-209.17 424.5,-209.17 424.5,-209.17 468.5,-209.17 468.5,-209.17 471.5,-209.17 474.5,-212.17 474.5,-215.17 474.5,-215.17 474.5,-221.17 474.5,-221.17 474.5,-224.17 471.5,-227.17 468.5,-227.17"/>
<text text-anchor="middle" x="446.5" y="-215.97" font-family="Helvetica,sans-Serif" font-size="9.00">style.scss</text>
</a>
</g>
</g>
<!-- src/shared/components/sections/Content/index.tsx&#45;&gt;src/shared/components/sections/Content/style.scss -->
<g id="edge39" class="edge">
<title>src/shared/components/sections/Content/index.tsx&#45;&gt;src/shared/components/sections/Content/style.scss</title>
<path fill="none" stroke="#000000" stroke-width="2" stroke-opacity="0.200000" d="M370.51,-218.17C383.18,-218.17 398.57,-218.17 412.1,-218.17"/>
<polygon fill="#000000" fill-opacity="0.200000" stroke="#000000" stroke-width="2" stroke-opacity="0.200000" points="412.17,-220.27 418.17,-218.17 412.17,-216.07 412.17,-220.27"/>
</g>
<!-- src/shared/components/sections/Footer/style.scss -->
<g id="node35" class="node">
<title>src/shared/components/sections/Footer/style.scss</title>
<g id="a_node35"><a xlink:href="src/shared/components/sections/Footer/style.scss" xlink:title="style.scss">
<path fill="#ffffcc" stroke="black" d="M468.5,-167.17C468.5,-167.17 424.5,-167.17 424.5,-167.17 421.5,-167.17 418.5,-164.17 418.5,-161.17 418.5,-161.17 418.5,-155.17 418.5,-155.17 418.5,-152.17 421.5,-149.17 424.5,-149.17 424.5,-149.17 468.5,-149.17 468.5,-149.17 471.5,-149.17 474.5,-152.17 474.5,-155.17 474.5,-155.17 474.5,-161.17 474.5,-161.17 474.5,-164.17 471.5,-167.17 468.5,-167.17"/>
<text text-anchor="middle" x="446.5" y="-155.97" font-family="Helvetica,sans-Serif" font-size="9.00">style.scss</text>
</a>
</g>
</g>
<!-- src/shared/components/sections/Footer/index.tsx&#45;&gt;src/shared/components/sections/Footer/style.scss -->
<g id="edge40" class="edge">
<title>src/shared/components/sections/Footer/index.tsx&#45;&gt;src/shared/components/sections/Footer/style.scss</title>
<path fill="none" stroke="#000000" stroke-width="2" stroke-opacity="0.200000" d="M370.51,-158.17C383.18,-158.17 398.57,-158.17 412.1,-158.17"/>
<polygon fill="#000000" fill-opacity="0.200000" stroke="#000000" stroke-width="2" stroke-opacity="0.200000" points="412.17,-160.27 418.17,-158.17 412.17,-156.07 412.17,-160.27"/>
</g>
<!-- src/shared/assets/react.svg -->
<g id="node23" class="node">
<title>src/shared/assets/react.svg</title>
<g id="a_node23"><a xlink:href="src/shared/assets/react.svg" xlink:title="react.svg">
<path fill="#ffffcc" stroke="black" d="M467.5,-861.17C467.5,-861.17 425.5,-861.17 425.5,-861.17 422.5,-861.17 419.5,-858.17 419.5,-855.17 419.5,-855.17 419.5,-849.17 419.5,-849.17 419.5,-846.17 422.5,-843.17 425.5,-843.17 425.5,-843.17 467.5,-843.17 467.5,-843.17 470.5,-843.17 473.5,-846.17 473.5,-849.17 473.5,-849.17 473.5,-855.17 473.5,-855.17 473.5,-858.17 470.5,-861.17 467.5,-861.17"/>
<text text-anchor="middle" x="446.5" y="-849.97" font-family="Helvetica,sans-Serif" font-size="9.00">react.svg</text>
</a>
</g>
</g>
<!-- src/shared/components/sections/Header/index.tsx&#45;&gt;src/shared/assets/react.svg -->
<g id="edge41" class="edge">
<title>src/shared/components/sections/Header/index.tsx&#45;&gt;src/shared/assets/react.svg</title>
<path fill="none" stroke="#000000" stroke-width="2" stroke-opacity="0.200000" d="M352.51,-107.28C358.7,-114.93 366.81,-126.48 370.5,-138.17 392.77,-208.78 362.64,-736.86 393.5,-804.17 400.16,-818.69 413.48,-830.85 424.97,-839.3"/>
<polygon fill="#000000" fill-opacity="0.200000" stroke="#000000" stroke-width="2" stroke-opacity="0.200000" points="423.98,-841.17 430.09,-842.91 426.4,-837.73 423.98,-841.17"/>
</g>
<!-- src/shared/components/organisms/LocaleSelect/index.tsx -->
<g id="node27" class="node">
<title>src/shared/components/organisms/LocaleSelect/index.tsx</title>
<g id="a_node27"><a xlink:href="src/shared/components/organisms/LocaleSelect/index.tsx" xlink:title="index.tsx">
<path fill="#bbfeff" stroke="black" d="M467.5,-415.17C467.5,-415.17 425.5,-415.17 425.5,-415.17 422.5,-415.17 419.5,-412.17 419.5,-409.17 419.5,-409.17 419.5,-403.17 419.5,-403.17 419.5,-400.17 422.5,-397.17 425.5,-397.17 425.5,-397.17 467.5,-397.17 467.5,-397.17 470.5,-397.17 473.5,-400.17 473.5,-403.17 473.5,-403.17 473.5,-409.17 473.5,-409.17 473.5,-412.17 470.5,-415.17 467.5,-415.17"/>
<text text-anchor="middle" x="446.5" y="-403.97" font-family="Helvetica,sans-Serif" font-size="9.00">index.tsx</text>
</a>
</g>
</g>
<!-- src/shared/components/sections/Header/index.tsx&#45;&gt;src/shared/components/organisms/LocaleSelect/index.tsx -->
<g id="edge43" class="edge">
<title>src/shared/components/sections/Header/index.tsx&#45;&gt;src/shared/components/organisms/LocaleSelect/index.tsx</title>
<path fill="none" stroke="#000000" stroke-width="2" stroke-opacity="0.200000" d="M352.28,-107.35C358.34,-115.06 366.39,-126.62 370.5,-138.17 402.3,-227.45 354.14,-263.95 393.5,-350.17 401.31,-367.28 416.41,-382.61 428.34,-392.88"/>
<polygon fill="#000000" fill-opacity="0.200000" stroke="#000000" stroke-width="2" stroke-opacity="0.200000" points="427.28,-394.73 433.23,-396.97 429.97,-391.51 427.28,-394.73"/>
</g>
<!-- src/shared/components/sections/Header/index.tsx&#45;&gt;src/shared/routes.ts -->
<g id="edge42" class="edge">
<title>src/shared/components/sections/Header/index.tsx&#45;&gt;src/shared/routes.ts</title>
<path fill="none" stroke="#000000" stroke-width="2" stroke-opacity="0.200000" d="M363.02,-89C379.4,-80.89 403.39,-69.02 421.28,-60.16"/>
<polygon fill="#000000" fill-opacity="0.200000" stroke="#000000" stroke-width="2" stroke-opacity="0.200000" points="422.65,-61.82 427.09,-57.28 420.78,-58.06 422.65,-61.82"/>
</g>
<!-- src/shared/components/sections/Header/style.scss -->
<g id="node36" class="node">
<title>src/shared/components/sections/Header/style.scss</title>
<g id="a_node36"><a xlink:href="src/shared/components/sections/Header/style.scss" xlink:title="style.scss">
<path fill="#ffffcc" stroke="black" d="M468.5,-107.17C468.5,-107.17 424.5,-107.17 424.5,-107.17 421.5,-107.17 418.5,-104.17 418.5,-101.17 418.5,-101.17 418.5,-95.17 418.5,-95.17 418.5,-92.17 421.5,-89.17 424.5,-89.17 424.5,-89.17 468.5,-89.17 468.5,-89.17 471.5,-89.17 474.5,-92.17 474.5,-95.17 474.5,-95.17 474.5,-101.17 474.5,-101.17 474.5,-104.17 471.5,-107.17 468.5,-107.17"/>
<text text-anchor="middle" x="446.5" y="-95.97" font-family="Helvetica,sans-Serif" font-size="9.00">style.scss</text>
</a>
</g>
</g>
<!-- src/shared/components/sections/Header/index.tsx&#45;&gt;src/shared/components/sections/Header/style.scss -->
<g id="edge44" class="edge">
<title>src/shared/components/sections/Header/index.tsx&#45;&gt;src/shared/components/sections/Header/style.scss</title>
<path fill="none" stroke="#000000" stroke-width="2" stroke-opacity="0.200000" d="M370.51,-98.17C383.18,-98.17 398.57,-98.17 412.1,-98.17"/>
<polygon fill="#000000" fill-opacity="0.200000" stroke="#000000" stroke-width="2" stroke-opacity="0.200000" points="412.17,-100.27 418.17,-98.17 412.17,-96.07 412.17,-100.27"/>
</g>
<!-- src/shared/i18n/withLocale.tsx&#45;&gt;src/shared/i18n/config.ts -->
<g id="edge50" class="edge">
<title>src/shared/i18n/withLocale.tsx&#45;&gt;src/shared/i18n/config.ts</title>
<path fill="none" stroke="#000000" stroke-width="2" stroke-opacity="0.200000" d="M604.76,-892.17C608.21,-892.17 611.69,-892.17 615.1,-892.17"/>
<polygon fill="#000000" fill-opacity="0.200000" stroke="#000000" stroke-width="2" stroke-opacity="0.200000" points="615.13,-894.27 621.13,-892.17 615.13,-890.07 615.13,-894.27"/>
</g>
<!-- src/shared/i18n/withLocale.tsx&#45;&gt;src/shared/store/app/types.ts -->
<g id="edge49" class="edge">
<title>src/shared/i18n/withLocale.tsx&#45;&gt;src/shared/store/app/types.ts</title>
<path fill="none" stroke="#000000" stroke-width="2" stroke-opacity="0.200000" d="M592.85,-883.16C600.61,-880.71 609.32,-878.39 617.5,-877.17 653.98,-871.71 669.87,-856.61 700.5,-877.17 723.15,-892.37 730.72,-925.64 733.25,-945.12"/>
<polygon fill="#000000" fill-opacity="0.200000" stroke="#000000" stroke-width="2" stroke-opacity="0.200000" points="731.17,-945.43 733.92,-951.16 735.34,-944.96 731.17,-945.43"/>
</g>
<!-- src/shared/store/app/actions.ts -->
<g id="node37" class="node">
<title>src/shared/store/app/actions.ts</title>
<g id="a_node37"><a xlink:href="src/shared/store/app/actions.ts" xlink:title="actions.ts">
<path fill="#ddfeff" stroke="black" d="M670,-999.17C670,-999.17 627,-999.17 627,-999.17 624,-999.17 621,-996.17 621,-993.17 621,-993.17 621,-987.17 621,-987.17 621,-984.17 624,-981.17 627,-981.17 627,-981.17 670,-981.17 670,-981.17 673,-981.17 676,-984.17 676,-987.17 676,-987.17 676,-993.17 676,-993.17 676,-996.17 673,-999.17 670,-999.17"/>
<text text-anchor="middle" x="648.5" y="-987.97" font-family="Helvetica,sans-Serif" font-size="9.00">actions.ts</text>
</a>
</g>
</g>
<!-- src/shared/i18n/withLocale.tsx&#45;&gt;src/shared/store/app/actions.ts -->
<g id="edge47" class="edge">
<title>src/shared/i18n/withLocale.tsx&#45;&gt;src/shared/store/app/actions.ts</title>
<path fill="none" stroke="#000000" stroke-width="2" stroke-opacity="0.200000" d="M576.52,-901.18C584.45,-910.45 596.52,-925.54 604.5,-940.17 612.45,-954.73 606.42,-962.82 617.5,-975.17 618.13,-975.87 618.8,-976.55 619.51,-977.19"/>
<polygon fill="#000000" fill-opacity="0.200000" stroke="#000000" stroke-width="2" stroke-opacity="0.200000" points="618.52,-979.08 624.56,-981.07 621.08,-975.75 618.52,-979.08"/>
</g>
<!-- src/shared/store/app/selectors.ts -->
<g id="node38" class="node">
<title>src/shared/store/app/selectors.ts</title>
<g id="a_node38"><a xlink:href="src/shared/store/app/selectors.ts" xlink:title="selectors.ts">
<path fill="#ddfeff" stroke="black" d="M673.5,-969.17C673.5,-969.17 623.5,-969.17 623.5,-969.17 620.5,-969.17 617.5,-966.17 617.5,-963.17 617.5,-963.17 617.5,-957.17 617.5,-957.17 617.5,-954.17 620.5,-951.17 623.5,-951.17 623.5,-951.17 673.5,-951.17 673.5,-951.17 676.5,-951.17 679.5,-954.17 679.5,-957.17 679.5,-957.17 679.5,-963.17 679.5,-963.17 679.5,-966.17 676.5,-969.17 673.5,-969.17"/>
<text text-anchor="middle" x="648.5" y="-957.97" font-family="Helvetica,sans-Serif" font-size="9.00">selectors.ts</text>
</a>
</g>
</g>
<!-- src/shared/i18n/withLocale.tsx&#45;&gt;src/shared/store/app/selectors.ts -->
<g id="edge48" class="edge">
<title>src/shared/i18n/withLocale.tsx&#45;&gt;src/shared/store/app/selectors.ts</title>
<path fill="none" stroke="#000000" stroke-width="2" stroke-opacity="0.200000" d="M579.15,-901.34C592.89,-913.17 616.87,-933.81 632.47,-947.23"/>
<polygon fill="#000000" fill-opacity="0.200000" stroke="#000000" stroke-width="2" stroke-opacity="0.200000" points="631.1,-948.82 637.01,-951.14 633.84,-945.64 631.1,-948.82"/>
</g>
<!-- src/shared/components/molecules/Menu/doc.stories.tsx -->
<g id="node24" class="node">
<title>src/shared/components/molecules/Menu/doc.stories.tsx</title>
<g id="a_node24"><a xlink:href="src/shared/components/molecules/Menu/doc.stories.tsx" xlink:title="doc.stories.tsx">
<path fill="#bbfeff" stroke="black" d="M477.5,-321.17C477.5,-321.17 415.5,-321.17 415.5,-321.17 412.5,-321.17 409.5,-318.17 409.5,-315.17 409.5,-315.17 409.5,-309.17 409.5,-309.17 409.5,-306.17 412.5,-303.17 415.5,-303.17 415.5,-303.17 477.5,-303.17 477.5,-303.17 480.5,-303.17 483.5,-306.17 483.5,-309.17 483.5,-309.17 483.5,-315.17 483.5,-315.17 483.5,-318.17 480.5,-321.17 477.5,-321.17"/>
<text text-anchor="middle" x="446.5" y="-309.97" font-family="Helvetica,sans-Serif" font-size="9.00">doc.stories.tsx</text>
</a>
</g>
</g>
<!-- src/shared/components/molecules/Menu/index.tsx -->
<g id="node25" class="node">
<title>src/shared/components/molecules/Menu/index.tsx</title>
<g id="a_node25"><a xlink:href="src/shared/components/molecules/Menu/index.tsx" xlink:title="index.tsx">
<path fill="#bbfeff" stroke="black" d="M588.5,-321.17C588.5,-321.17 546.5,-321.17 546.5,-321.17 543.5,-321.17 540.5,-318.17 540.5,-315.17 540.5,-315.17 540.5,-309.17 540.5,-309.17 540.5,-306.17 543.5,-303.17 546.5,-303.17 546.5,-303.17 588.5,-303.17 588.5,-303.17 591.5,-303.17 594.5,-306.17 594.5,-309.17 594.5,-309.17 594.5,-315.17 594.5,-315.17 594.5,-318.17 591.5,-321.17 588.5,-321.17"/>
<text text-anchor="middle" x="567.5" y="-309.97" font-family="Helvetica,sans-Serif" font-size="9.00">index.tsx</text>
</a>
</g>
</g>
<!-- src/shared/components/molecules/Menu/doc.stories.tsx&#45;&gt;src/shared/components/molecules/Menu/index.tsx -->
<g id="edge27" class="edge">
<title>src/shared/components/molecules/Menu/doc.stories.tsx&#45;&gt;src/shared/components/molecules/Menu/index.tsx</title>
<path fill="none" stroke="#000000" stroke-width="2" stroke-opacity="0.200000" d="M483.53,-312.17C499.71,-312.17 518.66,-312.17 534.35,-312.17"/>
<polygon fill="#000000" fill-opacity="0.200000" stroke="#000000" stroke-width="2" stroke-opacity="0.200000" points="534.42,-314.27 540.42,-312.17 534.42,-310.07 534.42,-314.27"/>
</g>
<!-- src/shared/components/molecules/Menu/style.scss -->
<g id="node26" class="node">
<title>src/shared/components/molecules/Menu/style.scss</title>
<g id="a_node26"><a xlink:href="src/shared/components/molecules/Menu/style.scss" xlink:title="style.scss">
<path fill="#ffffcc" stroke="black" d="M670.5,-321.17C670.5,-321.17 626.5,-321.17 626.5,-321.17 623.5,-321.17 620.5,-318.17 620.5,-315.17 620.5,-315.17 620.5,-309.17 620.5,-309.17 620.5,-306.17 623.5,-303.17 626.5,-303.17 626.5,-303.17 670.5,-303.17 670.5,-303.17 673.5,-303.17 676.5,-306.17 676.5,-309.17 676.5,-309.17 676.5,-315.17 676.5,-315.17 676.5,-318.17 673.5,-321.17 670.5,-321.17"/>
<text text-anchor="middle" x="648.5" y="-309.97" font-family="Helvetica,sans-Serif" font-size="9.00">style.scss</text>
</a>
</g>
</g>
<!-- src/shared/components/molecules/Menu/index.tsx&#45;&gt;src/shared/components/molecules/Menu/style.scss -->
<g id="edge28" class="edge">
<title>src/shared/components/molecules/Menu/index.tsx&#45;&gt;src/shared/components/molecules/Menu/style.scss</title>
<path fill="none" stroke="#000000" stroke-width="2" stroke-opacity="0.200000" d="M594.81,-312.17C601,-312.17 607.68,-312.17 614.14,-312.17"/>
<polygon fill="#000000" fill-opacity="0.200000" stroke="#000000" stroke-width="2" stroke-opacity="0.200000" points="614.5,-314.27 620.5,-312.17 614.5,-310.07 614.5,-314.27"/>
</g>
<!-- src/shared/components/organisms/LocaleSelect/index.tsx&#45;&gt;src/shared/i18n/index.tsx -->
<g id="edge29" class="edge">
<title>src/shared/components/organisms/LocaleSelect/index.tsx&#45;&gt;src/shared/i18n/index.tsx</title>
<path fill="none" stroke="#000000" stroke-width="2" stroke-opacity="0.200000" d="M452.4,-415.24C461.45,-432.44 480.78,-471.21 490.5,-506.17 518.51,-606.87 497.65,-637.64 522.5,-739.17 532.35,-779.41 550.55,-824.85 560.16,-847.58"/>
<polygon fill="#000000" fill-opacity="0.200000" stroke="#000000" stroke-width="2" stroke-opacity="0.200000" points="558.24,-848.42 562.52,-853.11 562.1,-846.77 558.24,-848.42"/>
</g>
<!-- src/shared/components/organisms/LocaleSelect/index.tsx&#45;&gt;src/shared/i18n/config.ts -->
<g id="edge30" class="edge">
<title>src/shared/components/organisms/LocaleSelect/index.tsx&#45;&gt;src/shared/i18n/config.ts</title>
<path fill="none" stroke="#000000" stroke-width="2" stroke-opacity="0.200000" d="M451.47,-415.24C459.13,-432.77 476.42,-472.52 490.5,-506.17 550.86,-650.47 621.25,-826.36 641.68,-877.55"/>
<polygon fill="#000000" fill-opacity="0.200000" stroke="#000000" stroke-width="2" stroke-opacity="0.200000" points="639.74,-878.37 643.91,-883.16 643.64,-876.81 639.74,-878.37"/>
</g>
<!-- src/shared/components/organisms/LocaleSelect/index.tsx&#45;&gt;src/shared/store/app/types.ts -->
<g id="edge31" class="edge">
<title>src/shared/components/organisms/LocaleSelect/index.tsx&#45;&gt;src/shared/store/app/types.ts</title>
<path fill="none" stroke="#000000" stroke-width="2" stroke-opacity="0.200000" d="M457.7,-415.46C484.95,-440.75 560.34,-513.93 604.5,-588.17 679.96,-715.04 720.57,-892.31 731.47,-944.9"/>
<polygon fill="#000000" fill-opacity="0.200000" stroke="#000000" stroke-width="2" stroke-opacity="0.200000" points="729.45,-945.49 732.7,-950.94 733.56,-944.65 729.45,-945.49"/>
</g>
<!-- src/shared/components/organisms/LocaleSelect/index.tsx&#45;&gt;src/shared/components/molecules/Menu/index.tsx -->
<g id="edge32" class="edge">
<title>src/shared/components/organisms/LocaleSelect/index.tsx&#45;&gt;src/shared/components/molecules/Menu/index.tsx</title>
<path fill="none" stroke="#000000" stroke-width="2" stroke-opacity="0.200000" d="M458.91,-397.15C480.09,-380.42 525.56,-344.51 550.06,-325.16"/>
<polygon fill="#000000" fill-opacity="0.200000" stroke="#000000" stroke-width="2" stroke-opacity="0.200000" points="551.54,-326.66 554.95,-321.29 548.94,-323.36 551.54,-326.66"/>
</g>
<!-- src/shared/store/app/actions.ts&#45;&gt;src/shared/store/app/types.ts -->
<g id="edge51" class="edge">
<title>src/shared/store/app/actions.ts&#45;&gt;src/shared/store/app/types.ts</title>
<path fill="none" stroke="#000000" stroke-width="2" stroke-opacity="0.200000" d="M676.18,-983.03C684.08,-980.72 692.7,-978.02 700.5,-975.17 703.38,-974.11 706.36,-972.94 709.3,-971.71"/>
<polygon fill="#000000" fill-opacity="0.200000" stroke="#000000" stroke-width="2" stroke-opacity="0.200000" points="710.56,-973.46 715.26,-969.17 708.92,-969.6 710.56,-973.46"/>
</g>
<!-- src/shared/store/app/selectors.ts&#45;&gt;src/shared/store/app/types.ts -->
<g id="edge55" class="edge">
<title>src/shared/store/app/selectors.ts&#45;&gt;src/shared/store/app/types.ts</title>
<path fill="none" stroke="#000000" stroke-width="2" stroke-opacity="0.200000" d="M679.71,-960.17C687.01,-960.17 694.85,-960.17 702.25,-960.17"/>
<polygon fill="#000000" fill-opacity="0.200000" stroke="#000000" stroke-width="2" stroke-opacity="0.200000" points="702.34,-962.27 708.34,-960.17 702.34,-958.07 702.34,-962.27"/>
</g>
<!-- src/shared/store/app/reducers.ts -->
<g id="node39" class="node">
<title>src/shared/store/app/reducers.ts</title>
<g id="a_node39"><a xlink:href="src/shared/store/app/reducers.ts" xlink:title="reducers.ts">
<path fill="#ddfeff" stroke="black" d="M592.5,-999.17C592.5,-999.17 542.5,-999.17 542.5,-999.17 539.5,-999.17 536.5,-996.17 536.5,-993.17 536.5,-993.17 536.5,-987.17 536.5,-987.17 536.5,-984.17 539.5,-981.17 542.5,-981.17 542.5,-981.17 592.5,-981.17 592.5,-981.17 595.5,-981.17 598.5,-984.17 598.5,-987.17 598.5,-987.17 598.5,-993.17 598.5,-993.17 598.5,-996.17 595.5,-999.17 592.5,-999.17"/>
<text text-anchor="middle" x="567.5" y="-987.97" font-family="Helvetica,sans-Serif" font-size="9.00">reducers.ts</text>
</a>
</g>
</g>
<!-- src/shared/store/app/reducers.ts&#45;&gt;src/shared/i18n/config.ts -->
<g id="edge52" class="edge">
<title>src/shared/store/app/reducers.ts&#45;&gt;src/shared/i18n/config.ts</title>
<path fill="none" stroke="#000000" stroke-width="2" stroke-opacity="0.200000" d="M575.79,-981.12C589.66,-963.91 619.94,-926.35 636.37,-905.98"/>
<polygon fill="#000000" fill-opacity="0.200000" stroke="#000000" stroke-width="2" stroke-opacity="0.200000" points="638.1,-907.18 640.23,-901.19 634.83,-904.54 638.1,-907.18"/>
</g>
<!-- src/shared/store/app/reducers.ts&#45;&gt;src/shared/store/app/types.ts -->
<g id="edge54" class="edge">
<title>src/shared/store/app/reducers.ts&#45;&gt;src/shared/store/app/types.ts</title>
<path fill="none" stroke="#000000" stroke-width="2" stroke-opacity="0.200000" d="M589.4,-999.3C616.5,-1009.69 664.57,-1023.05 700.5,-1005.17 713.07,-998.91 722.23,-985.54 727.85,-974.99"/>
<polygon fill="#000000" fill-opacity="0.200000" stroke="#000000" stroke-width="2" stroke-opacity="0.200000" points="729.8,-975.78 730.61,-969.48 726.05,-973.9 729.8,-975.78"/>
</g>
<!-- src/shared/store/app/reducers.ts&#45;&gt;src/shared/store/app/actions.ts -->
<g id="edge53" class="edge">
<title>src/shared/store/app/reducers.ts&#45;&gt;src/shared/store/app/actions.ts</title>
<path fill="none" stroke="#000000" stroke-width="2" stroke-opacity="0.200000" d="M598.82,-990.17C604.01,-990.17 609.42,-990.17 614.68,-990.17"/>
<polygon fill="#000000" fill-opacity="0.200000" stroke="#000000" stroke-width="2" stroke-opacity="0.200000" points="614.75,-992.27 620.75,-990.17 614.75,-988.07 614.75,-992.27"/>
</g>
<!-- src/shared/store/rootReducer.ts&#45;&gt;src/shared/store/app/reducers.ts -->
<g id="edge57" class="edge">
<title>src/shared/store/rootReducer.ts&#45;&gt;src/shared/store/app/reducers.ts</title>
<path fill="none" stroke="#000000" stroke-width="2" stroke-opacity="0.200000" d="M485.15,-990.17C499.44,-990.17 515.68,-990.17 529.88,-990.17"/>
<polygon fill="#000000" fill-opacity="0.200000" stroke="#000000" stroke-width="2" stroke-opacity="0.200000" points="530.24,-992.27 536.24,-990.17 530.24,-988.07 530.24,-992.27"/>
</g>
</g>
</svg>
